<?xml version="1.0" encoding="UTF-8" standalone="no"?>
<!-- Created with Inkscape (http://www.inkscape.org/) -->

<svg
   xmlns:dc="http://purl.org/dc/elements/1.1/"
   xmlns:cc="http://creativecommons.org/ns#"
   xmlns:rdf="http://www.w3.org/1999/02/22-rdf-syntax-ns#"
   xmlns:svg="http://www.w3.org/2000/svg"
   xmlns="http://www.w3.org/2000/svg"
   xmlns:sodipodi="http://sodipodi.sourceforge.net/DTD/sodipodi-0.dtd"
   xmlns:inkscape="http://www.inkscape.org/namespaces/inkscape"
   width="68.046158mm"
   height="68.345482mm"
   viewBox="0 0 68.046158 68.345482"
   version="1.1"
   id="svg1132"
   inkscape:version="0.92.3 (2405546, 2018-03-11)"
   sodipodi:docname="polyhedra.svg">
  <defs
     id="defs1126">
    <marker
       inkscape:stockid="Arrow1Mend"
       orient="auto"
       refY="0"
       refX="0"
       id="Arrow1Mend"
       style="overflow:visible"
       inkscape:isstock="true">
      <path
         id="path953"
         d="M 0,0 5,-5 -12.5,0 5,5 Z"
         style="fill:#ef2929;fill-opacity:1;fill-rule:evenodd;stroke:#ef2929;stroke-width:1.00000003pt;stroke-opacity:1"
         transform="matrix(-0.4,0,0,-0.4,-4,0)"
         inkscape:connector-curvature="0" />
    </marker>
    <marker
       inkscape:stockid="Arrow2Mstart"
       orient="auto"
       refY="0"
       refX="0"
       id="Arrow2Mstart"
       style="overflow:visible"
       inkscape:isstock="true">
      <path
         id="path968"
         style="fill:#ef2929;fill-opacity:1;fill-rule:evenodd;stroke:#ef2929;stroke-width:0.625;stroke-linejoin:round;stroke-opacity:1"
         d="M 8.7185878,4.0337352 -2.2072895,0.01601326 8.7185884,-4.0017078 c -1.7454984,2.3720609 -1.7354408,5.6174519 -6e-7,8.035443 z"
         transform="scale(0.6)"
         inkscape:connector-curvature="0" />
    </marker>
    <inkscape:path-effect
       effect="rough_hatches"
       id="path-effect894"
       is_visible="true"
       direction="33.899963,136.98228 , 1.213681,-0.75595238"
       dist_rdm="75;1"
       growth="0"
       do_bend="true"
       bender="33.899963,141.98228 , 5,0"
       bottom_edge_variation="2.299758;1"
       top_edge_variation="2.299758;1"
       bottom_tgt_variation="0;1"
       top_tgt_variation="0;1"
       scale_bf="1"
       scale_bb="1"
       scale_tf="1"
       scale_tb="1"
       top_smth_variation="0;1"
       bottom_smth_variation="0;1"
       fat_output="true"
       stroke_width_top="1"
       stroke_width_bottom="1"
       front_thickness="1"
       back_thickness="0.25" />
    <inkscape:path-effect
       effect="rough_hatches"
       id="path-effect890"
       is_visible="true"
       direction="44.389454,121.71665 , 1.4730833,1.5033911"
       dist_rdm="75;1"
       growth="0"
       do_bend="true"
       bender="44.389454,126.71665 , 1.0577744,0.066817379"
       bottom_edge_variation="0.753368;1"
       top_edge_variation="0.753368;1"
       bottom_tgt_variation="0;1"
       top_tgt_variation="0;1"
       scale_bf="1"
       scale_bb="1"
       scale_tf="1"
       scale_tb="1"
       top_smth_variation="0;1"
       bottom_smth_variation="0;1"
       fat_output="true"
       stroke_width_top="1"
       stroke_width_bottom="1"
       front_thickness="1"
       back_thickness="0.25" />
    <inkscape:path-effect
       effect="rough_hatches"
       id="path-effect858"
       is_visible="true"
       direction="16.147127,121.71665 , 1.9461729,1.4646577"
       dist_rdm="75;1"
       growth="0"
       do_bend="true"
       bender="16.147127,126.71665 , 2.7321429,0.61421131"
       bottom_edge_variation="0.753368;1"
       top_edge_variation="0.753368;1"
       bottom_tgt_variation="0;1"
       top_tgt_variation="0;1"
       scale_bf="1"
       scale_bb="1"
       scale_tf="1"
       scale_tb="1"
       top_smth_variation="0;1"
       bottom_smth_variation="0;1"
       fat_output="true"
       stroke_width_top="1"
       stroke_width_bottom="1"
       front_thickness="1"
       back_thickness="0.25" />
    <inkscape:path-effect
       effect="rough_hatches"
       id="path-effect837"
       is_visible="true"
       direction="33.899964,121.71665 , 1.3394486,1.0690781"
       dist_rdm="75;1"
       growth="0"
       do_bend="true"
       bender="33.899964,126.71665 , 1.7927657,0.13363476"
       bottom_edge_variation="0.753368;1"
       top_edge_variation="0.753368;1"
       bottom_tgt_variation="0;1"
       top_tgt_variation="0;1"
       scale_bf="1"
       scale_bb="1"
       scale_tf="1"
       scale_tb="1"
       top_smth_variation="0;1"
       bottom_smth_variation="0;1"
       fat_output="true"
       stroke_width_top="1"
       stroke_width_bottom="1"
       front_thickness="1"
       back_thickness="0.25" />
    <marker
       inkscape:stockid="Arrow2Mstart"
       orient="auto"
       refY="0"
       refX="0"
       id="Arrow2Mstart-7"
       style="overflow:visible"
       inkscape:isstock="true">
      <path
         inkscape:connector-curvature="0"
         id="path968-5"
         style="fill:#fce94f;fill-opacity:1;fill-rule:evenodd;stroke:#fce94f;stroke-width:0.625;stroke-linejoin:round;stroke-opacity:1"
         d="M 8.7185878,4.0337352 -2.2072895,0.01601326 8.7185884,-4.0017078 c -1.7454984,2.3720609 -1.7354408,5.6174519 -6e-7,8.035443 z"
         transform="scale(0.6)" />
    </marker>
    <marker
       inkscape:stockid="Arrow1Mend"
       orient="auto"
       refY="0"
       refX="0"
       id="Arrow1Mend-3"
       style="overflow:visible"
       inkscape:isstock="true">
      <path
         inkscape:connector-curvature="0"
         id="path953-5"
         d="M 0,0 5,-5 -12.5,0 5,5 Z"
         style="fill:#fce94f;fill-opacity:1;fill-rule:evenodd;stroke:#fce94f;stroke-width:1.00000003pt;stroke-opacity:1"
         transform="matrix(-0.4,0,0,-0.4,-4,0)" />
    </marker>
    <marker
       inkscape:stockid="Arrow2Mstart"
       orient="auto"
       refY="0"
       refX="0"
       id="Arrow2Mstart-1"
       style="overflow:visible"
       inkscape:isstock="true">
      <path
         inkscape:connector-curvature="0"
         id="path968-2"
         style="fill:#3465a4;fill-opacity:1;fill-rule:evenodd;stroke:#3465a4;stroke-width:0.625;stroke-linejoin:round;stroke-opacity:1"
         d="M 8.7185878,4.0337352 -2.2072895,0.01601326 8.7185884,-4.0017078 c -1.7454984,2.3720609 -1.7354408,5.6174519 -6e-7,8.035443 z"
         transform="scale(0.6)" />
    </marker>
    <marker
       inkscape:stockid="Arrow1Mend"
       orient="auto"
       refY="0"
       refX="0"
       id="Arrow1Mend-7"
       style="overflow:visible"
       inkscape:isstock="true">
      <path
         inkscape:connector-curvature="0"
         id="path953-0"
         d="M 0,0 5,-5 -12.5,0 5,5 Z"
         style="fill:#3465a4;fill-opacity:1;fill-rule:evenodd;stroke:#3465a4;stroke-width:1.00000003pt;stroke-opacity:1"
         transform="matrix(-0.4,0,0,-0.4,-4,0)" />
    </marker>
  </defs>
  <sodipodi:namedview
     id="base"
     pagecolor="#ffffff"
     bordercolor="#666666"
     borderopacity="1.0"
     inkscape:pageopacity="0.0"
     inkscape:pageshadow="2"
     inkscape:zoom="2"
     inkscape:cx="96.083098"
     inkscape:cy="155.20373"
     inkscape:document-units="mm"
     inkscape:current-layer="layer2"
     showgrid="false"
     inkscape:pagecheckerboard="true"
     inkscape:window-width="1920"
     inkscape:window-height="1015"
     inkscape:window-x="0"
     inkscape:window-y="0"
     inkscape:window-maximized="1"
     inkscape:snap-object-midpoints="true"
     inkscape:snap-midpoints="true"
     fit-margin-top="0"
     fit-margin-left="0"
     fit-margin-right="0"
     fit-margin-bottom="0"
     inkscape:object-paths="true" />
  <metadata
     id="metadata1129">
    <rdf:RDF>
      <cc:Work
         rdf:about="">
        <dc:format>image/svg+xml</dc:format>
        <dc:type
           rdf:resource="http://purl.org/dc/dcmitype/StillImage" />
        <dc:title></dc:title>
      </cc:Work>
    </rdf:RDF>
  </metadata>
  <g
     inkscape:label="cube"
     inkscape:groupmode="layer"
     id="layer1"
     transform="translate(1.1317074,-108.66675)"
     style="display:inline">
    <g
       inkscape:groupmode="layer"
       id="layer4"
       inkscape:label="Reflections"
       style="display:none">
      <g
         inkscape:groupmode="layer"
         id="layer12"
         inkscape:label="R1b">
        <path
           style="display:inline;opacity:0.5;fill:#fce94f;stroke:none;stroke-width:0.26458332px;stroke-linecap:butt;stroke-linejoin:miter;stroke-opacity:1"
           d="m 32.890779,122.94988 -12.508203,-7.53375 v 0 l 2e-6,45.99516 12.50809,7.53368"
           id="path882"
           inkscape:connector-curvature="0" />
      </g>
      <g
         inkscape:groupmode="layer"
         id="layer14"
         inkscape:label="R0b">
        <path
           style="display:inline;opacity:0.5;fill:#ef2929;stroke:none;stroke-width:0.26458332px;stroke-linecap:butt;stroke-linejoin:miter;stroke-opacity:1"
           d="m 33.155542,122.68502 10.489202,-7.53347 v 45.99516 l -10.489199,7.53347"
           id="path839"
           inkscape:connector-curvature="0" />
      </g>
      <g
         inkscape:groupmode="layer"
         id="layer13"
         inkscape:label="R2b"
         style="display:inline">
        <path
           style="display:inline;opacity:0.5;fill:#3465a4;stroke:none;stroke-width:0.26458332px;stroke-linecap:butt;stroke-linejoin:miter;stroke-opacity:1"
           d="m 22.467463,130.52319 -22.9312902,0.0397 20.9789902,30.9278 h 22.99758"
           id="path905"
           inkscape:connector-curvature="0"
           sodipodi:nodetypes="cccc" />
      </g>
      <g
         inkscape:groupmode="layer"
         id="layer5"
         inkscape:label="R0a">
        <path
           style="opacity:0.5;fill:#ef2929;stroke:#ef2929;stroke-width:0.26458332px;stroke-linecap:butt;stroke-linejoin:miter;stroke-opacity:1"
           d="m 32.89096,168.94476 -10.489788,7.53389 v -45.99516 l 10.489785,-7.53389"
           id="path927"
           inkscape:connector-curvature="0" />
        <text
           xml:space="preserve"
           style="font-style:normal;font-weight:normal;font-size:2.64583325px;line-height:1.25;font-family:sans-serif;text-align:center;letter-spacing:0px;word-spacing:0px;text-anchor:middle;display:inline;fill:#000000;fill-opacity:1;stroke:none;stroke-width:0.06614583"
           x="43.792091"
           y="110.67696"
           id="text936"><tspan
             sodipodi:role="line"
             id="tspan934"
             x="43.792091"
             y="110.67696"
             style="text-align:center;text-anchor:middle;stroke-width:0.06614583">$\rho_0$</tspan></text>
        <path
           style="display:inline;fill:none;stroke:#ef2929;stroke-width:0.26499999;stroke-linecap:butt;stroke-linejoin:miter;stroke-miterlimit:4;stroke-dasharray:none;stroke-opacity:1;marker-start:url(#Arrow2Mstart);marker-end:url(#Arrow1Mend)"
           d="m 39.925956,113.98471 c 2.54263,-1.44256 4.764007,-1.19854 6.80357,0"
           id="path942"
           inkscape:connector-curvature="0"
           sodipodi:nodetypes="cc" />
      </g>
      <g
         inkscape:groupmode="layer"
         id="layer15"
         inkscape:label="R2c">
        <path
           style="display:inline;opacity:0.5;fill:#3465a4;stroke:none;stroke-width:0.26458332px;stroke-linecap:butt;stroke-linejoin:miter;stroke-opacity:1"
           d="m 32.989843,146.00701 12.40891,-15.52352 v 0 l 21.11106,31.00734 h -22.99758 z"
           id="path930"
           inkscape:connector-curvature="0"
           sodipodi:nodetypes="cccccc" />
      </g>
      <g
         inkscape:groupmode="layer"
         id="layer6"
         inkscape:label="R1a">
        <path
           style="opacity:0.5;fill:#fce94f;stroke:none;stroke-width:0.26458332px;stroke-linecap:butt;stroke-linejoin:miter;stroke-opacity:1"
           d="m 32.890669,168.94496 12.50809,7.53369 -5e-6,-45.99516 -12.507974,-7.53361"
           id="path875"
           inkscape:connector-curvature="0" />
        <text
           xml:space="preserve"
           style="font-style:normal;font-weight:normal;font-size:2.64583325px;line-height:1.25;font-family:sans-serif;text-align:center;letter-spacing:0px;word-spacing:0px;text-anchor:middle;display:inline;fill:#000000;fill-opacity:1;stroke:none;stroke-width:0.06614583"
           x="19.181423"
           y="111.48932"
           id="text936-3"><tspan
             sodipodi:role="line"
             id="tspan934-6"
             x="19.181423"
             y="111.48932"
             style="text-align:center;text-anchor:middle;stroke-width:0.06614583">$\rho_1$</tspan></text>
        <path
           style="display:inline;fill:none;stroke:#fce94f;stroke-width:0.26499999;stroke-linecap:butt;stroke-linejoin:miter;stroke-miterlimit:4;stroke-dasharray:none;stroke-opacity:1;marker-start:url(#Arrow2Mstart-7);marker-end:url(#Arrow1Mend-3)"
           d="m 17.20069,115.09322 c 1.300655,-2.40854 3.617824,-2.49834 5.868127,-1.1359"
           id="path942-6"
           inkscape:connector-curvature="0"
           sodipodi:nodetypes="cc" />
      </g>
      <g
         inkscape:groupmode="layer"
         id="layer7"
         inkscape:label="R2a">
        <path
           style="opacity:0.5;fill:#3465a4;stroke:none;stroke-width:0.26458332px;stroke-linecap:butt;stroke-linejoin:miter;stroke-opacity:1"
           d="m 45.266684,130.40394 -12.40891,15.52352 -10.52238,-15.48382"
           id="path911"
           inkscape:connector-curvature="0" />
        <text
           xml:space="preserve"
           style="font-style:normal;font-weight:normal;font-size:2.64583325px;line-height:1.25;font-family:sans-serif;text-align:start;letter-spacing:0px;word-spacing:0px;text-anchor:start;display:inline;fill:#000000;fill-opacity:1;stroke:none;stroke-width:0.06614583"
           x="55.28989"
           y="142.42577"
           id="text936-3-2"><tspan
             sodipodi:role="line"
             id="tspan934-6-9"
             x="55.28989"
             y="142.42577"
             style="text-align:start;text-anchor:start;stroke-width:0.06614583">$\rho_2$</tspan></text>
        <path
           style="display:inline;fill:none;stroke:#3465a4;stroke-width:0.26499999;stroke-linecap:butt;stroke-linejoin:miter;stroke-miterlimit:4;stroke-dasharray:none;stroke-opacity:1;marker-start:url(#Arrow2Mstart-1);marker-end:url(#Arrow1Mend-7)"
           d="m 54.958896,138.53062 c -0.777846,2.81796 -2.521151,4.21616 -4.810845,4.81085"
           id="path942-9"
           inkscape:connector-curvature="0"
           sodipodi:nodetypes="cc" />
      </g>
    </g>
    <g
       inkscape:groupmode="layer"
       id="layer8"
       inkscape:label="AdjacentFlags"
       style="display:none">
      <g
         inkscape:groupmode="layer"
         id="layer11"
         inkscape:label="2"
         style="display:inline">
        <path
           style="fill:#3465a4;stroke:none;stroke-width:0.26458332px;stroke-linecap:butt;stroke-linejoin:miter;stroke-opacity:1"
           d="m 45.372167,130.51008 c 0,0 0.374443,0.2708 0.01977,0.2708 -0.79557,0 -1.026457,-0.27557 -0.859567,-0.44422 -0.07167,0.0724 0.707866,1.00848 0.304302,1.00848 -0.845356,0 -0.58835,0.31215 -0.311084,0.035 0.03494,-0.0349 -0.115975,-0.21795 -0.43389,-0.21795 -0.757881,0 -0.272429,0.59221 -0.08064,0.3998 -0.05062,0.0508 -1.542549,-1.73422 -1.945126,-1.73422 -0.836951,0 0.115427,1.13973 0.27481,0.97568 -0.07831,0.0806 -0.40059,-0.30466 -0.656099,-0.30466 -0.683226,0 0.611305,1.58541 0.868931,1.32366 0.01595,-0.0162 -0.616666,-0.78989 -0.959883,-0.78989 -0.759696,0 0.78741,1.93189 1.044259,1.67358 0.01179,-0.0119 -1.22505,-1.55158 -1.567611,-1.55158 -0.738243,0 1.065154,2.27547 1.246023,2.09399 -0.06585,0.0661 -1.570413,-1.80423 -1.936469,-1.80423 -0.760592,0 1.436121,2.82017 1.705197,2.55166 0.01142,-0.0114 -0.749827,-1.00275 -1.578272,-1.9962 -0.827179,-0.99192 -1.717687,-1.98138 -1.826402,-1.98138 -0.599829,0 1.825077,3.02018 2.116706,2.72112 0.04861,-0.0499 -2.04452,-2.64487 -2.42676,-2.64487 -0.71556,0 1.917483,3.30486 2.173991,3.0422 0.01229,-0.0126 -1.949089,-2.4703 -2.223023,-2.4703 -0.33628,0 0.233349,0.88686 0.897725,1.73612 0.664755,0.84976 1.424104,1.66046 1.572105,1.51057 0.02615,-0.0265 -0.680973,-0.96304 -1.457385,-1.89759 -0.775232,-0.93313 -1.616048,-1.86 -1.735254,-1.86 -0.335061,0 0.278405,0.92828 0.984291,1.81805 0.706321,0.89032 1.504811,1.7405 1.654841,1.58705 0.05568,-0.0569 -2.26459,-2.98571 -2.595391,-2.98571 -0.35616,0 0.281698,0.97863 0.997447,1.9355 0.716537,0.95793 1.509217,1.89094 1.593936,1.80499 -0.07683,0.0779 -2.595135,-3.08471 -2.890125,-3.08471 -0.364774,0 0.357539,1.10225 1.153703,2.18045 0.797158,1.07955 1.665955,2.131 1.76065,2.03612 -0.03034,0.0304 -0.909759,-1.11334 -1.872153,-2.26468 -0.962394,-1.15134 -2.004645,-2.31028 -2.170245,-2.31028 -0.378082,0 0.446129,1.22589 1.352509,2.41293 0.90738,1.18834 1.895324,2.33391 2.04809,2.1798 0.03093,-0.0312 -0.956171,-1.37941 -2.063322,-2.72933 -1.104753,-1.347 -2.322096,-2.68693 -2.497145,-2.68693 -0.386082,0 0.512296,1.296 1.478439,2.5629 0.967543,1.26873 1.999746,2.50286 2.111517,2.38831 -0.01098,0.0113 -1.023829,-1.31805 -2.133589,-2.65017 -1.109761,-1.33212 -2.311767,-2.66705 -2.446941,-2.66705 -0.345344,0 0.655285,1.38283 1.712177,2.72968 1.058396,1.34876 2.169992,2.65579 2.307583,2.51377 0.01806,-0.0186 -0.969137,-1.33543 -2.063565,-2.65652 -1.092144,-1.31833 -2.284513,-2.63268 -2.432277,-2.63268 -0.357638,0 0.694889,1.45019 1.799303,2.86529 1.106132,1.4173 2.260477,2.7929 2.394204,2.65475 0.01345,-0.0139 -0.821014,-1.13261 -1.760812,-2.25426 -0.938146,-1.11967 -1.97658,-2.23637 -2.194597,-2.23637 -0.428154,0 0.654089,1.56366 1.798802,3.08832 1.146615,1.52719 2.351769,3.00778 2.503308,2.85431 0.03076,-0.0311 -1.118195,-1.63806 -2.402166,-3.2508 -1.280635,-1.60855 -2.685974,-3.21035 -2.804899,-3.21035 -0.325397,0 0.856611,1.60238 2.055247,3.18126 1.201109,1.58214 2.412513,3.131 2.501246,3.04023 -0.03462,0.0354 -1.248753,-1.59049 -2.59066,-3.22525 -1.341908,-1.63476 -2.805103,-3.27838 -2.954273,-3.27838 -0.353662,0 0.921505,1.72122 2.219956,3.40569 1.300995,1.68778 2.61947,3.32891 2.759151,3.18525 0.02098,-0.0216 -1.206022,-1.71734 -2.599014,-3.4226 -1.389249,-1.70067 -2.93305,-3.39709 -3.138744,-3.39709 -0.409107,0 0.930518,1.82125 2.284119,3.61666 1.356826,1.79968 2.719306,3.56068 2.81524,3.46157 -0.02641,0.0273 -1.288224,-1.68889 -2.708596,-3.4119 -1.420372,-1.723 -2.991831,-3.45283 -3.211855,-3.45283 -0.421126,0 1.032744,1.97457 2.491504,3.91557 1.462352,1.94578 2.920733,3.84365 3.046615,3.71414 0.0087,-0.009 -1.394565,-1.98032 -2.97618,-3.96946 -1.576716,-1.98298 -3.317037,-3.96526 -3.428468,-3.96526 -0.309398,0 1.259774,2.0319 2.799545,4.02852 1.543615,2.0016 3.048361,3.95298 3.179871,3.81687 0.01397,-0.0145 -1.259186,-1.80724 -2.684293,-3.61321 -1.421027,-1.8008 -2.981655,-3.59928 -3.086207,-3.59928 -0.303865,0 1.283371,2.07989 2.835201,4.12281 1.555767,2.04811 3.066534,4.04369 3.206108,3.90101 0.02003,-0.0205 -1.153342,-1.71778 -2.473579,-3.42518 -1.316615,-1.70271 -2.769034,-3.40147 -2.899742,-3.40147 -0.330431,0 1.243473,2.13784 2.775369,4.24422 1.536128,2.1122 3.019484,4.17548 3.139599,4.05546 -0.0067,0.007 -1.570054,-2.33134 -3.378745,-4.671 -1.808692,-2.33965 -3.847816,-4.68097 -4.022804,-4.68097 -0.366256,0 1.317518,2.24092 2.948147,4.45432 1.635571,2.2201 3.204942,4.39255 3.306373,4.28914 -0.02261,0.023 -1.384336,-1.95884 -2.915945,-3.94649 -1.531609,-1.98765 -3.222893,-3.98107 -3.338526,-3.98107 -0.309828,0 1.437307,2.32737 3.105875,4.62547 1.673781,2.30527 3.255314,4.55974 3.364832,4.44982 -0.0165,0.0166 -1.615819,-2.40095 -3.475687,-4.82261 -1.859869,-2.42165 -3.964723,-4.84745 -4.152728,-4.84745 -0.375344,0 1.46442,2.44849 3.220621,4.86888 1.762114,2.42855 3.424897,4.80456 3.527555,4.70035 -0.02173,0.0221 -1.774941,-2.61616 -3.821786,-5.2599 -2.046844,-2.64373 -4.368932,-5.29299 -4.527539,-5.29299 -0.34111,0 1.65043,2.5557 3.536893,5.07737 1.892889,2.53026 3.663923,5.00074 3.787144,4.87325 0.0085,-0.009 -1.471513,-2.20262 -3.169619,-4.41947 -1.692149,-2.20906 -3.584455,-4.41786 -3.713318,-4.41786 -0.316592,0 1.690945,2.62557 3.568012,5.22448 1.883986,2.60848 3.618752,5.16157 3.714601,5.06452 -0.02855,0.0289 -1.710634,-2.55668 -3.691713,-5.14951 -1.981079,-2.59282 -4.243748,-5.19287 -4.470284,-5.19287 -0.40621,0 1.686275,2.78281 3.651866,5.52888 1.972948,2.75635 3.799871,5.44513 3.934693,5.30847 0.02316,-0.0235 -1.775642,-2.84797 -3.942985,-5.7087 -2.157528,-2.84777 -4.653933,-5.69291 -4.885855,-5.69291 -0.406534,0 1.81505,2.90259 3.876542,5.7778 2.070068,2.88716 3.956594,5.71106 4.05183,5.61347 -0.02708,0.0277 -1.875429,-2.8601 -4.087285,-5.75489 -2.211855,-2.89479 -4.765323,-5.79652 -5.002372,-5.79652 -0.407722,0 1.955266,3.06415 4.127165,6.09907 2.181448,3.04827 4.145727,6.0273 4.246434,5.92378 -0.02089,0.0215 -1.85636,-2.89464 -4.057214,-5.81613 -2.200854,-2.92148 -4.744498,-5.84833 -4.959698,-5.84833 -0.38262,0 2.087023,3.20625 4.341488,6.37107 2.264289,3.17861 4.28774,6.27443 4.436539,6.12254 0.04117,-0.042 -1.845687,-3.07736 -4.100544,-6.15236 -2.23462,-3.04741 -4.846022,-6.11249 -4.846022,-6.11249 0,0 2.755073,3.32604 5.09124,6.60645 2.34653,3.29495 4.299044,6.57337 4.364912,6.50721 0.222418,-0.22338 -1.485543,-3.31053 -3.65242,-6.40074 -2.154167,-3.07209 -4.724798,-6.09286 -4.925097,-6.09286 0.06939,0 2.527885,2.97296 4.694554,5.91749 2.16667,2.94454 4.022729,5.86065 4.135155,5.74697 0.266372,-0.26936 -1.383293,-3.24038 -3.467695,-6.20044 -2.072187,-2.94271 -4.537433,-5.82241 -4.712949,-5.82241 0.09121,0 2.560007,2.94749 4.738224,5.86517 2.178217,2.91767 4.047722,5.80552 4.166044,5.68623 0.270078,-0.27227 -1.302734,-3.08871 -3.277419,-5.88807 -1.963617,-2.78368 -4.291072,-5.5032 -4.468134,-5.5032 0.08605,0 2.498378,2.89061 4.622975,5.76112 2.124597,2.87051 3.942253,5.72092 4.02288,5.6405 0.231323,-0.23073 -1.282469,-2.91228 -3.162257,-5.5813 -1.870002,-2.65513 -4.072728,-5.25605 -4.250374,-5.25605 0.08054,0 2.262575,2.64523 4.215034,5.26064 1.952459,2.61541 3.661275,5.20101 3.780978,5.08173 0.268635,-0.26767 -1.153992,-2.81422 -2.946112,-5.33561 -1.782988,-2.50855 -3.903768,-4.95338 -4.171371,-4.95338 -0.03185,0 1.800801,2.2538 3.471234,4.48537 1.675676,2.23857 3.18936,4.43389 3.269872,4.35195 0.231665,-0.23578 -1.227395,-2.6998 -3.027391,-5.14328 -1.79129,-2.43166 -3.893715,-4.80733 -4.136949,-4.80733 -0.0082,0 2.253855,2.69406 4.271497,5.3602 2.017641,2.66614 3.796657,5.30436 3.908465,5.19268 0.257574,-0.25727 -1.094076,-2.62723 -2.765747,-4.96919 -1.663694,-2.33078 -3.619626,-4.60003 -3.828853,-4.60003 0.0419,0 2.068665,2.47035 3.902874,4.91428 1.840328,2.45208 3.471618,4.85329 3.570347,4.75577 0.252448,-0.24936 -1.018687,-2.49814 -2.60415,-4.71714 -1.578304,-2.20899 -3.445912,-4.35814 -3.720908,-4.35814 -0.04271,0 1.589209,2.0378 3.102734,4.04764 1.517527,2.01516 2.918325,3.98642 3.024507,3.87992 0.253624,-0.2544 -1.005831,-2.42143 -2.552501,-4.55547 -1.539844,-2.12462 -3.342947,-4.188 -3.561695,-4.188 0.02884,0 1.991182,2.38548 3.775679,4.74722 1.784496,2.36174 3.379203,4.69973 3.475781,4.60476 0.239846,-0.23587 -0.934265,-2.29398 -2.384257,-4.32044 -1.443979,-2.01806 -3.142726,-3.97925 -3.397509,-3.97925 -0.02445,0 1.369791,1.74279 2.673282,3.46751 1.306596,1.72884 2.522727,3.42728 2.590478,3.35914 0.210826,-0.21205 -0.990859,-2.20256 -2.459226,-4.16515 -1.462589,-1.95488 -3.171844,-3.85867 -3.453309,-3.85867 -0.05159,0 1.451126,1.84242 2.85772,3.66519 1.410113,1.82733 2.724313,3.62133 2.797027,3.5473 0.213975,-0.21784 -0.981958,-2.16429 -2.437561,-4.08049 -1.449949,-1.90874 -3.139914,-3.76489 -3.415945,-3.76489 -0.04665,0 1.63511,2.02611 3.194317,4.031 1.563481,2.01039 3.004573,3.98308 3.082987,3.90372 0.220835,-0.22351 -0.929196,-2.11662 -2.304505,-3.97712 -1.370015,-1.85334 -2.946746,-3.65259 -3.111165,-3.65259 0.07357,0 1.578519,1.77338 2.985874,3.51817 1.410394,1.74855 2.715538,3.45719 2.824405,3.34656 0.247444,-0.25147 -0.807754,-2.00826 -2.078471,-3.72293 -1.265986,-1.70829 -2.730542,-3.35531 -2.90729,-3.35531 0.05922,0 1.537068,1.73975 2.913716,3.46208 1.37987,1.72637 2.649741,3.42323 2.714593,3.35761 0.202567,-0.20496 -0.809155,-1.84201 -2.025629,-3.44518 -1.212421,-1.59783 -2.615313,-3.14575 -2.8477,-3.14575 -0.0057,0 1.400468,1.68676 2.730809,3.34309 1.332975,1.65962 2.592072,3.27896 2.709747,3.16054 0.254546,-0.25617 -0.651067,-1.80149 -1.768942,-3.29911 -1.114122,-1.49259 -2.426812,-2.92239 -2.687702,-2.92239 -0.0353,0 1.312723,1.64482 2.582112,3.27488 1.27225,1.63372 2.46568,3.24166 2.521258,3.18628 0.193155,-0.19249 -0.706374,-1.66937 -1.771294,-3.1124 -1.06168,-1.43863 -2.277241,-2.83024 -2.435443,-2.83024 0.07127,0 1.052308,1.15951 1.987764,2.3006 0.936772,1.14269 1.824628,2.26213 1.895575,2.19003 0.202713,-0.20601 -0.646736,-1.57829 -1.670556,-2.91163 -1.020853,-1.32947 -2.205421,-2.60841 -2.434359,-2.60841 -0.0042,0 1.133464,1.35704 2.219697,2.69671 1.088125,1.34201 2.125128,2.65964 2.191258,2.5925 0.197978,-0.20103 -0.609182,-1.50491 -1.586016,-2.76988 -0.974138,-1.26148 -2.108231,-2.47358 -2.349592,-2.47358 -0.01704,0 1.130021,1.37748 2.233552,2.73088 1.105324,1.35559 2.168265,2.6805 2.261642,2.58635 0.225375,-0.22725 -0.503116,-1.45854 -1.390354,-2.6436 -0.884802,-1.18181 -1.919348,-2.30762 -2.12014,-2.30762 0.0284,0 1.184724,1.38231 2.282777,2.7505 1.100065,1.37069 2.136384,2.71975 2.190764,2.66577 0.187709,-0.18634 -0.496961,-1.32911 -1.326249,-2.4341 -0.827257,-1.10227 -1.791721,-2.15864 -2.000641,-2.15864 0.01887,0 1.002355,1.20115 1.961186,2.3736 0.960016,1.17389 1.892818,2.31473 2.007788,2.20137 0.489709,-0.48289 -2.313369,-4.21658 -2.84668,-4.21658 4.61e-4,0 2.594284,3.33062 2.840618,3.08472 0.498718,-0.49786 -2.001571,-3.74049 -2.531353,-3.74049 0.04096,0 2.437744,3.09612 2.547475,2.98571 0.359215,-0.36146 -2.020979,-3.4051 -2.584484,-3.4051 -0.02764,0 0.75856,0.96863 1.534295,1.92265 0.776653,0.95514 1.540496,1.89228 1.598038,1.83494 0.368833,-0.36756 -1.862496,-3.2467 -2.417724,-3.2467 -0.01678,0 2.030388,2.62443 2.183377,2.47031 0.401217,-0.40419 -1.682125,-3.0422 -2.125166,-3.0422 0.04488,0 2.269044,2.76115 2.384312,2.64486 0.362287,-0.3655 -1.512001,-2.72112 -2.073034,-2.72112 -0.0381,0 0.796585,1.03092 1.623145,2.04358 0.827546,1.01386 1.644549,2.00584 1.717693,1.934 0.402025,-0.39485 -1.263023,-2.55165 -1.664246,-2.55165 0.07153,0 1.673471,2.03534 1.907513,1.80423 0.484737,-0.47867 -0.786309,-2.09399 -1.212416,-2.09399 0.03303,0 1.388678,1.70402 1.542709,1.55157 0.403045,-0.3989 -0.609707,-1.67358 -1.017399,-1.67358 0.04488,0 0.799664,0.93739 0.947205,0.78989 0.393162,-0.39305 -0.361298,-1.32366 -0.847687,-1.32366 -0.03794,0 0.410523,0.54838 0.65121,0.30467 0.482308,-0.48837 0.07524,-0.97569 -0.259152,-0.97569 0.108048,0 1.701653,1.94714 1.917294,1.73423 0.46195,-0.4561 0.504234,-0.39981 0.08706,-0.39981 0.02316,0 0.301746,0.34454 0.430392,0.21795 0.374861,-0.36885 0.644403,-0.0349 0.311645,-0.0349 0.109035,0 -0.522565,-0.77535 -0.288117,-1.00849 0.476875,-0.47421 1.236985,0.44422 0.852438,0.44422 0.06758,0 -0.721421,-1.11961 -0.721421,-1.11961 z m -22.970994,0.32304 c 0,0 2.423535,3.08777 4.497191,6.12512 2.0822,3.04986 3.837562,6.07433 3.936578,5.97277 -0.0373,0.0383 -1.899248,-2.98937 -4.099877,-5.97417 -2.180548,-2.95757 -4.730114,-5.95402 -4.727963,-5.71722 0.0038,0.41504 2.666795,4.00522 4.859444,7.24317 2.244688,3.3148 4.140662,6.43633 4.278743,6.29833 0.02435,-0.0243 -1.66234,-2.95338 -3.68815,-5.88712 -1.996127,-2.89074 -4.354587,-5.82478 -4.357581,-5.6442 -0.0065,0.39063 1.856351,3.05255 3.466308,5.4736 1.638648,2.4642 3.09282,4.77758 3.180571,4.68687 -0.04259,0.044 -1.755694,-2.77197 -3.758612,-5.52972 -1.98758,-2.73663 -4.283146,-5.47837 -4.278202,-5.1802 0.0084,0.50756 2.138066,3.56351 3.927095,6.29781 1.828379,2.79443 3.414379,5.399 3.506088,5.30451 -0.03878,0.04 -1.598306,-2.59946 -3.412381,-5.19133 -1.799878,-2.57157 -3.873164,-5.15644 -3.869805,-4.90596 0.0062,0.46388 2.189038,3.6791 4.010354,6.54483 1.863668,2.93237 3.47479,5.66527 3.642119,5.49769 0.04505,-0.0451 -1.345182,-2.61252 -3.000415,-5.14264 -1.635781,-2.5004 -3.539881,-4.97716 -3.544029,-4.69233 -0.0077,0.52815 1.507613,2.99067 2.818747,5.17685 1.33601,2.22765 2.535536,4.27626 2.625878,4.184 -0.04657,0.0476 -1.38549,-2.3145 -2.924838,-4.61431 -1.530146,-2.28607 -3.267551,-4.55115 -3.266075,-4.2409 0.0027,0.5675 1.466757,3.00408 2.736275,5.14221 1.294568,2.18033 2.466446,4.16627 2.585873,4.04346 -0.01849,0.019 -1.231889,-2.1776 -2.622432,-4.30641 -1.383097,-2.11742 -2.946658,-4.20125 -2.94318,-3.89966 0.0065,0.56353 1.583641,3.23201 2.914127,5.57981 1.360406,2.40059 2.556639,4.60696 2.652923,4.51025 -0.04456,0.0448 -1.082622,-1.92587 -2.25823,-3.83107 -1.170499,-1.89692 -2.478366,-3.75325 -2.482042,-3.43851 -0.0071,0.60972 1.076472,2.70553 2.029143,4.51718 0.970779,1.84609 1.866388,3.49811 1.971493,3.3924 -0.03996,0.0402 -0.939142,-1.70768 -1.945374,-3.41033 -1.001305,-1.69431 -2.113162,-3.36841 -2.115544,-3.13898 -0.0056,0.54218 0.976968,2.49613 1.845931,4.19576 0.884724,1.73045 1.703854,3.28662 1.803087,3.18735 -0.04779,0.0478 -0.829633,-1.50256 -1.692311,-3.00375 -0.859509,-1.49567 -1.799979,-2.9587 -1.803909,-2.70864 -0.0093,0.5935 0.592208,1.98615 1.160671,3.14806 0.576346,1.17803 1.147979,2.1734 1.265986,2.05293 -0.02908,0.0297 -0.724842,-1.34153 -1.484531,-2.66228 -0.757424,-1.31681 -1.577786,-2.59497 -1.576733,-2.35949 0.0059,1.32212 2.12985,5.00347 2.248138,4.88117 -0.03903,0.0404 -0.642637,-1.12244 -1.287358,-2.24577 -0.642995,-1.12033 -1.326902,-2.21023 -1.323537,-2.00904 0.0097,0.57713 0.608258,1.96753 1.169182,3.1252 0.569308,1.17497 1.130864,2.169 1.256911,2.0399 -0.02238,0.0229 -0.521272,-0.98834 -1.053057,-1.95859 -0.530715,-0.96831 -1.093141,-1.90148 -1.091697,-1.71263 0.0094,1.23418 1.307294,3.70412 1.486044,3.51904 -0.07814,0.0809 -1.778046,-3.25827 -1.771167,-2.87957 0.02323,1.27857 1.35666,3.88437 1.583234,3.65154 -0.03037,0.0312 -1.370277,-2.7094 -1.363775,-2.10811 0.01619,1.49733 0.644653,2.89162 0.950492,2.57752 0.01915,-0.0197 -0.926364,-1.97611 -0.916797,-1.0415 0.01921,1.87682 0.234851,2.53492 0.598428,2.16547 0.03572,-0.0363 -0.342005,-0.90816 -0.342121,-0.10937 -2.6e-4,1.80831 -0.40351,0.89967 -0.0426,0.53309 0.05089,-0.0517 0.05057,-0.0661 0.05027,0.44686 -9.03e-4,1.56594 0.14694,0.51705 0.14694,0.51705 0,0 0.221991,-0.91509 0.201261,0.33176 -0.0032,0.19315 -0.197361,-0.29269 -0.0431,-0.44686 0.468503,-0.46823 0.06553,-1.4212 0.05115,-0.53309 0.002,-0.12304 0.170688,0.27903 0.340365,0.10937 0.509555,-0.50948 -0.560152,-2.77141 -0.563674,-2.16546 0.0018,-0.31487 0.702693,1.24093 0.900082,1.0415 0.547708,-0.55337 -0.904703,-3.4222 -0.909125,-2.57752 2.5e-5,-0.005 1.096462,2.34414 1.329942,2.10811 0.273228,-0.27622 -0.07205,-1.44221 -0.526936,-2.4229 -0.45649,-0.98416 -0.998788,-1.74514 -0.997695,-1.22864 5.24e-4,0.24725 1.499269,3.10942 1.724953,2.87956 0.294056,-0.2995 -0.02864,-1.41916 -0.463306,-2.35367 -0.436042,-0.93746 -0.962144,-1.65511 -0.966262,-1.16536 -6.74e-4,0.0803 0.495991,1.07301 0.982471,1.99381 0.490241,0.92792 0.98074,1.80097 1.103364,1.6774 0.28099,-0.28315 -0.236423,-1.79187 -0.899215,-3.13645 -0.661768,-1.3425 -1.444292,-2.48611 -1.443983,-2.02865 3.9e-5,0.058 0.616623,1.2082 1.21207,2.28276 0.600442,1.08357 1.192804,2.11213 1.33054,1.97205 0.29339,-0.29838 -0.187882,-1.70735 -0.80829,-2.96096 -0.619145,-1.25105 -1.356902,-2.31821 -1.361511,-1.9202 -1.4e-4,0.0121 0.749888,1.35158 1.456542,2.6245 0.713044,1.28443 1.396823,2.52514 1.524129,2.39726 0.285057,-0.28634 -0.229135,-1.7559 -0.889019,-3.08339 -0.657664,-1.32303 -1.442669,-2.47959 -1.454168,-2.11759 4.05e-4,-0.0127 0.866881,1.51205 1.67316,2.96572 0.814127,1.46782 1.584491,2.89128 1.731381,2.74667 0.311842,-0.30702 -0.435461,-2.31251 -1.402349,-4.18533 -0.959914,-1.85931 -2.118533,-3.56265 -2.128177,-3.19779 -3.2e-4,0.0121 1.026828,1.71893 1.979531,3.38796 0.954751,1.67261 1.839534,3.29669 1.976277,3.16135 0.301012,-0.29791 -0.519773,-2.37987 -1.569703,-4.35957 -1.04003,-1.96104 -2.29677,-3.81047 -2.303992,-3.55001 0.0027,-0.0979 1.232165,1.82105 2.341819,3.67965 1.121688,1.87876 2.142579,3.72753 2.281783,3.58993 0.308895,-0.30532 -0.806703,-2.91821 -2.246259,-5.44544 -1.421046,-2.49474 -3.157676,-4.90567 -3.158855,-4.64461 4.29e-4,-0.0948 1.483937,2.05176 2.801504,4.13285 1.333506,2.10626 2.524248,4.18263 2.632408,4.07321 0.271624,-0.27479 -0.825398,-2.65455 -2.196103,-4.95351 -1.355062,-2.27272 -2.976,-4.4645 -2.978624,-4.23216 0.0013,-0.11116 1.655894,2.21647 3.117842,4.4678 1.480437,2.2798 2.795322,4.5237 2.930954,4.38741 0.300429,-0.30186 -0.817796,-2.72859 -2.225204,-5.06751 -1.391584,-2.31262 -3.061824,-4.53389 -3.069188,-4.29333 0.0029,-0.094 1.820149,2.44544 3.384758,4.91272 1.580201,2.49186 2.937867,4.98531 3.001844,4.92225 0.229746,-0.22645 -1.289732,-3.32528 -3.22613,-6.36844 -1.907356,-2.99752 -4.232328,-5.95618 -4.233073,-5.67409 1.67e-4,-0.0631 1.986638,2.58384 3.713369,5.12325 1.751868,2.57637 3.282866,5.09963 3.406766,4.97404 0.292486,-0.29646 -1.209165,-3.25617 -3.108102,-6.15474 -1.871314,-2.8564 -4.13899,-5.66472 -4.138875,-5.44758 -6.2e-5,-0.1172 2.207344,2.68645 4.118783,5.39213 1.931591,2.73421 3.610204,5.45603 3.746147,5.31779 0.290587,-0.29548 -1.079388,-2.95619 -2.784259,-5.5186 -1.686055,-2.53413 -3.689201,-4.95915 -3.699554,-4.64187 -9.91e-4,0.0304 2.241441,2.95546 4.183794,5.85182 1.942354,2.89635 3.590979,5.76399 3.67687,5.6795 0.253332,-0.2492 -1.542955,-3.70703 -3.853741,-7.12046 -2.272711,-3.35718 -5.065214,-6.69436 -5.067118,-6.42104 4.45e-4,-0.0639 2.457726,2.99389 4.558871,5.92234 2.12596,2.96304 3.951053,5.90053 4.081334,5.76905 0.288473,-0.29112 -1.577099,-3.48816 -3.897725,-6.67683 -2.29778,-3.15727 -5.042698,-6.26987 -5.042698,-6.26987 z"
           id="path892"
           inkscape:connector-curvature="0"
           inkscape:path-effect="#path-effect894"
           inkscape:original-d="m 45.398753,130.48349 h -22.99758 l -1e-6,22.99758 z" />
      </g>
      <g
         inkscape:groupmode="layer"
         id="layer10"
         inkscape:label="1">
        <path
           style="display:inline;fill:#fce94f;stroke:none;stroke-width:0.26458332px;stroke-linecap:butt;stroke-linejoin:miter;stroke-opacity:1"
           d="m 55.763112,122.94981 c 0,0 -1.690251,1.10565 -0.710351,0.38924 -0.543449,0.39732 0.08367,-0.30823 -0.589194,-0.30824 -0.584302,-1e-5 -2.289799,1.56228 -3.841923,3.00045 -1.547739,1.4341 -2.951238,2.76328 -2.332862,2.31317 -0.672631,0.4896 0.6865,-0.80399 2.016067,-2.20805 1.334655,-1.40943 2.649802,-2.95196 2.470872,-2.95197 -0.413891,-1e-5 -2.087408,1.62062 -3.792485,3.24613 -1.700832,1.62146 -3.45216,3.26508 -3.339147,3.33258 -0.03763,-0.0225 1.806452,-1.66737 3.390469,-3.31892 1.583204,-1.65071 2.924362,-3.30962 2.609347,-3.30963 -0.555189,-1e-5 -2.107923,1.40897 -3.62754,2.81933 -1.516551,1.40751 -3.013655,2.82899 -2.94237,2.87133 -0.08401,-0.0499 1.510064,-1.55335 2.878412,-3.05443 1.367735,-1.5004 2.525542,-2.99956 2.166463,-2.99955 -0.602973,2e-5 -2.128107,1.36759 -3.581228,2.7491 -1.449936,1.37848 -2.84212,2.78368 -2.691073,2.87365 -0.0045,-0.003 1.473176,-1.35437 2.772194,-2.71373 1.298457,-1.35877 2.429939,-2.72631 2.226847,-2.72631 -0.449843,0 -1.833588,1.2833 -3.180745,2.57497 -1.344469,1.2891 -2.664341,2.59757 -2.557642,2.66126 -0.05,-0.0299 1.287088,-1.29544 2.472956,-2.56075 1.185407,-1.26482 2.230416,-2.53023 2.021834,-2.53024 -0.458848,-1e-5 -1.734677,1.15019 -2.949662,2.31144 -1.212765,1.15914 -2.374608,2.33832 -2.259953,2.4068 -0.04372,-0.0261 1.175753,-1.19132 2.228958,-2.35609 1.052838,-1.16436 1.948648,-2.32898 1.618095,-2.32899 -0.583756,-1e-5 -1.80246,1.01444 -2.915685,2.03838 -1.111509,1.02235 -2.125207,2.06105 -2.029817,2.1181 -0.06102,-0.0365 0.959996,-1.05576 1.878327,-2.06349 0.919882,-1.00944 1.743985,-2.01423 1.550683,-2.01423 -0.450932,-2e-5 -1.398564,0.78795 -2.226781,1.60027 -0.826975,0.8111 -1.540158,1.65137 -1.357613,1.75987 0.02252,0.0134 1.004398,-0.92299 1.88369,-1.86136 0.880456,-0.93961 1.663396,-1.88664 1.517798,-1.88664 -0.402702,10e-6 -1.372336,0.84974 -2.258326,1.71287 -0.884737,0.86192 -1.691441,1.74231 -1.579129,1.80909 -0.05102,-0.0303 0.804571,-0.9023 1.569856,-1.77003 0.765087,-0.86751 1.445133,-1.73117 1.241934,-1.73117 -0.462102,1e-5 -1.398119,0.77785 -2.214014,1.5783 -0.814706,0.79929 -1.514655,1.62585 -1.344607,1.72721 0.0086,0.005 0.816496,-0.782 1.543645,-1.56933 0.727986,-0.78825 1.378867,-1.58062 1.234654,-1.58062 -0.739387,0 -3.303473,2.61578 -2.963076,2.81822 0.0095,0.006 0.760946,-0.73333 1.439266,-1.47278 0.67905,-0.74024 1.288114,-1.48439 1.15482,-1.48439 -0.714211,1e-5 -3.346207,2.69088 -3.053525,2.86526 -0.01611,-0.01 0.663688,-0.69531 1.229155,-1.38072 0.565356,-0.68527 1.019546,-1.37048 0.676805,-1.37048 -1.160042,0 -3.301354,2.20201 -3.025833,2.36663 -0.05323,-0.0318 2.012733,-2.18838 1.385662,-2.1884 -1.138192,-3e-5 -2.469685,1.38704 -2.220534,1.53568 -0.08581,-0.0512 1.412113,-1.63309 1.147612,-1.63309 -0.786757,-1e-5 -1.692274,0.95708 -1.459008,1.09575 -0.10543,-0.0627 1.068981,-1.3196 0.561201,-1.31959 -1.036413,1e-5 -1.564744,0.56838 -1.238065,0.76227 -0.01497,-0.009 0.774356,-0.86177 0.432935,-0.86176 -0.872131,2e-5 -1.218769,0.37607 -0.920126,0.55329 -0.04437,-0.0263 0.452393,-0.56571 0.08643,-0.5657 -0.897022,2e-5 -1.205379,0.33408 -1.070439,0.41451 -0.207932,-0.12393 -0.198227,-0.13475 -0.473233,-0.13475 -0.805837,-10e-6 -0.305777,-0.54672 0.06585,-0.32571 0.02692,0.016 -0.127613,0.18483 -0.781412,0.18484 -1.185888,2e-5 -0.652581,0.19072 -0.652581,0.19072 0,0 0.232295,0.51275 -0.005,0.51273 0.298798,3e-5 0.586319,-0.30513 0.786907,-0.18449 0.541183,0.32548 0.539293,0.32528 -0.07359,0.32521 -0.08017,0 0.03964,-0.12528 0.470773,0.13461 0.77038,0.46437 1.6083,-0.41377 1.08175,-0.41381 0.01106,0 -0.369608,0.40297 -0.09983,0.56486 0.609437,0.36571 1.487234,-0.55235 0.93447,-0.55238 -0.0078,0 -0.69314,0.71679 -0.453794,0.86044 0.579055,0.34756 1.648012,-0.761 1.257784,-0.76103 0.153092,10e-6 -0.920896,1.12046 -0.592992,1.31759 0.665856,0.40028 2.130233,-1.09393 1.486878,-1.094 -0.06758,0 -1.491854,1.44702 -1.187626,1.63057 0.644214,0.38867 2.555173,-1.53316 2.259852,-1.53319 0.272427,3e-5 -1.712183,2.01997 -1.439057,2.18502 0.302273,0.18266 1.154939,-0.40649 1.877489,-1.04261 0.722514,-0.63609 1.314595,-1.32022 1.208351,-1.32023 0.326617,3e-5 -2.225177,2.5952 -1.973329,2.74695 0.29174,0.17578 1.271477,-0.53761 2.058977,-1.29615 0.787679,-0.75871 1.383631,-1.56456 1.066294,-1.56458 -0.04445,-1e-5 -0.729437,0.7097 -1.409701,1.43228 -0.679374,0.72163 -1.358026,1.45987 -1.257607,1.52026 0.268457,0.16147 1.218309,-0.54035 1.985976,-1.28354 0.767885,-0.7434 1.35429,-1.53019 1.047609,-1.53022 -0.03358,-1e-5 -0.761493,0.7579 -1.491744,1.52845 -0.72924,0.76948 -1.465346,1.55582 -1.364572,1.61657 0.268858,0.16206 1.355243,-0.66104 2.260082,-1.52568 0.905247,-0.86502 1.63047,-1.77458 1.381362,-1.7746 0.02555,0 -0.733514,0.82918 -1.502771,1.67892 -0.767968,0.84832 -1.551978,1.72263 -1.395327,1.81682 0.32538,0.19565 1.520452,-0.68096 2.497208,-1.60799 0.977116,-0.92737 1.737153,-1.90836 1.428562,-1.90838 -0.03215,-1e-5 -0.8963,0.91247 -1.782691,1.83424 -0.885009,0.92033 -1.798424,1.8558 -1.711769,1.90788 0.255328,0.15348 1.355649,-0.68331 2.273432,-1.55935 0.918257,-0.87649 1.655807,-1.79544 1.395105,-1.79547 0.01547,0 -0.890981,0.97025 -1.818186,1.96181 -0.925434,0.98966 -1.879612,2.00791 -1.711571,2.10955 0.33652,0.20354 1.744709,-0.83073 2.9542,-1.91762 1.210121,-1.08745 2.224014,-2.23222 2.096144,-2.23224 0.152928,2e-5 -0.82934,1.13001 -1.893167,2.27635 -1.061577,1.14392 -2.214822,2.31364 -2.069502,2.40143 0.31537,0.19051 1.876976,-0.98373 3.191744,-2.20688 1.315853,-1.22416 2.389268,-2.50385 2.136284,-2.50388 0.03077,0 -1.103434,1.23072 -2.30227,2.47743 -1.196168,1.24393 -2.46892,2.51485 -2.318618,2.60559 0.321586,0.19416 2.045959,-1.10885 3.496258,-2.46159 1.45175,-1.3541 2.63538,-2.76632 2.373478,-2.76634 0.02531,0 -1.198132,1.33276 -2.512343,2.67332 -1.31129,1.33759 -2.726361,2.69516 -2.621733,2.75818 0.277424,0.16711 2.077591,-1.23238 3.635708,-2.67418 1.560037,-1.44358 2.886129,-2.93963 2.777801,-2.93964 0.181581,1e-5 -1.07167,1.46433 -2.458516,2.94641 -1.38311,1.47808 -2.916614,2.98956 -2.735865,3.09812 0.3549,0.21315 2.260683,-1.20241 3.886807,-2.67289 1.627804,-1.472 2.982955,-3.0087 2.826345,-3.00872 0.13729,2e-5 -1.303149,1.62401 -2.908901,3.25625 -1.601333,1.62775 -3.387692,3.28195 -3.255316,3.36192 0.308336,0.18626 2.4768,-1.45062 4.294111,-3.13443 1.82009,-1.68638 3.300826,-3.43383 3.002431,-3.43386 -0.01461,-10e-6 -1.737408,1.85107 -3.294398,3.41287 -1.485571,1.49016 -2.960939,2.90967 -1.320248,1.73908 5.698804,-4.06597 6.337211,-5.30517 6.308596,-5.30517 0.319079,3e-5 -1.006799,1.44692 0.582837,0.30784 3.10184,-2.22269 1.347584,-1.09398 1.347584,-1.09398 z"
           id="path886"
           inkscape:connector-curvature="0"
           inkscape:path-effect="#path-effect890"
           inkscape:original-d="m 45.398753,130.48349 -12.50809,-7.53368 h 22.997583 z" />
      </g>
      <g
         inkscape:groupmode="layer"
         id="layer9"
         inkscape:label="0">
        <path
           style="fill:#ef2929;stroke:none;stroke-width:0.26458332px;stroke-linecap:butt;stroke-linejoin:miter;stroke-opacity:1"
           d="m 31.964153,123.61524 c 0,0 0.398372,-0.46182 -0.180544,-0.33188 -1.071555,0.24051 -1.661717,1.24527 -1.453853,1.09222 -0.588092,0.43299 0.0093,-0.60954 -0.675707,-0.45646 -0.592615,0.13243 -1.363689,0.99067 -1.896635,1.71366 -0.530298,0.71939 -0.839875,1.33654 -0.374696,0.99614 -0.04996,0.0366 1.758907,-2.6464 1.114106,-2.5021 -0.505962,0.11323 -1.437958,1.28268 -2.247289,2.35297 -0.815452,1.07839 -1.508295,2.06524 -1.301186,1.91338 -0.298763,0.21906 0.444962,-0.86356 1.103758,-2.01259 0.654851,-1.14215 1.220912,-2.34762 0.867722,-2.26775 -0.591113,0.13367 -1.705449,1.51498 -2.741267,2.81888 -1.042248,1.31199 -2.015008,2.56334 -1.973813,2.56328 -0.181131,2.6e-4 0.664962,-1.18323 1.424908,-2.37934 0.757154,-1.19173 1.431486,-2.40021 1.223965,-2.35353 -0.452422,0.10177 -1.470672,1.36679 -2.394788,2.56942 -0.929182,1.20922 -1.771205,2.36986 -1.568233,2.36963 -0.02903,4e-5 0.889085,-1.14328 1.654392,-2.29016 0.763787,-1.1446 1.387755,-2.2977 1.09288,-2.23165 -0.544182,0.12191 -1.586706,1.32095 -2.504362,2.45529 -0.922683,1.14055 -1.727758,2.23024 -1.53056,2.23006 -0.03637,3e-5 0.861326,-1.1019 1.616316,-2.20665 0.753526,-1.10261 1.376562,-2.2127 1.09181,-2.14898 -0.538161,0.12044 -1.547142,1.24347 -2.456558,2.306 -0.914228,1.06814 -1.736006,2.08793 -1.666424,2.08788 -0.159083,1.3e-4 0.586451,-0.98673 1.233884,-1.97243 0.645714,-0.98307 1.195339,-1.96596 0.867386,-1.89273 -0.588391,0.13138 -1.57023,1.14017 -2.392675,2.09067 -0.826513,0.95521 -1.499932,1.86347 -1.287108,1.86332 -0.02379,1e-5 0.857986,-1.04063 1.631445,-2.08885 0.771721,-1.04587 1.44673,-2.10493 1.279785,-2.06723 -0.427655,0.0966 -1.291846,1.04576 -2.022245,1.94873 -0.733603,0.90693 -1.338123,1.77685 -1.076344,1.7765 0.03072,-4e-5 0.79873,-0.90059 1.437277,-1.79886 0.636954,-0.89602 1.146205,-1.78996 0.845153,-1.72203 -0.566203,0.12777 -1.469569,1.03062 -2.213112,1.88076 -0.746921,0.85401 -1.339362,1.66488 -1.137725,1.66461 -0.03563,5e-5 0.621317,-0.78957 1.197494,-1.57814 0.575327,-0.7874 1.076382,-1.57633 0.884388,-1.5332 -0.461545,0.10369 -1.286639,0.9391 -1.959257,1.73086 -0.675355,0.79499 -1.202471,1.5543 -0.938813,1.55402 0.03,-3e-5 0.761295,-0.83468 1.397138,-1.67131 0.634168,-0.83443 1.174784,-1.67206 0.984028,-1.62903 -0.461021,0.10398 -1.261023,0.90378 -1.903244,1.66119 -0.644748,0.76039 -1.135661,1.48593 -0.86084,1.48558 0.04007,-5e-5 0.68854,-0.73397 1.236746,-1.46443 0.547057,-0.72893 0.995079,-1.45461 0.758218,-1.40136 -1.125291,0.25298 -3.13056,2.99349 -3.196507,2.99356 -0.366395,4e-4 1.704864,-2.49208 1.186726,-2.3762 -1.157687,0.25894 -2.951068,2.57477 -2.909544,2.57473 -0.310734,2.6e-4 1.736654,-2.40203 1.148457,-2.2701 -1.211776,0.27179 -2.7393509,2.16418 -2.271925,2.16372 0.185645,-1.8e-4 1.998151,-2.30739 1.427844,-2.17865 -1.24441,0.28091 -2.5949229,1.93352 -2.3634406,1.93321 -0.1859887,2.5e-4 1.3758256,-1.80068 0.9228516,-1.69813 -1.0630924,0.24067 -2.194914,1.59043 -1.7654617,1.58978 -0.011198,2e-5 1.2970327,-1.49491 0.7822366,-1.37833 -1.1217994,0.25405 -2.0777143,1.36661 -1.6590391,1.36598 -0.037021,5e-5 0.785133,-0.91816 -0.069098,-0.72626 -1.459488,0.32788 -2.1095582,1.03589 -1.5719143,1.03532 0.081915,-9e-5 0.9908043,-1.02953 0.621804,-0.9463 -0.9886701,0.22301 -1.5099262,0.79312 -1.3708066,0.79294 -0.340837,4.4e-4 0.2152936,-0.59916 -0.3095173,-0.48052 -1.1351058,0.2566 -1.2781078,0.39879 -0.7929557,0.3981 -0.00571,10e-6 0.3181413,-0.34439 -0.479534,-0.16374 -1.4154842,0.32055 -1.2085366,0.0984 -1.0085596,0.0981 -0.2880297,4.3e-4 -0.5855822,0.31248 -1.4658502,0.51149 -1.51110555,0.34164 -0.73691874,-0.44507 -0.3465194,-0.44562 -0.0857416,1.2e-4 -1.18714841,0.93552 -1.18714841,0.93552 0,0 0.008321,-0.17062 0.43360673,-0.17074 0.92012521,-2.5e-4 0.50803577,0.40615 0.338245,0.44377 0.46507395,-0.10304 0.86828338,-0.50701 1.48477468,-0.50724 1.1069834,-4.1e-4 1.2502299,-0.14842 1.0158678,-0.0964 0.3897202,-0.0865 0.1461517,0.16355 0.4782751,0.16346 0.8260948,-2.2e-4 1.304236,-0.50558 0.8059248,-0.39518 0.1178692,-0.0261 -0.3682857,0.47854 0.3002706,0.47844 1.1750908,-1.8e-4 2.0208513,-0.92558 1.3955831,-0.78737 -0.033327,0.007 -0.8923847,0.94078 -0.6462424,0.9408 0.782609,6e-5 1.7388883,-1.05817 1.6031619,-1.02829 0.4579192,-0.10081 -0.3086739,0.7228 0.053106,0.72266 0.8970409,-3.3e-4 2.151463,-1.45778 1.6981678,-1.35718 0.1209361,-0.0268 -1.152633,1.37059 -0.8172079,1.37047 0.8865147,-3.1e-4 2.3106652,-1.69077 1.8101644,-1.57973 0.06127,-0.0136 -1.4766135,1.68859 -0.96573,1.68849 1.0897344,-2.1e-4 2.7186293,-1.98705 2.4188963,-1.92075 0.242205,-0.0536 -1.7378872,2.16597 -1.4840898,2.16601 0.8549818,1.5e-4 2.6569288,-2.22159 2.3321048,-2.15019 0.203249,-0.0447 -1.8412152,2.25711 -1.205347,2.25731 1.284331,4.2e-4 3.342393,-2.63734 2.982196,-2.55839 0.136951,-0.03 -1.93686,2.3628 -1.246196,2.36282 0.592744,3e-5 1.566997,-0.75958 2.299572,-1.51775 0.730838,-0.75637 1.221162,-1.51006 0.980464,-1.45703 0.05024,-0.0111 -0.499124,0.71103 -1.058265,1.42456 -0.560573,0.71535 -1.132701,1.42448 -1.011275,1.42446 0.370837,-5e-5 1.263675,-0.80213 1.955098,-1.60101 0.689818,-0.79703 1.179541,-1.58986 0.893775,-1.52669 0.005,-0.001 -0.640336,0.83229 -1.289738,1.65064 -0.651405,0.82086 -1.309439,1.63029 -1.177736,1.6303 0.382367,3e-5 1.311629,-0.83498 2.034029,-1.66808 0.720622,-0.83104 1.235887,-1.65926 0.952616,-1.59689 0.0022,-5e-4 -0.596264,0.78188 -1.186753,1.55527 -0.590914,0.77394 -1.169098,1.538 -0.975671,1.53796 0.443593,-7e-5 1.436487,-0.88562 2.230591,-1.77715 0.791698,-0.88882 1.38696,-1.78406 1.216973,-1.74647 0.118831,-0.0263 -0.49597,0.86331 -1.150039,1.743 -0.656001,0.88229 -1.353593,1.75751 -1.223162,1.75748 0.382273,-8e-5 1.386431,-0.94387 2.167266,-1.88797 0.778663,-0.94147 1.335996,-1.88242 1.03082,-1.81489 -0.02324,0.005 -0.798953,1.05409 -1.59451,2.08563 -0.796347,1.03257 -1.604068,2.04604 -1.424963,2.04611 0.432958,1.8e-4 1.507226,-0.9804 2.381959,-1.97202 0.871698,-0.98819 1.547021,-1.98877 1.405408,-1.95779 0.147445,-0.0323 -0.510025,0.94578 -1.175244,1.91218 -0.667279,0.9694 -1.34478,1.93095 -1.023627,1.93104 0.57562,1.7e-4 1.796558,-1.08999 2.759545,-2.19357 0.959359,-1.09942 1.664403,-2.21313 1.483162,-2.17338 0.106549,-0.0234 -0.62772,1.0812 -1.404563,2.16646 -0.779698,1.08925 -1.605417,2.164 -1.41527,2.16405 0.446159,1.1e-4 1.64909,-1.15876 2.620744,-2.33414 0.967765,-1.17067 1.708432,-2.35989 1.540016,-2.32292 0.118447,-0.026 -0.617556,1.12141 -1.405982,2.24851 -0.791394,1.13133 -1.63877,2.2473 -1.456935,2.2473 0.438864,1e-5 1.677237,-1.22888 2.655473,-2.47245 0.974354,-1.23863 1.692681,-2.49309 1.438731,-2.43711 0.03185,-0.007 -0.755878,1.19541 -1.539034,2.36946 -0.786347,1.17884 -1.571968,2.33656 -1.229735,2.33646 0.599934,-1.7e-4 1.96703,-1.31808 3.058931,-2.66343 1.086698,-1.33895 1.903967,-2.70894 1.801107,-2.68614 0.185458,-0.0411 -0.579484,1.2888 -1.30965,2.47393 -0.728882,1.18304 -1.436974,2.25941 -0.768116,1.78252 2.322302,-1.6558 4.122015,-4.34153 3.662423,-4.24074 0.08907,-0.0195 -0.328949,0.71952 -0.720418,1.39827 -0.391813,0.67933 -0.759059,1.30583 -0.455624,1.0899 1.508737,-1.07362 2.563636,-2.74165 2.343794,-2.6935 0.342885,-0.0751 -0.468687,1.26931 0.668855,0.45492 1.969672,-1.41013 1.704789,-1.13322 1.485784,-1.08505 0.241896,-0.0532 0.636023,-0.49991 0.636023,-0.49991 z"
           id="path856"
           inkscape:connector-curvature="0"
           inkscape:path-effect="#path-effect858"
           inkscape:original-d="m -0.59640937,130.48349 33.48707237,-7.53368 -10.48949,7.53368 z" />
      </g>
    </g>
    <g
       inkscape:groupmode="layer"
       id="layer3"
       inkscape:label="BaseFlag"
       style="display:none">
      <path
         style="fill:#4e9a06;stroke:none;stroke-width:0.26458332px;stroke-linecap:butt;stroke-linejoin:miter;stroke-opacity:1"
         d="m 45.266684,130.40394 c 0,0 -0.08115,-0.60626 0.285597,-0.60634 -0.110256,3e-5 -0.612559,0.54798 -0.952053,0.34304 -0.65012,-0.39247 -0.852666,-0.17385 -0.543945,-0.1739 -0.17531,3e-5 -0.176108,0.001 -0.350481,-0.10445 -0.485756,-0.29452 -0.800214,0.0499 -0.378926,0.0498 -0.06244,1e-5 0.173878,-0.25909 -0.134502,-0.4458 -0.622031,-0.37662 -0.999671,0.0467 -0.690178,0.0466 -0.17365,5e-5 0.501075,-0.77108 0.139925,-0.98752 -0.676174,-0.40522 -2.033648,1.18884 -1.567213,1.18873 0.04433,-1e-5 1.066108,-1.18597 0.853248,-1.31419 -0.522429,-0.3147 -2.048887,1.47402 -1.705127,1.47395 -0.09102,2e-5 1.24199,-1.51206 1.025633,-1.64292 -0.268334,-0.1623 -0.814809,0.25946 -1.267974,0.72004 -0.453316,0.46073 -0.814104,0.95953 -0.612239,0.95949 -0.07549,1e-5 1.534086,-1.8341 1.194807,-2.03951 -0.330642,-0.20018 -1.00368,0.33433 -1.588938,0.91614 -0.58549,0.58204 -1.084375,1.21014 -0.909325,1.21011 -0.06309,1e-5 0.45775,-0.58354 0.928287,-1.18576 0.471613,-0.6036 0.891617,-1.22159 0.785614,-1.28591 -0.264749,-0.16065 -0.864202,0.35309 -1.363077,0.90508 -0.498896,0.55201 -0.897516,1.14076 -0.62083,1.14068 0.04161,-1e-5 0.638994,-0.63119 1.163184,-1.27855 0.525177,-0.64857 0.972485,-1.30823 0.88845,-1.35866 -0.244106,-0.14651 -0.925152,0.52145 -1.55355,1.22411 -0.628121,0.70236 -1.202557,1.43609 -1.011346,1.43604 -0.0455,1e-5 0.578016,-0.69784 1.127624,-1.41665 0.551069,-0.72073 1.026797,-1.45646 0.911865,-1.52548 -0.274268,-0.16471 -1.051182,0.61744 -1.771709,1.43834 -0.720101,0.82041 -1.382201,1.67491 -1.1245,1.67485 0.02759,0 0.741954,-0.75369 1.368366,-1.52539 0.627791,-0.77339 1.161141,-1.55762 1.075703,-1.60915 -0.244276,-0.14734 -0.976566,0.60151 -1.652642,1.38523 -0.675622,0.7832 -1.293268,1.59684 -1.033643,1.59677 0.02943,0 0.774365,-0.79291 1.425687,-1.60368 0.652799,-0.8126 1.205037,-1.63523 1.123977,-1.68393 -0.239796,-0.14406 -1.034438,0.71312 -1.801603,1.60436 -0.766441,0.8904 -1.502425,1.8087 -1.272303,1.80865 -0.004,0 0.785165,-0.83977 1.445876,-1.71344 0.662972,-0.87665 1.194518,-1.77797 1.004867,-1.89227 -0.347295,-0.20933 -1.277944,0.74704 -2.182643,1.7518 -0.904151,1.00415 -1.780321,2.04989 -1.565183,2.04985 -0.01637,0 0.891466,-0.95465 1.652546,-1.94316 0.763923,-0.99221 1.378003,-2.00678 1.200401,-2.11437 -0.333816,-0.20222 -1.270935,0.79158 -2.198481,1.83215 -0.926843,1.03978 -1.84141,2.11872 -1.645811,2.11868 -0.0352,0 0.972127,-1.07105 1.832274,-2.16413 0.863302,-1.09709 1.578517,-2.20354 1.491963,-2.25583 -0.242269,-0.14636 -1.130655,0.90244 -2.044603,1.98581 -0.91269,1.08186 -1.845663,2.18856 -1.661419,2.18851 -0.04621,1e-5 1.0055,-1.13785 1.879474,-2.30863 0.877639,-1.1757 1.575172,-2.36895 1.422189,-2.46078 -0.308296,-0.18507 -1.284176,0.98703 -2.290409,2.20217 -1.004859,1.21348 -2.03455,2.45828 -1.801016,2.45821 0.0195,-1e-5 1.15688,-1.21912 2.105323,-2.46831 0.951733,-1.25353 1.699108,-2.51866 1.587965,-2.58519 -0.265439,-0.1589 -1.249366,1.10819 -2.303445,2.41275 -1.052173,1.3022 -2.166533,2.62733 -1.951614,2.62727 -0.01051,0 1.194256,-1.28341 2.17921,-2.59749 0.98935,-1.31994 1.757891,-2.65205 1.638529,-2.72348 -0.271421,-0.16242 -1.333589,1.25322 -2.534871,2.707 -1.198797,1.45077 -2.526127,2.92137 -2.409391,2.92134 -0.104786,2e-5 1.18455,-1.3883 2.250173,-2.80627 1.070674,-1.42469 1.916982,-2.85778 1.820224,-2.91614 -0.246775,-0.14884 -1.282179,1.25093 -2.422423,2.68636 -1.137683,1.43221 -2.369336,2.88164 -2.116295,2.88158 0.04802,-2e-5 1.412226,-1.42421 2.50011,-2.89673 1.092698,-1.47902 1.886318,-2.97954 1.685759,-3.10003 -0.350047,-0.21029 -1.467848,1.27842 -2.709226,2.81555 -1.239008,1.53419 -2.592021,3.09739 -2.381994,3.09733 -0.0086,0 1.460537,-1.53808 2.624931,-3.11234 1.17051,-1.58254 2.036133,-3.17508 1.918122,-3.24582 -0.265425,-0.15912 -1.35128,1.42319 -2.628349,3.04346 -1.272402,1.61435 -2.751014,3.24674 -2.591012,3.24669 -0.08264,2e-5 1.478338,-1.68044 2.641855,-3.34039 1.153206,-1.64524 1.973887,-3.31157 1.614348,-3.11616 -0.611551,0.33237 -1.923442,2.05322 -3.177211,3.55436 -1.285257,1.53885 -2.59022,2.9663 -2.461758,2.96626 -0.100898,3e-5 1.159578,-1.36148 2.146276,-2.68123 0.978765,-1.30915 1.733296,-2.60646 1.39879,-2.36399 -0.715121,0.51837 -1.899273,1.8523 -2.810965,2.90632 -0.949832,1.09812 -1.729848,2.04831 -1.444288,2.04822 0.06098,-2e-5 1.215938,-1.19569 2.12955,-2.34948 0.907207,-1.14571 1.593676,-2.2667 1.272902,-2.03314 -0.739473,0.53841 -1.88408,1.76627 -2.736307,2.72491 -0.887484,0.9983 -1.578178,1.84653 -1.28457,1.84645 0.06417,-2e-5 1.098825,-1.04811 1.928176,-2.05302 0.825197,-0.99987 1.45892,-1.96608 1.150536,-1.74361 -0.770052,0.55552 -1.873403,1.66726 -2.674522,2.5233 -0.833485,0.89061 -1.453424,1.62976 -1.194163,1.62972 0.02539,-1e-5 0.881297,-0.85922 1.542536,-1.6445 0.665966,-0.79089 1.126944,-1.48659 0.674955,-1.16612 -2.080945,1.47545 -3.146076,2.49781 -2.710881,2.4977 -0.03267,1e-5 0.423452,-0.48249 0.694841,-0.84319 0.281651,-0.37434 0.358315,-0.58518 -0.309238,-0.10462 -2.819817,2.02994 -2.200903,1.19085 -1.527238,1.19073 0.08077,-1e-5 0.02374,-0.10515 0.02374,-0.10515 0,0 -1.045468,0.87414 -0.816232,0.87415 0.370707,2e-5 1.057689,-0.4847 1.495489,-0.87688 0.457438,-0.40978 0.610314,-0.67215 0.08777,-0.30967 0.412687,-0.28627 -0.81831,0.94468 -0.427534,0.94468 0.448425,-1e-5 1.476526,-0.79571 2.199844,-1.5086 0.734584,-0.72399 1.134675,-1.32749 0.626958,-0.98045 0.08545,-0.0584 -0.529053,0.65979 -1.164345,1.36623 -0.641748,0.71361 -1.322494,1.43484 -1.180924,1.43486 0.409877,3e-5 1.859248,-1.21964 2.912072,-2.35576 1.058947,-1.14273 1.708512,-2.17313 1.147315,-1.78305 -0.04099,0.0285 -0.805368,0.98216 -1.636131,1.92094 -0.831228,0.9393 -1.718349,1.86281 -1.615453,1.86281 0.374944,-1e-5 1.857501,-1.30052 2.946165,-2.53026 1.088838,-1.22994 1.787713,-2.37889 1.283866,-2.02551 -0.0091,0.006 -0.828165,1.10872 -1.755724,2.19906 -0.927559,1.09034 -1.962635,2.16873 -1.845798,2.16871 0.382744,-3e-5 1.922745,-1.37357 3.059241,-2.6886 1.131615,-1.30938 1.877585,-2.56695 1.422368,-2.24906 0.05135,-0.0359 -0.8886,1.2812 -1.883668,2.51803 -1.014803,1.26136 -2.139063,2.51022 -1.889375,2.5102 0.536624,-3e-5 2.43939,-1.66091 3.854012,-3.31937 1.396998,-1.6378 2.354567,-3.3223 2.082986,-3.17904 0.145678,-0.0768 -0.856491,1.59337 -2.065972,3.19672 -1.224593,1.62338 -2.726265,3.23817 -2.481083,3.23815 0.509557,-4e-5 2.227657,-1.48828 3.531493,-3.02815 1.309473,-1.54654 2.178339,-3.11606 1.974658,-3.24062 -0.01558,-0.01 -1.015142,1.59654 -2.261715,3.1831 -1.246572,1.58655 -2.739766,3.15363 -2.568883,3.15362 0.433784,-2e-5 2.050672,-1.42189 3.314925,-2.88057 1.269012,-1.46417 2.163297,-2.94056 2.046474,-3.01216 0.08149,0.05 -0.851546,1.54709 -2.022117,3.03815 -1.164856,1.48378 -2.566412,2.93841 -2.434635,2.93841 0.391077,-1e-5 1.881263,-1.30906 3.037896,-2.66656 1.161272,-1.36295 1.967245,-2.7515 1.754423,-2.88247 -0.03111,-0.0191 -1.007419,1.4245 -2.148859,2.85506 -1.14245,1.43183 -2.429766,2.84806 -2.180273,2.84806 0.528022,1e-5 2.115325,-1.331 3.334264,-2.70743 1.223586,-1.38168 2.057017,-2.78601 1.86749,-2.90171 -0.0076,-0.005 -0.902878,1.33644 -1.958907,2.66335 -1.056897,1.328 -2.256703,2.63968 -2.09952,2.63967 0.429039,-4e-5 1.798837,-1.18644 2.863551,-2.41519 1.068494,-1.23311 1.814142,-2.49006 1.621532,-2.60768 -0.01388,-0.008 -0.88616,1.26451 -1.902213,2.52574 -1.016852,1.26221 -2.161504,2.51071 -2.01988,2.5107 0.410541,-3e-5 1.692419,-1.10692 2.704798,-2.24764 1.015561,-1.14432 1.746713,-2.30689 1.599827,-2.39685 0.0376,0.023 -0.78768,1.21357 -1.730322,2.40201 -0.939713,1.18476 -1.983257,2.35136 -1.786695,2.35135 0.460532,-10e-6 1.639344,-0.96994 2.551611,-1.98006 0.915069,-1.01322 1.550396,-2.05371 1.345508,-2.18001 -0.03297,-0.0203 -0.868798,1.09167 -1.791066,2.198 -0.922906,1.10711 -1.920241,2.20701 -1.733593,2.20702 0.449755,1e-5 1.608231,-0.94305 2.531771,-1.91168 0.925887,-0.9711 1.605827,-1.95675 1.494464,-2.02559 0.06433,0.0398 -0.670679,1.05197 -1.492238,2.05737 -0.819263,1.00259 -1.714397,1.98648 -1.544061,1.98649 0.430351,3e-5 1.54941,-0.91083 2.448316,-1.84446 0.90105,-0.93586 1.571869,-1.88439 1.474739,-1.94413 0.07645,0.047 -0.571456,0.9462 -1.286919,1.83636 -0.713623,0.88788 -1.486195,1.75722 -1.326488,1.75722 0.414997,1e-5 1.389817,-0.78431 2.145164,-1.60499 0.757303,-0.82281 1.285878,-1.6733 1.085126,-1.79635 -0.02951,-0.0181 -0.695272,0.80266 -1.397763,1.62888 -0.701185,0.82467 -1.433107,1.6476 -1.301223,1.6476 0.385302,-1e-5 1.237845,-0.68023 1.896556,-1.39433 0.660242,-0.71576 1.119396,-1.4587 0.926367,-1.57749 -0.02443,-0.015 -0.669854,0.7674 -1.345829,1.55449 -0.674761,0.78568 -1.374498,1.56944 -1.240653,1.56944 0.387446,1e-5 1.286021,-0.72136 1.991191,-1.47271 0.706777,-0.75307 1.212558,-1.52899 1.047961,-1.62983 0.0043,0.003 -0.581438,0.73665 -1.178189,1.47124 -0.595637,0.73322 -1.197162,1.46099 -0.994155,1.46098 0.453892,-1e-5 1.260957,-0.60146 1.868095,-1.23554 0.608389,-0.63539 1.010916,-1.29811 0.819231,-1.41548 -0.02539,-0.0155 -0.579771,0.64259 -1.147595,1.30519 -0.566979,0.66163 -1.143527,1.3231 -1.023842,1.32309 0.794336,-3e-5 2.41213,-1.8319 2.078097,-2.03874 -0.0023,-0.001 -0.527789,0.61514 -1.040493,1.23287 -0.511898,0.61676 -1.00724,1.23047 -0.785021,1.23049 1.009299,8e-5 2.800765,-1.99331 2.597555,-2.11885 0.121593,0.0751 -1.685957,2.03267 -1.286203,2.03269 0.926301,6e-5 2.274373,-1.47865 1.958346,-1.6737 0.0027,0.002 -1.514663,1.6374 -1.099459,1.63742 0.931197,4e-5 2.094948,-1.2715 1.773872,-1.46884 5.3e-5,4e-5 -1.187152,1.30979 -0.912407,1.30979 0.811187,0 1.794941,-1.07959 1.62327,-1.18455 0.144329,0.0882 -0.680198,0.98435 -0.182774,0.98432 0.981964,-6e-5 0.903863,0.0831 0.69439,-0.0463 0.09701,0.0599 -0.270478,0.44439 0.115791,0.44441 0.871247,6e-5 0.718932,0.15872 0.382279,-0.0496 -0.03244,-0.0201 -0.152237,0.10416 0.347118,0.10419 0.984793,8e-5 0.712387,0.28076 0.538219,0.17347 0.129401,0.0797 0.535952,-0.34172 0.969829,-0.34171 0.919069,3e-5 0.43097,-0.16832 0.43097,-0.16832 z"
         id="path833"
         inkscape:connector-curvature="0"
         inkscape:path-effect="#path-effect837"
         inkscape:original-d="m 45.398756,130.48349 -12.508093,-7.53368 -10.48949,7.53368 z" />
      <text
         xml:space="preserve"
         style="font-style:normal;font-weight:normal;font-size:2.64583325px;line-height:1.25;font-family:sans-serif;text-align:center;letter-spacing:0px;word-spacing:0px;text-anchor:middle;display:inline;fill:#000000;fill-opacity:1;stroke:none;stroke-width:0.06614583"
         x="33.146259"
         y="128.12686"
         id="text936-36"><tspan
           sodipodi:role="line"
           id="tspan934-0"
           x="33.146259"
           y="128.12686"
           style="text-align:center;text-anchor:middle;stroke-width:0.06614583">$\Phi_0$</tspan></text>
    </g>
    <g
       inkscape:groupmode="layer"
       id="layer16"
       inkscape:label="skeleton"
       style="display:inline">
      <path
         style="display:inline;fill:none;stroke:#fce94f;stroke-width:1.05799995;stroke-linecap:round;stroke-linejoin:bevel;stroke-miterlimit:4;stroke-dasharray:none;stroke-opacity:1;stroke-dashoffset:0"
         d="M -0.59640936,130.48349 20.382576,115.41613"
         id="path5731"
         inkscape:connector-curvature="0" />
      <path
         style="display:inline;fill:none;stroke:#fce94f;stroke-width:1.05799995;stroke-linecap:round;stroke-linejoin:bevel;stroke-miterlimit:4;stroke-dasharray:none;stroke-opacity:1;stroke-dashoffset:0"
         d="M 45.398753,130.48349 66.37774,115.41613"
         id="path5731-7"
         inkscape:connector-curvature="0" />
      <path
         style="display:inline;fill:none;stroke:#fce94f;stroke-width:1.05799995;stroke-linecap:round;stroke-linejoin:bevel;stroke-miterlimit:4;stroke-dasharray:none;stroke-opacity:1;stroke-dashoffset:0"
         d="M 45.398759,176.47865 66.377745,161.41129"
         id="path5731-5"
         inkscape:connector-curvature="0" />
      <path
         style="display:inline;fill:none;stroke:#fce94f;stroke-width:1.05799995;stroke-linecap:round;stroke-linejoin:bevel;stroke-miterlimit:4;stroke-dasharray:1.05799995, 2.11599989999999982;stroke-dashoffset:0;stroke-opacity:1"
         d="M -0.59640936,176.47865 20.382579,161.41129"
         id="path5731-3"
         inkscape:connector-curvature="0" />
      <path
         style="display:inline;fill:none;stroke:#3465a4;stroke-width:1.05799995;stroke-linecap:round;stroke-linejoin:bevel;stroke-miterlimit:4;stroke-dasharray:none;stroke-opacity:1;stroke-dashoffset:0"
         d="M 20.382576,115.41613 H 66.37774"
         id="path5731-7-3"
         inkscape:connector-curvature="0"
         sodipodi:nodetypes="cc" />
      <path
         style="display:inline;fill:none;stroke:#cc0000;stroke-width:1.05799995;stroke-linecap:round;stroke-linejoin:bevel;stroke-miterlimit:4;stroke-dasharray:none;stroke-opacity:1;stroke-dashoffset:0"
         d="m 66.377745,161.41129 -5e-6,-45.99516"
         id="path5731-7-3-6"
         inkscape:connector-curvature="0"
         sodipodi:nodetypes="cc" />
      <path
         style="display:inline;fill:none;stroke:#cc0000;stroke-width:1.05799995;stroke-linecap:round;stroke-linejoin:bevel;stroke-miterlimit:4;stroke-dasharray:none;stroke-opacity:1;stroke-dashoffset:0"
         d="m -0.59640436,176.47865 -5e-6,-45.99516"
         id="path5731-7-3-6-7"
         inkscape:connector-curvature="0"
         sodipodi:nodetypes="cc" />
      <path
         style="display:inline;fill:none;stroke:#3465a4;stroke-width:1.05799995;stroke-linecap:round;stroke-linejoin:bevel;stroke-miterlimit:4;stroke-dasharray:none;stroke-opacity:1;stroke-dashoffset:0"
         d="M 45.398759,176.47865 H -0.5964049"
         id="path5731-7-3-6-7-5-3"
         inkscape:connector-curvature="0"
         sodipodi:nodetypes="cc" />
      <path
         style="display:inline;fill:none;stroke:#cc0000;stroke-width:1.05799995;stroke-linecap:round;stroke-linejoin:bevel;stroke-miterlimit:4;stroke-dasharray:none;stroke-opacity:1;stroke-dashoffset:0"
         d="m 45.398755,176.47865 -6e-6,-45.99516"
         id="path5731-7-3-6-7-56"
         inkscape:connector-curvature="0"
         sodipodi:nodetypes="cc" />
      <path
         style="display:inline;fill:none;stroke:#cc0000;stroke-width:1.05799995;stroke-linecap:round;stroke-linejoin:bevel;stroke-miterlimit:4;stroke-dasharray:1.05799995, 2.11599989999999982;stroke-dashoffset:0;stroke-opacity:1"
         d="m 20.382579,161.41129 -5e-6,-45.99516"
         id="path5731-7-3-6-7-2"
         inkscape:connector-curvature="0"
         sodipodi:nodetypes="cc" />
      <path
         style="display:inline;fill:none;stroke:#3465a4;stroke-width:1.05799995;stroke-linecap:round;stroke-linejoin:bevel;stroke-miterlimit:4;stroke-dasharray:1.05799995, 2.11599989999999982;stroke-dashoffset:0;stroke-opacity:1"
         d="M 66.377745,161.41129 H 20.38258"
         id="path5731-7-3-6-7-5-3-1"
         inkscape:connector-curvature="0"
         sodipodi:nodetypes="cc" />
      <path
         style="display:inline;fill:none;stroke:#3465a4;stroke-width:1.05799995;stroke-linecap:round;stroke-linejoin:bevel;stroke-miterlimit:4;stroke-dasharray:none;stroke-opacity:1;stroke-dashoffset:0"
         d="M 45.398753,130.48349 H -0.59640936"
         id="path5731-7-3-6-7-5"
         inkscape:connector-curvature="0"
         sodipodi:nodetypes="cc" />
    </g>
    <g
       inkscape:groupmode="layer"
       id="layer2"
       inkscape:label="vertexFigure"
       style="display:inline">
      <g
         id="g1818">
        <path
           inkscape:connector-curvature="0"
           id="path11005"
           d="m 22.401171,130.48349 33.487077,-7.53368"
           style="display:inline;fill:#3465a4;stroke:#75507b;stroke-width:1.05833328;stroke-linecap:round;stroke-linejoin:bevel;stroke-miterlimit:4;stroke-dasharray:none;stroke-opacity:1" />
        <g
           id="g1800">
          <path
             style="display:inline;fill:none;stroke:#75507b;stroke-width:1.05833328;stroke-linecap:round;stroke-linejoin:bevel;stroke-miterlimit:4;stroke-dasharray:none;stroke-opacity:1"
             d="m 22.40117,130.48349 22.997582,22.99758"
             id="path11001"
             inkscape:connector-curvature="0" />
          <path
             style="display:inline;fill:#008080;stroke:#75507b;stroke-width:1.05833328;stroke-linecap:round;stroke-linejoin:bevel;stroke-miterlimit:4;stroke-dasharray:none;stroke-opacity:1"
             d="M 45.398752,153.48107 55.888246,122.94981"
             id="path11003"
             inkscape:connector-curvature="0" />
          <circle
             style="display:inline;fill:#3465a4;stroke:#3465a4;stroke-width:0.41841185;stroke-linecap:round;stroke-linejoin:bevel;stroke-miterlimit:4;stroke-dasharray:none;stroke-dashoffset:0;stroke-opacity:1"
             id="path10949"
             cx="22.401167"
             cy="130.48349"
             r="1.4264768" />
          <circle
             style="display:inline;fill:#cc0000;stroke:#cc0000;stroke-width:0.41841185;stroke-linecap:round;stroke-linejoin:bevel;stroke-miterlimit:4;stroke-dasharray:none;stroke-dashoffset:0;stroke-opacity:1"
             id="path10949-9"
             cx="45.39875"
             cy="153.48106"
             r="1.4264768" />
          <circle
             style="display:inline;fill:#fce94f;stroke:#fce94f;stroke-width:0.41841185;stroke-linecap:round;stroke-linejoin:bevel;stroke-miterlimit:4;stroke-dasharray:none;stroke-dashoffset:0;stroke-opacity:1"
             id="path10949-0"
             cx="55.888248"
             cy="122.94981"
             r="1.4264768" />
        </g>
      </g>
    </g>
  </g>
</svg>
