<?xml version="1.0" encoding="UTF-8" standalone="no"?>
<!-- Created with Inkscape (http://www.inkscape.org/) -->

<svg
   xmlns:dc="http://purl.org/dc/elements/1.1/"
   xmlns:cc="http://creativecommons.org/ns#"
   xmlns:rdf="http://www.w3.org/1999/02/22-rdf-syntax-ns#"
   xmlns:svg="http://www.w3.org/2000/svg"
   xmlns="http://www.w3.org/2000/svg"
   xmlns:sodipodi="http://sodipodi.sourceforge.net/DTD/sodipodi-0.dtd"
   xmlns:inkscape="http://www.inkscape.org/namespaces/inkscape"
   width="826.8067"
   height="712.52142"
   id="svg2"
   version="1.1"
   inkscape:version="0.48.3.1 r9886"
   sodipodi:docname="fcl.svg">
  <defs
     id="defs4" />
  <sodipodi:namedview
     id="base"
     pagecolor="#ffffff"
     bordercolor="#666666"
     borderopacity="1.0"
     inkscape:pageopacity="0.0"
     inkscape:pageshadow="2"
     inkscape:zoom="0.70000001"
     inkscape:cx="374.15458"
     inkscape:cy="339.14229"
     inkscape:document-units="px"
     inkscape:current-layer="layer1"
     showgrid="false"
     units="cm"
     inkscape:snap-smooth-nodes="true"
     inkscape:snap-object-midpoints="true"
     inkscape:snap-midpoints="true"
     inkscape:object-nodes="true"
     inkscape:snap-global="true"
     fit-margin-top="0"
     fit-margin-left="0"
     fit-margin-right="0"
     fit-margin-bottom="0"
     inkscape:window-width="1280"
     inkscape:window-height="744"
     inkscape:window-x="0"
     inkscape:window-y="27"
     inkscape:window-maximized="1" />
  <metadata
     id="metadata7">
    <rdf:RDF>
      <cc:Work
         rdf:about="">
        <dc:format>image/svg+xml</dc:format>
        <dc:type
           rdf:resource="http://purl.org/dc/dcmitype/StillImage" />
        <dc:title></dc:title>
      </cc:Work>
    </rdf:RDF>
  </metadata>
  <g
     inkscape:label="Capa 1"
     inkscape:groupmode="layer"
     id="layer1"
     transform="translate(-68.518529,-273.05695)">
    <rect
       style="fill:none;stroke:#000000;stroke-width:0.538746;stroke-linecap:round;stroke-miterlimit:4;stroke-opacity:1;stroke-dasharray:none;stroke-dashoffset:0"
       id="rect3125"
       width="311.70306"
       height="311.70306"
       x="389.40527"
       y="352.9888" />
    <rect
       y="282.24057"
       x="574.4386"
       height="311.70306"
       width="311.70306"
       id="rect3895"
       style="fill:none;stroke:#818181;stroke-width:0.538746;stroke-linecap:round;stroke-miterlimit:4;stroke-opacity:1;stroke-dasharray:none;stroke-dashoffset:0" />
    <path
       style="fill:none;stroke:#000000;stroke-width:0.538746;stroke-linecap:butt;stroke-linejoin:miter;stroke-miterlimit:4;stroke-opacity:1;stroke-dasharray:none"
       d="M 389.40527,352.98875 574.43855,282.24073"
       id="path3897"
       inkscape:connector-curvature="0" />
    <path
       inkscape:connector-curvature="0"
       id="path3901"
       d="M 701.1083,352.98875 886.14164,282.24067"
       style="fill:none;stroke:#000000;stroke-width:0.538746;stroke-linecap:butt;stroke-linejoin:miter;stroke-miterlimit:4;stroke-opacity:1;stroke-dasharray:none" />
    <path
       style="fill:none;stroke:#000000;stroke-width:0.538746;stroke-linecap:butt;stroke-linejoin:miter;stroke-miterlimit:4;stroke-opacity:1;stroke-dasharray:none"
       d="M 701.1083,664.69167 886.14164,593.9436"
       id="path3903"
       inkscape:connector-curvature="0" />
    <path
       inkscape:connector-curvature="0"
       id="path3905"
       d="M 389.40521,664.69167 574.43855,593.9436"
       style="fill:none;stroke:#414141;stroke-width:0.538746;stroke-linecap:butt;stroke-linejoin:miter;stroke-miterlimit:4;stroke-opacity:1;stroke-dasharray:none;stroke-dashoffset:0" />
    <path
       style="fill:none;stroke:#000000;stroke-width:0.538746;stroke-linecap:butt;stroke-linejoin:miter;stroke-miterlimit:4;stroke-opacity:1;stroke-dasharray:none"
       d="m 574.43855,282.24073 311.70309,0"
       id="path3919"
       inkscape:connector-curvature="0" />
    <path
       style="fill:none;stroke:#000000;stroke-width:0.538746;stroke-linecap:butt;stroke-linejoin:miter;stroke-miterlimit:4;stroke-opacity:1;stroke-dasharray:none"
       d="m 886.14164,282.24073 0,311.70287"
       id="path3921"
       inkscape:connector-curvature="0" />
    <rect
       style="fill:none;stroke:#000000;stroke-width:0.538746;stroke-linecap:round;stroke-miterlimit:4;stroke-opacity:1;stroke-dasharray:none;stroke-dashoffset:0"
       id="rect3125-4"
       width="311.70306"
       height="311.70306"
       x="389.40527"
       y="664.69171" />
    <rect
       y="593.94348"
       x="574.4386"
       height="311.70306"
       width="311.70306"
       id="rect3895-2"
       style="fill:none;stroke:#818181;stroke-width:0.538746;stroke-linecap:round;stroke-miterlimit:4;stroke-opacity:1;stroke-dasharray:none;stroke-dashoffset:0" />
    <path
       style="fill:none;stroke:#000000;stroke-width:0.538746;stroke-linecap:butt;stroke-linejoin:miter;stroke-miterlimit:4;stroke-opacity:1;stroke-dasharray:none"
       d="M 701.1083,976.39422 886.14169,905.64631"
       id="path3903-8"
       inkscape:connector-curvature="0" />
    <path
       inkscape:connector-curvature="0"
       id="path3905-5"
       d="M 389.40527,976.39422 574.43861,905.64631"
       style="fill:none;stroke:#414141;stroke-width:0.538746;stroke-linecap:butt;stroke-linejoin:miter;stroke-miterlimit:4;stroke-opacity:1;stroke-dasharray:none;stroke-dashoffset:0" />
    <path
       style="fill:none;stroke:#000000;stroke-width:0.538746;stroke-linecap:butt;stroke-linejoin:miter;stroke-miterlimit:4;stroke-opacity:1;stroke-dasharray:none"
       d="m 886.14169,593.94344 0,311.70287"
       id="path3921-3"
       inkscape:connector-curvature="0" />
    <rect
       style="fill:none;stroke:#000000;stroke-width:0.538746;stroke-linecap:round;stroke-miterlimit:4;stroke-opacity:1;stroke-dasharray:none;stroke-dashoffset:0"
       id="rect3125-7"
       width="311.70306"
       height="311.70306"
       x="77.70224"
       y="352.98877" />
    <rect
       y="282.24051"
       x="262.73557"
       height="311.70306"
       width="311.70306"
       id="rect3895-29"
       style="fill:none;stroke:#818181;stroke-width:0.538746;stroke-linecap:round;stroke-miterlimit:4;stroke-opacity:1;stroke-dasharray:none;stroke-dashoffset:0" />
    <path
       style="fill:none;stroke:#000000;stroke-width:0.538746;stroke-linecap:butt;stroke-linejoin:miter;stroke-miterlimit:4;stroke-opacity:1;stroke-dasharray:none"
       d="M 77.702169,352.98871 262.73545,282.24069"
       id="path3897-5"
       inkscape:connector-curvature="0" />
    <path
       inkscape:connector-curvature="0"
       id="path3905-1"
       d="M 77.702115,664.69164 262.73545,593.94357"
       style="fill:none;stroke:#414141;stroke-width:0.538746;stroke-linecap:butt;stroke-linejoin:miter;stroke-miterlimit:4;stroke-opacity:1;stroke-dasharray:none;stroke-dashoffset:0" />
    <path
       style="fill:none;stroke:#000000;stroke-width:0.538746;stroke-linecap:butt;stroke-linejoin:miter;stroke-miterlimit:4;stroke-opacity:1;stroke-dasharray:none"
       d="m 262.73545,282.24069 311.70307,0"
       id="path3919-1"
       inkscape:connector-curvature="0" />
    <rect
       style="fill:none;stroke:#000000;stroke-width:0.538746;stroke-linecap:round;stroke-miterlimit:4;stroke-opacity:1;stroke-dasharray:none;stroke-dashoffset:0"
       id="rect3125-4-4"
       width="311.70306"
       height="311.70306"
       x="77.70224"
       y="664.69165" />
    <rect
       y="593.94336"
       x="262.73557"
       height="311.70306"
       width="311.70306"
       id="rect3895-2-8"
       style="fill:none;stroke:#818181;stroke-width:0.538746;stroke-linecap:round;stroke-miterlimit:4;stroke-opacity:1;stroke-dasharray:none;stroke-dashoffset:0" />
    <path
       inkscape:connector-curvature="0"
       id="path3905-5-3"
       d="M 77.702169,976.3942 262.73551,905.64629"
       style="fill:none;stroke:#414141;stroke-width:0.538746;stroke-linecap:butt;stroke-linejoin:miter;stroke-miterlimit:4;stroke-opacity:1;stroke-dasharray:none;stroke-dashoffset:0" />
    <path
       sodipodi:type="arc"
       style="fill:#000000;fill-opacity:1;stroke:none"
       id="path4438"
       sodipodi:cx="10.354064"
       sodipodi:cy="42.100018"
       sodipodi:rx="2.2728431"
       sodipodi:ry="2.2728431"
       d="m 12.626907,42.100018 c 0,1.255256 -1.017586,2.272843 -2.272843,2.272843 -1.2552566,0 -2.2728431,-1.017587 -2.2728431,-2.272843 0,-1.255257 1.0175865,-2.272844 2.2728431,-2.272844 1.255257,0 2.272843,1.017587 2.272843,2.272844 z"
       transform="matrix(4.040595,0,0,4.040595,35.865658,182.8796)" />
    <path
       transform="matrix(4.040595,0,0,4.040595,220.89887,112.13158)"
       d="m 12.626907,42.100018 c 0,1.255256 -1.017586,2.272843 -2.272843,2.272843 -1.2552566,0 -2.2728431,-1.017587 -2.2728431,-2.272843 0,-1.255257 1.0175865,-2.272844 2.2728431,-2.272844 1.255257,0 2.272843,1.017587 2.272843,2.272844 z"
       sodipodi:ry="2.2728431"
       sodipodi:rx="2.2728431"
       sodipodi:cy="42.100018"
       sodipodi:cx="10.354064"
       id="path4440"
       style="fill:#000000;fill-opacity:1;stroke:none"
       sodipodi:type="arc" />
    <path
       transform="matrix(4.040595,0,0,4.040595,532.60194,112.13158)"
       d="m 12.626907,42.100018 c 0,1.255256 -1.017586,2.272843 -2.272843,2.272843 -1.2552566,0 -2.2728431,-1.017587 -2.2728431,-2.272843 0,-1.255257 1.0175865,-2.272844 2.2728431,-2.272844 1.255257,0 2.272843,1.017587 2.272843,2.272844 z"
       sodipodi:ry="2.2728431"
       sodipodi:rx="2.2728431"
       sodipodi:cy="42.100018"
       sodipodi:cx="10.354064"
       id="path4455"
       style="fill:#000000;fill-opacity:1;stroke:none"
       sodipodi:type="arc" />
    <path
       sodipodi:type="arc"
       style="fill:#000000;fill-opacity:1;stroke:none"
       id="path4457"
       sodipodi:cx="10.354064"
       sodipodi:cy="42.100018"
       sodipodi:rx="2.2728431"
       sodipodi:ry="2.2728431"
       d="m 12.626907,42.100018 c 0,1.255256 -1.017586,2.272843 -2.272843,2.272843 -1.2552566,0 -2.2728431,-1.017587 -2.2728431,-2.272843 0,-1.255257 1.0175865,-2.272844 2.2728431,-2.272844 1.255257,0 2.272843,1.017587 2.272843,2.272844 z"
       transform="matrix(4.040595,0,0,4.040595,347.5686,182.87949)" />
    <path
       sodipodi:type="arc"
       style="fill:#000000;fill-opacity:1;stroke:none"
       id="path4461"
       sodipodi:cx="10.354064"
       sodipodi:cy="42.100018"
       sodipodi:rx="2.2728431"
       sodipodi:ry="2.2728431"
       d="m 12.626907,42.100018 c 0,1.255256 -1.017586,2.272843 -2.272843,2.272843 -1.2552566,0 -2.2728431,-1.017587 -2.2728431,-2.272843 0,-1.255257 1.0175865,-2.272844 2.2728431,-2.272844 1.255257,0 2.272843,1.017587 2.272843,2.272844 z"
       transform="matrix(4.040595,0,0,4.040595,659.27164,182.87949)" />
    <path
       transform="matrix(4.040595,0,0,4.040595,844.30499,112.13147)"
       d="m 12.626907,42.100018 c 0,1.255256 -1.017586,2.272843 -2.272843,2.272843 -1.2552566,0 -2.2728431,-1.017587 -2.2728431,-2.272843 0,-1.255257 1.0175865,-2.272844 2.2728431,-2.272844 1.255257,0 2.272843,1.017587 2.272843,2.272844 z"
       sodipodi:ry="2.2728431"
       sodipodi:rx="2.2728431"
       sodipodi:cy="42.100018"
       sodipodi:cx="10.354064"
       id="path4463"
       style="fill:#000000;fill-opacity:1;stroke:none"
       sodipodi:type="arc" />
    <path
       transform="matrix(4.040595,0,0,4.040595,844.30504,423.83414)"
       d="m 12.626907,42.100018 c 0,1.255256 -1.017586,2.272843 -2.272843,2.272843 -1.2552566,0 -2.2728431,-1.017587 -2.2728431,-2.272843 0,-1.255257 1.0175865,-2.272844 2.2728431,-2.272844 1.255257,0 2.272843,1.017587 2.272843,2.272844 z"
       sodipodi:ry="2.2728431"
       sodipodi:rx="2.2728431"
       sodipodi:cy="42.100018"
       sodipodi:cx="10.354064"
       id="path4471"
       style="fill:#000000;fill-opacity:1;stroke:none"
       sodipodi:type="arc" />
    <path
       sodipodi:type="arc"
       style="fill:#000000;fill-opacity:1;stroke:none"
       id="path4473"
       sodipodi:cx="10.354064"
       sodipodi:cy="42.100018"
       sodipodi:rx="2.2728431"
       sodipodi:ry="2.2728431"
       d="m 12.626907,42.100018 c 0,1.255256 -1.017586,2.272843 -2.272843,2.272843 -1.2552566,0 -2.2728431,-1.017587 -2.2728431,-2.272843 0,-1.255257 1.0175865,-2.272844 2.2728431,-2.272844 1.255257,0 2.272843,1.017587 2.272843,2.272844 z"
       transform="matrix(4.040595,0,0,4.040595,659.27164,494.58221)" />
    <path
       sodipodi:type="arc"
       style="fill:#000000;fill-opacity:1;stroke:none"
       id="path4477"
       sodipodi:cx="10.354064"
       sodipodi:cy="42.100018"
       sodipodi:rx="2.2728431"
       sodipodi:ry="2.2728431"
       d="m 12.626907,42.100018 c 0,1.255256 -1.017586,2.272843 -2.272843,2.272843 -1.2552566,0 -2.2728431,-1.017587 -2.2728431,-2.272843 0,-1.255257 1.0175865,-2.272844 2.2728431,-2.272844 1.255257,0 2.272843,1.017587 2.272843,2.272844 z"
       transform="matrix(4.040595,0,0,4.040595,659.27164,806.28498)" />
    <path
       transform="matrix(4.040595,0,0,4.040595,844.30504,735.53718)"
       d="m 12.626907,42.100018 c 0,1.255256 -1.017586,2.272843 -2.272843,2.272843 -1.2552566,0 -2.2728431,-1.017587 -2.2728431,-2.272843 0,-1.255257 1.0175865,-2.272844 2.2728431,-2.272844 1.255257,0 2.272843,1.017587 2.272843,2.272844 z"
       sodipodi:ry="2.2728431"
       sodipodi:rx="2.2728431"
       sodipodi:cy="42.100018"
       sodipodi:cx="10.354064"
       id="path4479"
       style="fill:#000000;fill-opacity:1;stroke:none"
       sodipodi:type="arc" />
    <path
       sodipodi:type="arc"
       style="fill:#000000;fill-opacity:1;stroke:none"
       id="path4481"
       sodipodi:cx="10.354064"
       sodipodi:cy="42.100018"
       sodipodi:rx="2.2728431"
       sodipodi:ry="2.2728431"
       d="m 12.626907,42.100018 c 0,1.255256 -1.017586,2.272843 -2.272843,2.272843 -1.2552566,0 -2.2728431,-1.017587 -2.2728431,-2.272843 0,-1.255257 1.0175865,-2.272844 2.2728431,-2.272844 1.255257,0 2.272843,1.017587 2.272843,2.272844 z"
       transform="matrix(4.040595,0,0,4.040595,347.5686,806.28563)" />
    <path
       sodipodi:type="arc"
       style="fill:#000000;fill-opacity:1;stroke:none"
       id="path4485"
       sodipodi:cx="10.354064"
       sodipodi:cy="42.100018"
       sodipodi:rx="2.2728431"
       sodipodi:ry="2.2728431"
       d="m 12.626907,42.100018 c 0,1.255256 -1.017586,2.272843 -2.272843,2.272843 -1.2552566,0 -2.2728431,-1.017587 -2.2728431,-2.272843 0,-1.255257 1.0175865,-2.272844 2.2728431,-2.272844 1.255257,0 2.272843,1.017587 2.272843,2.272844 z"
       transform="matrix(4.040595,0,0,4.040595,347.5686,494.58221)" />
    <path
       sodipodi:type="arc"
       style="fill:#000000;fill-opacity:1;stroke:none"
       id="path4489"
       sodipodi:cx="10.354064"
       sodipodi:cy="42.100018"
       sodipodi:rx="2.2728431"
       sodipodi:ry="2.2728431"
       d="m 12.626907,42.100018 c 0,1.255256 -1.017586,2.272843 -2.272843,2.272843 -1.2552566,0 -2.2728431,-1.017587 -2.2728431,-2.272843 0,-1.255257 1.0175865,-2.272844 2.2728431,-2.272844 1.255257,0 2.272843,1.017587 2.272843,2.272844 z"
       transform="matrix(4.040595,0,0,4.040595,35.865658,806.28546)" />
    <path
       transform="matrix(4.040595,0,0,4.040595,35.865588,494.58269)"
       d="m 12.626907,42.100018 c 0,1.255256 -1.017586,2.272843 -2.272843,2.272843 -1.2552566,0 -2.2728431,-1.017587 -2.2728431,-2.272843 0,-1.255257 1.0175865,-2.272844 2.2728431,-2.272844 1.255257,0 2.272843,1.017587 2.272843,2.272844 z"
       sodipodi:ry="2.2728431"
       sodipodi:rx="2.2728431"
       sodipodi:cy="42.100018"
       sodipodi:cx="10.354064"
       id="path4491"
       style="fill:#000000;fill-opacity:1;stroke:none"
       sodipodi:type="arc" />
    <path
       transform="matrix(4.040595,0,0,4.040595,532.60194,423.83446)"
       d="m 12.626907,42.100018 c 0,1.255256 -1.017586,2.272843 -2.272843,2.272843 -1.2552566,0 -2.2728431,-1.017587 -2.2728431,-2.272843 0,-1.255257 1.0175865,-2.272844 2.2728431,-2.272844 1.255257,0 2.272843,1.017587 2.272843,2.272844 z"
       sodipodi:ry="2.2728431"
       sodipodi:rx="2.2728431"
       sodipodi:cy="42.100018"
       sodipodi:cx="10.354064"
       id="path4499"
       style="fill:#4c4c4c;fill-opacity:1;stroke:none"
       sodipodi:type="arc" />
    <path
       transform="matrix(4.040595,0,0,4.040595,220.89895,423.8343)"
       d="m 12.626907,42.100018 c 0,1.255256 -1.017586,2.272843 -2.272843,2.272843 -1.2552566,0 -2.2728431,-1.017587 -2.2728431,-2.272843 0,-1.255257 1.0175865,-2.272844 2.2728431,-2.272844 1.255257,0 2.272843,1.017587 2.272843,2.272844 z"
       sodipodi:ry="2.2728431"
       sodipodi:rx="2.2728431"
       sodipodi:cy="42.100018"
       sodipodi:cx="10.354064"
       id="path3847"
       style="fill:#4c4c4c;fill-opacity:1;stroke:none"
       sodipodi:type="arc" />
    <path
       transform="matrix(4.040595,0,0,4.040595,220.89893,735.53718)"
       d="m 12.626907,42.100018 c 0,1.255256 -1.017586,2.272843 -2.272843,2.272843 -1.2552566,0 -2.2728431,-1.017587 -2.2728431,-2.272843 0,-1.255257 1.0175865,-2.272844 2.2728431,-2.272844 1.255257,0 2.272843,1.017587 2.272843,2.272844 z"
       sodipodi:ry="2.2728431"
       sodipodi:rx="2.2728431"
       sodipodi:cy="42.100018"
       sodipodi:cx="10.354064"
       id="path3849"
       style="fill:#4c4c4c;fill-opacity:1;stroke:none"
       sodipodi:type="arc" />
    <path
       transform="matrix(4.040595,0,0,4.040595,532.60205,735.53724)"
       d="m 12.626907,42.100018 c 0,1.255256 -1.017586,2.272843 -2.272843,2.272843 -1.2552566,0 -2.2728431,-1.017587 -2.2728431,-2.272843 0,-1.255257 1.0175865,-2.272844 2.2728431,-2.272844 1.255257,0 2.272843,1.017587 2.272843,2.272844 z"
       sodipodi:ry="2.2728431"
       sodipodi:rx="2.2728431"
       sodipodi:cy="42.100018"
       sodipodi:cx="10.354064"
       id="path3851"
       style="fill:#4c4c4c;fill-opacity:1;stroke:none"
       sodipodi:type="arc" />
  </g>
</svg>
