<?xml version="1.0" encoding="UTF-8" standalone="no"?>
<!-- Created with Inkscape (http://www.inkscape.org/) -->

<svg
   xmlns:dc="http://purl.org/dc/elements/1.1/"
   xmlns:cc="http://creativecommons.org/ns#"
   xmlns:rdf="http://www.w3.org/1999/02/22-rdf-syntax-ns#"
   xmlns:svg="http://www.w3.org/2000/svg"
   xmlns="http://www.w3.org/2000/svg"
   xmlns:sodipodi="http://sodipodi.sourceforge.net/DTD/sodipodi-0.dtd"
   xmlns:inkscape="http://www.inkscape.org/namespaces/inkscape"
   width="732.26398"
   height="693.54456"
   id="svg3478"
   version="1.1"
   inkscape:version="0.48.3.1 r9886"
   sodipodi:docname="Nuevo documento 9">
  <defs
     id="defs3480" />
  <sodipodi:namedview
     id="base"
     pagecolor="#ffffff"
     bordercolor="#666666"
     borderopacity="1.0"
     inkscape:pageopacity="0.0"
     inkscape:pageshadow="2"
     inkscape:zoom="0.35"
     inkscape:cx="210.65866"
     inkscape:cy="452.0748"
     inkscape:document-units="px"
     inkscape:current-layer="layer1"
     showgrid="false"
     inkscape:snap-object-midpoints="true"
     fit-margin-top="0"
     fit-margin-left="0"
     fit-margin-right="0"
     fit-margin-bottom="0"
     inkscape:window-width="1280"
     inkscape:window-height="744"
     inkscape:window-x="0"
     inkscape:window-y="27"
     inkscape:window-maximized="1" />
  <metadata
     id="metadata3483">
    <rdf:RDF>
      <cc:Work
         rdf:about="">
        <dc:format>image/svg+xml</dc:format>
        <dc:type
           rdf:resource="http://purl.org/dc/dcmitype/StillImage" />
        <dc:title></dc:title>
      </cc:Work>
    </rdf:RDF>
  </metadata>
  <g
     inkscape:label="Capa 1"
     inkscape:groupmode="layer"
     id="layer1"
     transform="translate(68.093754,-219.91656)">
    <path
       sodipodi:type="arc"
       style="fill:#000000;fill-opacity:1;stroke:#000000;stroke-width:1;stroke-linecap:round;stroke-linejoin:round;stroke-miterlimit:4;stroke-opacity:1;stroke-dasharray:none;stroke-dashoffset:0"
       id="path3486"
       sodipodi:cx="412.14224"
       sodipodi:cy="674.56512"
       sodipodi:rx="16.162441"
       sodipodi:ry="16.162441"
       d="m 428.30468,674.56512 c 0,8.92627 -7.23617,16.16245 -16.16244,16.16245 -8.92627,0 -16.16244,-7.23618 -16.16244,-16.16245 0,-8.92627 7.23617,-16.16244 16.16244,-16.16244 8.92627,0 16.16244,7.23617 16.16244,16.16244 z"
       transform="matrix(0.81812643,0,0,0.81812643,30.51106,347.94959)" />
    <path
       sodipodi:type="arc"
       style="fill:#000000;fill-opacity:1;stroke:#000000;stroke-width:1;stroke-linecap:round;stroke-linejoin:round;stroke-miterlimit:4;stroke-opacity:1;stroke-dasharray:none;stroke-dashoffset:0"
       id="path3486-6"
       sodipodi:cx="412.14224"
       sodipodi:cy="674.56512"
       sodipodi:rx="16.162441"
       sodipodi:ry="16.162441"
       d="m 428.30468,674.56512 c 0,8.92627 -7.23617,16.16245 -16.16244,16.16245 -8.92627,0 -16.16244,-7.23618 -16.16244,-16.16245 0,-8.92627 7.23617,-16.16244 16.16244,-16.16244 8.92627,0 16.16244,7.23617 16.16244,16.16244 z"
       transform="matrix(0.81812643,0,0,0.81812643,30.51106,-240.96934)" />
    <g
       id="g4421"
       transform="translate(6.06091,-5.7242432)">
      <path
         transform="matrix(0.81812643,0,0,0.81812643,-258.39256,-38.938833)"
         d="m 428.30468,674.56512 c 0,8.92627 -7.23617,16.16245 -16.16244,16.16245 -8.92627,0 -16.16244,-7.23618 -16.16244,-16.16245 0,-8.92627 7.23617,-16.16244 16.16244,-16.16244 8.92627,0 16.16244,7.23617 16.16244,16.16244 z"
         sodipodi:ry="16.162441"
         sodipodi:rx="16.162441"
         sodipodi:cy="674.56512"
         sodipodi:cx="412.14224"
         id="path3486-1"
         style="fill:#000000;fill-opacity:1;stroke:#000000;stroke-width:1;stroke-linecap:round;stroke-linejoin:round;stroke-miterlimit:4;stroke-opacity:1;stroke-dasharray:none;stroke-dashoffset:0"
         sodipodi:type="arc" />
      <path
         transform="matrix(0.81812643,0,0,0.81812643,-116.97121,-38.938833)"
         d="m 428.30468,674.56512 c 0,8.92627 -7.23617,16.16245 -16.16244,16.16245 -8.92627,0 -16.16244,-7.23618 -16.16244,-16.16245 0,-8.92627 7.23617,-16.16244 16.16244,-16.16244 8.92627,0 16.16244,7.23617 16.16244,16.16244 z"
         sodipodi:ry="16.162441"
         sodipodi:rx="16.162441"
         sodipodi:cy="674.56512"
         sodipodi:cx="412.14224"
         id="path3486-77"
         style="fill:#000000;fill-opacity:1;stroke:#000000;stroke-width:1;stroke-linecap:round;stroke-linejoin:round;stroke-miterlimit:4;stroke-opacity:1;stroke-dasharray:none;stroke-dashoffset:0"
         sodipodi:type="arc" />
      <path
         transform="matrix(0.81812643,0,0,0.81812643,24.450163,-38.938833)"
         d="m 428.30468,674.56512 c 0,8.92627 -7.23617,16.16245 -16.16244,16.16245 -8.92627,0 -16.16244,-7.23618 -16.16244,-16.16245 0,-8.92627 7.23617,-16.16244 16.16244,-16.16244 8.92627,0 16.16244,7.23617 16.16244,16.16244 z"
         sodipodi:ry="16.162441"
         sodipodi:rx="16.162441"
         sodipodi:cy="674.56512"
         sodipodi:cx="412.14224"
         id="path3486-85"
         style="fill:#000000;fill-opacity:1;stroke:#000000;stroke-width:1;stroke-linecap:round;stroke-linejoin:round;stroke-miterlimit:4;stroke-opacity:1;stroke-dasharray:none;stroke-dashoffset:0"
         sodipodi:type="arc" />
      <path
         transform="matrix(0.81812643,0,0,0.81812643,165.87151,-38.938833)"
         d="m 428.30468,674.56512 c 0,8.92627 -7.23617,16.16245 -16.16244,16.16245 -8.92627,0 -16.16244,-7.23618 -16.16244,-16.16245 0,-8.92627 7.23617,-16.16244 16.16244,-16.16244 8.92627,0 16.16244,7.23617 16.16244,16.16244 z"
         sodipodi:ry="16.162441"
         sodipodi:rx="16.162441"
         sodipodi:cy="674.56512"
         sodipodi:cx="412.14224"
         id="path3486-92"
         style="fill:#000000;fill-opacity:1;stroke:#000000;stroke-width:1;stroke-linecap:round;stroke-linejoin:round;stroke-miterlimit:4;stroke-opacity:1;stroke-dasharray:none;stroke-dashoffset:0"
         sodipodi:type="arc" />
      <path
         transform="matrix(0.81812643,0,0,0.81812643,307.29286,-38.938833)"
         d="m 428.30468,674.56512 c 0,8.92627 -7.23617,16.16245 -16.16244,16.16245 -8.92627,0 -16.16244,-7.23618 -16.16244,-16.16245 0,-8.92627 7.23617,-16.16244 16.16244,-16.16244 8.92627,0 16.16244,7.23617 16.16244,16.16244 z"
         sodipodi:ry="16.162441"
         sodipodi:rx="16.162441"
         sodipodi:cy="674.56512"
         sodipodi:cx="412.14224"
         id="path3486-5"
         style="fill:#000000;fill-opacity:1;stroke:#000000;stroke-width:1;stroke-linecap:round;stroke-linejoin:round;stroke-miterlimit:4;stroke-opacity:1;stroke-dasharray:none;stroke-dashoffset:0"
         sodipodi:type="arc" />
      <path
         sodipodi:type="arc"
         style="fill:#000000;fill-opacity:1;stroke:#000000;stroke-width:1;stroke-linecap:round;stroke-linejoin:round;stroke-miterlimit:4;stroke-opacity:1;stroke-dasharray:none;stroke-dashoffset:0"
         id="path4389"
         sodipodi:cx="412.14224"
         sodipodi:cy="674.56512"
         sodipodi:rx="16.162441"
         sodipodi:ry="16.162441"
         d="m 428.30468,674.56512 c 0,8.92627 -7.23617,16.16245 -16.16244,16.16245 -8.92627,0 -16.16244,-7.23618 -16.16244,-16.16245 0,-8.92627 7.23617,-16.16244 16.16244,-16.16244 8.92627,0 16.16244,7.23617 16.16244,16.16244 z"
         transform="matrix(0.81812643,0,0,0.81812643,-258.39256,-38.938833)" />
      <path
         sodipodi:type="arc"
         style="fill:#000000;fill-opacity:1;stroke:#000000;stroke-width:1;stroke-linecap:round;stroke-linejoin:round;stroke-miterlimit:4;stroke-opacity:1;stroke-dasharray:none;stroke-dashoffset:0"
         id="path4391"
         sodipodi:cx="412.14224"
         sodipodi:cy="674.56512"
         sodipodi:rx="16.162441"
         sodipodi:ry="16.162441"
         d="m 428.30468,674.56512 c 0,8.92627 -7.23617,16.16245 -16.16244,16.16245 -8.92627,0 -16.16244,-7.23618 -16.16244,-16.16245 0,-8.92627 7.23617,-16.16244 16.16244,-16.16244 8.92627,0 16.16244,7.23617 16.16244,16.16244 z"
         transform="matrix(0.81812643,0,0,0.81812643,-116.97121,-38.938833)" />
      <path
         sodipodi:type="arc"
         style="fill:#000000;fill-opacity:1;stroke:#000000;stroke-width:1;stroke-linecap:round;stroke-linejoin:round;stroke-miterlimit:4;stroke-opacity:1;stroke-dasharray:none;stroke-dashoffset:0"
         id="path4393"
         sodipodi:cx="412.14224"
         sodipodi:cy="674.56512"
         sodipodi:rx="16.162441"
         sodipodi:ry="16.162441"
         d="m 428.30468,674.56512 c 0,8.92627 -7.23617,16.16245 -16.16244,16.16245 -8.92627,0 -16.16244,-7.23618 -16.16244,-16.16245 0,-8.92627 7.23617,-16.16244 16.16244,-16.16244 8.92627,0 16.16244,7.23617 16.16244,16.16244 z"
         transform="matrix(0.81812643,0,0,0.81812643,24.450163,-38.938833)" />
      <path
         sodipodi:type="arc"
         style="fill:#000000;fill-opacity:1;stroke:#000000;stroke-width:1;stroke-linecap:round;stroke-linejoin:round;stroke-miterlimit:4;stroke-opacity:1;stroke-dasharray:none;stroke-dashoffset:0"
         id="path4395"
         sodipodi:cx="412.14224"
         sodipodi:cy="674.56512"
         sodipodi:rx="16.162441"
         sodipodi:ry="16.162441"
         d="m 428.30468,674.56512 c 0,8.92627 -7.23617,16.16245 -16.16244,16.16245 -8.92627,0 -16.16244,-7.23618 -16.16244,-16.16245 0,-8.92627 7.23617,-16.16244 16.16244,-16.16244 8.92627,0 16.16244,7.23617 16.16244,16.16244 z"
         transform="matrix(0.81812643,0,0,0.81812643,165.87151,-38.938833)" />
      <path
         sodipodi:type="arc"
         style="fill:#000000;fill-opacity:1;stroke:#000000;stroke-width:1;stroke-linecap:round;stroke-linejoin:round;stroke-miterlimit:4;stroke-opacity:1;stroke-dasharray:none;stroke-dashoffset:0"
         id="path4397"
         sodipodi:cx="412.14224"
         sodipodi:cy="674.56512"
         sodipodi:rx="16.162441"
         sodipodi:ry="16.162441"
         d="m 428.30468,674.56512 c 0,8.92627 -7.23617,16.16245 -16.16244,16.16245 -8.92627,0 -16.16244,-7.23618 -16.16244,-16.16245 0,-8.92627 7.23617,-16.16244 16.16244,-16.16244 8.92627,0 16.16244,7.23617 16.16244,16.16244 z"
         transform="matrix(0.81812643,0,0,0.81812643,307.29286,-38.938833)" />
    </g>
    <g
       id="g4409"
       transform="translate(0,30.977997)">
      <path
         transform="matrix(0.81812643,0,0,0.81812643,-252.33165,120.66527)"
         d="m 428.30468,674.56512 c 0,8.92627 -7.23617,16.16245 -16.16244,16.16245 -8.92627,0 -16.16244,-7.23618 -16.16244,-16.16245 0,-8.92627 7.23617,-16.16244 16.16244,-16.16244 8.92627,0 16.16244,7.23617 16.16244,16.16244 z"
         sodipodi:ry="16.162441"
         sodipodi:rx="16.162441"
         sodipodi:cy="674.56512"
         sodipodi:cx="412.14224"
         id="path3486-1-2"
         style="fill:#000000;fill-opacity:1;stroke:#000000;stroke-width:1;stroke-linecap:round;stroke-linejoin:round;stroke-miterlimit:4;stroke-opacity:1;stroke-dasharray:none;stroke-dashoffset:0"
         sodipodi:type="arc" />
      <path
         transform="matrix(0.81812643,0,0,0.81812643,-110.9103,120.66527)"
         d="m 428.30468,674.56512 c 0,8.92627 -7.23617,16.16245 -16.16244,16.16245 -8.92627,0 -16.16244,-7.23618 -16.16244,-16.16245 0,-8.92627 7.23617,-16.16244 16.16244,-16.16244 8.92627,0 16.16244,7.23617 16.16244,16.16244 z"
         sodipodi:ry="16.162441"
         sodipodi:rx="16.162441"
         sodipodi:cy="674.56512"
         sodipodi:cx="412.14224"
         id="path3486-77-2"
         style="fill:#000000;fill-opacity:1;stroke:#000000;stroke-width:1;stroke-linecap:round;stroke-linejoin:round;stroke-miterlimit:4;stroke-opacity:1;stroke-dasharray:none;stroke-dashoffset:0"
         sodipodi:type="arc" />
      <path
         transform="matrix(0.81812643,0,0,0.81812643,30.51108,120.66527)"
         d="m 428.30468,674.56512 c 0,8.92627 -7.23617,16.16245 -16.16244,16.16245 -8.92627,0 -16.16244,-7.23618 -16.16244,-16.16245 0,-8.92627 7.23617,-16.16244 16.16244,-16.16244 8.92627,0 16.16244,7.23617 16.16244,16.16244 z"
         sodipodi:ry="16.162441"
         sodipodi:rx="16.162441"
         sodipodi:cy="674.56512"
         sodipodi:cx="412.14224"
         id="path3486-85-2"
         style="fill:#000000;fill-opacity:1;stroke:#000000;stroke-width:1;stroke-linecap:round;stroke-linejoin:round;stroke-miterlimit:4;stroke-opacity:1;stroke-dasharray:none;stroke-dashoffset:0"
         sodipodi:type="arc" />
      <path
         transform="matrix(0.81812643,0,0,0.81812643,171.93242,120.66527)"
         d="m 428.30468,674.56512 c 0,8.92627 -7.23617,16.16245 -16.16244,16.16245 -8.92627,0 -16.16244,-7.23618 -16.16244,-16.16245 0,-8.92627 7.23617,-16.16244 16.16244,-16.16244 8.92627,0 16.16244,7.23617 16.16244,16.16244 z"
         sodipodi:ry="16.162441"
         sodipodi:rx="16.162441"
         sodipodi:cy="674.56512"
         sodipodi:cx="412.14224"
         id="path3486-92-9"
         style="fill:#000000;fill-opacity:1;stroke:#000000;stroke-width:1;stroke-linecap:round;stroke-linejoin:round;stroke-miterlimit:4;stroke-opacity:1;stroke-dasharray:none;stroke-dashoffset:0"
         sodipodi:type="arc" />
      <path
         transform="matrix(0.81812643,0,0,0.81812643,313.35377,120.66527)"
         d="m 428.30468,674.56512 c 0,8.92627 -7.23617,16.16245 -16.16244,16.16245 -8.92627,0 -16.16244,-7.23618 -16.16244,-16.16245 0,-8.92627 7.23617,-16.16244 16.16244,-16.16244 8.92627,0 16.16244,7.23617 16.16244,16.16244 z"
         sodipodi:ry="16.162441"
         sodipodi:rx="16.162441"
         sodipodi:cy="674.56512"
         sodipodi:cx="412.14224"
         id="path3486-5-9"
         style="fill:#000000;fill-opacity:1;stroke:#000000;stroke-width:1;stroke-linecap:round;stroke-linejoin:round;stroke-miterlimit:4;stroke-opacity:1;stroke-dasharray:none;stroke-dashoffset:0"
         sodipodi:type="arc" />
      <path
         sodipodi:type="arc"
         style="fill:#000000;fill-opacity:1;stroke:#000000;stroke-width:1;stroke-linecap:round;stroke-linejoin:round;stroke-miterlimit:4;stroke-opacity:1;stroke-dasharray:none;stroke-dashoffset:0"
         id="path4399"
         sodipodi:cx="412.14224"
         sodipodi:cy="674.56512"
         sodipodi:rx="16.162441"
         sodipodi:ry="16.162441"
         d="m 428.30468,674.56512 c 0,8.92627 -7.23617,16.16245 -16.16244,16.16245 -8.92627,0 -16.16244,-7.23618 -16.16244,-16.16245 0,-8.92627 7.23617,-16.16244 16.16244,-16.16244 8.92627,0 16.16244,7.23617 16.16244,16.16244 z"
         transform="matrix(0.81812643,0,0,0.81812643,-252.33165,120.66527)" />
      <path
         sodipodi:type="arc"
         style="fill:#000000;fill-opacity:1;stroke:#000000;stroke-width:1;stroke-linecap:round;stroke-linejoin:round;stroke-miterlimit:4;stroke-opacity:1;stroke-dasharray:none;stroke-dashoffset:0"
         id="path4401"
         sodipodi:cx="412.14224"
         sodipodi:cy="674.56512"
         sodipodi:rx="16.162441"
         sodipodi:ry="16.162441"
         d="m 428.30468,674.56512 c 0,8.92627 -7.23617,16.16245 -16.16244,16.16245 -8.92627,0 -16.16244,-7.23618 -16.16244,-16.16245 0,-8.92627 7.23617,-16.16244 16.16244,-16.16244 8.92627,0 16.16244,7.23617 16.16244,16.16244 z"
         transform="matrix(0.81812643,0,0,0.81812643,-110.9103,120.66527)" />
      <path
         sodipodi:type="arc"
         style="fill:#000000;fill-opacity:1;stroke:#000000;stroke-width:1;stroke-linecap:round;stroke-linejoin:round;stroke-miterlimit:4;stroke-opacity:1;stroke-dasharray:none;stroke-dashoffset:0"
         id="path4403"
         sodipodi:cx="412.14224"
         sodipodi:cy="674.56512"
         sodipodi:rx="16.162441"
         sodipodi:ry="16.162441"
         d="m 428.30468,674.56512 c 0,8.92627 -7.23617,16.16245 -16.16244,16.16245 -8.92627,0 -16.16244,-7.23618 -16.16244,-16.16245 0,-8.92627 7.23617,-16.16244 16.16244,-16.16244 8.92627,0 16.16244,7.23617 16.16244,16.16244 z"
         transform="matrix(0.81812643,0,0,0.81812643,30.51108,120.66527)" />
      <path
         sodipodi:type="arc"
         style="fill:#000000;fill-opacity:1;stroke:#000000;stroke-width:1;stroke-linecap:round;stroke-linejoin:round;stroke-miterlimit:4;stroke-opacity:1;stroke-dasharray:none;stroke-dashoffset:0"
         id="path4405"
         sodipodi:cx="412.14224"
         sodipodi:cy="674.56512"
         sodipodi:rx="16.162441"
         sodipodi:ry="16.162441"
         d="m 428.30468,674.56512 c 0,8.92627 -7.23617,16.16245 -16.16244,16.16245 -8.92627,0 -16.16244,-7.23618 -16.16244,-16.16245 0,-8.92627 7.23617,-16.16244 16.16244,-16.16244 8.92627,0 16.16244,7.23617 16.16244,16.16244 z"
         transform="matrix(0.81812643,0,0,0.81812643,171.93242,120.66527)" />
      <path
         sodipodi:type="arc"
         style="fill:#000000;fill-opacity:1;stroke:#000000;stroke-width:1;stroke-linecap:round;stroke-linejoin:round;stroke-miterlimit:4;stroke-opacity:1;stroke-dasharray:none;stroke-dashoffset:0"
         id="path4407"
         sodipodi:cx="412.14224"
         sodipodi:cy="674.56512"
         sodipodi:rx="16.162441"
         sodipodi:ry="16.162441"
         d="m 428.30468,674.56512 c 0,8.92627 -7.23617,16.16245 -16.16244,16.16245 -8.92627,0 -16.16244,-7.23618 -16.16244,-16.16245 0,-8.92627 7.23617,-16.16244 16.16244,-16.16244 8.92627,0 16.16244,7.23617 16.16244,16.16244 z"
         transform="matrix(0.81812643,0,0,0.81812643,313.35377,120.66527)" />
    </g>
    <path
       style="fill:none;stroke:#000000;stroke-width:1px;stroke-linecap:butt;stroke-linejoin:miter;stroke-opacity:1"
       d="M 84.852811,703.52282 367.69552,899.82915 226.27416,703.52282"
       id="path4433"
       inkscape:connector-curvature="0" />
    <path
       style="fill:none;stroke:#000000;stroke-width:1px;stroke-linecap:butt;stroke-linejoin:miter;stroke-opacity:1"
       d="m 367.69554,703.52282 -2e-5,196.30633"
       id="path4435"
       inkscape:connector-curvature="0" />
    <path
       style="fill:none;stroke:#000000;stroke-width:1px;stroke-linecap:butt;stroke-linejoin:miter;stroke-opacity:1"
       d="M 509.11688,703.52282 367.69552,899.82915"
       id="path4437"
       inkscape:connector-curvature="0" />
    <path
       style="fill:none;stroke:#000000;stroke-width:1px;stroke-linecap:butt;stroke-linejoin:miter;stroke-opacity:1"
       d="M 650.53823,703.52282 367.69552,899.82915"
       id="path4439"
       inkscape:connector-curvature="0" />
    <path
       style="fill:none;stroke:#000000;stroke-width:1px;stroke-linecap:butt;stroke-linejoin:miter;stroke-opacity:1"
       d="M 84.852811,507.21648 367.69552,310.91022"
       id="path4441"
       inkscape:connector-curvature="0" />
    <path
       style="fill:none;stroke:#000000;stroke-width:1px;stroke-linecap:butt;stroke-linejoin:miter;stroke-opacity:1"
       d="M 226.27416,507.21648 367.69552,310.91022"
       id="path4443"
       inkscape:connector-curvature="0" />
    <path
       style="fill:none;stroke:#000000;stroke-width:1px;stroke-linecap:butt;stroke-linejoin:miter;stroke-opacity:1"
       d="m 367.69553,507.21648 -1e-5,-196.30626"
       id="path4445"
       inkscape:connector-curvature="0" />
    <path
       style="fill:none;stroke:#000000;stroke-width:1px;stroke-linecap:butt;stroke-linejoin:miter;stroke-opacity:1"
       d="M 509.11688,507.21648 367.69552,310.91022"
       id="path4447"
       inkscape:connector-curvature="0" />
    <path
       style="fill:none;stroke:#000000;stroke-width:1px;stroke-linecap:butt;stroke-linejoin:miter;stroke-opacity:1"
       d="M 650.53823,507.21648 367.69552,310.91022"
       id="path4449"
       inkscape:connector-curvature="0" />
    <path
       style="fill:none;stroke:#000000;stroke-width:1px;stroke-linecap:butt;stroke-linejoin:miter;stroke-opacity:1"
       d="m 84.852811,703.52282 0,-196.30634 141.421349,196.30634"
       id="path4451"
       inkscape:connector-curvature="0" />
    <path
       style="fill:none;stroke:#000000;stroke-width:1px;stroke-linecap:butt;stroke-linejoin:miter;stroke-opacity:1"
       d="m 226.27416,703.52282 0,-196.30634 141.42138,196.30634"
       id="path4453"
       inkscape:connector-curvature="0" />
    <path
       style="fill:none;stroke:#000000;stroke-width:1px;stroke-linecap:butt;stroke-linejoin:miter;stroke-opacity:1"
       d="m 367.69554,703.52282 -10e-6,-196.30634 141.42135,196.30634 0,-196.30634 141.42135,196.30634 0,-196.30634 -565.685419,196.30634"
       id="path4455"
       inkscape:connector-curvature="0" />
    <text
       xml:space="preserve"
       style="font-size:12px;font-style:normal;font-weight:normal;text-align:end;line-height:125%;letter-spacing:0px;word-spacing:0px;text-anchor:end;fill:#000000;fill-opacity:1;stroke:none;font-family:Sans"
       x="-31.255863"
       y="228.66461"
       id="text3124"
       sodipodi:linespacing="125%"><tspan
         sodipodi:role="line"
         id="tspan3126"
         x="-31.255863"
         y="228.66461">Rango</tspan></text>
    <text
       xml:space="preserve"
       style="font-size:12px;font-style:normal;font-weight:normal;text-align:end;line-height:125%;letter-spacing:0px;word-spacing:0px;text-anchor:end;fill:#000000;fill-opacity:1;stroke:none;font-family:Sans"
       x="-31.255863"
       y="903.50592"
       id="text3128"
       sodipodi:linespacing="125%"><tspan
         sodipodi:role="line"
         id="tspan3130"
         x="-31.255863"
         y="903.50592">$-1$</tspan></text>
    <text
       xml:space="preserve"
       style="font-size:12px;font-style:normal;font-weight:normal;text-align:end;line-height:125%;letter-spacing:0px;word-spacing:0px;text-anchor:end;fill:#000000;fill-opacity:1;stroke:none;font-family:Sans"
       x="-31.255863"
       y="707.19958"
       id="text3132"
       sodipodi:linespacing="125%"><tspan
         sodipodi:role="line"
         id="tspan3134"
         x="-31.255863"
         y="707.19958">$0$</tspan></text>
    <text
       xml:space="preserve"
       style="font-size:12px;font-style:normal;font-weight:normal;text-align:end;line-height:125%;letter-spacing:0px;word-spacing:0px;text-anchor:end;fill:#000000;fill-opacity:1;stroke:none;font-family:Sans"
       x="-31.255863"
       y="510.89325"
       id="text3136"
       sodipodi:linespacing="125%"><tspan
         sodipodi:role="line"
         id="tspan3138"
         x="-31.255863"
         y="510.89325">$1$</tspan></text>
    <text
       xml:space="preserve"
       style="font-size:12px;font-style:normal;font-weight:normal;text-align:end;line-height:125%;letter-spacing:0px;word-spacing:0px;text-anchor:end;fill:#000000;fill-opacity:1;stroke:none;font-family:Sans"
       x="-31.255863"
       y="314.58698"
       id="text3140"
       sodipodi:linespacing="125%"><tspan
         sodipodi:role="line"
         id="tspan3142"
         x="-31.255863"
         y="314.58698">$2$</tspan></text>
  </g>
</svg>
