<?xml version="1.0" encoding="UTF-8" standalone="no"?>
<!-- Created with Inkscape (http://www.inkscape.org/) -->

<svg
   xmlns:dc="http://purl.org/dc/elements/1.1/"
   xmlns:cc="http://creativecommons.org/ns#"
   xmlns:rdf="http://www.w3.org/1999/02/22-rdf-syntax-ns#"
   xmlns:svg="http://www.w3.org/2000/svg"
   xmlns="http://www.w3.org/2000/svg"
   xmlns:sodipodi="http://sodipodi.sourceforge.net/DTD/sodipodi-0.dtd"
   xmlns:inkscape="http://www.inkscape.org/namespaces/inkscape"
   width="400.78497"
   height="244.45923"
   id="svg2"
   version="1.1"
   inkscape:version="0.48.3.1 r9886"
   sodipodi:docname="cubo3a.svg">
  <defs
     id="defs4">
    <marker
       inkscape:stockid="Arrow2Mend"
       orient="auto"
       refY="0.0"
       refX="0.0"
       id="Arrow2Mend"
       style="overflow:visible;">
      <path
         id="path4150"
         style="fill-rule:evenodd;stroke-width:0.62500000;stroke-linejoin:round;"
         d="M 8.7185878,4.0337352 L -2.2072895,0.016013256 L 8.7185884,-4.0017078 C 6.9730900,-1.6296469 6.9831476,1.6157441 8.7185878,4.0337352 z "
         transform="scale(0.6) rotate(180) translate(0,0)" />
    </marker>
    <marker
       inkscape:stockid="Arrow2Mstart"
       orient="auto"
       refY="0.0"
       refX="0.0"
       id="Arrow2Mstart"
       style="overflow:visible">
      <path
         id="path4147"
         style="fill-rule:evenodd;stroke-width:0.62500000;stroke-linejoin:round"
         d="M 8.7185878,4.0337352 L -2.2072895,0.016013256 L 8.7185884,-4.0017078 C 6.9730900,-1.6296469 6.9831476,1.6157441 8.7185878,4.0337352 z "
         transform="scale(0.6) translate(0,0)" />
    </marker>
  </defs>
  <sodipodi:namedview
     id="base"
     pagecolor="#ffffff"
     bordercolor="#666666"
     borderopacity="1.0"
     inkscape:pageopacity="0.0"
     inkscape:pageshadow="2"
     inkscape:zoom="1.979899"
     inkscape:cx="198.10493"
     inkscape:cy="145.7952"
     inkscape:document-units="px"
     inkscape:current-layer="layer1"
     showgrid="false"
     inkscape:snap-midpoints="true"
     inkscape:snap-object-midpoints="true"
     inkscape:snap-smooth-nodes="true"
     inkscape:snap-center="true"
     inkscape:object-paths="false"
     inkscape:object-nodes="true"
     fit-margin-top="0"
     fit-margin-left="0"
     fit-margin-right="0"
     fit-margin-bottom="0"
     inkscape:window-width="1280"
     inkscape:window-height="744"
     inkscape:window-x="0"
     inkscape:window-y="27"
     inkscape:window-maximized="1"
     inkscape:snap-global="true"
     showguides="true"
     inkscape:guide-bbox="true" />
  <metadata
     id="metadata7">
    <rdf:RDF>
      <cc:Work
         rdf:about="">
        <dc:format>image/svg+xml</dc:format>
        <dc:type
           rdf:resource="http://purl.org/dc/dcmitype/StillImage" />
        <dc:title></dc:title>
      </cc:Work>
    </rdf:RDF>
  </metadata>
  <g
     inkscape:label="Capa 1"
     inkscape:groupmode="layer"
     id="layer1"
     transform="translate(-48.915405,-696.64923)">
    <path
       style="fill:none;stroke:#000000;stroke-width:1.07895184px;stroke-linecap:butt;stroke-linejoin:miter;stroke-opacity:1"
       d="m 203.61727,706.8341 173.83999,0 2e-5,173.83998"
       id="path5767"
       inkscape:connector-curvature="0" />
    <rect
       style="fill:none;stroke:#000000;stroke-width:1.07895184;stroke-linecap:round;stroke-linejoin:round;stroke-miterlimit:4;stroke-opacity:1;stroke-dasharray:none;stroke-dashoffset:0"
       id="rect5023"
       width="173.83998"
       height="173.83998"
       x="124.32661"
       y="763.78162" />
    <path
       style="fill:none;stroke:#000000;stroke-width:1.07895184px;stroke-linecap:butt;stroke-linejoin:miter;stroke-opacity:1"
       d="m 124.32662,763.7816 79.29065,-56.9475"
       id="path5731"
       inkscape:connector-curvature="0" />
    <path
       style="fill:none;stroke:#000000;stroke-width:1.07895184px;stroke-linecap:butt;stroke-linejoin:miter;stroke-opacity:1"
       d="m 298.1666,763.7816 79.29066,-56.9475"
       id="path5731-7"
       inkscape:connector-curvature="0" />
    <path
       style="fill:none;stroke:#000000;stroke-width:1.07895184px;stroke-linecap:butt;stroke-linejoin:miter;stroke-opacity:1"
       d="m 298.16662,937.62158 79.29066,-56.9475"
       id="path5731-5"
       inkscape:connector-curvature="0" />
    <path
       style="fill:none;stroke:#000000;stroke-width:1.079;stroke-linecap:butt;stroke-linejoin:miter;stroke-miterlimit:4;stroke-opacity:1;stroke-dasharray:1.079, 1.079;stroke-dashoffset:0"
       d="m 124.32662,937.62158 79.29066,-56.9475"
       id="path5731-3"
       inkscape:connector-curvature="0" />
    <path
       style="fill:none;stroke:#000000;stroke-width:1.079;stroke-linecap:butt;stroke-linejoin:miter;stroke-miterlimit:4;stroke-opacity:1;stroke-dasharray:1.079, 1.079;stroke-dashoffset:0"
       d="m 203.61727,706.8341 1e-5,173.83998 173.84,0"
       id="path5765"
       inkscape:connector-curvature="0" />
    <path
       sodipodi:type="arc"
       style="fill:#000000;fill-opacity:1;stroke:none"
       id="path2993"
       sodipodi:cx="-95.711952"
       sodipodi:cy="95.748398"
       sodipodi:rx="4.2931485"
       sodipodi:ry="4.2931485"
       d="m -91.418804,95.748398 c 0,2.37104 -1.922108,4.293152 -4.293148,4.293152 -2.371041,0 -4.293148,-1.922112 -4.293148,-4.293152 0,-2.371041 1.922107,-4.293149 4.293148,-4.293149 2.37104,0 4.293148,1.922108 4.293148,4.293149 z"
       transform="matrix(0.76470589,0,0,0.76470589,197.51811,690.56224)" />
    <path
       sodipodi:type="arc"
       style="fill:#000000;fill-opacity:1;stroke:none"
       id="path2993-5"
       sodipodi:cx="-95.711952"
       sodipodi:cy="95.748398"
       sodipodi:rx="4.2931485"
       sodipodi:ry="4.2931485"
       d="m -91.418804,95.748398 c 0,2.37104 -1.922108,4.293152 -4.293148,4.293152 -2.371041,0 -4.293148,-1.922112 -4.293148,-4.293152 0,-2.371041 1.922107,-4.293149 4.293148,-4.293149 2.37104,0 4.293148,1.922108 4.293148,4.293149 z"
       transform="matrix(0.76470589,0,0,0.76470589,276.80876,633.61474)" />
    <path
       sodipodi:type="arc"
       style="fill:#000000;fill-opacity:1;stroke:none"
       id="path2993-1"
       sodipodi:cx="-95.711952"
       sodipodi:cy="95.748398"
       sodipodi:rx="4.2931485"
       sodipodi:ry="4.2931485"
       d="m -91.418804,95.748398 c 0,2.37104 -1.922108,4.293152 -4.293148,4.293152 -2.371041,0 -4.293148,-1.922112 -4.293148,-4.293152 0,-2.371041 1.922107,-4.293149 4.293148,-4.293149 2.37104,0 4.293148,1.922108 4.293148,4.293149 z"
       transform="matrix(0.76470589,0,0,0.76470589,450.64875,633.61474)" />
    <path
       sodipodi:type="arc"
       style="fill:#000000;fill-opacity:1;stroke:none"
       id="path2993-0"
       sodipodi:cx="-95.711952"
       sodipodi:cy="95.748398"
       sodipodi:rx="4.2931485"
       sodipodi:ry="4.2931485"
       d="m -91.418804,95.748398 c 0,2.37104 -1.922108,4.293152 -4.293148,4.293152 -2.371041,0 -4.293148,-1.922112 -4.293148,-4.293152 0,-2.371041 1.922107,-4.293149 4.293148,-4.293149 2.37104,0 4.293148,1.922108 4.293148,4.293149 z"
       transform="matrix(0.76470589,0,0,0.76470589,450.64877,807.45472)" />
    <path
       sodipodi:type="arc"
       style="fill:#000000;fill-opacity:1;stroke:none"
       id="path2993-7"
       sodipodi:cx="-95.711952"
       sodipodi:cy="95.748398"
       sodipodi:rx="4.2931485"
       sodipodi:ry="4.2931485"
       d="m -91.418804,95.748398 c 0,2.37104 -1.922108,4.293152 -4.293148,4.293152 -2.371041,0 -4.293148,-1.922112 -4.293148,-4.293152 0,-2.371041 1.922107,-4.293149 4.293148,-4.293149 2.37104,0 4.293148,1.922108 4.293148,4.293149 z"
       transform="matrix(0.76470589,0,0,0.76470589,371.35809,864.40222)" />
    <path
       sodipodi:type="arc"
       style="fill:#000000;fill-opacity:1;stroke:none"
       id="path2993-3"
       sodipodi:cx="-95.711952"
       sodipodi:cy="95.748398"
       sodipodi:rx="4.2931485"
       sodipodi:ry="4.2931485"
       d="m -91.418804,95.748398 c 0,2.37104 -1.922108,4.293152 -4.293148,4.293152 -2.371041,0 -4.293148,-1.922112 -4.293148,-4.293152 0,-2.371041 1.922107,-4.293149 4.293148,-4.293149 2.37104,0 4.293148,1.922108 4.293148,4.293149 z"
       transform="matrix(0.76470589,0,0,0.76470589,197.5181,864.40222)" />
    <path
       sodipodi:type="arc"
       style="fill:#000000;fill-opacity:1;stroke:none"
       id="path2993-8"
       sodipodi:cx="-95.711952"
       sodipodi:cy="95.748398"
       sodipodi:rx="4.2931485"
       sodipodi:ry="4.2931485"
       d="m -91.418804,95.748398 c 0,2.37104 -1.922108,4.293152 -4.293148,4.293152 -2.371041,0 -4.293148,-1.922112 -4.293148,-4.293152 0,-2.371041 1.922107,-4.293149 4.293148,-4.293149 2.37104,0 4.293148,1.922108 4.293148,4.293149 z"
       transform="matrix(0.76470589,0,0,0.76470589,276.80877,807.45472)" />
    <path
       sodipodi:type="arc"
       style="fill:#000000;fill-opacity:1;stroke:none"
       id="path2993-50"
       sodipodi:cx="-95.711952"
       sodipodi:cy="95.748398"
       sodipodi:rx="4.2931485"
       sodipodi:ry="4.2931485"
       d="m -91.418804,95.748398 c 0,2.37104 -1.922108,4.293152 -4.293148,4.293152 -2.371041,0 -4.293148,-1.922112 -4.293148,-4.293152 0,-2.371041 1.922107,-4.293149 4.293148,-4.293149 2.37104,0 4.293148,1.922108 4.293148,4.293149 z"
       transform="matrix(0.76470589,0,0,0.76470589,371.35809,690.56224)" />
    <path
       style="fill:#ff0000;stroke:none;stroke-width:1px;stroke-linecap:butt;stroke-linejoin:miter;stroke-opacity:1;opacity:0.5"
       d="m 162.3312,67.132386 0,173.839964 79.29068,-56.9475 -2e-5,-173.83998 z"
       id="path4096"
       inkscape:connector-curvature="0"
       transform="translate(48.915405,696.64923)" />
    <path
       style="fill:none;stroke:#000000;stroke-width:1px;stroke-linecap:butt;stroke-linejoin:miter;stroke-opacity:1;marker-start:url(#Arrow2Mstart);marker-end:url(#Arrow2Mend)"
       d="M 271.14896,745.64394 C 253.8914,733.53783 236.21098,729.88905 217.61088,744.63379"
       id="path4117"
       inkscape:connector-curvature="0"
       sodipodi:nodetypes="cc" />
    <text
       xml:space="preserve"
       style="font-size:12px;font-style:normal;font-weight:normal;text-align:center;line-height:125%;letter-spacing:0px;word-spacing:0px;text-anchor:middle;fill:#000000;fill-opacity:1;stroke:none;font-family:Sans"
       x="247.12613"
       y="726.45105"
       id="text4749"
       sodipodi:linespacing="125%"><tspan
         sodipodi:role="line"
         id="tspan4751"
         x="247.12613"
         y="726.45105">$\r_0$</tspan></text>
  </g>
</svg>
