<?xml version="1.0" encoding="UTF-8" standalone="no"?>
<!-- Created with Inkscape (http://www.inkscape.org/) -->

<svg
   xmlns:dc="http://purl.org/dc/elements/1.1/"
   xmlns:cc="http://creativecommons.org/ns#"
   xmlns:rdf="http://www.w3.org/1999/02/22-rdf-syntax-ns#"
   xmlns:svg="http://www.w3.org/2000/svg"
   xmlns="http://www.w3.org/2000/svg"
   xmlns:sodipodi="http://sodipodi.sourceforge.net/DTD/sodipodi-0.dtd"
   xmlns:inkscape="http://www.inkscape.org/namespaces/inkscape"
   width="259.69666"
   height="237.35347"
   id="svg2"
   version="1.1"
   inkscape:version="0.48.3.1 r9886"
   sodipodi:docname="cubo2.svg">
  <defs
     id="defs4" />
  <sodipodi:namedview
     id="base"
     pagecolor="#ffffff"
     bordercolor="#666666"
     borderopacity="1.0"
     inkscape:pageopacity="0.0"
     inkscape:pageshadow="2"
     inkscape:zoom="1.979899"
     inkscape:cx="129.72417"
     inkscape:cy="69.79546"
     inkscape:document-units="px"
     inkscape:current-layer="layer5"
     showgrid="false"
     inkscape:snap-midpoints="true"
     inkscape:snap-object-midpoints="true"
     inkscape:snap-smooth-nodes="true"
     inkscape:snap-center="true"
     inkscape:object-paths="false"
     inkscape:object-nodes="true"
     fit-margin-top="0"
     fit-margin-left="0"
     fit-margin-right="0"
     fit-margin-bottom="0"
     inkscape:window-width="1280"
     inkscape:window-height="744"
     inkscape:window-x="0"
     inkscape:window-y="27"
     inkscape:window-maximized="1"
     inkscape:snap-global="true"
     showguides="true"
     inkscape:guide-bbox="true" />
  <metadata
     id="metadata7">
    <rdf:RDF>
      <cc:Work
         rdf:about="">
        <dc:format>image/svg+xml</dc:format>
        <dc:type
           rdf:resource="http://purl.org/dc/dcmitype/StillImage" />
        <dc:title></dc:title>
      </cc:Work>
    </rdf:RDF>
  </metadata>
  <g
     inkscape:label="Capa 1"
     inkscape:groupmode="layer"
     id="layer1"
     transform="translate(-121.04361,-703.55111)"
     style="display:inline">
    <path
       style="fill:none;stroke:#000000;stroke-width:1.07895184px;stroke-linecap:butt;stroke-linejoin:miter;stroke-opacity:1"
       d="m 203.61727,706.8341 173.83999,0 2e-5,173.83998"
       id="path5767"
       inkscape:connector-curvature="0" />
    <rect
       style="fill:none;stroke:#000000;stroke-width:1.07895184;stroke-linecap:round;stroke-linejoin:round;stroke-miterlimit:4;stroke-opacity:1;stroke-dasharray:none;stroke-dashoffset:0"
       id="rect5023"
       width="173.83998"
       height="173.83998"
       x="124.32661"
       y="763.78162" />
    <path
       style="fill:none;stroke:#000000;stroke-width:1.07895184px;stroke-linecap:butt;stroke-linejoin:miter;stroke-opacity:1"
       d="m 124.32662,763.7816 79.29065,-56.9475"
       id="path5731"
       inkscape:connector-curvature="0" />
    <path
       style="fill:none;stroke:#000000;stroke-width:1.07895184px;stroke-linecap:butt;stroke-linejoin:miter;stroke-opacity:1"
       d="m 298.1666,763.7816 79.29066,-56.9475"
       id="path5731-7"
       inkscape:connector-curvature="0" />
    <path
       style="fill:none;stroke:#000000;stroke-width:1.07895184px;stroke-linecap:butt;stroke-linejoin:miter;stroke-opacity:1"
       d="m 298.16662,937.62158 79.29066,-56.9475"
       id="path5731-5"
       inkscape:connector-curvature="0" />
    <path
       style="fill:none;stroke:#000000;stroke-width:1.079;stroke-linecap:butt;stroke-linejoin:miter;stroke-miterlimit:4;stroke-opacity:1;stroke-dasharray:1.079, 1.079;stroke-dashoffset:0"
       d="m 124.32662,937.62158 79.29066,-56.9475"
       id="path5731-3"
       inkscape:connector-curvature="0" />
    <path
       style="fill:none;stroke:#000000;stroke-width:1.079;stroke-linecap:butt;stroke-linejoin:miter;stroke-miterlimit:4;stroke-opacity:1;stroke-dasharray:1.079, 1.079;stroke-dashoffset:0"
       d="m 203.61727,706.8341 1e-5,173.83998 173.84,0"
       id="path5765"
       inkscape:connector-curvature="0" />
    <path
       sodipodi:type="arc"
       style="fill:#000000;fill-opacity:1;stroke:none"
       id="path2993"
       sodipodi:cx="-95.711952"
       sodipodi:cy="95.748398"
       sodipodi:rx="4.2931485"
       sodipodi:ry="4.2931485"
       d="m -91.418804,95.748398 c 0,2.37104 -1.922108,4.293152 -4.293148,4.293152 -2.371041,0 -4.293148,-1.922112 -4.293148,-4.293152 0,-2.371041 1.922107,-4.293149 4.293148,-4.293149 2.37104,0 4.293148,1.922108 4.293148,4.293149 z"
       transform="matrix(0.76470589,0,0,0.76470589,197.51811,690.56224)" />
    <path
       sodipodi:type="arc"
       style="fill:#000000;fill-opacity:1;stroke:none"
       id="path2993-5"
       sodipodi:cx="-95.711952"
       sodipodi:cy="95.748398"
       sodipodi:rx="4.2931485"
       sodipodi:ry="4.2931485"
       d="m -91.418804,95.748398 c 0,2.37104 -1.922108,4.293152 -4.293148,4.293152 -2.371041,0 -4.293148,-1.922112 -4.293148,-4.293152 0,-2.371041 1.922107,-4.293149 4.293148,-4.293149 2.37104,0 4.293148,1.922108 4.293148,4.293149 z"
       transform="matrix(0.76470589,0,0,0.76470589,276.80876,633.61474)" />
    <path
       sodipodi:type="arc"
       style="fill:#000000;fill-opacity:1;stroke:none"
       id="path2993-1"
       sodipodi:cx="-95.711952"
       sodipodi:cy="95.748398"
       sodipodi:rx="4.2931485"
       sodipodi:ry="4.2931485"
       d="m -91.418804,95.748398 c 0,2.37104 -1.922108,4.293152 -4.293148,4.293152 -2.371041,0 -4.293148,-1.922112 -4.293148,-4.293152 0,-2.371041 1.922107,-4.293149 4.293148,-4.293149 2.37104,0 4.293148,1.922108 4.293148,4.293149 z"
       transform="matrix(0.76470589,0,0,0.76470589,450.64875,633.61474)" />
    <path
       sodipodi:type="arc"
       style="fill:#000000;fill-opacity:1;stroke:none"
       id="path2993-0"
       sodipodi:cx="-95.711952"
       sodipodi:cy="95.748398"
       sodipodi:rx="4.2931485"
       sodipodi:ry="4.2931485"
       d="m -91.418804,95.748398 c 0,2.37104 -1.922108,4.293152 -4.293148,4.293152 -2.371041,0 -4.293148,-1.922112 -4.293148,-4.293152 0,-2.371041 1.922107,-4.293149 4.293148,-4.293149 2.37104,0 4.293148,1.922108 4.293148,4.293149 z"
       transform="matrix(0.76470589,0,0,0.76470589,450.64877,807.45472)" />
    <path
       sodipodi:type="arc"
       style="fill:#000000;fill-opacity:1;stroke:none"
       id="path2993-7"
       sodipodi:cx="-95.711952"
       sodipodi:cy="95.748398"
       sodipodi:rx="4.2931485"
       sodipodi:ry="4.2931485"
       d="m -91.418804,95.748398 c 0,2.37104 -1.922108,4.293152 -4.293148,4.293152 -2.371041,0 -4.293148,-1.922112 -4.293148,-4.293152 0,-2.371041 1.922107,-4.293149 4.293148,-4.293149 2.37104,0 4.293148,1.922108 4.293148,4.293149 z"
       transform="matrix(0.76470589,0,0,0.76470589,371.35809,864.40222)" />
    <path
       sodipodi:type="arc"
       style="fill:#000000;fill-opacity:1;stroke:none"
       id="path2993-3"
       sodipodi:cx="-95.711952"
       sodipodi:cy="95.748398"
       sodipodi:rx="4.2931485"
       sodipodi:ry="4.2931485"
       d="m -91.418804,95.748398 c 0,2.37104 -1.922108,4.293152 -4.293148,4.293152 -2.371041,0 -4.293148,-1.922112 -4.293148,-4.293152 0,-2.371041 1.922107,-4.293149 4.293148,-4.293149 2.37104,0 4.293148,1.922108 4.293148,4.293149 z"
       transform="matrix(0.76470589,0,0,0.76470589,197.5181,864.40222)" />
    <path
       sodipodi:type="arc"
       style="fill:#000000;fill-opacity:1;stroke:none"
       id="path2993-8"
       sodipodi:cx="-95.711952"
       sodipodi:cy="95.748398"
       sodipodi:rx="4.2931485"
       sodipodi:ry="4.2931485"
       d="m -91.418804,95.748398 c 0,2.37104 -1.922108,4.293152 -4.293148,4.293152 -2.371041,0 -4.293148,-1.922112 -4.293148,-4.293152 0,-2.371041 1.922107,-4.293149 4.293148,-4.293149 2.37104,0 4.293148,1.922108 4.293148,4.293149 z"
       transform="matrix(0.76470589,0,0,0.76470589,276.80877,807.45472)" />
    <path
       sodipodi:type="arc"
       style="fill:#000000;fill-opacity:1;stroke:none"
       id="path2993-50"
       sodipodi:cx="-95.711952"
       sodipodi:cy="95.748398"
       sodipodi:rx="4.2931485"
       sodipodi:ry="4.2931485"
       d="m -91.418804,95.748398 c 0,2.37104 -1.922108,4.293152 -4.293148,4.293152 -2.371041,0 -4.293148,-1.922112 -4.293148,-4.293152 0,-2.371041 1.922107,-4.293149 4.293148,-4.293149 2.37104,0 4.293148,1.922108 4.293148,4.293149 z"
       transform="matrix(0.76470589,0,0,0.76470589,371.35809,690.56224)" />
  </g>
  <g
     inkscape:groupmode="layer"
     id="layer3"
     inkscape:label="rhos"
     style="display:none"
     transform="translate(-72.128205,-6.9018778)">
    <path
       style="opacity:0.5;fill:#ff0000;stroke:none;display:inline"
       d="M 75.411215,67.13237 162.3312,67.132386 201.97653,38.65862 75.411215,67.13237"
       id="path3979"
       inkscape:connector-curvature="0" />
    <path
       style="opacity:0.5;fill:#0000ff;stroke:none;display:inline"
       d="m 162.3312,67.132386 -1e-5,86.919994 86.92,-86.919994 z"
       id="path3983"
       inkscape:connector-curvature="0" />
    <path
       style="opacity:0.5;fill:#ffff00;stroke:none;display:inline"
       d="m 249.2512,67.13237 -47.27467,-28.47375 86.91999,0 z"
       id="path3989"
       inkscape:connector-curvature="0" />
    <text
       transform="translate(-48.915405,-696.64923)"
       xml:space="preserve"
       style="font-size:12px;font-style:normal;font-weight:normal;text-align:center;line-height:125%;letter-spacing:0px;word-spacing:0px;text-anchor:middle;fill:#000000;fill-opacity:1;stroke:none;display:inline;font-family:Sans"
       x="241.52638"
       y="793.87872"
       id="text3991"
       sodipodi:linespacing="125%"><tspan
         sodipodi:role="line"
         id="tspan3993"
         x="241.52638"
         y="793.87872">$\Phi^2$</tspan></text>
    <text
       transform="translate(-48.915405,-696.64923)"
       xml:space="preserve"
       style="font-size:12px;font-style:normal;font-weight:normal;text-align:start;line-height:125%;letter-spacing:0px;word-spacing:0px;text-anchor:start;fill:#000000;fill-opacity:1;stroke:none;display:inline;font-family:Sans"
       x="274.83499"
       y="742.5022"
       id="text3991-8-2"
       sodipodi:linespacing="125%"><tspan
         sodipodi:role="line"
         id="tspan3993-8-7"
         x="274.83499"
         y="742.5022">$\Phi^1$</tspan></text>
    <text
       transform="translate(-48.915405,-696.64923)"
       xml:space="preserve"
       style="font-size:12px;font-style:normal;font-weight:normal;text-align:center;line-height:125%;letter-spacing:0px;word-spacing:0px;text-anchor:middle;fill:#000000;fill-opacity:1;stroke:none;display:inline;font-family:Sans"
       x="250.94887"
       y="758.66467"
       id="text3991-5"
       sodipodi:linespacing="125%"><tspan
         sodipodi:role="line"
         id="tspan3993-0"
         x="250.94887"
         y="758.66467">$\Phi$</tspan></text>
    <text
       transform="translate(-48.915405,-696.64923)"
       xml:space="preserve"
       style="font-size:12px;font-style:normal;font-weight:normal;text-align:end;line-height:125%;letter-spacing:0px;word-spacing:0px;text-anchor:end;fill:#000000;fill-opacity:1;stroke:none;display:inline;font-family:Sans"
       x="208.36374"
       y="755.38159"
       id="text3991-8"
       sodipodi:linespacing="125%"><tspan
         sodipodi:role="line"
         id="tspan3993-8"
         x="208.36374"
         y="755.38159">$\Phi^0$</tspan></text>
    <path
       style="opacity:0.54054051;fill:#00ff00;stroke:none;display:inline"
       d="m 201.97653,38.65862 -39.64533,28.473766 86.91999,0 z"
       id="path3977"
       inkscape:connector-curvature="0" />
  </g>
  <g
     inkscape:groupmode="layer"
     id="layer2"
     inkscape:label="teorhos"
     style="opacity:0.60273976;display:inline"
     transform="translate(-72.128205,-6.9018778)">
    <path
       style="fill:none;stroke:#000000;stroke-width:1px;stroke-linecap:butt;stroke-linejoin:miter;stroke-opacity:1"
       d="M 328.54187,184.02485 288.89654,212.4986"
       id="path3051"
       inkscape:connector-curvature="0" />
    <g
       inkscape:groupmode="layer"
       id="layer4"
       inkscape:label="0"
       style="display:inline">
      <path
         style="fill:#0000ff;stroke:none;display:inline"
         d="m 75.411202,67.132386 86.919998,0 -1e-5,86.919994 z"
         id="path3037"
         inkscape:connector-curvature="0" />
      <path
         style="fill:#008000;stroke:none;display:inline"
         d="m 288.89654,212.4986 -1e-5,-86.91998 39.64534,58.44623"
         id="path3053"
         inkscape:connector-curvature="0" />
    </g>
    <g
       inkscape:groupmode="layer"
       id="layer5"
       inkscape:label="1"
       style="display:inline">
      <path
         inkscape:connector-curvature="0"
         id="path3034"
         d="m 162.3312,67.132386 -1e-5,86.919994 86.92,-86.919994 z"
         style="fill:#b3b3b3;stroke:none;display:inline" />
      <path
         style="fill:#cccccc;stroke:none;display:inline"
         d="m 162.33119,154.05238 86.92,-1e-5 1e-5,-86.919997 -86.92001,86.920007"
         id="path3039"
         inkscape:connector-curvature="0" />
      <path
         style="fill:#b3b3b3;stroke:none;display:inline"
         d="m 288.89653,125.57862 -39.64534,28.47375 0,-86.919992 39.64534,58.446242"
         id="path3045"
         inkscape:connector-curvature="0" />
      <path
         style="fill:#cccccc;stroke:none;display:inline"
         d="m 288.89653,125.57862 -39.64534,115.39373 0,-86.91998 z"
         id="path3047"
         inkscape:connector-curvature="0" />
      <path
         style="fill:#b3b3b3;stroke:none;display:inline"
         d="m 288.89653,125.57862 1e-5,86.91998 -39.64535,28.47375 z"
         id="path3049"
         inkscape:connector-curvature="0" />
    </g>
  </g>
</svg>
