<?xml version="1.0" encoding="UTF-8" standalone="no"?>
<!-- Created with Inkscape (http://www.inkscape.org/) -->

<svg
   xmlns:dc="http://purl.org/dc/elements/1.1/"
   xmlns:cc="http://creativecommons.org/ns#"
   xmlns:rdf="http://www.w3.org/1999/02/22-rdf-syntax-ns#"
   xmlns:svg="http://www.w3.org/2000/svg"
   xmlns="http://www.w3.org/2000/svg"
   xmlns:sodipodi="http://sodipodi.sourceforge.net/DTD/sodipodi-0.dtd"
   xmlns:inkscape="http://www.inkscape.org/namespaces/inkscape"
   width="465.04181"
   height="377.56622"
   id="svg2"
   version="1.1"
   inkscape:version="0.48.3.1 r9886"
   sodipodi:docname="ejem2.svg">
  <defs
     id="defs4" />
  <sodipodi:namedview
     id="base"
     pagecolor="#ffffff"
     bordercolor="#666666"
     borderopacity="1.0"
     inkscape:pageopacity="0.0"
     inkscape:pageshadow="2"
     inkscape:zoom="0.98994949"
     inkscape:cx="420.45358"
     inkscape:cy="218.08508"
     inkscape:document-units="px"
     inkscape:current-layer="layer1"
     showgrid="false"
     fit-margin-top="0"
     fit-margin-left="0"
     fit-margin-right="0"
     fit-margin-bottom="0"
     inkscape:window-width="1280"
     inkscape:window-height="744"
     inkscape:window-x="0"
     inkscape:window-y="27"
     inkscape:window-maximized="1"
     inkscape:snap-grids="true"
     inkscape:snap-to-guides="true"
     showguides="false"
     inkscape:object-nodes="true"
     inkscape:snap-midpoints="true"
     inkscape:snap-object-midpoints="true"
     inkscape:snap-center="true">
    <inkscape:grid
       type="xygrid"
       id="grid3320" />
  </sodipodi:namedview>
  <metadata
     id="metadata7">
    <rdf:RDF>
      <cc:Work
         rdf:about="">
        <dc:format>image/svg+xml</dc:format>
        <dc:type
           rdf:resource="http://purl.org/dc/dcmitype/StillImage" />
        <dc:title />
      </cc:Work>
    </rdf:RDF>
  </metadata>
  <g
     inkscape:label="Capa 1"
     inkscape:groupmode="layer"
     id="layer1"
     transform="translate(-77.767685,-39.153374)">
    <text
       sodipodi:linespacing="125%"
       id="text5577"
       y="51.127705"
       x="307.0864"
       style="font-size:12px;font-style:normal;font-weight:normal;line-height:125%;letter-spacing:0px;word-spacing:0px;fill:#000000;fill-opacity:1;stroke:none;font-family:Sans"
       xml:space="preserve"><tspan
         y="51.127705"
         x="307.0864"
         id="tspan5579"
         sodipodi:role="line">$\vdots$</tspan></text>
    <g
       id="g3707"
       transform="translate(29.158474,9.0687003)">
      <path
         transform="matrix(0.80492992,0,0,0.80492992,40.618744,-38.621479)"
         d="m 123.53163,149.50504 c 0,3.52841 -2.86035,6.38876 -6.38877,6.38876 -3.52842,0 -6.38877,-2.86035 -6.38877,-6.38876 0,-3.52842 2.86035,-6.38877 6.38877,-6.38877 3.52842,0 6.38877,2.86035 6.38877,6.38877 z"
         sodipodi:ry="6.3887658"
         sodipodi:rx="6.3887658"
         sodipodi:cy="149.50504"
         sodipodi:cx="117.14286"
         id="path3266"
         style="fill:#000000;fill-opacity:1;stroke:#7a7a7a;stroke-width:0.1;stroke-linecap:round;stroke-miterlimit:4;stroke-opacity:1;stroke-dasharray:none;stroke-dashoffset:0"
         sodipodi:type="arc" />
      <path
         transform="matrix(0.80492992,0,0,0.80492992,40.618744,30.307087)"
         d="m 123.53163,149.50504 c 0,3.52841 -2.86035,6.38876 -6.38877,6.38876 -3.52842,0 -6.38877,-2.86035 -6.38877,-6.38876 0,-3.52842 2.86035,-6.38877 6.38877,-6.38877 3.52842,0 6.38877,2.86035 6.38877,6.38877 z"
         sodipodi:ry="6.3887658"
         sodipodi:rx="6.3887658"
         sodipodi:cy="149.50504"
         sodipodi:cx="117.14286"
         id="path3268"
         style="fill:#000000;fill-opacity:1;stroke:#7a7a7a;stroke-width:0.1;stroke-linecap:round;stroke-miterlimit:4;stroke-opacity:1;stroke-dasharray:none;stroke-dashoffset:0"
         sodipodi:type="arc" />
      <path
         sodipodi:type="arc"
         style="fill:#000000;fill-opacity:1;stroke:#7a7a7a;stroke-width:0.1;stroke-linecap:round;stroke-miterlimit:4;stroke-opacity:1;stroke-dasharray:none;stroke-dashoffset:0"
         id="path3363"
         sodipodi:cx="117.14286"
         sodipodi:cy="149.50504"
         sodipodi:rx="6.3887658"
         sodipodi:ry="6.3887658"
         d="m 123.53163,149.50504 c 0,3.52841 -2.86035,6.38876 -6.38877,6.38876 -3.52842,0 -6.38877,-2.86035 -6.38877,-6.38876 0,-3.52842 2.86035,-6.38877 6.38877,-6.38877 3.52842,0 6.38877,2.86035 6.38877,6.38877 z"
         transform="matrix(0.80492992,0,0,0.80492992,138.09847,-38.621479)" />
      <path
         sodipodi:type="arc"
         style="fill:#000000;fill-opacity:1;stroke:#7a7a7a;stroke-width:0.1;stroke-linecap:round;stroke-miterlimit:4;stroke-opacity:1;stroke-dasharray:none;stroke-dashoffset:0"
         id="path3363-7"
         sodipodi:cx="117.14286"
         sodipodi:cy="149.50504"
         sodipodi:rx="6.3887658"
         sodipodi:ry="6.3887658"
         d="m 123.53163,149.50504 c 0,3.52841 -2.86035,6.38876 -6.38877,6.38876 -3.52842,0 -6.38877,-2.86035 -6.38877,-6.38876 0,-3.52842 2.86035,-6.38877 6.38877,-6.38877 3.52842,0 6.38877,2.86035 6.38877,6.38877 z"
         transform="matrix(0.80492992,0,0,0.80492992,235.57819,-38.621482)" />
      <path
         sodipodi:type="arc"
         style="fill:#000000;fill-opacity:1;stroke:#7a7a7a;stroke-width:0.1;stroke-linecap:round;stroke-miterlimit:4;stroke-opacity:1;stroke-dasharray:none;stroke-dashoffset:0"
         id="path3363-8"
         sodipodi:cx="117.14286"
         sodipodi:cy="149.50504"
         sodipodi:rx="6.3887658"
         sodipodi:ry="6.3887658"
         d="m 123.53163,149.50504 c 0,3.52841 -2.86035,6.38876 -6.38877,6.38876 -3.52842,0 -6.38877,-2.86035 -6.38877,-6.38876 0,-3.52842 2.86035,-6.38877 6.38877,-6.38877 3.52842,0 6.38877,2.86035 6.38877,6.38877 z"
         transform="matrix(0.80492992,0,0,0.80492992,333.05791,-38.621482)" />
      <path
         transform="matrix(0.80492992,0,0,0.80492992,40.61874,99.235653)"
         d="m 123.53163,149.50504 c 0,3.52841 -2.86035,6.38876 -6.38877,6.38876 -3.52842,0 -6.38877,-2.86035 -6.38877,-6.38876 0,-3.52842 2.86035,-6.38877 6.38877,-6.38877 3.52842,0 6.38877,2.86035 6.38877,6.38877 z"
         sodipodi:ry="6.3887658"
         sodipodi:rx="6.3887658"
         sodipodi:cy="149.50504"
         sodipodi:cx="117.14286"
         id="path3268-3"
         style="fill:#000000;fill-opacity:1;stroke:#7a7a7a;stroke-width:0.1;stroke-linecap:round;stroke-miterlimit:4;stroke-opacity:1;stroke-dasharray:none;stroke-dashoffset:0"
         sodipodi:type="arc" />
      <path
         transform="matrix(0.80492992,0,0,0.80492992,40.618739,168.16422)"
         d="m 123.53163,149.50504 c 0,3.52841 -2.86035,6.38876 -6.38877,6.38876 -3.52842,0 -6.38877,-2.86035 -6.38877,-6.38876 0,-3.52842 2.86035,-6.38877 6.38877,-6.38877 3.52842,0 6.38877,2.86035 6.38877,6.38877 z"
         sodipodi:ry="6.3887658"
         sodipodi:rx="6.3887658"
         sodipodi:cy="149.50504"
         sodipodi:cx="117.14286"
         id="path3268-7"
         style="fill:#000000;fill-opacity:1;stroke:#7a7a7a;stroke-width:0.1;stroke-linecap:round;stroke-miterlimit:4;stroke-opacity:1;stroke-dasharray:none;stroke-dashoffset:0"
         sodipodi:type="arc" />
      <path
         transform="matrix(0.80492992,0,0,0.80492992,40.618735,237.09279)"
         d="m 123.53163,149.50504 c 0,3.52841 -2.86035,6.38876 -6.38877,6.38876 -3.52842,0 -6.38877,-2.86035 -6.38877,-6.38876 0,-3.52842 2.86035,-6.38877 6.38877,-6.38877 3.52842,0 6.38877,2.86035 6.38877,6.38877 z"
         sodipodi:ry="6.3887658"
         sodipodi:rx="6.3887658"
         sodipodi:cy="149.50504"
         sodipodi:cx="117.14286"
         id="path3268-79"
         style="fill:#000000;fill-opacity:1;stroke:#7a7a7a;stroke-width:0.1;stroke-linecap:round;stroke-miterlimit:4;stroke-opacity:1;stroke-dasharray:none;stroke-dashoffset:0"
         sodipodi:type="arc" />
      <path
         transform="matrix(0.80492992,0,0,0.80492992,138.09847,-38.621479)"
         d="m 123.53163,149.50504 c 0,3.52841 -2.86035,6.38876 -6.38877,6.38876 -3.52842,0 -6.38877,-2.86035 -6.38877,-6.38876 0,-3.52842 2.86035,-6.38877 6.38877,-6.38877 3.52842,0 6.38877,2.86035 6.38877,6.38877 z"
         sodipodi:ry="6.3887658"
         sodipodi:rx="6.3887658"
         sodipodi:cy="149.50504"
         sodipodi:cx="117.14286"
         id="path3266-8"
         style="fill:#000000;fill-opacity:1;stroke:#7a7a7a;stroke-width:0.1;stroke-linecap:round;stroke-miterlimit:4;stroke-opacity:1;stroke-dasharray:none;stroke-dashoffset:0"
         sodipodi:type="arc" />
      <path
         transform="matrix(0.80492992,0,0,0.80492992,138.09847,30.307088)"
         d="m 123.53163,149.50504 c 0,3.52841 -2.86035,6.38876 -6.38877,6.38876 -3.52842,0 -6.38877,-2.86035 -6.38877,-6.38876 0,-3.52842 2.86035,-6.38877 6.38877,-6.38877 3.52842,0 6.38877,2.86035 6.38877,6.38877 z"
         sodipodi:ry="6.3887658"
         sodipodi:rx="6.3887658"
         sodipodi:cy="149.50504"
         sodipodi:cx="117.14286"
         id="path3268-8"
         style="fill:#000000;fill-opacity:1;stroke:#7a7a7a;stroke-width:0.1;stroke-linecap:round;stroke-miterlimit:4;stroke-opacity:1;stroke-dasharray:none;stroke-dashoffset:0"
         sodipodi:type="arc" />
      <path
         transform="matrix(0.80492992,0,0,0.80492992,138.09847,99.235658)"
         d="m 123.53163,149.50504 c 0,3.52841 -2.86035,6.38876 -6.38877,6.38876 -3.52842,0 -6.38877,-2.86035 -6.38877,-6.38876 0,-3.52842 2.86035,-6.38877 6.38877,-6.38877 3.52842,0 6.38877,2.86035 6.38877,6.38877 z"
         sodipodi:ry="6.3887658"
         sodipodi:rx="6.3887658"
         sodipodi:cy="149.50504"
         sodipodi:cx="117.14286"
         id="path3268-3-8"
         style="fill:#000000;fill-opacity:1;stroke:#7a7a7a;stroke-width:0.1;stroke-linecap:round;stroke-miterlimit:4;stroke-opacity:1;stroke-dasharray:none;stroke-dashoffset:0"
         sodipodi:type="arc" />
      <path
         transform="matrix(0.80492992,0,0,0.80492992,138.09846,168.16423)"
         d="m 123.53163,149.50504 c 0,3.52841 -2.86035,6.38876 -6.38877,6.38876 -3.52842,0 -6.38877,-2.86035 -6.38877,-6.38876 0,-3.52842 2.86035,-6.38877 6.38877,-6.38877 3.52842,0 6.38877,2.86035 6.38877,6.38877 z"
         sodipodi:ry="6.3887658"
         sodipodi:rx="6.3887658"
         sodipodi:cy="149.50504"
         sodipodi:cx="117.14286"
         id="path3268-7-3"
         style="fill:#000000;fill-opacity:1;stroke:#7a7a7a;stroke-width:0.1;stroke-linecap:round;stroke-miterlimit:4;stroke-opacity:1;stroke-dasharray:none;stroke-dashoffset:0"
         sodipodi:type="arc" />
      <path
         transform="matrix(0.80492992,0,0,0.80492992,138.09846,237.0928)"
         d="m 123.53163,149.50504 c 0,3.52841 -2.86035,6.38876 -6.38877,6.38876 -3.52842,0 -6.38877,-2.86035 -6.38877,-6.38876 0,-3.52842 2.86035,-6.38877 6.38877,-6.38877 3.52842,0 6.38877,2.86035 6.38877,6.38877 z"
         sodipodi:ry="6.3887658"
         sodipodi:rx="6.3887658"
         sodipodi:cy="149.50504"
         sodipodi:cx="117.14286"
         id="path3268-79-3"
         style="fill:#000000;fill-opacity:1;stroke:#7a7a7a;stroke-width:0.1;stroke-linecap:round;stroke-miterlimit:4;stroke-opacity:1;stroke-dasharray:none;stroke-dashoffset:0"
         sodipodi:type="arc" />
      <path
         transform="matrix(0.80492992,0,0,0.80492992,235.57819,-38.621482)"
         d="m 123.53163,149.50504 c 0,3.52841 -2.86035,6.38876 -6.38877,6.38876 -3.52842,0 -6.38877,-2.86035 -6.38877,-6.38876 0,-3.52842 2.86035,-6.38877 6.38877,-6.38877 3.52842,0 6.38877,2.86035 6.38877,6.38877 z"
         sodipodi:ry="6.3887658"
         sodipodi:rx="6.3887658"
         sodipodi:cy="149.50504"
         sodipodi:cx="117.14286"
         id="path3266-3"
         style="fill:#000000;fill-opacity:1;stroke:#7a7a7a;stroke-width:0.1;stroke-linecap:round;stroke-miterlimit:4;stroke-opacity:1;stroke-dasharray:none;stroke-dashoffset:0"
         sodipodi:type="arc" />
      <path
         transform="matrix(0.80492992,0,0,0.80492992,235.57819,30.307087)"
         d="m 123.53163,149.50504 c 0,3.52841 -2.86035,6.38876 -6.38877,6.38876 -3.52842,0 -6.38877,-2.86035 -6.38877,-6.38876 0,-3.52842 2.86035,-6.38877 6.38877,-6.38877 3.52842,0 6.38877,2.86035 6.38877,6.38877 z"
         sodipodi:ry="6.3887658"
         sodipodi:rx="6.3887658"
         sodipodi:cy="149.50504"
         sodipodi:cx="117.14286"
         id="path3268-4"
         style="fill:#000000;fill-opacity:1;stroke:#7a7a7a;stroke-width:0.1;stroke-linecap:round;stroke-miterlimit:4;stroke-opacity:1;stroke-dasharray:none;stroke-dashoffset:0"
         sodipodi:type="arc" />
      <path
         transform="matrix(0.80492992,0,0,0.80492992,235.57818,99.235654)"
         d="m 123.53163,149.50504 c 0,3.52841 -2.86035,6.38876 -6.38877,6.38876 -3.52842,0 -6.38877,-2.86035 -6.38877,-6.38876 0,-3.52842 2.86035,-6.38877 6.38877,-6.38877 3.52842,0 6.38877,2.86035 6.38877,6.38877 z"
         sodipodi:ry="6.3887658"
         sodipodi:rx="6.3887658"
         sodipodi:cy="149.50504"
         sodipodi:cx="117.14286"
         id="path3268-3-1"
         style="fill:#000000;fill-opacity:1;stroke:#7a7a7a;stroke-width:0.1;stroke-linecap:round;stroke-miterlimit:4;stroke-opacity:1;stroke-dasharray:none;stroke-dashoffset:0"
         sodipodi:type="arc" />
      <path
         transform="matrix(0.80492992,0,0,0.80492992,235.57818,168.16422)"
         d="m 123.53163,149.50504 c 0,3.52841 -2.86035,6.38876 -6.38877,6.38876 -3.52842,0 -6.38877,-2.86035 -6.38877,-6.38876 0,-3.52842 2.86035,-6.38877 6.38877,-6.38877 3.52842,0 6.38877,2.86035 6.38877,6.38877 z"
         sodipodi:ry="6.3887658"
         sodipodi:rx="6.3887658"
         sodipodi:cy="149.50504"
         sodipodi:cx="117.14286"
         id="path3268-7-6"
         style="fill:#000000;fill-opacity:1;stroke:#7a7a7a;stroke-width:0.1;stroke-linecap:round;stroke-miterlimit:4;stroke-opacity:1;stroke-dasharray:none;stroke-dashoffset:0"
         sodipodi:type="arc" />
      <path
         transform="matrix(0.80492992,0,0,0.80492992,235.57818,237.09279)"
         d="m 123.53163,149.50504 c 0,3.52841 -2.86035,6.38876 -6.38877,6.38876 -3.52842,0 -6.38877,-2.86035 -6.38877,-6.38876 0,-3.52842 2.86035,-6.38877 6.38877,-6.38877 3.52842,0 6.38877,2.86035 6.38877,6.38877 z"
         sodipodi:ry="6.3887658"
         sodipodi:rx="6.3887658"
         sodipodi:cy="149.50504"
         sodipodi:cx="117.14286"
         id="path3268-79-7"
         style="fill:#000000;fill-opacity:1;stroke:#7a7a7a;stroke-width:0.1;stroke-linecap:round;stroke-miterlimit:4;stroke-opacity:1;stroke-dasharray:none;stroke-dashoffset:0"
         sodipodi:type="arc" />
      <path
         transform="matrix(0.80492992,0,0,0.80492992,333.05791,-38.621482)"
         d="m 123.53163,149.50504 c 0,3.52841 -2.86035,6.38876 -6.38877,6.38876 -3.52842,0 -6.38877,-2.86035 -6.38877,-6.38876 0,-3.52842 2.86035,-6.38877 6.38877,-6.38877 3.52842,0 6.38877,2.86035 6.38877,6.38877 z"
         sodipodi:ry="6.3887658"
         sodipodi:rx="6.3887658"
         sodipodi:cy="149.50504"
         sodipodi:cx="117.14286"
         id="path3266-6"
         style="fill:#000000;fill-opacity:1;stroke:#7a7a7a;stroke-width:0.1;stroke-linecap:round;stroke-miterlimit:4;stroke-opacity:1;stroke-dasharray:none;stroke-dashoffset:0"
         sodipodi:type="arc" />
      <path
         transform="matrix(0.80492992,0,0,0.80492992,333.05791,30.307087)"
         d="m 123.53163,149.50504 c 0,3.52841 -2.86035,6.38876 -6.38877,6.38876 -3.52842,0 -6.38877,-2.86035 -6.38877,-6.38876 0,-3.52842 2.86035,-6.38877 6.38877,-6.38877 3.52842,0 6.38877,2.86035 6.38877,6.38877 z"
         sodipodi:ry="6.3887658"
         sodipodi:rx="6.3887658"
         sodipodi:cy="149.50504"
         sodipodi:cx="117.14286"
         id="path3268-72"
         style="fill:#000000;fill-opacity:1;stroke:#7a7a7a;stroke-width:0.1;stroke-linecap:round;stroke-miterlimit:4;stroke-opacity:1;stroke-dasharray:none;stroke-dashoffset:0"
         sodipodi:type="arc" />
      <path
         transform="matrix(0.80492992,0,0,0.80492992,333.05791,99.235651)"
         d="m 123.53163,149.50504 c 0,3.52841 -2.86035,6.38876 -6.38877,6.38876 -3.52842,0 -6.38877,-2.86035 -6.38877,-6.38876 0,-3.52842 2.86035,-6.38877 6.38877,-6.38877 3.52842,0 6.38877,2.86035 6.38877,6.38877 z"
         sodipodi:ry="6.3887658"
         sodipodi:rx="6.3887658"
         sodipodi:cy="149.50504"
         sodipodi:cx="117.14286"
         id="path3268-3-6"
         style="fill:#000000;fill-opacity:1;stroke:#7a7a7a;stroke-width:0.1;stroke-linecap:round;stroke-miterlimit:4;stroke-opacity:1;stroke-dasharray:none;stroke-dashoffset:0"
         sodipodi:type="arc" />
      <path
         transform="matrix(0.80492992,0,0,0.80492992,333.05791,168.16422)"
         d="m 123.53163,149.50504 c 0,3.52841 -2.86035,6.38876 -6.38877,6.38876 -3.52842,0 -6.38877,-2.86035 -6.38877,-6.38876 0,-3.52842 2.86035,-6.38877 6.38877,-6.38877 3.52842,0 6.38877,2.86035 6.38877,6.38877 z"
         sodipodi:ry="6.3887658"
         sodipodi:rx="6.3887658"
         sodipodi:cy="149.50504"
         sodipodi:cx="117.14286"
         id="path3268-7-0"
         style="fill:#000000;fill-opacity:1;stroke:#7a7a7a;stroke-width:0.1;stroke-linecap:round;stroke-miterlimit:4;stroke-opacity:1;stroke-dasharray:none;stroke-dashoffset:0"
         sodipodi:type="arc" />
      <path
         transform="matrix(0.80492992,0,0,0.80492992,333.0579,237.09279)"
         d="m 123.53163,149.50504 c 0,3.52841 -2.86035,6.38876 -6.38877,6.38876 -3.52842,0 -6.38877,-2.86035 -6.38877,-6.38876 0,-3.52842 2.86035,-6.38877 6.38877,-6.38877 3.52842,0 6.38877,2.86035 6.38877,6.38877 z"
         sodipodi:ry="6.3887658"
         sodipodi:rx="6.3887658"
         sodipodi:cy="149.50504"
         sodipodi:cx="117.14286"
         id="path3268-79-2"
         style="fill:#000000;fill-opacity:1;stroke:#7a7a7a;stroke-width:0.1;stroke-linecap:round;stroke-miterlimit:4;stroke-opacity:1;stroke-dasharray:none;stroke-dashoffset:0"
         sodipodi:type="arc" />
      <path
         inkscape:transform-center-x="-0.056196411"
         inkscape:transform-center-y="-0.70894733"
         transform="translate(-212.3294,-23.610512)"
         d="m 400.52548,111.8961 -4.59115,-4.57002 -4.79447,4.35624 2.92761,-5.77866 -5.6246,-3.21366 6.40051,0.99861 1.31827,-6.342388 1.02813,6.395838 6.43934,-0.70615 -5.76509,2.95423 z"
         inkscape:randomized="0"
         inkscape:rounded="0"
         inkscape:flatsided="false"
         sodipodi:arg2="1.5935702"
         sodipodi:arg1="0.96525166"
         sodipodi:r2="1.9964894"
         sodipodi:r1="7.9859571"
         sodipodi:cy="105.33011"
         sodipodi:cx="395.9798"
         sodipodi:sides="5"
         id="path3540"
         style="fill:#000000;stroke:#7a7a7a;stroke-width:0.1;stroke-linecap:round;stroke-miterlimit:4;stroke-opacity:1;stroke-dasharray:none;stroke-dashoffset:0"
         sodipodi:type="star" />
      <path
         inkscape:transform-center-x="-0.056196411"
         inkscape:transform-center-y="-0.70894733"
         transform="translate(-114.84968,-23.610512)"
         d="m 400.52548,111.8961 -4.59115,-4.57002 -4.79447,4.35624 2.92761,-5.77866 -5.6246,-3.21366 6.40051,0.99861 1.31827,-6.342388 1.02813,6.395838 6.43934,-0.70615 -5.76509,2.95423 z"
         inkscape:randomized="0"
         inkscape:rounded="0"
         inkscape:flatsided="false"
         sodipodi:arg2="1.5935702"
         sodipodi:arg1="0.96525166"
         sodipodi:r2="1.9964894"
         sodipodi:r1="7.9859571"
         sodipodi:cy="105.33011"
         sodipodi:cx="395.9798"
         sodipodi:sides="5"
         id="path3540-6"
         style="fill:#000000;stroke:#7a7a7a;stroke-width:0.1;stroke-linecap:round;stroke-miterlimit:4;stroke-opacity:1;stroke-dasharray:none;stroke-dashoffset:0"
         sodipodi:type="star" />
      <path
         inkscape:transform-center-x="-0.056196411"
         inkscape:transform-center-y="-0.70894733"
         transform="translate(-17.369957,-23.610512)"
         d="m 400.52548,111.8961 -4.59115,-4.57002 -4.79447,4.35624 2.92761,-5.77866 -5.6246,-3.21366 6.40051,0.99861 1.31827,-6.342388 1.02813,6.395838 6.43934,-0.70615 -5.76509,2.95423 z"
         inkscape:randomized="0"
         inkscape:rounded="0"
         inkscape:flatsided="false"
         sodipodi:arg2="1.5935702"
         sodipodi:arg1="0.96525166"
         sodipodi:r2="1.9964894"
         sodipodi:r1="7.9859571"
         sodipodi:cy="105.33011"
         sodipodi:cx="395.9798"
         sodipodi:sides="5"
         id="path3540-7"
         style="fill:#000000;stroke:#7a7a7a;stroke-width:0.1;stroke-linecap:round;stroke-miterlimit:4;stroke-opacity:1;stroke-dasharray:none;stroke-dashoffset:0"
         sodipodi:type="star" />
      <path
         inkscape:transform-center-x="-0.056196411"
         inkscape:transform-center-y="-0.70894733"
         transform="translate(-212.32937,45.318049)"
         d="m 400.52548,111.8961 -4.59115,-4.57002 -4.79447,4.35624 2.92761,-5.77866 -5.6246,-3.21366 6.40051,0.99861 1.31827,-6.342388 1.02813,6.395838 6.43934,-0.70615 -5.76509,2.95423 z"
         inkscape:randomized="0"
         inkscape:rounded="0"
         inkscape:flatsided="false"
         sodipodi:arg2="1.5935702"
         sodipodi:arg1="0.96525166"
         sodipodi:r2="1.9964894"
         sodipodi:r1="7.9859571"
         sodipodi:cy="105.33011"
         sodipodi:cx="395.9798"
         sodipodi:sides="5"
         id="path3540-1"
         style="fill:#000000;stroke:#7a7a7a;stroke-width:0.1;stroke-linecap:round;stroke-miterlimit:4;stroke-opacity:1;stroke-dasharray:none;stroke-dashoffset:0"
         sodipodi:type="star" />
      <path
         inkscape:transform-center-x="-0.056196411"
         inkscape:transform-center-y="-0.70894733"
         transform="translate(-114.84965,45.318049)"
         d="m 400.52548,111.8961 -4.59115,-4.57002 -4.79447,4.35624 2.92761,-5.77866 -5.6246,-3.21366 6.40051,0.99861 1.31827,-6.342388 1.02813,6.395838 6.43934,-0.70615 -5.76509,2.95423 z"
         inkscape:randomized="0"
         inkscape:rounded="0"
         inkscape:flatsided="false"
         sodipodi:arg2="1.5935702"
         sodipodi:arg1="0.96525166"
         sodipodi:r2="1.9964894"
         sodipodi:r1="7.9859571"
         sodipodi:cy="105.33011"
         sodipodi:cx="395.9798"
         sodipodi:sides="5"
         id="path3540-6-6"
         style="fill:#000000;stroke:#7a7a7a;stroke-width:0.1;stroke-linecap:round;stroke-miterlimit:4;stroke-opacity:1;stroke-dasharray:none;stroke-dashoffset:0"
         sodipodi:type="star" />
      <path
         inkscape:transform-center-x="-0.056196411"
         inkscape:transform-center-y="-0.70894733"
         transform="translate(-17.36995,45.318049)"
         d="m 400.52548,111.8961 -4.59115,-4.57002 -4.79447,4.35624 2.92761,-5.77866 -5.6246,-3.21366 6.40051,0.99861 1.31827,-6.342388 1.02813,6.395838 6.43934,-0.70615 -5.76509,2.95423 z"
         inkscape:randomized="0"
         inkscape:rounded="0"
         inkscape:flatsided="false"
         sodipodi:arg2="1.5935702"
         sodipodi:arg1="0.96525166"
         sodipodi:r2="1.9964894"
         sodipodi:r1="7.9859571"
         sodipodi:cy="105.33011"
         sodipodi:cx="395.9798"
         sodipodi:sides="5"
         id="path3540-7-3"
         style="fill:#000000;stroke:#7a7a7a;stroke-width:0.1;stroke-linecap:round;stroke-miterlimit:4;stroke-opacity:1;stroke-dasharray:none;stroke-dashoffset:0"
         sodipodi:type="star" />
      <path
         inkscape:transform-center-x="-0.056196411"
         inkscape:transform-center-y="-0.70894733"
         transform="translate(-212.32939,114.24662)"
         d="m 400.52548,111.8961 -4.59115,-4.57002 -4.79447,4.35624 2.92761,-5.77866 -5.6246,-3.21366 6.40051,0.99861 1.31827,-6.342388 1.02813,6.395838 6.43934,-0.70615 -5.76509,2.95423 z"
         inkscape:randomized="0"
         inkscape:rounded="0"
         inkscape:flatsided="false"
         sodipodi:arg2="1.5935702"
         sodipodi:arg1="0.96525166"
         sodipodi:r2="1.9964894"
         sodipodi:r1="7.9859571"
         sodipodi:cy="105.33011"
         sodipodi:cx="395.9798"
         sodipodi:sides="5"
         id="path3540-2"
         style="fill:#000000;stroke:#7a7a7a;stroke-width:0.1;stroke-linecap:round;stroke-miterlimit:4;stroke-opacity:1;stroke-dasharray:none;stroke-dashoffset:0"
         sodipodi:type="star" />
      <path
         inkscape:transform-center-x="-0.056196411"
         inkscape:transform-center-y="-0.70894733"
         transform="translate(-114.84967,114.24662)"
         d="m 400.52548,111.8961 -4.59115,-4.57002 -4.79447,4.35624 2.92761,-5.77866 -5.6246,-3.21366 6.40051,0.99861 1.31827,-6.342388 1.02813,6.395838 6.43934,-0.70615 -5.76509,2.95423 z"
         inkscape:randomized="0"
         inkscape:rounded="0"
         inkscape:flatsided="false"
         sodipodi:arg2="1.5935702"
         sodipodi:arg1="0.96525166"
         sodipodi:r2="1.9964894"
         sodipodi:r1="7.9859571"
         sodipodi:cy="105.33011"
         sodipodi:cx="395.9798"
         sodipodi:sides="5"
         id="path3540-6-1"
         style="fill:#000000;stroke:#7a7a7a;stroke-width:0.1;stroke-linecap:round;stroke-miterlimit:4;stroke-opacity:1;stroke-dasharray:none;stroke-dashoffset:0"
         sodipodi:type="star" />
      <path
         inkscape:transform-center-x="-0.056196411"
         inkscape:transform-center-y="-0.70894733"
         transform="translate(-17.369961,114.24662)"
         d="m 400.52548,111.8961 -4.59115,-4.57002 -4.79447,4.35624 2.92761,-5.77866 -5.6246,-3.21366 6.40051,0.99861 1.31827,-6.342388 1.02813,6.395838 6.43934,-0.70615 -5.76509,2.95423 z"
         inkscape:randomized="0"
         inkscape:rounded="0"
         inkscape:flatsided="false"
         sodipodi:arg2="1.5935702"
         sodipodi:arg1="0.96525166"
         sodipodi:r2="1.9964894"
         sodipodi:r1="7.9859571"
         sodipodi:cy="105.33011"
         sodipodi:cx="395.9798"
         sodipodi:sides="5"
         id="path3540-7-8"
         style="fill:#000000;stroke:#7a7a7a;stroke-width:0.1;stroke-linecap:round;stroke-miterlimit:4;stroke-opacity:1;stroke-dasharray:none;stroke-dashoffset:0"
         sodipodi:type="star" />
      <path
         inkscape:transform-center-x="-0.056196411"
         inkscape:transform-center-y="-0.70894733"
         transform="translate(-212.32939,183.1752)"
         d="m 400.52548,111.8961 -4.59115,-4.57002 -4.79447,4.35624 2.92761,-5.77866 -5.6246,-3.21366 6.40051,0.99861 1.31827,-6.342388 1.02813,6.395838 6.43934,-0.70615 -5.76509,2.95423 z"
         inkscape:randomized="0"
         inkscape:rounded="0"
         inkscape:flatsided="false"
         sodipodi:arg2="1.5935702"
         sodipodi:arg1="0.96525166"
         sodipodi:r2="1.9964894"
         sodipodi:r1="7.9859571"
         sodipodi:cy="105.33011"
         sodipodi:cx="395.9798"
         sodipodi:sides="5"
         id="path3540-62"
         style="fill:#000000;stroke:#7a7a7a;stroke-width:0.1;stroke-linecap:round;stroke-miterlimit:4;stroke-opacity:1;stroke-dasharray:none;stroke-dashoffset:0"
         sodipodi:type="star" />
      <path
         inkscape:transform-center-x="-0.056196411"
         inkscape:transform-center-y="-0.70894733"
         transform="translate(-114.84967,183.1752)"
         d="m 400.52548,111.8961 -4.59115,-4.57002 -4.79447,4.35624 2.92761,-5.77866 -5.6246,-3.21366 6.40051,0.99861 1.31827,-6.342388 1.02813,6.395838 6.43934,-0.70615 -5.76509,2.95423 z"
         inkscape:randomized="0"
         inkscape:rounded="0"
         inkscape:flatsided="false"
         sodipodi:arg2="1.5935702"
         sodipodi:arg1="0.96525166"
         sodipodi:r2="1.9964894"
         sodipodi:r1="7.9859571"
         sodipodi:cy="105.33011"
         sodipodi:cx="395.9798"
         sodipodi:sides="5"
         id="path3540-6-13"
         style="fill:#000000;stroke:#7a7a7a;stroke-width:0.1;stroke-linecap:round;stroke-miterlimit:4;stroke-opacity:1;stroke-dasharray:none;stroke-dashoffset:0"
         sodipodi:type="star" />
      <path
         inkscape:transform-center-x="-0.056196411"
         inkscape:transform-center-y="-0.70894733"
         transform="translate(-17.369969,183.1752)"
         d="m 400.52548,111.8961 -4.59115,-4.57002 -4.79447,4.35624 2.92761,-5.77866 -5.6246,-3.21366 6.40051,0.99861 1.31827,-6.342388 1.02813,6.395838 6.43934,-0.70615 -5.76509,2.95423 z"
         inkscape:randomized="0"
         inkscape:rounded="0"
         inkscape:flatsided="false"
         sodipodi:arg2="1.5935702"
         sodipodi:arg1="0.96525166"
         sodipodi:r2="1.9964894"
         sodipodi:r1="7.9859571"
         sodipodi:cy="105.33011"
         sodipodi:cx="395.9798"
         sodipodi:sides="5"
         id="path3540-7-4"
         style="fill:#000000;stroke:#7a7a7a;stroke-width:0.1;stroke-linecap:round;stroke-miterlimit:4;stroke-opacity:1;stroke-dasharray:none;stroke-dashoffset:0"
         sodipodi:type="star" />
      <path
         inkscape:transform-center-x="-0.056196411"
         inkscape:transform-center-y="-0.70894733"
         transform="translate(-212.32939,252.10376)"
         d="m 400.52548,111.8961 -4.59115,-4.57002 -4.79447,4.35624 2.92761,-5.77866 -5.6246,-3.21366 6.40051,0.99861 1.31827,-6.342388 1.02813,6.395838 6.43934,-0.70615 -5.76509,2.95423 z"
         inkscape:randomized="0"
         inkscape:rounded="0"
         inkscape:flatsided="false"
         sodipodi:arg2="1.5935702"
         sodipodi:arg1="0.96525166"
         sodipodi:r2="1.9964894"
         sodipodi:r1="7.9859571"
         sodipodi:cy="105.33011"
         sodipodi:cx="395.9798"
         sodipodi:sides="5"
         id="path3540-11"
         style="fill:#000000;stroke:#7a7a7a;stroke-width:0.1;stroke-linecap:round;stroke-miterlimit:4;stroke-opacity:1;stroke-dasharray:none;stroke-dashoffset:0"
         sodipodi:type="star" />
      <path
         inkscape:transform-center-x="-0.056196411"
         inkscape:transform-center-y="-0.70894733"
         transform="translate(-114.84967,252.10376)"
         d="m 400.52548,111.8961 -4.59115,-4.57002 -4.79447,4.35624 2.92761,-5.77866 -5.6246,-3.21366 6.40051,0.99861 1.31827,-6.342388 1.02813,6.395838 6.43934,-0.70615 -5.76509,2.95423 z"
         inkscape:randomized="0"
         inkscape:rounded="0"
         inkscape:flatsided="false"
         sodipodi:arg2="1.5935702"
         sodipodi:arg1="0.96525166"
         sodipodi:r2="1.9964894"
         sodipodi:r1="7.9859571"
         sodipodi:cy="105.33011"
         sodipodi:cx="395.9798"
         sodipodi:sides="5"
         id="path3540-6-60"
         style="fill:#000000;stroke:#7a7a7a;stroke-width:0.1;stroke-linecap:round;stroke-miterlimit:4;stroke-opacity:1;stroke-dasharray:none;stroke-dashoffset:0"
         sodipodi:type="star" />
      <path
         inkscape:transform-center-x="-0.056196411"
         inkscape:transform-center-y="-0.70894733"
         transform="translate(-17.369965,252.10376)"
         d="m 400.52548,111.8961 -4.59115,-4.57002 -4.79447,4.35624 2.92761,-5.77866 -5.6246,-3.21366 6.40051,0.99861 1.31827,-6.342388 1.02813,6.395838 6.43934,-0.70615 -5.76509,2.95423 z"
         inkscape:randomized="0"
         inkscape:rounded="0"
         inkscape:flatsided="false"
         sodipodi:arg2="1.5935702"
         sodipodi:arg1="0.96525166"
         sodipodi:r2="1.9964894"
         sodipodi:r1="7.9859571"
         sodipodi:cy="105.33011"
         sodipodi:cx="395.9798"
         sodipodi:sides="5"
         id="path3540-7-7"
         style="fill:#000000;stroke:#7a7a7a;stroke-width:0.1;stroke-linecap:round;stroke-miterlimit:4;stroke-opacity:1;stroke-dasharray:none;stroke-dashoffset:0"
         sodipodi:type="star" />
    </g>
    <text
       xml:space="preserve"
       style="font-size:12px;font-style:normal;font-weight:normal;line-height:125%;letter-spacing:0px;word-spacing:0px;fill:#000000;fill-opacity:1;stroke:none;font-family:Sans"
       x="307.0864"
       y="412.76233"
       id="text3768"
       sodipodi:linespacing="125%"><tspan
         sodipodi:role="line"
         id="tspan3770"
         x="307.0864"
         y="412.76233">$\vdots$</tspan></text>
    <text
       xml:space="preserve"
       style="font-size:12px;font-style:normal;font-weight:normal;line-height:125%;letter-spacing:0px;word-spacing:0px;fill:#000000;fill-opacity:1;stroke:none;font-family:Sans"
       x="84.925964"
       y="232.0029"
       id="text3768-8"
       sodipodi:linespacing="125%"><tspan
         sodipodi:role="line"
         id="tspan3770-5"
         x="84.925964"
         y="232.0029">$\cdots$</tspan></text>
    <text
       sodipodi:linespacing="125%"
       id="text3793"
       y="232.0029"
       x="485.45145"
       style="font-size:12px;font-style:normal;font-weight:normal;line-height:125%;letter-spacing:0px;word-spacing:0px;fill:#000000;fill-opacity:1;stroke:none;font-family:Sans"
       xml:space="preserve"><tspan
         y="232.0029"
         x="485.45145"
         id="tspan3795"
         sodipodi:role="line">$\cdots$</tspan></text>
  </g>
</svg>
