<?xml version="1.0" encoding="UTF-8" standalone="no"?>
<!-- Created with Inkscape (http://www.inkscape.org/) -->

<svg
   xmlns:dc="http://purl.org/dc/elements/1.1/"
   xmlns:cc="http://creativecommons.org/ns#"
   xmlns:rdf="http://www.w3.org/1999/02/22-rdf-syntax-ns#"
   xmlns:svg="http://www.w3.org/2000/svg"
   xmlns="http://www.w3.org/2000/svg"
   xmlns:sodipodi="http://sodipodi.sourceforge.net/DTD/sodipodi-0.dtd"
   xmlns:inkscape="http://www.inkscape.org/namespaces/inkscape"
   width="465.04181"
   height="377.56622"
   id="svg2"
   version="1.1"
   inkscape:version="0.48.3.1 r9886"
   sodipodi:docname="ejem1.svg">
  <defs
     id="defs4" />
  <sodipodi:namedview
     id="base"
     pagecolor="#ffffff"
     bordercolor="#666666"
     borderopacity="1.0"
     inkscape:pageopacity="0.0"
     inkscape:pageshadow="2"
     inkscape:zoom="1.4"
     inkscape:cx="178.4118"
     inkscape:cy="189.03337"
     inkscape:document-units="px"
     inkscape:current-layer="layer1"
     showgrid="false"
     fit-margin-top="0"
     fit-margin-left="0"
     fit-margin-right="0"
     fit-margin-bottom="0"
     inkscape:window-width="1280"
     inkscape:window-height="744"
     inkscape:window-x="0"
     inkscape:window-y="27"
     inkscape:window-maximized="1"
     inkscape:snap-center="true" />
  <metadata
     id="metadata7">
    <rdf:RDF>
      <cc:Work
         rdf:about="">
        <dc:format>image/svg+xml</dc:format>
        <dc:type
           rdf:resource="http://purl.org/dc/dcmitype/StillImage" />
        <dc:title></dc:title>
      </cc:Work>
    </rdf:RDF>
  </metadata>
  <g
     inkscape:label="Capa 1"
     inkscape:groupmode="layer"
     id="layer1"
     transform="translate(-77.767685,-39.153374)">
    <path
       sodipodi:type="star"
       style="fill:#000000;fill-opacity:1;stroke:#7a7a7a;stroke-width:0.1;stroke-linecap:round;stroke-miterlimit:4;stroke-opacity:1;stroke-dasharray:none;stroke-dashoffset:0"
       id="path3089-08-9"
       sodipodi:sides="5"
       sodipodi:cx="13.131983"
       sodipodi:cy="81.591522"
       sodipodi:r1="6.5853891"
       sodipodi:r2="1.6463473"
       sodipodi:arg1="1.0040671"
       sodipodi:arg2="1.6323856"
       inkscape:flatsided="false"
       inkscape:rounded="0"
       inkscape:randomized="0"
       d="m 16.667517,87.147361 -3.636867,-3.912613 -4.0900441,3.436116 2.5972631,-4.667931 -4.5318337,-2.828044 5.2420637,1.027673 1.289217,-5.183943 0.642511,5.303068 5.328613,-0.375809 -4.84497,2.249803 z"
       transform="matrix(0.99868036,-0.05135691,0.05135691,0.99868036,401.4051,240.11899)"
       inkscape:transform-center-x="-0.020776522"
       inkscape:transform-center-y="-0.60905673" />
    <path
       sodipodi:type="star"
       style="fill:#000000;fill-opacity:1;stroke:#7a7a7a;stroke-width:0.10000000000000001;stroke-linecap:round;stroke-miterlimit:4;stroke-opacity:1;stroke-dasharray:none;stroke-dashoffset:0"
       id="path3089-08"
       sodipodi:sides="5"
       sodipodi:cx="13.131983"
       sodipodi:cy="81.591522"
       sodipodi:r1="6.5853891"
       sodipodi:r2="1.6463473"
       sodipodi:arg1="1.0040671"
       sodipodi:arg2="1.6323856"
       inkscape:flatsided="false"
       inkscape:rounded="0"
       inkscape:randomized="0"
       d="m 16.667517,87.147361 -3.636867,-3.912613 -4.0900441,3.436116 2.5972631,-4.667931 -4.5318337,-2.828044 5.2420637,1.027673 1.289217,-5.183943 0.642511,5.303068 5.328613,-0.375809 -4.84497,2.249803 z"
       transform="matrix(0.99868036,-0.05135691,0.05135691,0.99868036,295.7913,240.11899)"
       inkscape:transform-center-x="-0.020776522"
       inkscape:transform-center-y="-0.60905673" />
    <path
       sodipodi:type="star"
       style="fill:#000000;fill-opacity:1;stroke:#7a7a7a;stroke-width:0.10000000000000001;stroke-linecap:round;stroke-miterlimit:4;stroke-opacity:1;stroke-dasharray:none;stroke-dashoffset:0"
       id="path3089-1"
       sodipodi:sides="5"
       sodipodi:cx="13.131983"
       sodipodi:cy="81.591522"
       sodipodi:r1="6.5853891"
       sodipodi:r2="1.6463473"
       sodipodi:arg1="1.0040671"
       sodipodi:arg2="1.6323856"
       inkscape:flatsided="false"
       inkscape:rounded="0"
       inkscape:randomized="0"
       d="m 16.667517,87.147361 -3.636867,-3.912613 -4.0900441,3.436116 2.5972631,-4.667931 -4.5318337,-2.828044 5.2420637,1.027673 1.289217,-5.183943 0.642511,5.303068 5.328613,-0.375809 -4.84497,2.249803 z"
       transform="matrix(0.99868036,-0.05135691,0.05135691,0.99868036,190.17745,240.11899)"
       inkscape:transform-center-x="-0.020776522"
       inkscape:transform-center-y="-0.60905673" />
    <path
       sodipodi:type="star"
       style="fill:#000000;fill-opacity:1;stroke:#7a7a7a;stroke-width:0.10000000000000001;stroke-linecap:round;stroke-miterlimit:4;stroke-opacity:1;stroke-dasharray:none;stroke-dashoffset:0"
       id="path3089-9"
       sodipodi:sides="5"
       sodipodi:cx="13.131983"
       sodipodi:cy="81.591522"
       sodipodi:r1="6.5853891"
       sodipodi:r2="1.6463473"
       sodipodi:arg1="1.0040671"
       sodipodi:arg2="1.6323856"
       inkscape:flatsided="false"
       inkscape:rounded="0"
       inkscape:randomized="0"
       d="m 16.667517,87.147361 -3.636867,-3.912613 -4.0900441,3.436116 2.5972631,-4.667931 -4.5318337,-2.828044 5.2420637,1.027673 1.289217,-5.183943 0.642511,5.303068 5.328613,-0.375809 -4.84497,2.249803 z"
       transform="matrix(0.99868036,-0.05135691,0.05135691,0.99868036,190.17745,143.8362)"
       inkscape:transform-center-x="-0.020776522"
       inkscape:transform-center-y="-0.60905673" />
    <path
       sodipodi:type="star"
       style="fill:#000000;fill-opacity:1;stroke:#7a7a7a;stroke-width:0.10000000000000001;stroke-linecap:round;stroke-miterlimit:4;stroke-opacity:1;stroke-dasharray:none;stroke-dashoffset:0"
       id="path3089-0"
       sodipodi:sides="5"
       sodipodi:cx="13.131983"
       sodipodi:cy="81.591522"
       sodipodi:r1="6.5853891"
       sodipodi:r2="1.6463473"
       sodipodi:arg1="1.0040671"
       sodipodi:arg2="1.6323856"
       inkscape:flatsided="false"
       inkscape:rounded="0"
       inkscape:randomized="0"
       d="m 16.667517,87.147361 -3.636867,-3.912613 -4.0900441,3.436116 2.5972631,-4.667931 -4.5318337,-2.828044 5.2420637,1.027673 1.289217,-5.183943 0.642511,5.303068 5.328613,-0.375809 -4.84497,2.249803 z"
       transform="matrix(0.99868036,-0.05135691,0.05135691,0.99868036,295.7913,143.8362)"
       inkscape:transform-center-x="-0.020776522"
       inkscape:transform-center-y="-0.60905673" />
    <path
       sodipodi:type="star"
       style="fill:#000000;fill-opacity:1;stroke:#7a7a7a;stroke-width:0.10000000000000001;stroke-linecap:round;stroke-miterlimit:4;stroke-opacity:1;stroke-dasharray:none;stroke-dashoffset:0"
       id="path3089-8"
       sodipodi:sides="5"
       sodipodi:cx="13.131983"
       sodipodi:cy="81.591522"
       sodipodi:r1="6.5853891"
       sodipodi:r2="1.6463473"
       sodipodi:arg1="1.0040671"
       sodipodi:arg2="1.6323856"
       inkscape:flatsided="false"
       inkscape:rounded="0"
       inkscape:randomized="0"
       d="m 16.667517,87.147361 -3.636867,-3.912613 -4.0900441,3.436116 2.5972631,-4.667931 -4.5318337,-2.828044 5.2420637,1.027673 1.289217,-5.183943 0.642511,5.303068 5.328613,-0.375809 -4.84497,2.249803 z"
       transform="matrix(0.99868036,-0.05135691,0.05135691,0.99868036,401.4051,143.8362)"
       inkscape:transform-center-x="-0.020776522"
       inkscape:transform-center-y="-0.60905673" />
    <path
       inkscape:transform-center-y="-0.60905673"
       inkscape:transform-center-x="-0.020776522"
       transform="matrix(0.99868036,-0.05135691,0.05135691,0.99868036,295.7913,47.553362)"
       d="m 16.667517,87.147361 -3.636867,-3.912613 -4.0900441,3.436116 2.5972631,-4.667931 -4.5318337,-2.828044 5.2420637,1.027673 1.289217,-5.183943 0.642511,5.303068 5.328613,-0.375809 -4.84497,2.249803 z"
       inkscape:randomized="0"
       inkscape:rounded="0"
       inkscape:flatsided="false"
       sodipodi:arg2="1.6323856"
       sodipodi:arg1="1.0040671"
       sodipodi:r2="1.6463473"
       sodipodi:r1="6.5853891"
       sodipodi:cy="81.591522"
       sodipodi:cx="13.131983"
       sodipodi:sides="5"
       id="path3091"
       style="fill:#000000;fill-opacity:1;stroke:#7a7a7a;stroke-width:0.10000000000000001;stroke-linecap:round;stroke-miterlimit:4;stroke-opacity:1;stroke-dasharray:none;stroke-dashoffset:0"
       sodipodi:type="star" />
    <path
       sodipodi:type="star"
       style="fill:#000000;fill-opacity:1;stroke:#7a7a7a;stroke-width:0.10000000000000001;stroke-linecap:round;stroke-miterlimit:4;stroke-opacity:1;stroke-dasharray:none;stroke-dashoffset:0"
       id="path3093"
       sodipodi:sides="5"
       sodipodi:cx="13.131983"
       sodipodi:cy="81.591522"
       sodipodi:r1="6.5853891"
       sodipodi:r2="1.6463473"
       sodipodi:arg1="1.0040671"
       sodipodi:arg2="1.6323856"
       inkscape:flatsided="false"
       inkscape:rounded="0"
       inkscape:randomized="0"
       d="m 16.667517,87.147361 -3.636867,-3.912613 -4.0900441,3.436116 2.5972631,-4.667931 -4.5318337,-2.828044 5.2420637,1.027673 1.289217,-5.183943 0.642511,5.303068 5.328613,-0.375809 -4.84497,2.249803 z"
       transform="matrix(0.99868036,-0.05135691,0.05135691,0.99868036,401.4051,47.553362)"
       inkscape:transform-center-x="-0.020776522"
       inkscape:transform-center-y="-0.60905673" />
    <path
       sodipodi:type="star"
       style="fill:#000000;fill-opacity:1;stroke:#7a7a7a;stroke-width:0.10000000000000001;stroke-linecap:round;stroke-miterlimit:4;stroke-opacity:1;stroke-dasharray:none;stroke-dashoffset:0"
       id="path3089"
       sodipodi:sides="5"
       sodipodi:cx="13.131983"
       sodipodi:cy="81.591522"
       sodipodi:r1="6.5853891"
       sodipodi:r2="1.6463473"
       sodipodi:arg1="1.0040671"
       sodipodi:arg2="1.6323856"
       inkscape:flatsided="false"
       inkscape:rounded="0"
       inkscape:randomized="0"
       d="m 16.667517,87.147361 -3.636867,-3.912613 -4.0900441,3.436116 2.5972631,-4.667931 -4.5318337,-2.828044 5.2420637,1.027673 1.289217,-5.183943 0.642511,5.303068 5.328613,-0.375809 -4.84497,2.249803 z"
       transform="matrix(0.99868036,-0.05135691,0.05135691,0.99868036,190.17745,47.553362)"
       inkscape:transform-center-x="-0.020776522"
       inkscape:transform-center-y="-0.60905673" />
    <path
       transform="matrix(0.80492992,0,0,0.80492992,60.3837,-40.119675)"
       d="m 123.53163,149.50504 a 6.3887658,6.3887658 0 1 1 -12.77754,0 6.3887658,6.3887658 0 1 1 12.77754,0 z"
       sodipodi:ry="6.3887658"
       sodipodi:rx="6.3887658"
       sodipodi:cy="149.50504"
       sodipodi:cx="117.14286"
       id="path3869"
       style="fill:#000000;fill-opacity:1;stroke:#7a7a7a;stroke-width:0.1;stroke-linecap:round;stroke-miterlimit:4;stroke-opacity:1;stroke-dasharray:none;stroke-dashoffset:0"
       sodipodi:type="arc" />
    <path
       transform="matrix(0.80492992,0,0,0.80492992,165.9975,-40.119675)"
       d="m 123.53163,149.50504 a 6.3887658,6.3887658 0 1 1 -12.77754,0 6.3887658,6.3887658 0 1 1 12.77754,0 z"
       sodipodi:ry="6.3887658"
       sodipodi:rx="6.3887658"
       sodipodi:cy="149.50504"
       sodipodi:cx="117.14286"
       id="path3873"
       style="fill:#000000;fill-opacity:1;stroke:#7a7a7a;stroke-width:0.1;stroke-linecap:round;stroke-miterlimit:4;stroke-opacity:1;stroke-dasharray:none;stroke-dashoffset:0"
       sodipodi:type="arc" />
    <path
       transform="matrix(0.80492992,0,0,0.80492992,271.61135,-40.119675)"
       d="m 123.53163,149.50504 a 6.3887658,6.3887658 0 1 1 -12.77754,0 6.3887658,6.3887658 0 1 1 12.77754,0 z"
       sodipodi:ry="6.3887658"
       sodipodi:rx="6.3887658"
       sodipodi:cy="149.50504"
       sodipodi:cx="117.14286"
       id="path3877"
       style="fill:#000000;fill-opacity:1;stroke:#7a7a7a;stroke-width:0.1;stroke-linecap:round;stroke-miterlimit:4;stroke-opacity:1;stroke-dasharray:none;stroke-dashoffset:0"
       sodipodi:type="arc" />
    <path
       sodipodi:type="arc"
       style="fill:#000000;fill-opacity:1;stroke:#7a7a7a;stroke-width:0.1;stroke-linecap:round;stroke-miterlimit:4;stroke-opacity:1;stroke-dasharray:none;stroke-dashoffset:0"
       id="path3879"
       sodipodi:cx="117.14286"
       sodipodi:cy="149.50504"
       sodipodi:rx="6.3887658"
       sodipodi:ry="6.3887658"
       d="m 123.53163,149.50504 a 6.3887658,6.3887658 0 1 1 -12.77754,0 6.3887658,6.3887658 0 1 1 12.77754,0 z"
       transform="matrix(0.80492992,0,0,0.80492992,377.22522,-40.119675)" />
    <path
       transform="matrix(0.80492992,0,0,0.80492992,60.3837,56.163132)"
       d="m 123.53163,149.50504 a 6.3887658,6.3887658 0 1 1 -12.77754,0 6.3887658,6.3887658 0 1 1 12.77754,0 z"
       sodipodi:ry="6.3887658"
       sodipodi:rx="6.3887658"
       sodipodi:cy="149.50504"
       sodipodi:cx="117.14286"
       id="path3869-3"
       style="fill:#000000;fill-opacity:1;stroke:#7a7a7a;stroke-width:0.1;stroke-linecap:round;stroke-miterlimit:4;stroke-opacity:1;stroke-dasharray:none;stroke-dashoffset:0"
       sodipodi:type="arc" />
    <path
       transform="matrix(0.80492992,0,0,0.80492992,165.9975,56.163132)"
       d="m 123.53163,149.50504 a 6.3887658,6.3887658 0 1 1 -12.77754,0 6.3887658,6.3887658 0 1 1 12.77754,0 z"
       sodipodi:ry="6.3887658"
       sodipodi:rx="6.3887658"
       sodipodi:cy="149.50504"
       sodipodi:cx="117.14286"
       id="path3873-2"
       style="fill:#000000;fill-opacity:1;stroke:#7a7a7a;stroke-width:0.1;stroke-linecap:round;stroke-miterlimit:4;stroke-opacity:1;stroke-dasharray:none;stroke-dashoffset:0"
       sodipodi:type="arc" />
    <path
       transform="matrix(0.80492992,0,0,0.80492992,271.61135,56.163132)"
       d="m 123.53163,149.50504 a 6.3887658,6.3887658 0 1 1 -12.77754,0 6.3887658,6.3887658 0 1 1 12.77754,0 z"
       sodipodi:ry="6.3887658"
       sodipodi:rx="6.3887658"
       sodipodi:cy="149.50504"
       sodipodi:cx="117.14286"
       id="path3877-8"
       style="fill:#000000;fill-opacity:1;stroke:#7a7a7a;stroke-width:0.1;stroke-linecap:round;stroke-miterlimit:4;stroke-opacity:1;stroke-dasharray:none;stroke-dashoffset:0"
       sodipodi:type="arc" />
    <path
       sodipodi:type="arc"
       style="fill:#000000;fill-opacity:1;stroke:#7a7a7a;stroke-width:0.1;stroke-linecap:round;stroke-miterlimit:4;stroke-opacity:1;stroke-dasharray:none;stroke-dashoffset:0"
       id="path3879-4"
       sodipodi:cx="117.14286"
       sodipodi:cy="149.50504"
       sodipodi:rx="6.3887658"
       sodipodi:ry="6.3887658"
       d="m 123.53163,149.50504 a 6.3887658,6.3887658 0 1 1 -12.77754,0 6.3887658,6.3887658 0 1 1 12.77754,0 z"
       transform="matrix(0.80492992,0,0,0.80492992,377.22522,56.163132)" />
    <path
       transform="matrix(0.80492992,0,0,0.80492992,60.3837,152.44596)"
       d="m 123.53163,149.50504 a 6.3887658,6.3887658 0 1 1 -12.77754,0 6.3887658,6.3887658 0 1 1 12.77754,0 z"
       sodipodi:ry="6.3887658"
       sodipodi:rx="6.3887658"
       sodipodi:cy="149.50504"
       sodipodi:cx="117.14286"
       id="path3869-1"
       style="fill:#000000;fill-opacity:1;stroke:#7a7a7a;stroke-width:0.1;stroke-linecap:round;stroke-miterlimit:4;stroke-opacity:1;stroke-dasharray:none;stroke-dashoffset:0"
       sodipodi:type="arc" />
    <path
       transform="matrix(0.80492992,0,0,0.80492992,165.9975,152.44596)"
       d="m 123.53163,149.50504 a 6.3887658,6.3887658 0 1 1 -12.77754,0 6.3887658,6.3887658 0 1 1 12.77754,0 z"
       sodipodi:ry="6.3887658"
       sodipodi:rx="6.3887658"
       sodipodi:cy="149.50504"
       sodipodi:cx="117.14286"
       id="path3873-9"
       style="fill:#000000;fill-opacity:1;stroke:#7a7a7a;stroke-width:0.1;stroke-linecap:round;stroke-miterlimit:4;stroke-opacity:1;stroke-dasharray:none;stroke-dashoffset:0"
       sodipodi:type="arc" />
    <path
       transform="matrix(0.80492992,0,0,0.80492992,271.61135,152.44596)"
       d="m 123.53163,149.50504 a 6.3887658,6.3887658 0 1 1 -12.77754,0 6.3887658,6.3887658 0 1 1 12.77754,0 z"
       sodipodi:ry="6.3887658"
       sodipodi:rx="6.3887658"
       sodipodi:cy="149.50504"
       sodipodi:cx="117.14286"
       id="path3877-2"
       style="fill:#000000;fill-opacity:1;stroke:#7a7a7a;stroke-width:0.1;stroke-linecap:round;stroke-miterlimit:4;stroke-opacity:1;stroke-dasharray:none;stroke-dashoffset:0"
       sodipodi:type="arc" />
    <path
       sodipodi:type="arc"
       style="fill:#000000;fill-opacity:1;stroke:#7a7a7a;stroke-width:0.1;stroke-linecap:round;stroke-miterlimit:4;stroke-opacity:1;stroke-dasharray:none;stroke-dashoffset:0"
       id="path3879-93"
       sodipodi:cx="117.14286"
       sodipodi:cy="149.50504"
       sodipodi:rx="6.3887658"
       sodipodi:ry="6.3887658"
       d="m 123.53163,149.50504 a 6.3887658,6.3887658 0 1 1 -12.77754,0 6.3887658,6.3887658 0 1 1 12.77754,0 z"
       transform="matrix(0.80492992,0,0,0.80492992,377.22522,152.44596)" />
    <path
       transform="matrix(0.80492992,0,0,0.80492992,60.3837,248.72874)"
       d="m 123.53163,149.50504 a 6.3887658,6.3887658 0 1 1 -12.77754,0 6.3887658,6.3887658 0 1 1 12.77754,0 z"
       sodipodi:ry="6.3887658"
       sodipodi:rx="6.3887658"
       sodipodi:cy="149.50504"
       sodipodi:cx="117.14286"
       id="path3869-7"
       style="fill:#000000;fill-opacity:1;stroke:#7a7a7a;stroke-width:0.1;stroke-linecap:round;stroke-miterlimit:4;stroke-opacity:1;stroke-dasharray:none;stroke-dashoffset:0"
       sodipodi:type="arc" />
    <path
       transform="matrix(0.80492992,0,0,0.80492992,165.9975,248.72874)"
       d="m 123.53163,149.50504 a 6.3887658,6.3887658 0 1 1 -12.77754,0 6.3887658,6.3887658 0 1 1 12.77754,0 z"
       sodipodi:ry="6.3887658"
       sodipodi:rx="6.3887658"
       sodipodi:cy="149.50504"
       sodipodi:cx="117.14286"
       id="path3873-20"
       style="fill:#000000;fill-opacity:1;stroke:#7a7a7a;stroke-width:0.1;stroke-linecap:round;stroke-miterlimit:4;stroke-opacity:1;stroke-dasharray:none;stroke-dashoffset:0"
       sodipodi:type="arc" />
    <path
       transform="matrix(0.80492992,0,0,0.80492992,271.61135,248.72874)"
       d="m 123.53163,149.50504 a 6.3887658,6.3887658 0 1 1 -12.77754,0 6.3887658,6.3887658 0 1 1 12.77754,0 z"
       sodipodi:ry="6.3887658"
       sodipodi:rx="6.3887658"
       sodipodi:cy="149.50504"
       sodipodi:cx="117.14286"
       id="path3877-78"
       style="fill:#000000;fill-opacity:1;stroke:#7a7a7a;stroke-width:0.1;stroke-linecap:round;stroke-miterlimit:4;stroke-opacity:1;stroke-dasharray:none;stroke-dashoffset:0"
       sodipodi:type="arc" />
    <path
       sodipodi:type="arc"
       style="fill:#000000;fill-opacity:1;stroke:#7a7a7a;stroke-width:0.1;stroke-linecap:round;stroke-miterlimit:4;stroke-opacity:1;stroke-dasharray:none;stroke-dashoffset:0"
       id="path3879-66"
       sodipodi:cx="117.14286"
       sodipodi:cy="149.50504"
       sodipodi:rx="6.3887658"
       sodipodi:ry="6.3887658"
       d="m 123.53163,149.50504 a 6.3887658,6.3887658 0 1 1 -12.77754,0 6.3887658,6.3887658 0 1 1 12.77754,0 z"
       transform="matrix(0.80492992,0,0,0.80492992,377.22522,248.72874)" />
    <text
       xml:space="preserve"
       style="font-size:12px;font-style:normal;font-weight:normal;line-height:125%;letter-spacing:0px;word-spacing:0px;fill:#000000;fill-opacity:1;stroke:none;font-family:Sans"
       x="76.771591"
       y="231.10817"
       id="text5565"
       sodipodi:linespacing="125%"><tspan
         sodipodi:role="line"
         id="tspan5567"
         x="76.771591"
         y="231.10817">$\cdots$</tspan></text>
    <text
       sodipodi:linespacing="125%"
       id="text5569"
       y="231.10817"
       x="491.94427"
       style="font-size:12px;font-style:normal;font-weight:normal;line-height:125%;letter-spacing:0px;word-spacing:0px;fill:#000000;fill-opacity:1;stroke:none;font-family:Sans"
       xml:space="preserve"><tspan
         y="231.10817"
         x="491.94427"
         id="tspan5571"
         sodipodi:role="line">$\cdots$</tspan></text>
    <text
       xml:space="preserve"
       style="font-size:12px;font-style:normal;font-weight:normal;line-height:125%;letter-spacing:0px;word-spacing:0px;fill:#000000;fill-opacity:1;stroke:none;font-family:Sans"
       x="307.0864"
       y="414.95593"
       id="text5573"
       sodipodi:linespacing="125%"><tspan
         sodipodi:role="line"
         id="tspan5575"
         x="307.0864"
         y="414.95593">$\vdots$</tspan></text>
    <text
       sodipodi:linespacing="125%"
       id="text5577"
       y="48.270561"
       x="307.0864"
       style="font-size:12px;font-style:normal;font-weight:normal;line-height:125%;letter-spacing:0px;word-spacing:0px;fill:#000000;fill-opacity:1;stroke:none;font-family:Sans"
       xml:space="preserve"><tspan
         y="48.270561"
         x="307.0864"
         id="tspan5579"
         sodipodi:role="line">$\vdots$</tspan></text>
  </g>
</svg>
