<?xml version="1.0" encoding="UTF-8" standalone="no"?>
<!-- Created with Inkscape (http://www.inkscape.org/) -->

<svg
   xmlns:dc="http://purl.org/dc/elements/1.1/"
   xmlns:cc="http://creativecommons.org/ns#"
   xmlns:rdf="http://www.w3.org/1999/02/22-rdf-syntax-ns#"
   xmlns:svg="http://www.w3.org/2000/svg"
   xmlns="http://www.w3.org/2000/svg"
   xmlns:sodipodi="http://sodipodi.sourceforge.net/DTD/sodipodi-0.dtd"
   xmlns:inkscape="http://www.inkscape.org/namespaces/inkscape"
   width="465.04181"
   height="377.56622"
   id="svg2"
   version="1.1"
   inkscape:version="0.48.3.1 r9886"
   sodipodi:docname="ejem3.svg">
  <defs
     id="defs4" />
  <sodipodi:namedview
     id="base"
     pagecolor="#ffffff"
     bordercolor="#666666"
     borderopacity="1.0"
     inkscape:pageopacity="0.0"
     inkscape:pageshadow="2"
     inkscape:zoom="1.4"
     inkscape:cx="178.4118"
     inkscape:cy="189.03337"
     inkscape:document-units="px"
     inkscape:current-layer="layer1"
     showgrid="false"
     fit-margin-top="0"
     fit-margin-left="0"
     fit-margin-right="0"
     fit-margin-bottom="0"
     inkscape:window-width="1280"
     inkscape:window-height="744"
     inkscape:window-x="0"
     inkscape:window-y="27"
     inkscape:window-maximized="1"
     inkscape:snap-center="true" />
  <metadata
     id="metadata7">
    <rdf:RDF>
      <cc:Work
         rdf:about="">
        <dc:format>image/svg+xml</dc:format>
        <dc:type
           rdf:resource="http://purl.org/dc/dcmitype/StillImage" />
        <dc:title></dc:title>
      </cc:Work>
    </rdf:RDF>
  </metadata>
  <g
     inkscape:label="Capa 1"
     inkscape:groupmode="layer"
     id="layer1"
     transform="translate(-77.767685,-39.153374)">
    <path
       transform="matrix(0.80492992,0,0,0.80492992,60.3837,-40.119675)"
       d="m 123.53163,149.50504 a 6.3887658,6.3887658 0 1 1 -12.77754,0 6.3887658,6.3887658 0 1 1 12.77754,0 z"
       sodipodi:ry="6.3887658"
       sodipodi:rx="6.3887658"
       sodipodi:cy="149.50504"
       sodipodi:cx="117.14286"
       id="path3869"
       style="fill:#000000;fill-opacity:1;stroke:#7a7a7a;stroke-width:0.1;stroke-linecap:round;stroke-miterlimit:4;stroke-opacity:1;stroke-dasharray:none;stroke-dashoffset:0"
       sodipodi:type="arc" />
    <path
       sodipodi:type="arc"
       style="fill:#000000;fill-opacity:1;stroke:#7a7a7a;stroke-width:0.1;stroke-linecap:round;stroke-miterlimit:4;stroke-opacity:1;stroke-dasharray:none;stroke-dashoffset:0"
       id="path3871"
       sodipodi:cx="117.14286"
       sodipodi:cy="149.50504"
       sodipodi:rx="6.3887658"
       sodipodi:ry="6.3887658"
       d="m 123.53163,149.50504 a 6.3887658,6.3887658 0 1 1 -12.77754,0 6.3887658,6.3887658 0 1 1 12.77754,0 z"
       transform="matrix(0.80492992,0,0,0.80492992,113.1906,-40.119675)" />
    <path
       transform="matrix(0.80492992,0,0,0.80492992,165.9975,-40.119675)"
       d="m 123.53163,149.50504 a 6.3887658,6.3887658 0 1 1 -12.77754,0 6.3887658,6.3887658 0 1 1 12.77754,0 z"
       sodipodi:ry="6.3887658"
       sodipodi:rx="6.3887658"
       sodipodi:cy="149.50504"
       sodipodi:cx="117.14286"
       id="path3873"
       style="fill:#000000;fill-opacity:1;stroke:#7a7a7a;stroke-width:0.1;stroke-linecap:round;stroke-miterlimit:4;stroke-opacity:1;stroke-dasharray:none;stroke-dashoffset:0"
       sodipodi:type="arc" />
    <path
       sodipodi:type="arc"
       style="fill:#000000;fill-opacity:1;stroke:#7a7a7a;stroke-width:0.1;stroke-linecap:round;stroke-miterlimit:4;stroke-opacity:1;stroke-dasharray:none;stroke-dashoffset:0"
       id="path3875"
       sodipodi:cx="117.14286"
       sodipodi:cy="149.50504"
       sodipodi:rx="6.3887658"
       sodipodi:ry="6.3887658"
       d="m 123.53163,149.50504 a 6.3887658,6.3887658 0 1 1 -12.77754,0 6.3887658,6.3887658 0 1 1 12.77754,0 z"
       transform="matrix(0.80492992,0,0,0.80492992,218.80445,-40.119675)" />
    <path
       transform="matrix(0.80492992,0,0,0.80492992,271.61135,-40.119675)"
       d="m 123.53163,149.50504 a 6.3887658,6.3887658 0 1 1 -12.77754,0 6.3887658,6.3887658 0 1 1 12.77754,0 z"
       sodipodi:ry="6.3887658"
       sodipodi:rx="6.3887658"
       sodipodi:cy="149.50504"
       sodipodi:cx="117.14286"
       id="path3877"
       style="fill:#000000;fill-opacity:1;stroke:#7a7a7a;stroke-width:0.1;stroke-linecap:round;stroke-miterlimit:4;stroke-opacity:1;stroke-dasharray:none;stroke-dashoffset:0"
       sodipodi:type="arc" />
    <path
       sodipodi:type="arc"
       style="fill:#000000;fill-opacity:1;stroke:#7a7a7a;stroke-width:0.1;stroke-linecap:round;stroke-miterlimit:4;stroke-opacity:1;stroke-dasharray:none;stroke-dashoffset:0"
       id="path3879"
       sodipodi:cx="117.14286"
       sodipodi:cy="149.50504"
       sodipodi:rx="6.3887658"
       sodipodi:ry="6.3887658"
       d="m 123.53163,149.50504 a 6.3887658,6.3887658 0 1 1 -12.77754,0 6.3887658,6.3887658 0 1 1 12.77754,0 z"
       transform="matrix(0.80492992,0,0,0.80492992,377.22522,-40.119675)" />
    <path
       transform="matrix(0.80492992,0,0,0.80492992,324.41825,-40.119675)"
       d="m 123.53163,149.50504 a 6.3887658,6.3887658 0 1 1 -12.77754,0 6.3887658,6.3887658 0 1 1 12.77754,0 z"
       sodipodi:ry="6.3887658"
       sodipodi:rx="6.3887658"
       sodipodi:cy="149.50504"
       sodipodi:cx="117.14286"
       id="path3881"
       style="fill:#000000;fill-opacity:1;stroke:#7a7a7a;stroke-width:0.1;stroke-linecap:round;stroke-miterlimit:4;stroke-opacity:1;stroke-dasharray:none;stroke-dashoffset:0"
       sodipodi:type="arc" />
    <path
       transform="matrix(0.80492992,0,0,0.80492992,60.3837,8.0217193)"
       d="m 123.53163,149.50504 a 6.3887658,6.3887658 0 1 1 -12.77754,0 6.3887658,6.3887658 0 1 1 12.77754,0 z"
       sodipodi:ry="6.3887658"
       sodipodi:rx="6.3887658"
       sodipodi:cy="149.50504"
       sodipodi:cx="117.14286"
       id="path3869-5"
       style="fill:#000000;fill-opacity:1;stroke:#7a7a7a;stroke-width:0.1;stroke-linecap:round;stroke-miterlimit:4;stroke-opacity:1;stroke-dasharray:none;stroke-dashoffset:0"
       sodipodi:type="arc" />
    <path
       sodipodi:type="arc"
       style="fill:#000000;fill-opacity:1;stroke:#7a7a7a;stroke-width:0.1;stroke-linecap:round;stroke-miterlimit:4;stroke-opacity:1;stroke-dasharray:none;stroke-dashoffset:0"
       id="path3871-6"
       sodipodi:cx="117.14286"
       sodipodi:cy="149.50504"
       sodipodi:rx="6.3887658"
       sodipodi:ry="6.3887658"
       d="m 123.53163,149.50504 a 6.3887658,6.3887658 0 1 1 -12.77754,0 6.3887658,6.3887658 0 1 1 12.77754,0 z"
       transform="matrix(0.80492992,0,0,0.80492992,113.1906,8.0217193)" />
    <path
       transform="matrix(0.80492992,0,0,0.80492992,165.9975,8.0217193)"
       d="m 123.53163,149.50504 a 6.3887658,6.3887658 0 1 1 -12.77754,0 6.3887658,6.3887658 0 1 1 12.77754,0 z"
       sodipodi:ry="6.3887658"
       sodipodi:rx="6.3887658"
       sodipodi:cy="149.50504"
       sodipodi:cx="117.14286"
       id="path3873-5"
       style="fill:#000000;fill-opacity:1;stroke:#7a7a7a;stroke-width:0.1;stroke-linecap:round;stroke-miterlimit:4;stroke-opacity:1;stroke-dasharray:none;stroke-dashoffset:0"
       sodipodi:type="arc" />
    <path
       sodipodi:type="arc"
       style="fill:#000000;fill-opacity:1;stroke:#7a7a7a;stroke-width:0.1;stroke-linecap:round;stroke-miterlimit:4;stroke-opacity:1;stroke-dasharray:none;stroke-dashoffset:0"
       id="path3875-1"
       sodipodi:cx="117.14286"
       sodipodi:cy="149.50504"
       sodipodi:rx="6.3887658"
       sodipodi:ry="6.3887658"
       d="m 123.53163,149.50504 a 6.3887658,6.3887658 0 1 1 -12.77754,0 6.3887658,6.3887658 0 1 1 12.77754,0 z"
       transform="matrix(0.80492992,0,0,0.80492992,218.80445,8.0217193)" />
    <path
       transform="matrix(0.80492992,0,0,0.80492992,271.61135,8.0217193)"
       d="m 123.53163,149.50504 a 6.3887658,6.3887658 0 1 1 -12.77754,0 6.3887658,6.3887658 0 1 1 12.77754,0 z"
       sodipodi:ry="6.3887658"
       sodipodi:rx="6.3887658"
       sodipodi:cy="149.50504"
       sodipodi:cx="117.14286"
       id="path3877-5"
       style="fill:#000000;fill-opacity:1;stroke:#7a7a7a;stroke-width:0.1;stroke-linecap:round;stroke-miterlimit:4;stroke-opacity:1;stroke-dasharray:none;stroke-dashoffset:0"
       sodipodi:type="arc" />
    <path
       sodipodi:type="arc"
       style="fill:#000000;fill-opacity:1;stroke:#7a7a7a;stroke-width:0.1;stroke-linecap:round;stroke-miterlimit:4;stroke-opacity:1;stroke-dasharray:none;stroke-dashoffset:0"
       id="path3879-6"
       sodipodi:cx="117.14286"
       sodipodi:cy="149.50504"
       sodipodi:rx="6.3887658"
       sodipodi:ry="6.3887658"
       d="m 123.53163,149.50504 a 6.3887658,6.3887658 0 1 1 -12.77754,0 6.3887658,6.3887658 0 1 1 12.77754,0 z"
       transform="matrix(0.80492992,0,0,0.80492992,377.22522,8.0217193)" />
    <path
       transform="matrix(0.80492992,0,0,0.80492992,324.41825,8.0217193)"
       d="m 123.53163,149.50504 a 6.3887658,6.3887658 0 1 1 -12.77754,0 6.3887658,6.3887658 0 1 1 12.77754,0 z"
       sodipodi:ry="6.3887658"
       sodipodi:rx="6.3887658"
       sodipodi:cy="149.50504"
       sodipodi:cx="117.14286"
       id="path3881-5"
       style="fill:#000000;fill-opacity:1;stroke:#7a7a7a;stroke-width:0.1;stroke-linecap:round;stroke-miterlimit:4;stroke-opacity:1;stroke-dasharray:none;stroke-dashoffset:0"
       sodipodi:type="arc" />
    <path
       transform="matrix(0.80492992,0,0,0.80492992,60.3837,56.163132)"
       d="m 123.53163,149.50504 a 6.3887658,6.3887658 0 1 1 -12.77754,0 6.3887658,6.3887658 0 1 1 12.77754,0 z"
       sodipodi:ry="6.3887658"
       sodipodi:rx="6.3887658"
       sodipodi:cy="149.50504"
       sodipodi:cx="117.14286"
       id="path3869-3"
       style="fill:#000000;fill-opacity:1;stroke:#7a7a7a;stroke-width:0.1;stroke-linecap:round;stroke-miterlimit:4;stroke-opacity:1;stroke-dasharray:none;stroke-dashoffset:0"
       sodipodi:type="arc" />
    <path
       sodipodi:type="arc"
       style="fill:#000000;fill-opacity:1;stroke:#7a7a7a;stroke-width:0.1;stroke-linecap:round;stroke-miterlimit:4;stroke-opacity:1;stroke-dasharray:none;stroke-dashoffset:0"
       id="path3871-69"
       sodipodi:cx="117.14286"
       sodipodi:cy="149.50504"
       sodipodi:rx="6.3887658"
       sodipodi:ry="6.3887658"
       d="m 123.53163,149.50504 a 6.3887658,6.3887658 0 1 1 -12.77754,0 6.3887658,6.3887658 0 1 1 12.77754,0 z"
       transform="matrix(0.80492992,0,0,0.80492992,113.1906,56.163132)" />
    <path
       transform="matrix(0.80492992,0,0,0.80492992,165.9975,56.163132)"
       d="m 123.53163,149.50504 a 6.3887658,6.3887658 0 1 1 -12.77754,0 6.3887658,6.3887658 0 1 1 12.77754,0 z"
       sodipodi:ry="6.3887658"
       sodipodi:rx="6.3887658"
       sodipodi:cy="149.50504"
       sodipodi:cx="117.14286"
       id="path3873-2"
       style="fill:#000000;fill-opacity:1;stroke:#7a7a7a;stroke-width:0.1;stroke-linecap:round;stroke-miterlimit:4;stroke-opacity:1;stroke-dasharray:none;stroke-dashoffset:0"
       sodipodi:type="arc" />
    <path
       sodipodi:type="arc"
       style="fill:#000000;fill-opacity:1;stroke:#7a7a7a;stroke-width:0.1;stroke-linecap:round;stroke-miterlimit:4;stroke-opacity:1;stroke-dasharray:none;stroke-dashoffset:0"
       id="path3875-3"
       sodipodi:cx="117.14286"
       sodipodi:cy="149.50504"
       sodipodi:rx="6.3887658"
       sodipodi:ry="6.3887658"
       d="m 123.53163,149.50504 a 6.3887658,6.3887658 0 1 1 -12.77754,0 6.3887658,6.3887658 0 1 1 12.77754,0 z"
       transform="matrix(0.80492992,0,0,0.80492992,218.80445,56.163132)" />
    <path
       transform="matrix(0.80492992,0,0,0.80492992,271.61135,56.163132)"
       d="m 123.53163,149.50504 a 6.3887658,6.3887658 0 1 1 -12.77754,0 6.3887658,6.3887658 0 1 1 12.77754,0 z"
       sodipodi:ry="6.3887658"
       sodipodi:rx="6.3887658"
       sodipodi:cy="149.50504"
       sodipodi:cx="117.14286"
       id="path3877-8"
       style="fill:#000000;fill-opacity:1;stroke:#7a7a7a;stroke-width:0.1;stroke-linecap:round;stroke-miterlimit:4;stroke-opacity:1;stroke-dasharray:none;stroke-dashoffset:0"
       sodipodi:type="arc" />
    <path
       sodipodi:type="arc"
       style="fill:#000000;fill-opacity:1;stroke:#7a7a7a;stroke-width:0.1;stroke-linecap:round;stroke-miterlimit:4;stroke-opacity:1;stroke-dasharray:none;stroke-dashoffset:0"
       id="path3879-4"
       sodipodi:cx="117.14286"
       sodipodi:cy="149.50504"
       sodipodi:rx="6.3887658"
       sodipodi:ry="6.3887658"
       d="m 123.53163,149.50504 a 6.3887658,6.3887658 0 1 1 -12.77754,0 6.3887658,6.3887658 0 1 1 12.77754,0 z"
       transform="matrix(0.80492992,0,0,0.80492992,377.22522,56.163132)" />
    <path
       transform="matrix(0.80492992,0,0,0.80492992,324.41825,56.163132)"
       d="m 123.53163,149.50504 a 6.3887658,6.3887658 0 1 1 -12.77754,0 6.3887658,6.3887658 0 1 1 12.77754,0 z"
       sodipodi:ry="6.3887658"
       sodipodi:rx="6.3887658"
       sodipodi:cy="149.50504"
       sodipodi:cx="117.14286"
       id="path3881-2"
       style="fill:#000000;fill-opacity:1;stroke:#7a7a7a;stroke-width:0.1;stroke-linecap:round;stroke-miterlimit:4;stroke-opacity:1;stroke-dasharray:none;stroke-dashoffset:0"
       sodipodi:type="arc" />
    <path
       transform="matrix(0.80492992,0,0,0.80492992,60.3837,104.30456)"
       d="m 123.53163,149.50504 a 6.3887658,6.3887658 0 1 1 -12.77754,0 6.3887658,6.3887658 0 1 1 12.77754,0 z"
       sodipodi:ry="6.3887658"
       sodipodi:rx="6.3887658"
       sodipodi:cy="149.50504"
       sodipodi:cx="117.14286"
       id="path3869-6"
       style="fill:#000000;fill-opacity:1;stroke:#7a7a7a;stroke-width:0.1;stroke-linecap:round;stroke-miterlimit:4;stroke-opacity:1;stroke-dasharray:none;stroke-dashoffset:0"
       sodipodi:type="arc" />
    <path
       sodipodi:type="arc"
       style="fill:#000000;fill-opacity:1;stroke:#7a7a7a;stroke-width:0.1;stroke-linecap:round;stroke-miterlimit:4;stroke-opacity:1;stroke-dasharray:none;stroke-dashoffset:0"
       id="path3871-0"
       sodipodi:cx="117.14286"
       sodipodi:cy="149.50504"
       sodipodi:rx="6.3887658"
       sodipodi:ry="6.3887658"
       d="m 123.53163,149.50504 a 6.3887658,6.3887658 0 1 1 -12.77754,0 6.3887658,6.3887658 0 1 1 12.77754,0 z"
       transform="matrix(0.80492992,0,0,0.80492992,113.1906,104.30456)" />
    <path
       transform="matrix(0.80492992,0,0,0.80492992,165.9975,104.30456)"
       d="m 123.53163,149.50504 a 6.3887658,6.3887658 0 1 1 -12.77754,0 6.3887658,6.3887658 0 1 1 12.77754,0 z"
       sodipodi:ry="6.3887658"
       sodipodi:rx="6.3887658"
       sodipodi:cy="149.50504"
       sodipodi:cx="117.14286"
       id="path3873-53"
       style="fill:#000000;fill-opacity:1;stroke:#7a7a7a;stroke-width:0.1;stroke-linecap:round;stroke-miterlimit:4;stroke-opacity:1;stroke-dasharray:none;stroke-dashoffset:0"
       sodipodi:type="arc" />
    <path
       sodipodi:type="arc"
       style="fill:#000000;fill-opacity:1;stroke:#7a7a7a;stroke-width:0.1;stroke-linecap:round;stroke-miterlimit:4;stroke-opacity:1;stroke-dasharray:none;stroke-dashoffset:0"
       id="path3875-11"
       sodipodi:cx="117.14286"
       sodipodi:cy="149.50504"
       sodipodi:rx="6.3887658"
       sodipodi:ry="6.3887658"
       d="m 123.53163,149.50504 a 6.3887658,6.3887658 0 1 1 -12.77754,0 6.3887658,6.3887658 0 1 1 12.77754,0 z"
       transform="matrix(0.80492992,0,0,0.80492992,218.80445,104.30456)" />
    <path
       transform="matrix(0.80492992,0,0,0.80492992,271.61135,104.30456)"
       d="m 123.53163,149.50504 a 6.3887658,6.3887658 0 1 1 -12.77754,0 6.3887658,6.3887658 0 1 1 12.77754,0 z"
       sodipodi:ry="6.3887658"
       sodipodi:rx="6.3887658"
       sodipodi:cy="149.50504"
       sodipodi:cx="117.14286"
       id="path3877-4"
       style="fill:#000000;fill-opacity:1;stroke:#7a7a7a;stroke-width:0.1;stroke-linecap:round;stroke-miterlimit:4;stroke-opacity:1;stroke-dasharray:none;stroke-dashoffset:0"
       sodipodi:type="arc" />
    <path
       sodipodi:type="arc"
       style="fill:#000000;fill-opacity:1;stroke:#7a7a7a;stroke-width:0.1;stroke-linecap:round;stroke-miterlimit:4;stroke-opacity:1;stroke-dasharray:none;stroke-dashoffset:0"
       id="path3879-9"
       sodipodi:cx="117.14286"
       sodipodi:cy="149.50504"
       sodipodi:rx="6.3887658"
       sodipodi:ry="6.3887658"
       d="m 123.53163,149.50504 a 6.3887658,6.3887658 0 1 1 -12.77754,0 6.3887658,6.3887658 0 1 1 12.77754,0 z"
       transform="matrix(0.80492992,0,0,0.80492992,377.22522,104.30456)" />
    <path
       transform="matrix(0.80492992,0,0,0.80492992,324.41825,104.30456)"
       d="m 123.53163,149.50504 a 6.3887658,6.3887658 0 1 1 -12.77754,0 6.3887658,6.3887658 0 1 1 12.77754,0 z"
       sodipodi:ry="6.3887658"
       sodipodi:rx="6.3887658"
       sodipodi:cy="149.50504"
       sodipodi:cx="117.14286"
       id="path3881-23"
       style="fill:#000000;fill-opacity:1;stroke:#7a7a7a;stroke-width:0.1;stroke-linecap:round;stroke-miterlimit:4;stroke-opacity:1;stroke-dasharray:none;stroke-dashoffset:0"
       sodipodi:type="arc" />
    <path
       transform="matrix(0.80492992,0,0,0.80492992,60.3837,152.44596)"
       d="m 123.53163,149.50504 a 6.3887658,6.3887658 0 1 1 -12.77754,0 6.3887658,6.3887658 0 1 1 12.77754,0 z"
       sodipodi:ry="6.3887658"
       sodipodi:rx="6.3887658"
       sodipodi:cy="149.50504"
       sodipodi:cx="117.14286"
       id="path3869-1"
       style="fill:#000000;fill-opacity:1;stroke:#7a7a7a;stroke-width:0.1;stroke-linecap:round;stroke-miterlimit:4;stroke-opacity:1;stroke-dasharray:none;stroke-dashoffset:0"
       sodipodi:type="arc" />
    <path
       sodipodi:type="arc"
       style="fill:#000000;fill-opacity:1;stroke:#7a7a7a;stroke-width:0.1;stroke-linecap:round;stroke-miterlimit:4;stroke-opacity:1;stroke-dasharray:none;stroke-dashoffset:0"
       id="path3871-1"
       sodipodi:cx="117.14286"
       sodipodi:cy="149.50504"
       sodipodi:rx="6.3887658"
       sodipodi:ry="6.3887658"
       d="m 123.53163,149.50504 a 6.3887658,6.3887658 0 1 1 -12.77754,0 6.3887658,6.3887658 0 1 1 12.77754,0 z"
       transform="matrix(0.80492992,0,0,0.80492992,113.1906,152.44596)" />
    <path
       transform="matrix(0.80492992,0,0,0.80492992,165.9975,152.44596)"
       d="m 123.53163,149.50504 a 6.3887658,6.3887658 0 1 1 -12.77754,0 6.3887658,6.3887658 0 1 1 12.77754,0 z"
       sodipodi:ry="6.3887658"
       sodipodi:rx="6.3887658"
       sodipodi:cy="149.50504"
       sodipodi:cx="117.14286"
       id="path3873-9"
       style="fill:#000000;fill-opacity:1;stroke:#7a7a7a;stroke-width:0.1;stroke-linecap:round;stroke-miterlimit:4;stroke-opacity:1;stroke-dasharray:none;stroke-dashoffset:0"
       sodipodi:type="arc" />
    <path
       sodipodi:type="arc"
       style="fill:#000000;fill-opacity:1;stroke:#7a7a7a;stroke-width:0.1;stroke-linecap:round;stroke-miterlimit:4;stroke-opacity:1;stroke-dasharray:none;stroke-dashoffset:0"
       id="path3875-5"
       sodipodi:cx="117.14286"
       sodipodi:cy="149.50504"
       sodipodi:rx="6.3887658"
       sodipodi:ry="6.3887658"
       d="m 123.53163,149.50504 a 6.3887658,6.3887658 0 1 1 -12.77754,0 6.3887658,6.3887658 0 1 1 12.77754,0 z"
       transform="matrix(0.80492992,0,0,0.80492992,218.80445,152.44596)" />
    <path
       transform="matrix(0.80492992,0,0,0.80492992,271.61135,152.44596)"
       d="m 123.53163,149.50504 a 6.3887658,6.3887658 0 1 1 -12.77754,0 6.3887658,6.3887658 0 1 1 12.77754,0 z"
       sodipodi:ry="6.3887658"
       sodipodi:rx="6.3887658"
       sodipodi:cy="149.50504"
       sodipodi:cx="117.14286"
       id="path3877-2"
       style="fill:#000000;fill-opacity:1;stroke:#7a7a7a;stroke-width:0.1;stroke-linecap:round;stroke-miterlimit:4;stroke-opacity:1;stroke-dasharray:none;stroke-dashoffset:0"
       sodipodi:type="arc" />
    <path
       sodipodi:type="arc"
       style="fill:#000000;fill-opacity:1;stroke:#7a7a7a;stroke-width:0.1;stroke-linecap:round;stroke-miterlimit:4;stroke-opacity:1;stroke-dasharray:none;stroke-dashoffset:0"
       id="path3879-93"
       sodipodi:cx="117.14286"
       sodipodi:cy="149.50504"
       sodipodi:rx="6.3887658"
       sodipodi:ry="6.3887658"
       d="m 123.53163,149.50504 a 6.3887658,6.3887658 0 1 1 -12.77754,0 6.3887658,6.3887658 0 1 1 12.77754,0 z"
       transform="matrix(0.80492992,0,0,0.80492992,377.22522,152.44596)" />
    <path
       transform="matrix(0.80492992,0,0,0.80492992,324.41825,152.44596)"
       d="m 123.53163,149.50504 a 6.3887658,6.3887658 0 1 1 -12.77754,0 6.3887658,6.3887658 0 1 1 12.77754,0 z"
       sodipodi:ry="6.3887658"
       sodipodi:rx="6.3887658"
       sodipodi:cy="149.50504"
       sodipodi:cx="117.14286"
       id="path3881-8"
       style="fill:#000000;fill-opacity:1;stroke:#7a7a7a;stroke-width:0.1;stroke-linecap:round;stroke-miterlimit:4;stroke-opacity:1;stroke-dasharray:none;stroke-dashoffset:0"
       sodipodi:type="arc" />
    <path
       transform="matrix(0.80492992,0,0,0.80492992,60.3837,200.58735)"
       d="m 123.53163,149.50504 a 6.3887658,6.3887658 0 1 1 -12.77754,0 6.3887658,6.3887658 0 1 1 12.77754,0 z"
       sodipodi:ry="6.3887658"
       sodipodi:rx="6.3887658"
       sodipodi:cy="149.50504"
       sodipodi:cx="117.14286"
       id="path3869-2"
       style="fill:#000000;fill-opacity:1;stroke:#7a7a7a;stroke-width:0.1;stroke-linecap:round;stroke-miterlimit:4;stroke-opacity:1;stroke-dasharray:none;stroke-dashoffset:0"
       sodipodi:type="arc" />
    <path
       sodipodi:type="arc"
       style="fill:#000000;fill-opacity:1;stroke:#7a7a7a;stroke-width:0.1;stroke-linecap:round;stroke-miterlimit:4;stroke-opacity:1;stroke-dasharray:none;stroke-dashoffset:0"
       id="path3871-8"
       sodipodi:cx="117.14286"
       sodipodi:cy="149.50504"
       sodipodi:rx="6.3887658"
       sodipodi:ry="6.3887658"
       d="m 123.53163,149.50504 a 6.3887658,6.3887658 0 1 1 -12.77754,0 6.3887658,6.3887658 0 1 1 12.77754,0 z"
       transform="matrix(0.80492992,0,0,0.80492992,113.1906,200.58735)" />
    <path
       transform="matrix(0.80492992,0,0,0.80492992,165.9975,200.58735)"
       d="m 123.53163,149.50504 a 6.3887658,6.3887658 0 1 1 -12.77754,0 6.3887658,6.3887658 0 1 1 12.77754,0 z"
       sodipodi:ry="6.3887658"
       sodipodi:rx="6.3887658"
       sodipodi:cy="149.50504"
       sodipodi:cx="117.14286"
       id="path3873-4"
       style="fill:#000000;fill-opacity:1;stroke:#7a7a7a;stroke-width:0.1;stroke-linecap:round;stroke-miterlimit:4;stroke-opacity:1;stroke-dasharray:none;stroke-dashoffset:0"
       sodipodi:type="arc" />
    <path
       sodipodi:type="arc"
       style="fill:#000000;fill-opacity:1;stroke:#7a7a7a;stroke-width:0.1;stroke-linecap:round;stroke-miterlimit:4;stroke-opacity:1;stroke-dasharray:none;stroke-dashoffset:0"
       id="path3875-4"
       sodipodi:cx="117.14286"
       sodipodi:cy="149.50504"
       sodipodi:rx="6.3887658"
       sodipodi:ry="6.3887658"
       d="m 123.53163,149.50504 a 6.3887658,6.3887658 0 1 1 -12.77754,0 6.3887658,6.3887658 0 1 1 12.77754,0 z"
       transform="matrix(0.80492992,0,0,0.80492992,218.80445,200.58735)" />
    <path
       transform="matrix(0.80492992,0,0,0.80492992,271.61135,200.58735)"
       d="m 123.53163,149.50504 a 6.3887658,6.3887658 0 1 1 -12.77754,0 6.3887658,6.3887658 0 1 1 12.77754,0 z"
       sodipodi:ry="6.3887658"
       sodipodi:rx="6.3887658"
       sodipodi:cy="149.50504"
       sodipodi:cx="117.14286"
       id="path3877-7"
       style="fill:#000000;fill-opacity:1;stroke:#7a7a7a;stroke-width:0.1;stroke-linecap:round;stroke-miterlimit:4;stroke-opacity:1;stroke-dasharray:none;stroke-dashoffset:0"
       sodipodi:type="arc" />
    <path
       sodipodi:type="arc"
       style="fill:#000000;fill-opacity:1;stroke:#7a7a7a;stroke-width:0.1;stroke-linecap:round;stroke-miterlimit:4;stroke-opacity:1;stroke-dasharray:none;stroke-dashoffset:0"
       id="path3879-0"
       sodipodi:cx="117.14286"
       sodipodi:cy="149.50504"
       sodipodi:rx="6.3887658"
       sodipodi:ry="6.3887658"
       d="m 123.53163,149.50504 a 6.3887658,6.3887658 0 1 1 -12.77754,0 6.3887658,6.3887658 0 1 1 12.77754,0 z"
       transform="matrix(0.80492992,0,0,0.80492992,377.22522,200.58735)" />
    <path
       transform="matrix(0.80492992,0,0,0.80492992,324.41825,200.58735)"
       d="m 123.53163,149.50504 a 6.3887658,6.3887658 0 1 1 -12.77754,0 6.3887658,6.3887658 0 1 1 12.77754,0 z"
       sodipodi:ry="6.3887658"
       sodipodi:rx="6.3887658"
       sodipodi:cy="149.50504"
       sodipodi:cx="117.14286"
       id="path3881-9"
       style="fill:#000000;fill-opacity:1;stroke:#7a7a7a;stroke-width:0.1;stroke-linecap:round;stroke-miterlimit:4;stroke-opacity:1;stroke-dasharray:none;stroke-dashoffset:0"
       sodipodi:type="arc" />
    <path
       transform="matrix(0.80492992,0,0,0.80492992,60.3837,248.72874)"
       d="m 123.53163,149.50504 a 6.3887658,6.3887658 0 1 1 -12.77754,0 6.3887658,6.3887658 0 1 1 12.77754,0 z"
       sodipodi:ry="6.3887658"
       sodipodi:rx="6.3887658"
       sodipodi:cy="149.50504"
       sodipodi:cx="117.14286"
       id="path3869-7"
       style="fill:#000000;fill-opacity:1;stroke:#7a7a7a;stroke-width:0.1;stroke-linecap:round;stroke-miterlimit:4;stroke-opacity:1;stroke-dasharray:none;stroke-dashoffset:0"
       sodipodi:type="arc" />
    <path
       sodipodi:type="arc"
       style="fill:#000000;fill-opacity:1;stroke:#7a7a7a;stroke-width:0.1;stroke-linecap:round;stroke-miterlimit:4;stroke-opacity:1;stroke-dasharray:none;stroke-dashoffset:0"
       id="path3871-7"
       sodipodi:cx="117.14286"
       sodipodi:cy="149.50504"
       sodipodi:rx="6.3887658"
       sodipodi:ry="6.3887658"
       d="m 123.53163,149.50504 a 6.3887658,6.3887658 0 1 1 -12.77754,0 6.3887658,6.3887658 0 1 1 12.77754,0 z"
       transform="matrix(0.80492992,0,0,0.80492992,113.1906,248.72874)" />
    <path
       transform="matrix(0.80492992,0,0,0.80492992,165.9975,248.72874)"
       d="m 123.53163,149.50504 a 6.3887658,6.3887658 0 1 1 -12.77754,0 6.3887658,6.3887658 0 1 1 12.77754,0 z"
       sodipodi:ry="6.3887658"
       sodipodi:rx="6.3887658"
       sodipodi:cy="149.50504"
       sodipodi:cx="117.14286"
       id="path3873-20"
       style="fill:#000000;fill-opacity:1;stroke:#7a7a7a;stroke-width:0.1;stroke-linecap:round;stroke-miterlimit:4;stroke-opacity:1;stroke-dasharray:none;stroke-dashoffset:0"
       sodipodi:type="arc" />
    <path
       sodipodi:type="arc"
       style="fill:#000000;fill-opacity:1;stroke:#7a7a7a;stroke-width:0.1;stroke-linecap:round;stroke-miterlimit:4;stroke-opacity:1;stroke-dasharray:none;stroke-dashoffset:0"
       id="path3875-2"
       sodipodi:cx="117.14286"
       sodipodi:cy="149.50504"
       sodipodi:rx="6.3887658"
       sodipodi:ry="6.3887658"
       d="m 123.53163,149.50504 a 6.3887658,6.3887658 0 1 1 -12.77754,0 6.3887658,6.3887658 0 1 1 12.77754,0 z"
       transform="matrix(0.80492992,0,0,0.80492992,218.80445,248.72874)" />
    <path
       transform="matrix(0.80492992,0,0,0.80492992,271.61135,248.72874)"
       d="m 123.53163,149.50504 a 6.3887658,6.3887658 0 1 1 -12.77754,0 6.3887658,6.3887658 0 1 1 12.77754,0 z"
       sodipodi:ry="6.3887658"
       sodipodi:rx="6.3887658"
       sodipodi:cy="149.50504"
       sodipodi:cx="117.14286"
       id="path3877-78"
       style="fill:#000000;fill-opacity:1;stroke:#7a7a7a;stroke-width:0.1;stroke-linecap:round;stroke-miterlimit:4;stroke-opacity:1;stroke-dasharray:none;stroke-dashoffset:0"
       sodipodi:type="arc" />
    <path
       sodipodi:type="arc"
       style="fill:#000000;fill-opacity:1;stroke:#7a7a7a;stroke-width:0.1;stroke-linecap:round;stroke-miterlimit:4;stroke-opacity:1;stroke-dasharray:none;stroke-dashoffset:0"
       id="path3879-66"
       sodipodi:cx="117.14286"
       sodipodi:cy="149.50504"
       sodipodi:rx="6.3887658"
       sodipodi:ry="6.3887658"
       d="m 123.53163,149.50504 a 6.3887658,6.3887658 0 1 1 -12.77754,0 6.3887658,6.3887658 0 1 1 12.77754,0 z"
       transform="matrix(0.80492992,0,0,0.80492992,377.22522,248.72874)" />
    <path
       transform="matrix(0.80492992,0,0,0.80492992,324.41825,248.72874)"
       d="m 123.53163,149.50504 a 6.3887658,6.3887658 0 1 1 -12.77754,0 6.3887658,6.3887658 0 1 1 12.77754,0 z"
       sodipodi:ry="6.3887658"
       sodipodi:rx="6.3887658"
       sodipodi:cy="149.50504"
       sodipodi:cx="117.14286"
       id="path3881-0"
       style="fill:#000000;fill-opacity:1;stroke:#7a7a7a;stroke-width:0.1;stroke-linecap:round;stroke-miterlimit:4;stroke-opacity:1;stroke-dasharray:none;stroke-dashoffset:0"
       sodipodi:type="arc" />
    <text
       xml:space="preserve"
       style="font-size:12px;font-style:normal;font-weight:normal;line-height:125%;letter-spacing:0px;word-spacing:0px;fill:#000000;fill-opacity:1;stroke:none;font-family:Sans"
       x="76.771591"
       y="231.10817"
       id="text5565"
       sodipodi:linespacing="125%"><tspan
         sodipodi:role="line"
         id="tspan5567"
         x="76.771591"
         y="231.10817">$\cdots$</tspan></text>
    <text
       sodipodi:linespacing="125%"
       id="text5569"
       y="231.10817"
       x="491.94427"
       style="font-size:12px;font-style:normal;font-weight:normal;line-height:125%;letter-spacing:0px;word-spacing:0px;fill:#000000;fill-opacity:1;stroke:none;font-family:Sans"
       xml:space="preserve"><tspan
         y="231.10817"
         x="491.94427"
         id="tspan5571"
         sodipodi:role="line">$\cdots$</tspan></text>
    <text
       xml:space="preserve"
       style="font-size:12px;font-style:normal;font-weight:normal;line-height:125%;letter-spacing:0px;word-spacing:0px;fill:#000000;fill-opacity:1;stroke:none;font-family:Sans"
       x="307.0864"
       y="414.95593"
       id="text5573"
       sodipodi:linespacing="125%"><tspan
         sodipodi:role="line"
         id="tspan5575"
         x="307.0864"
         y="414.95593">$\vdots$</tspan></text>
    <text
       sodipodi:linespacing="125%"
       id="text5577"
       y="48.270561"
       x="307.0864"
       style="font-size:12px;font-style:normal;font-weight:normal;line-height:125%;letter-spacing:0px;word-spacing:0px;fill:#000000;fill-opacity:1;stroke:none;font-family:Sans"
       xml:space="preserve"><tspan
         y="48.270561"
         x="307.0864"
         id="tspan5579"
         sodipodi:role="line">$\vdots$</tspan></text>
  </g>
</svg>
