<?xml version="1.0" encoding="UTF-8" standalone="no"?>
<!-- Created with Inkscape (http://www.inkscape.org/) -->

<svg
   xmlns:dc="http://purl.org/dc/elements/1.1/"
   xmlns:cc="http://creativecommons.org/ns#"
   xmlns:rdf="http://www.w3.org/1999/02/22-rdf-syntax-ns#"
   xmlns:svg="http://www.w3.org/2000/svg"
   xmlns="http://www.w3.org/2000/svg"
   xmlns:sodipodi="http://sodipodi.sourceforge.net/DTD/sodipodi-0.dtd"
   xmlns:inkscape="http://www.inkscape.org/namespaces/inkscape"
   width="826.8067"
   height="712.52142"
   id="svg2"
   version="1.1"
   inkscape:version="0.48.3.1 r9886"
   sodipodi:docname="fcl.svg">
  <defs
     id="defs4" />
  <sodipodi:namedview
     id="base"
     pagecolor="#ffffff"
     bordercolor="#666666"
     borderopacity="1.0"
     inkscape:pageopacity="0.0"
     inkscape:pageshadow="2"
     inkscape:zoom="0.98994949"
     inkscape:cx="382.96875"
     inkscape:cy="424.07888"
     inkscape:document-units="px"
     inkscape:current-layer="layer1"
     showgrid="false"
     units="cm"
     inkscape:snap-smooth-nodes="true"
     inkscape:snap-object-midpoints="true"
     inkscape:snap-midpoints="true"
     inkscape:object-nodes="true"
     inkscape:snap-global="true"
     fit-margin-top="0"
     fit-margin-left="0"
     fit-margin-right="0"
     fit-margin-bottom="0"
     inkscape:window-width="1280"
     inkscape:window-height="744"
     inkscape:window-x="0"
     inkscape:window-y="27"
     inkscape:window-maximized="1" />
  <metadata
     id="metadata7">
    <rdf:RDF>
      <cc:Work
         rdf:about="">
        <dc:format>image/svg+xml</dc:format>
        <dc:type
           rdf:resource="http://purl.org/dc/dcmitype/StillImage" />
        <dc:title></dc:title>
      </cc:Work>
    </rdf:RDF>
  </metadata>
  <g
     inkscape:label="Capa 1"
     inkscape:groupmode="layer"
     id="layer1"
     transform="translate(-68.518529,-273.05695)">
    <g
       id="g4241"
       transform="matrix(5.3874601,0,0,5.3874601,-494.9557,-4360.7436)"
       style="stroke-width:0.1;stroke-miterlimit:4;stroke-dasharray:none">
      <path
         inkscape:connector-curvature="0"
         id="path3909"
         d="m 164.15173,932.80233 57.85714,-57.85715"
         style="fill:none;stroke:#000000;stroke-width:0.1;stroke-linecap:butt;stroke-linejoin:miter;stroke-miterlimit:4;stroke-opacity:1;stroke-dasharray:none" />
      <path
         inkscape:connector-curvature="0"
         id="path3907"
         d="m 164.15173,874.94518 57.85714,57.85715"
         style="fill:none;stroke:#000000;stroke-width:0.1;stroke-linecap:butt;stroke-linejoin:miter;stroke-miterlimit:4;stroke-opacity:1;stroke-dasharray:none" />
      <rect
         y="874.94519"
         x="164.15173"
         height="57.857143"
         width="57.857143"
         id="rect3125"
         style="fill:none;stroke:#000000;stroke-width:0.1;stroke-linecap:round;stroke-miterlimit:4;stroke-opacity:1;stroke-dasharray:none;stroke-dashoffset:0" />
      <rect
         style="fill:none;stroke:#818181;stroke-width:0.1;stroke-linecap:round;stroke-miterlimit:4;stroke-opacity:1;stroke-dasharray:none;stroke-dashoffset:0"
         id="rect3895"
         width="57.857143"
         height="57.857143"
         x="198.49692"
         y="861.81317" />
      <path
         inkscape:connector-curvature="0"
         id="path3897"
         d="M 164.15173,874.94518 198.49691,861.8132"
         style="fill:none;stroke:#000000;stroke-width:0.1;stroke-linecap:butt;stroke-linejoin:miter;stroke-miterlimit:4;stroke-opacity:1;stroke-dasharray:none" />
      <path
         style="fill:none;stroke:#000000;stroke-width:0.1;stroke-linecap:butt;stroke-linejoin:miter;stroke-miterlimit:4;stroke-opacity:1;stroke-dasharray:none"
         d="m 222.00887,874.94518 34.34519,-13.13199"
         id="path3901"
         inkscape:connector-curvature="0" />
      <path
         inkscape:connector-curvature="0"
         id="path3903"
         d="m 222.00887,932.8023 34.34519,-13.13199"
         style="fill:none;stroke:#000000;stroke-width:0.1;stroke-linecap:butt;stroke-linejoin:miter;stroke-miterlimit:4;stroke-opacity:1;stroke-dasharray:none" />
      <path
         style="fill:none;stroke:#414141;stroke-width:0.1;stroke-linecap:butt;stroke-linejoin:miter;stroke-miterlimit:4;stroke-opacity:1;stroke-dasharray:none;stroke-dashoffset:0"
         d="m 164.15172,932.8023 34.34519,-13.13199"
         id="path3905"
         inkscape:connector-curvature="0" />
      <path
         inkscape:connector-curvature="0"
         id="path3911"
         d="m 198.49691,861.8132 57.85715,57.85711"
         style="fill:none;stroke:#7f7f7f;stroke-width:0.1;stroke-linecap:butt;stroke-linejoin:miter;stroke-miterlimit:4;stroke-opacity:1;stroke-dasharray:none;stroke-dashoffset:0" />
      <path
         inkscape:connector-curvature="0"
         id="path3913"
         d="m 198.49691,919.67031 57.85715,-57.85712"
         style="fill:none;stroke:#7f7f7f;stroke-width:0.1;stroke-linecap:butt;stroke-linejoin:miter;stroke-miterlimit:4;stroke-opacity:1;stroke-dasharray:none;stroke-dashoffset:0" />
      <path
         inkscape:connector-curvature="0"
         id="path3915"
         d="M 164.15173,874.94518 256.35406,861.8132"
         style="fill:none;stroke:#000000;stroke-width:0.1;stroke-linecap:butt;stroke-linejoin:miter;stroke-miterlimit:4;stroke-opacity:1;stroke-dasharray:none" />
      <path
         inkscape:connector-curvature="0"
         id="path3917"
         d="m 198.49691,861.8132 23.51196,13.13198"
         style="fill:none;stroke:#000000;stroke-width:0.1;stroke-linecap:butt;stroke-linejoin:miter;stroke-miterlimit:4;stroke-opacity:1;stroke-dasharray:none" />
      <path
         inkscape:connector-curvature="0"
         id="path3919"
         d="m 198.49691,861.8132 57.85715,0"
         style="fill:none;stroke:#000000;stroke-width:0.1;stroke-linecap:butt;stroke-linejoin:miter;stroke-miterlimit:4;stroke-opacity:1;stroke-dasharray:none" />
      <path
         inkscape:connector-curvature="0"
         id="path3921"
         d="m 256.35406,861.8132 0,57.85711"
         style="fill:none;stroke:#000000;stroke-width:0.1;stroke-linecap:butt;stroke-linejoin:miter;stroke-miterlimit:4;stroke-opacity:1;stroke-dasharray:none" />
      <path
         inkscape:connector-curvature="0"
         id="path3925"
         d="m 222.00887,874.94518 34.34519,44.72513"
         style="fill:none;stroke:#000000;stroke-width:0.1;stroke-linecap:butt;stroke-linejoin:miter;stroke-miterlimit:4;stroke-opacity:1;stroke-dasharray:none" />
      <path
         inkscape:connector-curvature="0"
         id="path3927"
         d="M 222.00887,932.80233 256.35406,861.8132"
         style="fill:none;stroke:#000000;stroke-width:0.1;stroke-linecap:butt;stroke-linejoin:miter;stroke-miterlimit:4;stroke-opacity:1;stroke-dasharray:none" />
      <path
         inkscape:connector-curvature="0"
         id="path3929"
         d="m 164.15173,874.94518 34.34518,44.72513"
         style="fill:none;stroke:#414141;stroke-width:0.1;stroke-linecap:butt;stroke-linejoin:miter;stroke-miterlimit:4;stroke-opacity:1;stroke-dasharray:none;stroke-dashoffset:0" />
      <path
         inkscape:connector-curvature="0"
         id="path3933"
         d="m 164.15172,932.8023 34.34519,-70.9891"
         style="fill:none;stroke:#3f3f3f;stroke-width:0.1;stroke-linecap:butt;stroke-linejoin:miter;stroke-miterlimit:4;stroke-opacity:1;stroke-dasharray:none;stroke-dashoffset:0" />
      <path
         inkscape:connector-curvature="0"
         id="path3937"
         d="m 164.15173,932.80233 92.20233,-13.13202"
         style="fill:none;stroke:#000000;stroke-width:0.1;stroke-linecap:butt;stroke-linejoin:miter;stroke-miterlimit:4;stroke-opacity:1;stroke-dasharray:none;stroke-dashoffset:0" />
      <path
         inkscape:connector-curvature="0"
         id="path3939"
         d="M 222.00887,932.8023 198.49691,919.67031"
         style="fill:none;stroke:#000000;stroke-width:0.1;stroke-linecap:butt;stroke-linejoin:miter;stroke-miterlimit:4;stroke-opacity:1;stroke-dasharray:none;stroke-dashoffset:0;marker-start:none" />
      <path
         inkscape:connector-curvature="0"
         id="path3909-6"
         d="m 164.15173,990.65945 57.85714,-57.85719"
         style="fill:none;stroke:#000000;stroke-width:0.1;stroke-linecap:butt;stroke-linejoin:miter;stroke-miterlimit:4;stroke-opacity:1;stroke-dasharray:none" />
      <path
         inkscape:connector-curvature="0"
         id="path3907-0"
         d="m 164.15173,932.80226 57.85714,57.85719"
         style="fill:none;stroke:#000000;stroke-width:0.1;stroke-linecap:butt;stroke-linejoin:miter;stroke-miterlimit:4;stroke-opacity:1;stroke-dasharray:none" />
      <rect
         y="932.80231"
         x="164.15173"
         height="57.857143"
         width="57.857143"
         id="rect3125-4"
         style="fill:none;stroke:#000000;stroke-width:0.1;stroke-linecap:round;stroke-miterlimit:4;stroke-opacity:1;stroke-dasharray:none;stroke-dashoffset:0" />
      <rect
         style="fill:none;stroke:#818181;stroke-width:0.1;stroke-linecap:round;stroke-miterlimit:4;stroke-opacity:1;stroke-dasharray:none;stroke-dashoffset:0"
         id="rect3895-2"
         width="57.857143"
         height="57.857143"
         x="198.49692"
         y="919.67029" />
      <path
         inkscape:connector-curvature="0"
         id="path3903-8"
         d="m 222.00887,990.65935 34.3452,-13.13196"
         style="fill:none;stroke:#000000;stroke-width:0.1;stroke-linecap:butt;stroke-linejoin:miter;stroke-miterlimit:4;stroke-opacity:1;stroke-dasharray:none" />
      <path
         style="fill:none;stroke:#414141;stroke-width:0.1;stroke-linecap:butt;stroke-linejoin:miter;stroke-miterlimit:4;stroke-opacity:1;stroke-dasharray:none;stroke-dashoffset:0"
         d="m 164.15173,990.65935 34.34519,-13.13196"
         id="path3905-5"
         inkscape:connector-curvature="0" />
      <path
         inkscape:connector-curvature="0"
         id="path3911-0"
         d="m 198.49692,919.67028 57.85715,57.85711"
         style="fill:none;stroke:#7f7f7f;stroke-width:0.1;stroke-linecap:butt;stroke-linejoin:miter;stroke-miterlimit:4;stroke-opacity:1;stroke-dasharray:none;stroke-dashoffset:0" />
      <path
         inkscape:connector-curvature="0"
         id="path3913-1"
         d="m 198.49692,977.52739 57.85715,-57.85712"
         style="fill:none;stroke:#7f7f7f;stroke-width:0.1;stroke-linecap:butt;stroke-linejoin:miter;stroke-miterlimit:4;stroke-opacity:1;stroke-dasharray:none;stroke-dashoffset:0" />
      <path
         inkscape:connector-curvature="0"
         id="path3921-3"
         d="m 256.35407,919.67028 0,57.85711"
         style="fill:none;stroke:#000000;stroke-width:0.1;stroke-linecap:butt;stroke-linejoin:miter;stroke-miterlimit:4;stroke-opacity:1;stroke-dasharray:none" />
      <path
         inkscape:connector-curvature="0"
         id="path3925-1"
         d="m 222.00887,932.80226 34.3452,44.72513"
         style="fill:none;stroke:#000000;stroke-width:0.1;stroke-linecap:butt;stroke-linejoin:miter;stroke-miterlimit:4;stroke-opacity:1;stroke-dasharray:none" />
      <path
         inkscape:connector-curvature="0"
         id="path3927-6"
         d="m 222.00887,990.65945 34.3452,-70.98917"
         style="fill:none;stroke:#000000;stroke-width:0.1;stroke-linecap:butt;stroke-linejoin:miter;stroke-miterlimit:4;stroke-opacity:1;stroke-dasharray:none" />
      <path
         inkscape:connector-curvature="0"
         id="path3929-3"
         d="m 164.15173,932.80226 34.34519,44.72513"
         style="fill:none;stroke:#414141;stroke-width:0.1;stroke-linecap:butt;stroke-linejoin:miter;stroke-miterlimit:4;stroke-opacity:1;stroke-dasharray:none;stroke-dashoffset:0" />
      <path
         inkscape:connector-curvature="0"
         id="path3933-2"
         d="m 164.15173,990.65935 34.34519,-70.98907"
         style="fill:none;stroke:#3f3f3f;stroke-width:0.1;stroke-linecap:butt;stroke-linejoin:miter;stroke-miterlimit:4;stroke-opacity:1;stroke-dasharray:none;stroke-dashoffset:0" />
      <path
         inkscape:connector-curvature="0"
         id="path3937-5"
         d="m 164.15173,990.65945 92.20234,-13.13206"
         style="fill:none;stroke:#000000;stroke-width:0.1;stroke-linecap:butt;stroke-linejoin:miter;stroke-miterlimit:4;stroke-opacity:1;stroke-dasharray:none;stroke-dashoffset:0" />
      <path
         inkscape:connector-curvature="0"
         id="path3939-1"
         d="M 222.00887,990.65935 198.49692,977.52739"
         style="fill:none;stroke:#000000;stroke-width:0.1;stroke-linecap:butt;stroke-linejoin:miter;stroke-miterlimit:4;stroke-opacity:1;stroke-dasharray:none;stroke-dashoffset:0;marker-start:none" />
    </g>
    <path
       style="fill:none;stroke:#000000;stroke-width:0.538746;stroke-linecap:butt;stroke-linejoin:miter;stroke-miterlimit:4;stroke-opacity:1;stroke-dasharray:none"
       d="M 77.702169,664.6918 389.40521,352.98871"
       id="path3909-8"
       inkscape:connector-curvature="0" />
    <path
       style="fill:none;stroke:#000000;stroke-width:0.538746;stroke-linecap:butt;stroke-linejoin:miter;stroke-miterlimit:4;stroke-opacity:1;stroke-dasharray:none"
       d="M 77.702169,352.98871 389.40521,664.6918"
       id="path3907-9"
       inkscape:connector-curvature="0" />
    <rect
       style="fill:none;stroke:#000000;stroke-width:0.538746;stroke-linecap:round;stroke-miterlimit:4;stroke-opacity:1;stroke-dasharray:none;stroke-dashoffset:0"
       id="rect3125-7"
       width="311.70306"
       height="311.70306"
       x="77.70224"
       y="352.98877" />
    <rect
       y="282.24051"
       x="262.73557"
       height="311.70306"
       width="311.70306"
       id="rect3895-29"
       style="fill:none;stroke:#818181;stroke-width:0.538746;stroke-linecap:round;stroke-miterlimit:4;stroke-opacity:1;stroke-dasharray:none;stroke-dashoffset:0" />
    <path
       style="fill:none;stroke:#000000;stroke-width:0.538746;stroke-linecap:butt;stroke-linejoin:miter;stroke-miterlimit:4;stroke-opacity:1;stroke-dasharray:none"
       d="M 77.702169,352.98871 262.73545,282.24069"
       id="path3897-5"
       inkscape:connector-curvature="0" />
    <path
       inkscape:connector-curvature="0"
       id="path3905-1"
       d="M 77.702115,664.69164 262.73545,593.94357"
       style="fill:none;stroke:#414141;stroke-width:0.538746;stroke-linecap:butt;stroke-linejoin:miter;stroke-miterlimit:4;stroke-opacity:1;stroke-dasharray:none;stroke-dashoffset:0" />
    <path
       style="fill:none;stroke:#7f7f7f;stroke-width:0.538746;stroke-linecap:butt;stroke-linejoin:miter;stroke-miterlimit:4;stroke-opacity:1;stroke-dasharray:none;stroke-dashoffset:0"
       d="M 262.73545,282.24069 574.43852,593.94357"
       id="path3911-5"
       inkscape:connector-curvature="0" />
    <path
       style="fill:none;stroke:#7f7f7f;stroke-width:0.538746;stroke-linecap:butt;stroke-linejoin:miter;stroke-miterlimit:4;stroke-opacity:1;stroke-dasharray:none;stroke-dashoffset:0"
       d="M 262.73545,593.94357 574.43852,282.24064"
       id="path3913-7"
       inkscape:connector-curvature="0" />
    <path
       style="fill:none;stroke:#000000;stroke-width:0.538746;stroke-linecap:butt;stroke-linejoin:miter;stroke-miterlimit:4;stroke-opacity:1;stroke-dasharray:none"
       d="M 77.702169,352.98871 574.43852,282.24069"
       id="path3915-5"
       inkscape:connector-curvature="0" />
    <path
       style="fill:none;stroke:#000000;stroke-width:0.538746;stroke-linecap:butt;stroke-linejoin:miter;stroke-miterlimit:4;stroke-opacity:1;stroke-dasharray:none"
       d="m 262.73545,282.24069 126.66976,70.74802"
       id="path3917-5"
       inkscape:connector-curvature="0" />
    <path
       style="fill:none;stroke:#000000;stroke-width:0.538746;stroke-linecap:butt;stroke-linejoin:miter;stroke-miterlimit:4;stroke-opacity:1;stroke-dasharray:none"
       d="m 262.73545,282.24069 311.70307,0"
       id="path3919-1"
       inkscape:connector-curvature="0" />
    <path
       style="fill:none;stroke:#414141;stroke-width:0.538746;stroke-linecap:butt;stroke-linejoin:miter;stroke-miterlimit:4;stroke-opacity:1;stroke-dasharray:none;stroke-dashoffset:0"
       d="M 77.702169,352.98871 262.73545,593.94357"
       id="path3929-9"
       inkscape:connector-curvature="0" />
    <path
       style="fill:none;stroke:#3f3f3f;stroke-width:0.538746;stroke-linecap:butt;stroke-linejoin:miter;stroke-miterlimit:4;stroke-opacity:1;stroke-dasharray:none;stroke-dashoffset:0"
       d="M 77.702115,664.69164 262.73545,282.24069"
       id="path3933-3"
       inkscape:connector-curvature="0" />
    <path
       style="fill:none;stroke:#000000;stroke-width:0.538746;stroke-linecap:butt;stroke-linejoin:miter;stroke-miterlimit:4;stroke-opacity:1;stroke-dasharray:none;stroke-dashoffset:0"
       d="M 77.702169,664.6918 574.43852,593.94357"
       id="path3937-8"
       inkscape:connector-curvature="0" />
    <path
       style="fill:none;stroke:#000000;stroke-width:0.538746;stroke-linecap:butt;stroke-linejoin:miter;stroke-miterlimit:4;stroke-opacity:1;stroke-dasharray:none;stroke-dashoffset:0;marker-start:none"
       d="M 389.40521,664.69164 262.73545,593.94357"
       id="path3939-2"
       inkscape:connector-curvature="0" />
    <path
       style="fill:none;stroke:#000000;stroke-width:0.538746;stroke-linecap:butt;stroke-linejoin:miter;stroke-miterlimit:4;stroke-opacity:1;stroke-dasharray:none"
       d="M 77.702169,976.39474 389.40521,664.69142"
       id="path3909-6-0"
       inkscape:connector-curvature="0" />
    <path
       style="fill:none;stroke:#000000;stroke-width:0.538746;stroke-linecap:butt;stroke-linejoin:miter;stroke-miterlimit:4;stroke-opacity:1;stroke-dasharray:none"
       d="M 77.702169,664.69142 389.40521,976.39474"
       id="path3907-0-8"
       inkscape:connector-curvature="0" />
    <rect
       style="fill:none;stroke:#000000;stroke-width:0.538746;stroke-linecap:round;stroke-miterlimit:4;stroke-opacity:1;stroke-dasharray:none;stroke-dashoffset:0"
       id="rect3125-4-4"
       width="311.70306"
       height="311.70306"
       x="77.70224"
       y="664.69165" />
    <rect
       y="593.94336"
       x="262.73557"
       height="311.70306"
       width="311.70306"
       id="rect3895-2-8"
       style="fill:none;stroke:#818181;stroke-width:0.538746;stroke-linecap:round;stroke-miterlimit:4;stroke-opacity:1;stroke-dasharray:none;stroke-dashoffset:0" />
    <path
       inkscape:connector-curvature="0"
       id="path3905-5-3"
       d="M 77.702169,976.3942 262.73551,905.64629"
       style="fill:none;stroke:#414141;stroke-width:0.538746;stroke-linecap:butt;stroke-linejoin:miter;stroke-miterlimit:4;stroke-opacity:1;stroke-dasharray:none;stroke-dashoffset:0" />
    <path
       style="fill:none;stroke:#7f7f7f;stroke-width:0.538746;stroke-linecap:butt;stroke-linejoin:miter;stroke-miterlimit:4;stroke-opacity:1;stroke-dasharray:none;stroke-dashoffset:0"
       d="M 262.73551,593.94341 574.43858,905.64629"
       id="path3911-0-8"
       inkscape:connector-curvature="0" />
    <path
       style="fill:none;stroke:#7f7f7f;stroke-width:0.538746;stroke-linecap:butt;stroke-linejoin:miter;stroke-miterlimit:4;stroke-opacity:1;stroke-dasharray:none;stroke-dashoffset:0"
       d="M 262.73551,905.64629 574.43858,593.94336"
       id="path3913-1-3"
       inkscape:connector-curvature="0" />
    <path
       style="fill:none;stroke:#414141;stroke-width:0.538746;stroke-linecap:butt;stroke-linejoin:miter;stroke-miterlimit:4;stroke-opacity:1;stroke-dasharray:none;stroke-dashoffset:0"
       d="M 77.702169,664.69142 262.73551,905.64629"
       id="path3929-3-7"
       inkscape:connector-curvature="0" />
    <path
       style="fill:none;stroke:#3f3f3f;stroke-width:0.538746;stroke-linecap:butt;stroke-linejoin:miter;stroke-miterlimit:4;stroke-opacity:1;stroke-dasharray:none;stroke-dashoffset:0"
       d="M 77.702169,976.3942 262.73551,593.94341"
       id="path3933-2-3"
       inkscape:connector-curvature="0" />
    <path
       style="fill:none;stroke:#000000;stroke-width:0.538746;stroke-linecap:butt;stroke-linejoin:miter;stroke-miterlimit:4;stroke-opacity:1;stroke-dasharray:none;stroke-dashoffset:0"
       d="M 77.702169,976.39474 574.43858,905.64629"
       id="path3937-5-3"
       inkscape:connector-curvature="0" />
    <path
       style="fill:none;stroke:#000000;stroke-width:0.538746;stroke-linecap:butt;stroke-linejoin:miter;stroke-miterlimit:4;stroke-opacity:1;stroke-dasharray:none;stroke-dashoffset:0;marker-start:none"
       d="M 389.40521,976.3942 262.73551,905.64629"
       id="path3939-1-4"
       inkscape:connector-curvature="0" />
    <path
       sodipodi:type="arc"
       style="fill:#000000;fill-opacity:1;stroke:none"
       id="path4438"
       sodipodi:cx="10.354064"
       sodipodi:cy="42.100018"
       sodipodi:rx="2.2728431"
       sodipodi:ry="2.2728431"
       d="m 12.626907,42.100018 c 0,1.255256 -1.017586,2.272843 -2.272843,2.272843 -1.2552566,0 -2.2728431,-1.017587 -2.2728431,-2.272843 0,-1.255257 1.0175865,-2.272844 2.2728431,-2.272844 1.255257,0 2.272843,1.017587 2.272843,2.272844 z"
       transform="matrix(4.040595,0,0,4.040595,35.865658,182.8796)" />
    <path
       transform="matrix(4.040595,0,0,4.040595,220.89887,112.13158)"
       d="m 12.626907,42.100018 c 0,1.255256 -1.017586,2.272843 -2.272843,2.272843 -1.2552566,0 -2.2728431,-1.017587 -2.2728431,-2.272843 0,-1.255257 1.0175865,-2.272844 2.2728431,-2.272844 1.255257,0 2.272843,1.017587 2.272843,2.272844 z"
       sodipodi:ry="2.2728431"
       sodipodi:rx="2.2728431"
       sodipodi:cy="42.100018"
       sodipodi:cx="10.354064"
       id="path4440"
       style="fill:#000000;fill-opacity:1;stroke:none"
       sodipodi:type="arc" />
    <path
       sodipodi:type="arc"
       style="fill:#000000;fill-opacity:1;stroke:none"
       id="path4453"
       sodipodi:cx="10.354064"
       sodipodi:cy="42.100018"
       sodipodi:rx="2.2728431"
       sodipodi:ry="2.2728431"
       d="m 12.626907,42.100018 c 0,1.255256 -1.017586,2.272843 -2.272843,2.272843 -1.2552566,0 -2.2728431,-1.017587 -2.2728431,-2.272843 0,-1.255257 1.0175865,-2.272844 2.2728431,-2.272844 1.255257,0 2.272843,1.017587 2.272843,2.272844 z"
       transform="matrix(4.040595,0,0,4.040595,284.23374,147.5056)" />
    <path
       transform="matrix(4.040595,0,0,4.040595,532.60194,112.13158)"
       d="m 12.626907,42.100018 c 0,1.255256 -1.017586,2.272843 -2.272843,2.272843 -1.2552566,0 -2.2728431,-1.017587 -2.2728431,-2.272843 0,-1.255257 1.0175865,-2.272844 2.2728431,-2.272844 1.255257,0 2.272843,1.017587 2.272843,2.272844 z"
       sodipodi:ry="2.2728431"
       sodipodi:rx="2.2728431"
       sodipodi:cy="42.100018"
       sodipodi:cx="10.354064"
       id="path4455"
       style="fill:#000000;fill-opacity:1;stroke:none"
       sodipodi:type="arc" />
    <path
       sodipodi:type="arc"
       style="fill:#000000;fill-opacity:1;stroke:none"
       id="path4457"
       sodipodi:cx="10.354064"
       sodipodi:cy="42.100018"
       sodipodi:rx="2.2728431"
       sodipodi:ry="2.2728431"
       d="m 12.626907,42.100018 c 0,1.255256 -1.017586,2.272843 -2.272843,2.272843 -1.2552566,0 -2.2728431,-1.017587 -2.2728431,-2.272843 0,-1.255257 1.0175865,-2.272844 2.2728431,-2.272844 1.255257,0 2.272843,1.017587 2.272843,2.272844 z"
       transform="matrix(4.040595,0,0,4.040595,347.5686,182.87949)" />
    <path
       transform="matrix(4.040595,0,0,4.040595,595.93681,147.50549)"
       d="m 12.626907,42.100018 c 0,1.255256 -1.017586,2.272843 -2.272843,2.272843 -1.2552566,0 -2.2728431,-1.017587 -2.2728431,-2.272843 0,-1.255257 1.0175865,-2.272844 2.2728431,-2.272844 1.255257,0 2.272843,1.017587 2.272843,2.272844 z"
       sodipodi:ry="2.2728431"
       sodipodi:rx="2.2728431"
       sodipodi:cy="42.100018"
       sodipodi:cx="10.354064"
       id="path4459"
       style="fill:#000000;fill-opacity:1;stroke:none"
       sodipodi:type="arc" />
    <path
       sodipodi:type="arc"
       style="fill:#000000;fill-opacity:1;stroke:none"
       id="path4461"
       sodipodi:cx="10.354064"
       sodipodi:cy="42.100018"
       sodipodi:rx="2.2728431"
       sodipodi:ry="2.2728431"
       d="m 12.626907,42.100018 c 0,1.255256 -1.017586,2.272843 -2.272843,2.272843 -1.2552566,0 -2.2728431,-1.017587 -2.2728431,-2.272843 0,-1.255257 1.0175865,-2.272844 2.2728431,-2.272844 1.255257,0 2.272843,1.017587 2.272843,2.272844 z"
       transform="matrix(4.040595,0,0,4.040595,659.27164,182.87949)" />
    <path
       transform="matrix(4.040595,0,0,4.040595,844.30499,112.13147)"
       d="m 12.626907,42.100018 c 0,1.255256 -1.017586,2.272843 -2.272843,2.272843 -1.2552566,0 -2.2728431,-1.017587 -2.2728431,-2.272843 0,-1.255257 1.0175865,-2.272844 2.2728431,-2.272844 1.255257,0 2.272843,1.017587 2.272843,2.272844 z"
       sodipodi:ry="2.2728431"
       sodipodi:rx="2.2728431"
       sodipodi:cy="42.100018"
       sodipodi:cx="10.354064"
       id="path4463"
       style="fill:#000000;fill-opacity:1;stroke:none"
       sodipodi:type="arc" />
    <path
       sodipodi:type="arc"
       style="fill:#000000;fill-opacity:1;stroke:none"
       id="path4465"
       sodipodi:cx="10.354064"
       sodipodi:cy="42.100018"
       sodipodi:rx="2.2728431"
       sodipodi:ry="2.2728431"
       d="m 12.626907,42.100018 c 0,1.255256 -1.017586,2.272843 -2.272843,2.272843 -1.2552566,0 -2.2728431,-1.017587 -2.2728431,-2.272843 0,-1.255257 1.0175865,-2.272844 2.2728431,-2.272844 1.255257,0 2.272843,1.017587 2.272843,2.272844 z"
       transform="matrix(4.040595,0,0,4.040595,751.78834,303.35695)" />
    <path
       transform="matrix(4.040595,0,0,4.040595,688.4535,267.98279)"
       d="m 12.626907,42.100018 c 0,1.255256 -1.017586,2.272843 -2.272843,2.272843 -1.2552566,0 -2.2728431,-1.017587 -2.2728431,-2.272843 0,-1.255257 1.0175865,-2.272844 2.2728431,-2.272844 1.255257,0 2.272843,1.017587 2.272843,2.272844 z"
       sodipodi:ry="2.2728431"
       sodipodi:rx="2.2728431"
       sodipodi:cy="42.100018"
       sodipodi:cx="10.354064"
       id="path4467"
       style="fill:#4c4c4c;fill-opacity:1;stroke:none"
       sodipodi:type="arc" />
    <path
       transform="matrix(4.040595,0,0,4.040595,844.30504,423.83414)"
       d="m 12.626907,42.100018 c 0,1.255256 -1.017586,2.272843 -2.272843,2.272843 -1.2552566,0 -2.2728431,-1.017587 -2.2728431,-2.272843 0,-1.255257 1.0175865,-2.272844 2.2728431,-2.272844 1.255257,0 2.272843,1.017587 2.272843,2.272844 z"
       sodipodi:ry="2.2728431"
       sodipodi:rx="2.2728431"
       sodipodi:cy="42.100018"
       sodipodi:cx="10.354064"
       id="path4471"
       style="fill:#000000;fill-opacity:1;stroke:none"
       sodipodi:type="arc" />
    <path
       sodipodi:type="arc"
       style="fill:#000000;fill-opacity:1;stroke:none"
       id="path4473"
       sodipodi:cx="10.354064"
       sodipodi:cy="42.100018"
       sodipodi:rx="2.2728431"
       sodipodi:ry="2.2728431"
       d="m 12.626907,42.100018 c 0,1.255256 -1.017586,2.272843 -2.272843,2.272843 -1.2552566,0 -2.2728431,-1.017587 -2.2728431,-2.272843 0,-1.255257 1.0175865,-2.272844 2.2728431,-2.272844 1.255257,0 2.272843,1.017587 2.272843,2.272844 z"
       transform="matrix(4.040595,0,0,4.040595,659.27164,494.58221)" />
    <path
       transform="matrix(4.040595,0,0,4.040595,751.78834,615.05967)"
       d="m 12.626907,42.100018 c 0,1.255256 -1.017586,2.272843 -2.272843,2.272843 -1.2552566,0 -2.2728431,-1.017587 -2.2728431,-2.272843 0,-1.255257 1.0175865,-2.272844 2.2728431,-2.272844 1.255257,0 2.272843,1.017587 2.272843,2.272844 z"
       sodipodi:ry="2.2728431"
       sodipodi:rx="2.2728431"
       sodipodi:cy="42.100018"
       sodipodi:cx="10.354064"
       id="path4475"
       style="fill:#000000;fill-opacity:1;stroke:none"
       sodipodi:type="arc" />
    <path
       sodipodi:type="arc"
       style="fill:#000000;fill-opacity:1;stroke:none"
       id="path4477"
       sodipodi:cx="10.354064"
       sodipodi:cy="42.100018"
       sodipodi:rx="2.2728431"
       sodipodi:ry="2.2728431"
       d="m 12.626907,42.100018 c 0,1.255256 -1.017586,2.272843 -2.272843,2.272843 -1.2552566,0 -2.2728431,-1.017587 -2.2728431,-2.272843 0,-1.255257 1.0175865,-2.272844 2.2728431,-2.272844 1.255257,0 2.272843,1.017587 2.272843,2.272844 z"
       transform="matrix(4.040595,0,0,4.040595,659.27164,806.28498)" />
    <path
       transform="matrix(4.040595,0,0,4.040595,844.30504,735.53718)"
       d="m 12.626907,42.100018 c 0,1.255256 -1.017586,2.272843 -2.272843,2.272843 -1.2552566,0 -2.2728431,-1.017587 -2.2728431,-2.272843 0,-1.255257 1.0175865,-2.272844 2.2728431,-2.272844 1.255257,0 2.272843,1.017587 2.272843,2.272844 z"
       sodipodi:ry="2.2728431"
       sodipodi:rx="2.2728431"
       sodipodi:cy="42.100018"
       sodipodi:cx="10.354064"
       id="path4479"
       style="fill:#000000;fill-opacity:1;stroke:none"
       sodipodi:type="arc" />
    <path
       sodipodi:type="arc"
       style="fill:#000000;fill-opacity:1;stroke:none"
       id="path4481"
       sodipodi:cx="10.354064"
       sodipodi:cy="42.100018"
       sodipodi:rx="2.2728431"
       sodipodi:ry="2.2728431"
       d="m 12.626907,42.100018 c 0,1.255256 -1.017586,2.272843 -2.272843,2.272843 -1.2552566,0 -2.2728431,-1.017587 -2.2728431,-2.272843 0,-1.255257 1.0175865,-2.272844 2.2728431,-2.272844 1.255257,0 2.272843,1.017587 2.272843,2.272844 z"
       transform="matrix(4.040595,0,0,4.040595,347.5686,806.28563)" />
    <path
       transform="matrix(4.040595,0,0,4.040595,503.42016,650.43393)"
       d="m 12.626907,42.100018 c 0,1.255256 -1.017586,2.272843 -2.272843,2.272843 -1.2552566,0 -2.2728431,-1.017587 -2.2728431,-2.272843 0,-1.255257 1.0175865,-2.272844 2.2728431,-2.272844 1.255257,0 2.272843,1.017587 2.272843,2.272844 z"
       sodipodi:ry="2.2728431"
       sodipodi:rx="2.2728431"
       sodipodi:cy="42.100018"
       sodipodi:cx="10.354064"
       id="path4483"
       style="fill:#000000;fill-opacity:1;stroke:none"
       sodipodi:type="arc" />
    <path
       sodipodi:type="arc"
       style="fill:#ff0000;fill-opacity:1;stroke:none"
       id="path4485"
       sodipodi:cx="10.354064"
       sodipodi:cy="42.100018"
       sodipodi:rx="2.2728431"
       sodipodi:ry="2.2728431"
       d="m 12.626907,42.100018 c 0,1.255256 -1.017586,2.272843 -2.272843,2.272843 -1.2552566,0 -2.2728431,-1.017587 -2.2728431,-2.272843 0,-1.255257 1.0175865,-2.272844 2.2728431,-2.272844 1.255257,0 2.272843,1.017587 2.272843,2.272844 z"
       transform="matrix(4.040595,0,0,4.040595,347.5686,494.58221)" />
    <path
       transform="matrix(4.040595,0,0,4.040595,191.71709,650.43393)"
       d="m 12.626907,42.100018 c 0,1.255256 -1.017586,2.272843 -2.272843,2.272843 -1.2552566,0 -2.2728431,-1.017587 -2.2728431,-2.272843 0,-1.255257 1.0175865,-2.272844 2.2728431,-2.272844 1.255257,0 2.272843,1.017587 2.272843,2.272844 z"
       sodipodi:ry="2.2728431"
       sodipodi:rx="2.2728431"
       sodipodi:cy="42.100018"
       sodipodi:cx="10.354064"
       id="path4487"
       style="fill:#000000;fill-opacity:1;stroke:none"
       sodipodi:type="arc" />
    <path
       sodipodi:type="arc"
       style="fill:#000000;fill-opacity:1;stroke:none"
       id="path4489"
       sodipodi:cx="10.354064"
       sodipodi:cy="42.100018"
       sodipodi:rx="2.2728431"
       sodipodi:ry="2.2728431"
       d="m 12.626907,42.100018 c 0,1.255256 -1.017586,2.272843 -2.272843,2.272843 -1.2552566,0 -2.2728431,-1.017587 -2.2728431,-2.272843 0,-1.255257 1.0175865,-2.272844 2.2728431,-2.272844 1.255257,0 2.272843,1.017587 2.272843,2.272844 z"
       transform="matrix(4.040595,0,0,4.040595,35.865658,806.28546)" />
    <path
       transform="matrix(4.040595,0,0,4.040595,35.865588,494.58269)"
       d="m 12.626907,42.100018 c 0,1.255256 -1.017586,2.272843 -2.272843,2.272843 -1.2552566,0 -2.2728431,-1.017587 -2.2728431,-2.272843 0,-1.255257 1.0175865,-2.272844 2.2728431,-2.272844 1.255257,0 2.272843,1.017587 2.272843,2.272844 z"
       sodipodi:ry="2.2728431"
       sodipodi:rx="2.2728431"
       sodipodi:cy="42.100018"
       sodipodi:cx="10.354064"
       id="path4491"
       style="fill:#000000;fill-opacity:1;stroke:none"
       sodipodi:type="arc" />
    <path
       sodipodi:type="arc"
       style="fill:#000000;fill-opacity:1;stroke:none"
       id="path4493"
       sodipodi:cx="10.354064"
       sodipodi:cy="42.100018"
       sodipodi:rx="2.2728431"
       sodipodi:ry="2.2728431"
       d="m 12.626907,42.100018 c 0,1.255256 -1.017586,2.272843 -2.272843,2.272843 -1.2552566,0 -2.2728431,-1.017587 -2.2728431,-2.272843 0,-1.255257 1.0175865,-2.272844 2.2728431,-2.272844 1.255257,0 2.272843,1.017587 2.272843,2.272844 z"
       transform="matrix(4.040595,0,0,4.040595,191.71709,338.73113)" />
    <path
       transform="matrix(4.040595,0,0,4.040595,503.42011,338.73108)"
       d="m 12.626907,42.100018 c 0,1.255256 -1.017586,2.272843 -2.272843,2.272843 -1.2552566,0 -2.2728431,-1.017587 -2.2728431,-2.272843 0,-1.255257 1.0175865,-2.272844 2.2728431,-2.272844 1.255257,0 2.272843,1.017587 2.272843,2.272844 z"
       sodipodi:ry="2.2728431"
       sodipodi:rx="2.2728431"
       sodipodi:cy="42.100018"
       sodipodi:cx="10.354064"
       id="path4495"
       style="fill:#ff0000;fill-opacity:1;stroke:none"
       sodipodi:type="arc" />
    <path
       sodipodi:type="arc"
       style="fill:#4c4c4c;fill-opacity:1;stroke:none"
       id="path4497"
       sodipodi:cx="10.354064"
       sodipodi:cy="42.100018"
       sodipodi:rx="2.2728431"
       sodipodi:ry="2.2728431"
       d="m 12.626907,42.100018 c 0,1.255256 -1.017586,2.272843 -2.272843,2.272843 -1.2552566,0 -2.2728431,-1.017587 -2.2728431,-2.272843 0,-1.255257 1.0175865,-2.272844 2.2728431,-2.272844 1.255257,0 2.272843,1.017587 2.272843,2.272844 z"
       transform="matrix(4.040595,0,0,4.040595,376.75044,267.98301)" />
    <path
       transform="matrix(4.040595,0,0,4.040595,532.60194,423.83446)"
       d="m 12.626907,42.100018 c 0,1.255256 -1.017586,2.272843 -2.272843,2.272843 -1.2552566,0 -2.2728431,-1.017587 -2.2728431,-2.272843 0,-1.255257 1.0175865,-2.272844 2.2728431,-2.272844 1.255257,0 2.272843,1.017587 2.272843,2.272844 z"
       sodipodi:ry="2.2728431"
       sodipodi:rx="2.2728431"
       sodipodi:cy="42.100018"
       sodipodi:cx="10.354064"
       id="path4499"
       style="fill:#ff0000;fill-opacity:1;stroke:none"
       sodipodi:type="arc" />
    <path
       sodipodi:type="arc"
       style="fill:#4c4c4c;fill-opacity:1;stroke:none"
       id="path4501"
       sodipodi:cx="10.354064"
       sodipodi:cy="42.100018"
       sodipodi:rx="2.2728431"
       sodipodi:ry="2.2728431"
       d="m 12.626907,42.100018 c 0,1.255256 -1.017586,2.272843 -2.272843,2.272843 -1.2552566,0 -2.2728431,-1.017587 -2.2728431,-2.272843 0,-1.255257 1.0175865,-2.272844 2.2728431,-2.272844 1.255257,0 2.272843,1.017587 2.272843,2.272844 z"
       transform="matrix(4.040595,0,0,4.040595,688.4535,579.68559)" />
    <path
       sodipodi:type="arc"
       style="fill:#ff0000;fill-opacity:1;stroke:none"
       id="path4501-9"
       sodipodi:cx="10.354064"
       sodipodi:cy="42.100018"
       sodipodi:rx="2.2728431"
       sodipodi:ry="2.2728431"
       d="m 12.626907,42.100018 c 0,1.255256 -1.017586,2.272843 -2.272843,2.272843 -1.2552566,0 -2.2728431,-1.017587 -2.2728431,-2.272843 0,-1.255257 1.0175865,-2.272844 2.2728431,-2.272844 1.255257,0 2.272843,1.017587 2.272843,2.272844 z"
       transform="matrix(4.040595,0,0,4.040595,376.75049,579.6857)" />
    <path
       sodipodi:type="arc"
       style="fill:#4c4c4c;fill-opacity:1;stroke:none"
       id="path4501-1"
       sodipodi:cx="10.354064"
       sodipodi:cy="42.100018"
       sodipodi:rx="2.2728431"
       sodipodi:ry="2.2728431"
       d="m 12.626907,42.100018 c 0,1.255256 -1.017586,2.272843 -2.272843,2.272843 -1.2552566,0 -2.2728431,-1.017587 -2.2728431,-2.272843 0,-1.255257 1.0175865,-2.272844 2.2728431,-2.272844 1.255257,0 2.272843,1.017587 2.272843,2.272844 z"
       transform="matrix(4.040595,0,0,4.040595,128.3822,303.35706)" />
    <path
       sodipodi:type="arc"
       style="fill:#4c4c4c;fill-opacity:1;stroke:none"
       id="path4501-91"
       sodipodi:cx="10.354064"
       sodipodi:cy="42.100018"
       sodipodi:rx="2.2728431"
       sodipodi:ry="2.2728431"
       d="m 12.626907,42.100018 c 0,1.255256 -1.017586,2.272843 -2.272843,2.272843 -1.2552566,0 -2.2728431,-1.017587 -2.2728431,-2.272843 0,-1.255257 1.0175865,-2.272844 2.2728431,-2.272844 1.255257,0 2.272843,1.017587 2.272843,2.272844 z"
       transform="matrix(4.040595,0,0,4.040595,128.38226,615.05972)" />
    <path
       sodipodi:type="arc"
       style="fill:#4c4c4c;fill-opacity:1;stroke:none"
       id="path4501-97"
       sodipodi:cx="10.354064"
       sodipodi:cy="42.100018"
       sodipodi:rx="2.2728431"
       sodipodi:ry="2.2728431"
       d="m 12.626907,42.100018 c 0,1.255256 -1.017586,2.272843 -2.272843,2.272843 -1.2552566,0 -2.2728431,-1.017587 -2.2728431,-2.272843 0,-1.255257 1.0175865,-2.272844 2.2728431,-2.272844 1.255257,0 2.272843,1.017587 2.272843,2.272844 z"
       transform="matrix(4.040595,0,0,4.040595,284.23379,770.91112)" />
    <path
       sodipodi:type="arc"
       style="fill:#4c4c4c;fill-opacity:1;stroke:none"
       id="path4501-95"
       sodipodi:cx="10.354064"
       sodipodi:cy="42.100018"
       sodipodi:rx="2.2728431"
       sodipodi:ry="2.2728431"
       d="m 12.626907,42.100018 c 0,1.255256 -1.017586,2.272843 -2.272843,2.272843 -1.2552566,0 -2.2728431,-1.017587 -2.2728431,-2.272843 0,-1.255257 1.0175865,-2.272844 2.2728431,-2.272844 1.255257,0 2.272843,1.017587 2.272843,2.272844 z"
       transform="matrix(4.040595,0,0,4.040595,595.93681,770.91128)" />
    <path
       sodipodi:type="arc"
       style="fill:#ff0000;fill-opacity:1;stroke:none"
       id="path4501-90"
       sodipodi:cx="10.354064"
       sodipodi:cy="42.100018"
       sodipodi:rx="2.2728431"
       sodipodi:ry="2.2728431"
       d="m 12.626907,42.100018 c 0,1.255256 -1.017586,2.272843 -2.272843,2.272843 -1.2552566,0 -2.2728431,-1.017587 -2.2728431,-2.272843 0,-1.255257 1.0175865,-2.272844 2.2728431,-2.272844 1.255257,0 2.272843,1.017587 2.272843,2.272844 z"
       transform="matrix(4.040595,0,0,4.040595,440.0853,615.05961)" />
    <path
       sodipodi:type="arc"
       style="fill:#ff0000;fill-opacity:1;stroke:none"
       id="path4501-8"
       sodipodi:cx="10.354064"
       sodipodi:cy="42.100018"
       sodipodi:rx="2.2728431"
       sodipodi:ry="2.2728431"
       d="m 12.626907,42.100018 c 0,1.255256 -1.017586,2.272843 -2.272843,2.272843 -1.2552566,0 -2.2728431,-1.017587 -2.2728431,-2.272843 0,-1.255257 1.0175865,-2.272844 2.2728431,-2.272844 1.255257,0 2.272843,1.017587 2.272843,2.272844 z"
       transform="matrix(4.040595,0,0,4.040595,595.93681,459.20848)" />
    <path
       sodipodi:type="arc"
       style="fill:#ff0000;fill-opacity:1;stroke:none"
       id="path4501-6"
       sodipodi:cx="10.354064"
       sodipodi:cy="42.100018"
       sodipodi:rx="2.2728431"
       sodipodi:ry="2.2728431"
       d="m 12.626907,42.100018 c 0,1.255256 -1.017586,2.272843 -2.272843,2.272843 -1.2552566,0 -2.2728431,-1.017587 -2.2728431,-2.272843 0,-1.255257 1.0175865,-2.272844 2.2728431,-2.272844 1.255257,0 2.272843,1.017587 2.272843,2.272844 z"
       transform="matrix(4.040595,0,0,4.040595,284.23374,459.20848)" />
    <path
       sodipodi:type="arc"
       style="fill:#ff0000;fill-opacity:1;stroke:none"
       id="path4501-2"
       sodipodi:cx="10.354064"
       sodipodi:cy="42.100018"
       sodipodi:rx="2.2728431"
       sodipodi:ry="2.2728431"
       d="m 12.626907,42.100018 c 0,1.255256 -1.017586,2.272843 -2.272843,2.272843 -1.2552566,0 -2.2728431,-1.017587 -2.2728431,-2.272843 0,-1.255257 1.0175865,-2.272844 2.2728431,-2.272844 1.255257,0 2.272843,1.017587 2.272843,2.272844 z"
       transform="matrix(4.040595,0,0,4.040595,440.08524,303.35695)" />
    <path
       transform="matrix(4.040595,0,0,4.040595,220.89895,423.8343)"
       d="m 12.626907,42.100018 c 0,1.255256 -1.017586,2.272843 -2.272843,2.272843 -1.2552566,0 -2.2728431,-1.017587 -2.2728431,-2.272843 0,-1.255257 1.0175865,-2.272844 2.2728431,-2.272844 1.255257,0 2.272843,1.017587 2.272843,2.272844 z"
       sodipodi:ry="2.2728431"
       sodipodi:rx="2.2728431"
       sodipodi:cy="42.100018"
       sodipodi:cx="10.354064"
       id="path3847"
       style="fill:#4c4c4c;fill-opacity:1;stroke:none"
       sodipodi:type="arc" />
    <path
       transform="matrix(4.040595,0,0,4.040595,220.89893,735.53718)"
       d="m 12.626907,42.100018 c 0,1.255256 -1.017586,2.272843 -2.272843,2.272843 -1.2552566,0 -2.2728431,-1.017587 -2.2728431,-2.272843 0,-1.255257 1.0175865,-2.272844 2.2728431,-2.272844 1.255257,0 2.272843,1.017587 2.272843,2.272844 z"
       sodipodi:ry="2.2728431"
       sodipodi:rx="2.2728431"
       sodipodi:cy="42.100018"
       sodipodi:cx="10.354064"
       id="path3849"
       style="fill:#4c4c4c;fill-opacity:1;stroke:none"
       sodipodi:type="arc" />
    <path
       transform="matrix(4.040595,0,0,4.040595,532.60205,735.53724)"
       d="m 12.626907,42.100018 c 0,1.255256 -1.017586,2.272843 -2.272843,2.272843 -1.2552566,0 -2.2728431,-1.017587 -2.2728431,-2.272843 0,-1.255257 1.0175865,-2.272844 2.2728431,-2.272844 1.255257,0 2.272843,1.017587 2.272843,2.272844 z"
       sodipodi:ry="2.2728431"
       sodipodi:rx="2.2728431"
       sodipodi:cy="42.100018"
       sodipodi:cx="10.354064"
       id="path3851"
       style="fill:#4c4c4c;fill-opacity:1;stroke:none"
       sodipodi:type="arc" />
  </g>
</svg>
