<?xml version="1.0" encoding="UTF-8" standalone="no"?>
<!-- Created with Inkscape (http://www.inkscape.org/) -->

<svg
   xmlns:dc="http://purl.org/dc/elements/1.1/"
   xmlns:cc="http://creativecommons.org/ns#"
   xmlns:rdf="http://www.w3.org/1999/02/22-rdf-syntax-ns#"
   xmlns:svg="http://www.w3.org/2000/svg"
   xmlns="http://www.w3.org/2000/svg"
   xmlns:sodipodi="http://sodipodi.sourceforge.net/DTD/sodipodi-0.dtd"
   xmlns:inkscape="http://www.inkscape.org/namespaces/inkscape"
   width="613.5343"
   height="427.96509"
   id="svg2"
   version="1.1"
   inkscape:version="0.48.3.1 r9886"
   sodipodi:docname="latbid.svg">
  <defs
     id="defs4" />
  <sodipodi:namedview
     id="base"
     pagecolor="#ffffff"
     bordercolor="#666666"
     borderopacity="1.0"
     inkscape:pageopacity="0.0"
     inkscape:pageshadow="2"
     inkscape:zoom="0.98994951"
     inkscape:cx="261.79132"
     inkscape:cy="212.70595"
     inkscape:document-units="px"
     inkscape:current-layer="layer1"
     showgrid="false"
     units="cm"
     inkscape:snap-smooth-nodes="true"
     inkscape:snap-object-midpoints="true"
     inkscape:snap-midpoints="true"
     inkscape:object-nodes="true"
     inkscape:snap-global="true"
     fit-margin-top="0"
     fit-margin-left="0"
     fit-margin-right="0"
     fit-margin-bottom="0"
     inkscape:window-width="1280"
     inkscape:window-height="744"
     inkscape:window-x="0"
     inkscape:window-y="27"
     inkscape:window-maximized="1" />
  <metadata
     id="metadata7">
    <rdf:RDF>
      <cc:Work
         rdf:about="">
        <dc:format>image/svg+xml</dc:format>
        <dc:type
           rdf:resource="http://purl.org/dc/dcmitype/StillImage" />
        <dc:title></dc:title>
      </cc:Work>
    </rdf:RDF>
  </metadata>
  <g
     inkscape:label="Capa 1"
     inkscape:groupmode="layer"
     id="layer1"
     transform="translate(-267.66299,-406.75726)">
    <text
       xml:space="preserve"
       style="font-size:12px;font-style:normal;font-weight:normal;line-height:125%;letter-spacing:0px;word-spacing:0px;fill:#000000;fill-opacity:1;stroke:none;font-family:Sans"
       x="266.6669"
       y="615.59229"
       id="text5502-9"
       sodipodi:linespacing="125%"><tspan
         sodipodi:role="line"
         id="tspan5504-1"
         x="266.6669"
         y="615.59229">$\cdots$</tspan></text>
    <text
       sodipodi:linespacing="125%"
       id="text5539"
       y="415.87445"
       x="566.91748"
       style="font-size:12px;font-style:normal;font-weight:normal;line-height:125%;letter-spacing:0px;word-spacing:0px;fill:#000000;fill-opacity:1;stroke:none;font-family:Sans"
       xml:space="preserve"><tspan
         y="415.87445"
         x="566.91748"
         id="tspan5541"
         sodipodi:role="line">$\vdots$</tspan></text>
    <path
       sodipodi:type="arc"
       style="fill:#000000;fill-opacity:1;stroke:none"
       id="path5614"
       sodipodi:cx="10.354064"
       sodipodi:cy="42.100018"
       sodipodi:rx="2.2728431"
       sodipodi:ry="2.2728431"
       d="m 12.626907,42.100018 c 0,1.255256 -1.017586,2.272843 -2.272843,2.272843 -1.2552566,0 -2.2728431,-1.017587 -2.2728431,-2.272843 0,-1.255257 1.0175865,-2.272844 2.2728431,-2.272844 1.255257,0 2.272843,1.017587 2.272843,2.272844 z"
       transform="matrix(2.7574304,0,0,2.7574304,332.67575,333.32128)" />
    <path
       transform="matrix(2.7574304,0,0,2.7574304,438.74177,333.32128)"
       d="m 12.626907,42.100018 c 0,1.255256 -1.017586,2.272843 -2.272843,2.272843 -1.2552566,0 -2.2728431,-1.017587 -2.2728431,-2.272843 0,-1.255257 1.0175865,-2.272844 2.2728431,-2.272844 1.255257,0 2.272843,1.017587 2.272843,2.272844 z"
       sodipodi:ry="2.2728431"
       sodipodi:rx="2.2728431"
       sodipodi:cy="42.100018"
       sodipodi:cx="10.354064"
       id="path5616"
       style="fill:#000000;fill-opacity:1;stroke:none"
       sodipodi:type="arc" />
    <path
       transform="matrix(2.7574304,0,0,2.7574304,438.74177,333.32128)"
       d="m 12.626907,42.100018 c 0,1.255256 -1.017586,2.272843 -2.272843,2.272843 -1.2552566,0 -2.2728431,-1.017587 -2.2728431,-2.272843 0,-1.255257 1.0175865,-2.272844 2.2728431,-2.272844 1.255257,0 2.272843,1.017587 2.272843,2.272844 z"
       sodipodi:ry="2.2728431"
       sodipodi:rx="2.2728431"
       sodipodi:cy="42.100018"
       sodipodi:cx="10.354064"
       id="path5641"
       style="fill:#000000;fill-opacity:1;stroke:none"
       sodipodi:type="arc" />
    <path
       sodipodi:type="arc"
       style="fill:#000000;fill-opacity:1;stroke:none"
       id="path5643"
       sodipodi:cx="10.354064"
       sodipodi:cy="42.100018"
       sodipodi:rx="2.2728431"
       sodipodi:ry="2.2728431"
       d="m 12.626907,42.100018 c 0,1.255256 -1.017586,2.272843 -2.272843,2.272843 -1.2552566,0 -2.2728431,-1.017587 -2.2728431,-2.272843 0,-1.255257 1.0175865,-2.272844 2.2728431,-2.272844 1.255257,0 2.272843,1.017587 2.272843,2.272844 z"
       transform="matrix(2.7574304,0,0,2.7574304,544.80779,333.32128)" />
    <path
       transform="matrix(2.7574304,0,0,2.7574304,544.80779,333.32128)"
       d="m 12.626907,42.100018 c 0,1.255256 -1.017586,2.272843 -2.272843,2.272843 -1.2552566,0 -2.2728431,-1.017587 -2.2728431,-2.272843 0,-1.255257 1.0175865,-2.272844 2.2728431,-2.272844 1.255257,0 2.272843,1.017587 2.272843,2.272844 z"
       sodipodi:ry="2.2728431"
       sodipodi:rx="2.2728431"
       sodipodi:cy="42.100018"
       sodipodi:cx="10.354064"
       id="path5651"
       style="fill:#000000;fill-opacity:1;stroke:none"
       sodipodi:type="arc" />
    <path
       sodipodi:type="arc"
       style="fill:#000000;fill-opacity:1;stroke:none"
       id="path5653"
       sodipodi:cx="10.354064"
       sodipodi:cy="42.100018"
       sodipodi:rx="2.2728431"
       sodipodi:ry="2.2728431"
       d="m 12.626907,42.100018 c 0,1.255256 -1.017586,2.272843 -2.272843,2.272843 -1.2552566,0 -2.2728431,-1.017587 -2.2728431,-2.272843 0,-1.255257 1.0175865,-2.272844 2.2728431,-2.272844 1.255257,0 2.272843,1.017587 2.272843,2.272844 z"
       transform="matrix(2.7574304,0,0,2.7574304,650.87381,333.32128)" />
    <path
       sodipodi:type="arc"
       style="fill:#000000;fill-opacity:1;stroke:none"
       id="path5661"
       sodipodi:cx="10.354064"
       sodipodi:cy="42.100018"
       sodipodi:rx="2.2728431"
       sodipodi:ry="2.2728431"
       d="m 12.626907,42.100018 c 0,1.255256 -1.017586,2.272843 -2.272843,2.272843 -1.2552566,0 -2.2728431,-1.017587 -2.2728431,-2.272843 0,-1.255257 1.0175865,-2.272844 2.2728431,-2.272844 1.255257,0 2.272843,1.017587 2.272843,2.272844 z"
       transform="matrix(2.7574304,0,0,2.7574304,650.87381,333.32128)" />
    <path
       transform="matrix(2.7574304,0,0,2.7574304,756.93983,333.32128)"
       d="m 12.626907,42.100018 c 0,1.255256 -1.017586,2.272843 -2.272843,2.272843 -1.2552566,0 -2.2728431,-1.017587 -2.2728431,-2.272843 0,-1.255257 1.0175865,-2.272844 2.2728431,-2.272844 1.255257,0 2.272843,1.017587 2.272843,2.272844 z"
       sodipodi:ry="2.2728431"
       sodipodi:rx="2.2728431"
       sodipodi:cy="42.100018"
       sodipodi:cx="10.354064"
       id="path5663"
       style="fill:#000000;fill-opacity:1;stroke:none"
       sodipodi:type="arc" />
    <path
       sodipodi:type="arc"
       style="fill:#000000;fill-opacity:1;stroke:none"
       id="path5665"
       sodipodi:cx="10.354064"
       sodipodi:cy="42.100018"
       sodipodi:rx="2.2728431"
       sodipodi:ry="2.2728431"
       d="m 12.626907,42.100018 c 0,1.255256 -1.017586,2.272843 -2.272843,2.272843 -1.2552566,0 -2.2728431,-1.017587 -2.2728431,-2.272843 0,-1.255257 1.0175865,-2.272844 2.2728431,-2.272844 1.255257,0 2.272843,1.017587 2.272843,2.272844 z"
       transform="matrix(2.7574304,0,0,2.7574304,332.67575,333.32128)" />
    <path
       transform="matrix(2.7574304,0,0,2.7574304,438.74177,333.32128)"
       d="m 12.626907,42.100018 c 0,1.255256 -1.017586,2.272843 -2.272843,2.272843 -1.2552566,0 -2.2728431,-1.017587 -2.2728431,-2.272843 0,-1.255257 1.0175865,-2.272844 2.2728431,-2.272844 1.255257,0 2.272843,1.017587 2.272843,2.272844 z"
       sodipodi:ry="2.2728431"
       sodipodi:rx="2.2728431"
       sodipodi:cy="42.100018"
       sodipodi:cx="10.354064"
       id="path5667"
       style="fill:#000000;fill-opacity:1;stroke:none"
       sodipodi:type="arc" />
    <path
       transform="matrix(2.7574304,0,0,2.7574304,385.70876,387.36444)"
       d="m 12.626907,42.100018 c 0,1.255256 -1.017586,2.272843 -2.272843,2.272843 -1.2552566,0 -2.2728431,-1.017587 -2.2728431,-2.272843 0,-1.255257 1.0175865,-2.272844 2.2728431,-2.272844 1.255257,0 2.272843,1.017587 2.272843,2.272844 z"
       sodipodi:ry="2.2728431"
       sodipodi:rx="2.2728431"
       sodipodi:cy="42.100018"
       sodipodi:cx="10.354064"
       id="path5669"
       style="fill:#000000;fill-opacity:1;stroke:none"
       sodipodi:type="arc" />
    <path
       transform="matrix(2.7574304,0,0,2.7574304,332.67575,441.4076)"
       d="m 12.626907,42.100018 c 0,1.255256 -1.017586,2.272843 -2.272843,2.272843 -1.2552566,0 -2.2728431,-1.017587 -2.2728431,-2.272843 0,-1.255257 1.0175865,-2.272844 2.2728431,-2.272844 1.255257,0 2.272843,1.017587 2.272843,2.272844 z"
       sodipodi:ry="2.2728431"
       sodipodi:rx="2.2728431"
       sodipodi:cy="42.100018"
       sodipodi:cx="10.354064"
       id="path5671"
       style="fill:#000000;fill-opacity:1;stroke:none"
       sodipodi:type="arc" />
    <path
       sodipodi:type="arc"
       style="fill:#000000;fill-opacity:1;stroke:none"
       id="path5673"
       sodipodi:cx="10.354064"
       sodipodi:cy="42.100018"
       sodipodi:rx="2.2728431"
       sodipodi:ry="2.2728431"
       d="m 12.626907,42.100018 c 0,1.255256 -1.017586,2.272843 -2.272843,2.272843 -1.2552566,0 -2.2728431,-1.017587 -2.2728431,-2.272843 0,-1.255257 1.0175865,-2.272844 2.2728431,-2.272844 1.255257,0 2.272843,1.017587 2.272843,2.272844 z"
       transform="matrix(2.7574304,0,0,2.7574304,438.74177,441.4076)" />
    <path
       transform="matrix(2.7574304,0,0,2.7574304,438.74177,333.32128)"
       d="m 12.626907,42.100018 c 0,1.255256 -1.017586,2.272843 -2.272843,2.272843 -1.2552566,0 -2.2728431,-1.017587 -2.2728431,-2.272843 0,-1.255257 1.0175865,-2.272844 2.2728431,-2.272844 1.255257,0 2.272843,1.017587 2.272843,2.272844 z"
       sodipodi:ry="2.2728431"
       sodipodi:rx="2.2728431"
       sodipodi:cy="42.100018"
       sodipodi:cx="10.354064"
       id="path5675"
       style="fill:#000000;fill-opacity:1;stroke:none"
       sodipodi:type="arc" />
    <path
       sodipodi:type="arc"
       style="fill:#000000;fill-opacity:1;stroke:none"
       id="path5677"
       sodipodi:cx="10.354064"
       sodipodi:cy="42.100018"
       sodipodi:rx="2.2728431"
       sodipodi:ry="2.2728431"
       d="m 12.626907,42.100018 c 0,1.255256 -1.017586,2.272843 -2.272843,2.272843 -1.2552566,0 -2.2728431,-1.017587 -2.2728431,-2.272843 0,-1.255257 1.0175865,-2.272844 2.2728431,-2.272844 1.255257,0 2.272843,1.017587 2.272843,2.272844 z"
       transform="matrix(2.7574304,0,0,2.7574304,544.80779,333.32128)" />
    <path
       sodipodi:type="arc"
       style="fill:#000000;fill-opacity:1;stroke:none"
       id="path5679"
       sodipodi:cx="10.354064"
       sodipodi:cy="42.100018"
       sodipodi:rx="2.2728431"
       sodipodi:ry="2.2728431"
       d="m 12.626907,42.100018 c 0,1.255256 -1.017586,2.272843 -2.272843,2.272843 -1.2552566,0 -2.2728431,-1.017587 -2.2728431,-2.272843 0,-1.255257 1.0175865,-2.272844 2.2728431,-2.272844 1.255257,0 2.272843,1.017587 2.272843,2.272844 z"
       transform="matrix(2.7574304,0,0,2.7574304,491.77478,387.36444)" />
    <path
       sodipodi:type="arc"
       style="fill:#000000;fill-opacity:1;stroke:none"
       id="path5681"
       sodipodi:cx="10.354064"
       sodipodi:cy="42.100018"
       sodipodi:rx="2.2728431"
       sodipodi:ry="2.2728431"
       d="m 12.626907,42.100018 c 0,1.255256 -1.017586,2.272843 -2.272843,2.272843 -1.2552566,0 -2.2728431,-1.017587 -2.2728431,-2.272843 0,-1.255257 1.0175865,-2.272844 2.2728431,-2.272844 1.255257,0 2.272843,1.017587 2.272843,2.272844 z"
       transform="matrix(2.7574304,0,0,2.7574304,438.74177,441.4076)" />
    <path
       transform="matrix(2.7574304,0,0,2.7574304,544.80779,441.4076)"
       d="m 12.626907,42.100018 c 0,1.255256 -1.017586,2.272843 -2.272843,2.272843 -1.2552566,0 -2.2728431,-1.017587 -2.2728431,-2.272843 0,-1.255257 1.0175865,-2.272844 2.2728431,-2.272844 1.255257,0 2.272843,1.017587 2.272843,2.272844 z"
       sodipodi:ry="2.2728431"
       sodipodi:rx="2.2728431"
       sodipodi:cy="42.100018"
       sodipodi:cx="10.354064"
       id="path5683"
       style="fill:#000000;fill-opacity:1;stroke:none"
       sodipodi:type="arc" />
    <path
       transform="matrix(2.7574304,0,0,2.7574304,544.80779,333.32128)"
       d="m 12.626907,42.100018 c 0,1.255256 -1.017586,2.272843 -2.272843,2.272843 -1.2552566,0 -2.2728431,-1.017587 -2.2728431,-2.272843 0,-1.255257 1.0175865,-2.272844 2.2728431,-2.272844 1.255257,0 2.272843,1.017587 2.272843,2.272844 z"
       sodipodi:ry="2.2728431"
       sodipodi:rx="2.2728431"
       sodipodi:cy="42.100018"
       sodipodi:cx="10.354064"
       id="path5685"
       style="fill:#000000;fill-opacity:1;stroke:none"
       sodipodi:type="arc" />
    <path
       sodipodi:type="arc"
       style="fill:#000000;fill-opacity:1;stroke:none"
       id="path5687"
       sodipodi:cx="10.354064"
       sodipodi:cy="42.100018"
       sodipodi:rx="2.2728431"
       sodipodi:ry="2.2728431"
       d="m 12.626907,42.100018 c 0,1.255256 -1.017586,2.272843 -2.272843,2.272843 -1.2552566,0 -2.2728431,-1.017587 -2.2728431,-2.272843 0,-1.255257 1.0175865,-2.272844 2.2728431,-2.272844 1.255257,0 2.272843,1.017587 2.272843,2.272844 z"
       transform="matrix(2.7574304,0,0,2.7574304,650.87381,333.32128)" />
    <path
       sodipodi:type="arc"
       style="fill:#000000;fill-opacity:1;stroke:none"
       id="path5689"
       sodipodi:cx="10.354064"
       sodipodi:cy="42.100018"
       sodipodi:rx="2.2728431"
       sodipodi:ry="2.2728431"
       d="m 12.626907,42.100018 c 0,1.255256 -1.017586,2.272843 -2.272843,2.272843 -1.2552566,0 -2.2728431,-1.017587 -2.2728431,-2.272843 0,-1.255257 1.0175865,-2.272844 2.2728431,-2.272844 1.255257,0 2.272843,1.017587 2.272843,2.272844 z"
       transform="matrix(2.7574304,0,0,2.7574304,597.8408,387.36444)" />
    <path
       sodipodi:type="arc"
       style="fill:#000000;fill-opacity:1;stroke:none"
       id="path5691"
       sodipodi:cx="10.354064"
       sodipodi:cy="42.100018"
       sodipodi:rx="2.2728431"
       sodipodi:ry="2.2728431"
       d="m 12.626907,42.100018 c 0,1.255256 -1.017586,2.272843 -2.272843,2.272843 -1.2552566,0 -2.2728431,-1.017587 -2.2728431,-2.272843 0,-1.255257 1.0175865,-2.272844 2.2728431,-2.272844 1.255257,0 2.272843,1.017587 2.272843,2.272844 z"
       transform="matrix(2.7574304,0,0,2.7574304,544.80779,441.4076)" />
    <path
       transform="matrix(2.7574304,0,0,2.7574304,650.87381,441.4076)"
       d="m 12.626907,42.100018 c 0,1.255256 -1.017586,2.272843 -2.272843,2.272843 -1.2552566,0 -2.2728431,-1.017587 -2.2728431,-2.272843 0,-1.255257 1.0175865,-2.272844 2.2728431,-2.272844 1.255257,0 2.272843,1.017587 2.272843,2.272844 z"
       sodipodi:ry="2.2728431"
       sodipodi:rx="2.2728431"
       sodipodi:cy="42.100018"
       sodipodi:cx="10.354064"
       id="path5693"
       style="fill:#000000;fill-opacity:1;stroke:none"
       sodipodi:type="arc" />
    <path
       sodipodi:type="arc"
       style="fill:#000000;fill-opacity:1;stroke:none"
       id="path5695"
       sodipodi:cx="10.354064"
       sodipodi:cy="42.100018"
       sodipodi:rx="2.2728431"
       sodipodi:ry="2.2728431"
       d="m 12.626907,42.100018 c 0,1.255256 -1.017586,2.272843 -2.272843,2.272843 -1.2552566,0 -2.2728431,-1.017587 -2.2728431,-2.272843 0,-1.255257 1.0175865,-2.272844 2.2728431,-2.272844 1.255257,0 2.272843,1.017587 2.272843,2.272844 z"
       transform="matrix(2.7574304,0,0,2.7574304,650.87381,333.32128)" />
    <path
       transform="matrix(2.7574304,0,0,2.7574304,756.93983,333.32128)"
       d="m 12.626907,42.100018 c 0,1.255256 -1.017586,2.272843 -2.272843,2.272843 -1.2552566,0 -2.2728431,-1.017587 -2.2728431,-2.272843 0,-1.255257 1.0175865,-2.272844 2.2728431,-2.272844 1.255257,0 2.272843,1.017587 2.272843,2.272844 z"
       sodipodi:ry="2.2728431"
       sodipodi:rx="2.2728431"
       sodipodi:cy="42.100018"
       sodipodi:cx="10.354064"
       id="path5697"
       style="fill:#000000;fill-opacity:1;stroke:none"
       sodipodi:type="arc" />
    <path
       transform="matrix(2.7574304,0,0,2.7574304,703.90682,387.36444)"
       d="m 12.626907,42.100018 c 0,1.255256 -1.017586,2.272843 -2.272843,2.272843 -1.2552566,0 -2.2728431,-1.017587 -2.2728431,-2.272843 0,-1.255257 1.0175865,-2.272844 2.2728431,-2.272844 1.255257,0 2.272843,1.017587 2.272843,2.272844 z"
       sodipodi:ry="2.2728431"
       sodipodi:rx="2.2728431"
       sodipodi:cy="42.100018"
       sodipodi:cx="10.354064"
       id="path5699"
       style="fill:#000000;fill-opacity:1;stroke:none"
       sodipodi:type="arc" />
    <path
       transform="matrix(2.7574304,0,0,2.7574304,650.87381,441.4076)"
       d="m 12.626907,42.100018 c 0,1.255256 -1.017586,2.272843 -2.272843,2.272843 -1.2552566,0 -2.2728431,-1.017587 -2.2728431,-2.272843 0,-1.255257 1.0175865,-2.272844 2.2728431,-2.272844 1.255257,0 2.272843,1.017587 2.272843,2.272844 z"
       sodipodi:ry="2.2728431"
       sodipodi:rx="2.2728431"
       sodipodi:cy="42.100018"
       sodipodi:cx="10.354064"
       id="path5701"
       style="fill:#000000;fill-opacity:1;stroke:none"
       sodipodi:type="arc" />
    <path
       sodipodi:type="arc"
       style="fill:#000000;fill-opacity:1;stroke:none"
       id="path5703"
       sodipodi:cx="10.354064"
       sodipodi:cy="42.100018"
       sodipodi:rx="2.2728431"
       sodipodi:ry="2.2728431"
       d="m 12.626907,42.100018 c 0,1.255256 -1.017586,2.272843 -2.272843,2.272843 -1.2552566,0 -2.2728431,-1.017587 -2.2728431,-2.272843 0,-1.255257 1.0175865,-2.272844 2.2728431,-2.272844 1.255257,0 2.272843,1.017587 2.272843,2.272844 z"
       transform="matrix(2.7574304,0,0,2.7574304,756.93983,441.4076)" />
    <path
       sodipodi:type="arc"
       style="fill:#000000;fill-opacity:1;stroke:none"
       id="path5755"
       sodipodi:cx="10.354064"
       sodipodi:cy="42.100018"
       sodipodi:rx="2.2728431"
       sodipodi:ry="2.2728431"
       d="m 12.626907,42.100018 c 0,1.255256 -1.017586,2.272843 -2.272843,2.272843 -1.2552566,0 -2.2728431,-1.017587 -2.2728431,-2.272843 0,-1.255257 1.0175865,-2.272844 2.2728431,-2.272844 1.255257,0 2.272843,1.017587 2.272843,2.272844 z"
       transform="matrix(2.7574304,0,0,2.7574304,332.67575,441.4076)" />
    <path
       transform="matrix(2.7574304,0,0,2.7574304,438.74177,441.4076)"
       d="m 12.626907,42.100018 c 0,1.255256 -1.017586,2.272843 -2.272843,2.272843 -1.2552566,0 -2.2728431,-1.017587 -2.2728431,-2.272843 0,-1.255257 1.0175865,-2.272844 2.2728431,-2.272844 1.255257,0 2.272843,1.017587 2.272843,2.272844 z"
       sodipodi:ry="2.2728431"
       sodipodi:rx="2.2728431"
       sodipodi:cy="42.100018"
       sodipodi:cx="10.354064"
       id="path5757"
       style="fill:#000000;fill-opacity:1;stroke:none"
       sodipodi:type="arc" />
    <path
       transform="matrix(2.7574304,0,0,2.7574304,385.70876,495.45076)"
       d="m 12.626907,42.100018 c 0,1.255256 -1.017586,2.272843 -2.272843,2.272843 -1.2552566,0 -2.2728431,-1.017587 -2.2728431,-2.272843 0,-1.255257 1.0175865,-2.272844 2.2728431,-2.272844 1.255257,0 2.272843,1.017587 2.272843,2.272844 z"
       sodipodi:ry="2.2728431"
       sodipodi:rx="2.2728431"
       sodipodi:cy="42.100018"
       sodipodi:cx="10.354064"
       id="path5759"
       style="fill:#000000;fill-opacity:1;stroke:none"
       sodipodi:type="arc" />
    <path
       transform="matrix(2.7574304,0,0,2.7574304,332.67575,549.49392)"
       d="m 12.626907,42.100018 c 0,1.255256 -1.017586,2.272843 -2.272843,2.272843 -1.2552566,0 -2.2728431,-1.017587 -2.2728431,-2.272843 0,-1.255257 1.0175865,-2.272844 2.2728431,-2.272844 1.255257,0 2.272843,1.017587 2.272843,2.272844 z"
       sodipodi:ry="2.2728431"
       sodipodi:rx="2.2728431"
       sodipodi:cy="42.100018"
       sodipodi:cx="10.354064"
       id="path5761"
       style="fill:#000000;fill-opacity:1;stroke:none"
       sodipodi:type="arc" />
    <path
       sodipodi:type="arc"
       style="fill:#000000;fill-opacity:1;stroke:none"
       id="path5763"
       sodipodi:cx="10.354064"
       sodipodi:cy="42.100018"
       sodipodi:rx="2.2728431"
       sodipodi:ry="2.2728431"
       d="m 12.626907,42.100018 c 0,1.255256 -1.017586,2.272843 -2.272843,2.272843 -1.2552566,0 -2.2728431,-1.017587 -2.2728431,-2.272843 0,-1.255257 1.0175865,-2.272844 2.2728431,-2.272844 1.255257,0 2.272843,1.017587 2.272843,2.272844 z"
       transform="matrix(2.7574304,0,0,2.7574304,438.74177,549.49392)" />
    <path
       transform="matrix(2.7574304,0,0,2.7574304,438.74177,441.4076)"
       d="m 12.626907,42.100018 c 0,1.255256 -1.017586,2.272843 -2.272843,2.272843 -1.2552566,0 -2.2728431,-1.017587 -2.2728431,-2.272843 0,-1.255257 1.0175865,-2.272844 2.2728431,-2.272844 1.255257,0 2.272843,1.017587 2.272843,2.272844 z"
       sodipodi:ry="2.2728431"
       sodipodi:rx="2.2728431"
       sodipodi:cy="42.100018"
       sodipodi:cx="10.354064"
       id="path5765"
       style="fill:#000000;fill-opacity:1;stroke:none"
       sodipodi:type="arc" />
    <path
       sodipodi:type="arc"
       style="fill:#000000;fill-opacity:1;stroke:none"
       id="path5767"
       sodipodi:cx="10.354064"
       sodipodi:cy="42.100018"
       sodipodi:rx="2.2728431"
       sodipodi:ry="2.2728431"
       d="m 12.626907,42.100018 c 0,1.255256 -1.017586,2.272843 -2.272843,2.272843 -1.2552566,0 -2.2728431,-1.017587 -2.2728431,-2.272843 0,-1.255257 1.0175865,-2.272844 2.2728431,-2.272844 1.255257,0 2.272843,1.017587 2.272843,2.272844 z"
       transform="matrix(2.7574304,0,0,2.7574304,544.80779,441.4076)" />
    <path
       sodipodi:type="arc"
       style="fill:#000000;fill-opacity:1;stroke:none"
       id="path5769"
       sodipodi:cx="10.354064"
       sodipodi:cy="42.100018"
       sodipodi:rx="2.2728431"
       sodipodi:ry="2.2728431"
       d="m 12.626907,42.100018 c 0,1.255256 -1.017586,2.272843 -2.272843,2.272843 -1.2552566,0 -2.2728431,-1.017587 -2.2728431,-2.272843 0,-1.255257 1.0175865,-2.272844 2.2728431,-2.272844 1.255257,0 2.272843,1.017587 2.272843,2.272844 z"
       transform="matrix(2.7574304,0,0,2.7574304,491.77478,495.45076)" />
    <path
       sodipodi:type="arc"
       style="fill:#000000;fill-opacity:1;stroke:none"
       id="path5771"
       sodipodi:cx="10.354064"
       sodipodi:cy="42.100018"
       sodipodi:rx="2.2728431"
       sodipodi:ry="2.2728431"
       d="m 12.626907,42.100018 c 0,1.255256 -1.017586,2.272843 -2.272843,2.272843 -1.2552566,0 -2.2728431,-1.017587 -2.2728431,-2.272843 0,-1.255257 1.0175865,-2.272844 2.2728431,-2.272844 1.255257,0 2.272843,1.017587 2.272843,2.272844 z"
       transform="matrix(2.7574304,0,0,2.7574304,438.74177,549.49392)" />
    <path
       transform="matrix(2.7574304,0,0,2.7574304,544.80779,549.49392)"
       d="m 12.626907,42.100018 c 0,1.255256 -1.017586,2.272843 -2.272843,2.272843 -1.2552566,0 -2.2728431,-1.017587 -2.2728431,-2.272843 0,-1.255257 1.0175865,-2.272844 2.2728431,-2.272844 1.255257,0 2.272843,1.017587 2.272843,2.272844 z"
       sodipodi:ry="2.2728431"
       sodipodi:rx="2.2728431"
       sodipodi:cy="42.100018"
       sodipodi:cx="10.354064"
       id="path5773"
       style="fill:#000000;fill-opacity:1;stroke:none"
       sodipodi:type="arc" />
    <path
       transform="matrix(2.7574304,0,0,2.7574304,544.80779,441.4076)"
       d="m 12.626907,42.100018 c 0,1.255256 -1.017586,2.272843 -2.272843,2.272843 -1.2552566,0 -2.2728431,-1.017587 -2.2728431,-2.272843 0,-1.255257 1.0175865,-2.272844 2.2728431,-2.272844 1.255257,0 2.272843,1.017587 2.272843,2.272844 z"
       sodipodi:ry="2.2728431"
       sodipodi:rx="2.2728431"
       sodipodi:cy="42.100018"
       sodipodi:cx="10.354064"
       id="path5775"
       style="fill:#000000;fill-opacity:1;stroke:none"
       sodipodi:type="arc" />
    <path
       sodipodi:type="arc"
       style="fill:#000000;fill-opacity:1;stroke:none"
       id="path5777"
       sodipodi:cx="10.354064"
       sodipodi:cy="42.100018"
       sodipodi:rx="2.2728431"
       sodipodi:ry="2.2728431"
       d="m 12.626907,42.100018 c 0,1.255256 -1.017586,2.272843 -2.272843,2.272843 -1.2552566,0 -2.2728431,-1.017587 -2.2728431,-2.272843 0,-1.255257 1.0175865,-2.272844 2.2728431,-2.272844 1.255257,0 2.272843,1.017587 2.272843,2.272844 z"
       transform="matrix(2.7574304,0,0,2.7574304,650.87381,441.4076)" />
    <path
       sodipodi:type="arc"
       style="fill:#000000;fill-opacity:1;stroke:none"
       id="path5779"
       sodipodi:cx="10.354064"
       sodipodi:cy="42.100018"
       sodipodi:rx="2.2728431"
       sodipodi:ry="2.2728431"
       d="m 12.626907,42.100018 c 0,1.255256 -1.017586,2.272843 -2.272843,2.272843 -1.2552566,0 -2.2728431,-1.017587 -2.2728431,-2.272843 0,-1.255257 1.0175865,-2.272844 2.2728431,-2.272844 1.255257,0 2.272843,1.017587 2.272843,2.272844 z"
       transform="matrix(2.7574304,0,0,2.7574304,597.8408,495.45076)" />
    <path
       sodipodi:type="arc"
       style="fill:#000000;fill-opacity:1;stroke:none"
       id="path5781"
       sodipodi:cx="10.354064"
       sodipodi:cy="42.100018"
       sodipodi:rx="2.2728431"
       sodipodi:ry="2.2728431"
       d="m 12.626907,42.100018 c 0,1.255256 -1.017586,2.272843 -2.272843,2.272843 -1.2552566,0 -2.2728431,-1.017587 -2.2728431,-2.272843 0,-1.255257 1.0175865,-2.272844 2.2728431,-2.272844 1.255257,0 2.272843,1.017587 2.272843,2.272844 z"
       transform="matrix(2.7574304,0,0,2.7574304,544.80779,549.49392)" />
    <path
       transform="matrix(2.7574304,0,0,2.7574304,650.87381,549.49392)"
       d="m 12.626907,42.100018 c 0,1.255256 -1.017586,2.272843 -2.272843,2.272843 -1.2552566,0 -2.2728431,-1.017587 -2.2728431,-2.272843 0,-1.255257 1.0175865,-2.272844 2.2728431,-2.272844 1.255257,0 2.272843,1.017587 2.272843,2.272844 z"
       sodipodi:ry="2.2728431"
       sodipodi:rx="2.2728431"
       sodipodi:cy="42.100018"
       sodipodi:cx="10.354064"
       id="path5783"
       style="fill:#000000;fill-opacity:1;stroke:none"
       sodipodi:type="arc" />
    <path
       sodipodi:type="arc"
       style="fill:#000000;fill-opacity:1;stroke:none"
       id="path5785"
       sodipodi:cx="10.354064"
       sodipodi:cy="42.100018"
       sodipodi:rx="2.2728431"
       sodipodi:ry="2.2728431"
       d="m 12.626907,42.100018 c 0,1.255256 -1.017586,2.272843 -2.272843,2.272843 -1.2552566,0 -2.2728431,-1.017587 -2.2728431,-2.272843 0,-1.255257 1.0175865,-2.272844 2.2728431,-2.272844 1.255257,0 2.272843,1.017587 2.272843,2.272844 z"
       transform="matrix(2.7574304,0,0,2.7574304,650.87381,441.4076)" />
    <path
       transform="matrix(2.7574304,0,0,2.7574304,756.93983,441.4076)"
       d="m 12.626907,42.100018 c 0,1.255256 -1.017586,2.272843 -2.272843,2.272843 -1.2552566,0 -2.2728431,-1.017587 -2.2728431,-2.272843 0,-1.255257 1.0175865,-2.272844 2.2728431,-2.272844 1.255257,0 2.272843,1.017587 2.272843,2.272844 z"
       sodipodi:ry="2.2728431"
       sodipodi:rx="2.2728431"
       sodipodi:cy="42.100018"
       sodipodi:cx="10.354064"
       id="path5787"
       style="fill:#000000;fill-opacity:1;stroke:none"
       sodipodi:type="arc" />
    <path
       transform="matrix(2.7574304,0,0,2.7574304,703.90682,495.45076)"
       d="m 12.626907,42.100018 c 0,1.255256 -1.017586,2.272843 -2.272843,2.272843 -1.2552566,0 -2.2728431,-1.017587 -2.2728431,-2.272843 0,-1.255257 1.0175865,-2.272844 2.2728431,-2.272844 1.255257,0 2.272843,1.017587 2.272843,2.272844 z"
       sodipodi:ry="2.2728431"
       sodipodi:rx="2.2728431"
       sodipodi:cy="42.100018"
       sodipodi:cx="10.354064"
       id="path5789"
       style="fill:#000000;fill-opacity:1;stroke:none"
       sodipodi:type="arc" />
    <path
       transform="matrix(2.7574304,0,0,2.7574304,650.87381,549.49392)"
       d="m 12.626907,42.100018 c 0,1.255256 -1.017586,2.272843 -2.272843,2.272843 -1.2552566,0 -2.2728431,-1.017587 -2.2728431,-2.272843 0,-1.255257 1.0175865,-2.272844 2.2728431,-2.272844 1.255257,0 2.272843,1.017587 2.272843,2.272844 z"
       sodipodi:ry="2.2728431"
       sodipodi:rx="2.2728431"
       sodipodi:cy="42.100018"
       sodipodi:cx="10.354064"
       id="path5791"
       style="fill:#000000;fill-opacity:1;stroke:none"
       sodipodi:type="arc" />
    <path
       sodipodi:type="arc"
       style="fill:#000000;fill-opacity:1;stroke:none"
       id="path5793"
       sodipodi:cx="10.354064"
       sodipodi:cy="42.100018"
       sodipodi:rx="2.2728431"
       sodipodi:ry="2.2728431"
       d="m 12.626907,42.100018 c 0,1.255256 -1.017586,2.272843 -2.272843,2.272843 -1.2552566,0 -2.2728431,-1.017587 -2.2728431,-2.272843 0,-1.255257 1.0175865,-2.272844 2.2728431,-2.272844 1.255257,0 2.272843,1.017587 2.272843,2.272844 z"
       transform="matrix(2.7574304,0,0,2.7574304,756.93983,549.49392)" />
    <path
       transform="matrix(2.7574304,0,0,2.7574304,332.67575,549.49392)"
       d="m 12.626907,42.100018 c 0,1.255256 -1.017586,2.272843 -2.272843,2.272843 -1.2552566,0 -2.2728431,-1.017587 -2.2728431,-2.272843 0,-1.255257 1.0175865,-2.272844 2.2728431,-2.272844 1.255257,0 2.272843,1.017587 2.272843,2.272844 z"
       sodipodi:ry="2.2728431"
       sodipodi:rx="2.2728431"
       sodipodi:cy="42.100018"
       sodipodi:cx="10.354064"
       id="path5795"
       style="fill:#000000;fill-opacity:1;stroke:none"
       sodipodi:type="arc" />
    <path
       sodipodi:type="arc"
       style="fill:#000000;fill-opacity:1;stroke:none"
       id="path5797"
       sodipodi:cx="10.354064"
       sodipodi:cy="42.100018"
       sodipodi:rx="2.2728431"
       sodipodi:ry="2.2728431"
       d="m 12.626907,42.100018 c 0,1.255256 -1.017586,2.272843 -2.272843,2.272843 -1.2552566,0 -2.2728431,-1.017587 -2.2728431,-2.272843 0,-1.255257 1.0175865,-2.272844 2.2728431,-2.272844 1.255257,0 2.272843,1.017587 2.272843,2.272844 z"
       transform="matrix(2.7574304,0,0,2.7574304,438.74177,549.49392)" />
    <path
       sodipodi:type="arc"
       style="fill:#000000;fill-opacity:1;stroke:none"
       id="path5799"
       sodipodi:cx="10.354064"
       sodipodi:cy="42.100018"
       sodipodi:rx="2.2728431"
       sodipodi:ry="2.2728431"
       d="m 12.626907,42.100018 c 0,1.255256 -1.017586,2.272843 -2.272843,2.272843 -1.2552566,0 -2.2728431,-1.017587 -2.2728431,-2.272843 0,-1.255257 1.0175865,-2.272844 2.2728431,-2.272844 1.255257,0 2.272843,1.017587 2.272843,2.272844 z"
       transform="matrix(2.7574304,0,0,2.7574304,385.70876,603.53708)" />
    <path
       sodipodi:type="arc"
       style="fill:#000000;fill-opacity:1;stroke:none"
       id="path5801"
       sodipodi:cx="10.354064"
       sodipodi:cy="42.100018"
       sodipodi:rx="2.2728431"
       sodipodi:ry="2.2728431"
       d="m 12.626907,42.100018 c 0,1.255256 -1.017586,2.272843 -2.272843,2.272843 -1.2552566,0 -2.2728431,-1.017587 -2.2728431,-2.272843 0,-1.255257 1.0175865,-2.272844 2.2728431,-2.272844 1.255257,0 2.272843,1.017587 2.272843,2.272844 z"
       transform="matrix(2.7574304,0,0,2.7574304,332.67575,657.58024)" />
    <path
       transform="matrix(2.7574304,0,0,2.7574304,438.74177,657.58024)"
       d="m 12.626907,42.100018 c 0,1.255256 -1.017586,2.272843 -2.272843,2.272843 -1.2552566,0 -2.2728431,-1.017587 -2.2728431,-2.272843 0,-1.255257 1.0175865,-2.272844 2.2728431,-2.272844 1.255257,0 2.272843,1.017587 2.272843,2.272844 z"
       sodipodi:ry="2.2728431"
       sodipodi:rx="2.2728431"
       sodipodi:cy="42.100018"
       sodipodi:cx="10.354064"
       id="path5803"
       style="fill:#000000;fill-opacity:1;stroke:none"
       sodipodi:type="arc" />
    <path
       sodipodi:type="arc"
       style="fill:#000000;fill-opacity:1;stroke:none"
       id="path5805"
       sodipodi:cx="10.354064"
       sodipodi:cy="42.100018"
       sodipodi:rx="2.2728431"
       sodipodi:ry="2.2728431"
       d="m 12.626907,42.100018 c 0,1.255256 -1.017586,2.272843 -2.272843,2.272843 -1.2552566,0 -2.2728431,-1.017587 -2.2728431,-2.272843 0,-1.255257 1.0175865,-2.272844 2.2728431,-2.272844 1.255257,0 2.272843,1.017587 2.272843,2.272844 z"
       transform="matrix(2.7574304,0,0,2.7574304,438.74177,549.49392)" />
    <path
       transform="matrix(2.7574304,0,0,2.7574304,544.80779,549.49392)"
       d="m 12.626907,42.100018 c 0,1.255256 -1.017586,2.272843 -2.272843,2.272843 -1.2552566,0 -2.2728431,-1.017587 -2.2728431,-2.272843 0,-1.255257 1.0175865,-2.272844 2.2728431,-2.272844 1.255257,0 2.272843,1.017587 2.272843,2.272844 z"
       sodipodi:ry="2.2728431"
       sodipodi:rx="2.2728431"
       sodipodi:cy="42.100018"
       sodipodi:cx="10.354064"
       id="path5807"
       style="fill:#000000;fill-opacity:1;stroke:none"
       sodipodi:type="arc" />
    <path
       transform="matrix(2.7574304,0,0,2.7574304,491.77478,603.53708)"
       d="m 12.626907,42.100018 c 0,1.255256 -1.017586,2.272843 -2.272843,2.272843 -1.2552566,0 -2.2728431,-1.017587 -2.2728431,-2.272843 0,-1.255257 1.0175865,-2.272844 2.2728431,-2.272844 1.255257,0 2.272843,1.017587 2.272843,2.272844 z"
       sodipodi:ry="2.2728431"
       sodipodi:rx="2.2728431"
       sodipodi:cy="42.100018"
       sodipodi:cx="10.354064"
       id="path5809"
       style="fill:#000000;fill-opacity:1;stroke:none"
       sodipodi:type="arc" />
    <path
       transform="matrix(2.7574304,0,0,2.7574304,438.74177,657.58024)"
       d="m 12.626907,42.100018 c 0,1.255256 -1.017586,2.272843 -2.272843,2.272843 -1.2552566,0 -2.2728431,-1.017587 -2.2728431,-2.272843 0,-1.255257 1.0175865,-2.272844 2.2728431,-2.272844 1.255257,0 2.272843,1.017587 2.272843,2.272844 z"
       sodipodi:ry="2.2728431"
       sodipodi:rx="2.2728431"
       sodipodi:cy="42.100018"
       sodipodi:cx="10.354064"
       id="path5811"
       style="fill:#000000;fill-opacity:1;stroke:none"
       sodipodi:type="arc" />
    <path
       sodipodi:type="arc"
       style="fill:#000000;fill-opacity:1;stroke:none"
       id="path5813"
       sodipodi:cx="10.354064"
       sodipodi:cy="42.100018"
       sodipodi:rx="2.2728431"
       sodipodi:ry="2.2728431"
       d="m 12.626907,42.100018 c 0,1.255256 -1.017586,2.272843 -2.272843,2.272843 -1.2552566,0 -2.2728431,-1.017587 -2.2728431,-2.272843 0,-1.255257 1.0175865,-2.272844 2.2728431,-2.272844 1.255257,0 2.272843,1.017587 2.272843,2.272844 z"
       transform="matrix(2.7574304,0,0,2.7574304,544.80779,657.58024)" />
    <path
       sodipodi:type="arc"
       style="fill:#000000;fill-opacity:1;stroke:none"
       id="path5815"
       sodipodi:cx="10.354064"
       sodipodi:cy="42.100018"
       sodipodi:rx="2.2728431"
       sodipodi:ry="2.2728431"
       d="m 12.626907,42.100018 c 0,1.255256 -1.017586,2.272843 -2.272843,2.272843 -1.2552566,0 -2.2728431,-1.017587 -2.2728431,-2.272843 0,-1.255257 1.0175865,-2.272844 2.2728431,-2.272844 1.255257,0 2.272843,1.017587 2.272843,2.272844 z"
       transform="matrix(2.7574304,0,0,2.7574304,544.80779,549.49392)" />
    <path
       transform="matrix(2.7574304,0,0,2.7574304,650.87381,549.49392)"
       d="m 12.626907,42.100018 c 0,1.255256 -1.017586,2.272843 -2.272843,2.272843 -1.2552566,0 -2.2728431,-1.017587 -2.2728431,-2.272843 0,-1.255257 1.0175865,-2.272844 2.2728431,-2.272844 1.255257,0 2.272843,1.017587 2.272843,2.272844 z"
       sodipodi:ry="2.2728431"
       sodipodi:rx="2.2728431"
       sodipodi:cy="42.100018"
       sodipodi:cx="10.354064"
       id="path5817"
       style="fill:#000000;fill-opacity:1;stroke:none"
       sodipodi:type="arc" />
    <path
       transform="matrix(2.7574304,0,0,2.7574304,597.8408,603.53708)"
       d="m 12.626907,42.100018 c 0,1.255256 -1.017586,2.272843 -2.272843,2.272843 -1.2552566,0 -2.2728431,-1.017587 -2.2728431,-2.272843 0,-1.255257 1.0175865,-2.272844 2.2728431,-2.272844 1.255257,0 2.272843,1.017587 2.272843,2.272844 z"
       sodipodi:ry="2.2728431"
       sodipodi:rx="2.2728431"
       sodipodi:cy="42.100018"
       sodipodi:cx="10.354064"
       id="path5819"
       style="fill:#000000;fill-opacity:1;stroke:none"
       sodipodi:type="arc" />
    <path
       transform="matrix(2.7574304,0,0,2.7574304,544.80779,657.58024)"
       d="m 12.626907,42.100018 c 0,1.255256 -1.017586,2.272843 -2.272843,2.272843 -1.2552566,0 -2.2728431,-1.017587 -2.2728431,-2.272843 0,-1.255257 1.0175865,-2.272844 2.2728431,-2.272844 1.255257,0 2.272843,1.017587 2.272843,2.272844 z"
       sodipodi:ry="2.2728431"
       sodipodi:rx="2.2728431"
       sodipodi:cy="42.100018"
       sodipodi:cx="10.354064"
       id="path5821"
       style="fill:#000000;fill-opacity:1;stroke:none"
       sodipodi:type="arc" />
    <path
       sodipodi:type="arc"
       style="fill:#000000;fill-opacity:1;stroke:none"
       id="path5823"
       sodipodi:cx="10.354064"
       sodipodi:cy="42.100018"
       sodipodi:rx="2.2728431"
       sodipodi:ry="2.2728431"
       d="m 12.626907,42.100018 c 0,1.255256 -1.017586,2.272843 -2.272843,2.272843 -1.2552566,0 -2.2728431,-1.017587 -2.2728431,-2.272843 0,-1.255257 1.0175865,-2.272844 2.2728431,-2.272844 1.255257,0 2.272843,1.017587 2.272843,2.272844 z"
       transform="matrix(2.7574304,0,0,2.7574304,650.87381,657.58024)" />
    <path
       transform="matrix(2.7574304,0,0,2.7574304,650.87381,549.49392)"
       d="m 12.626907,42.100018 c 0,1.255256 -1.017586,2.272843 -2.272843,2.272843 -1.2552566,0 -2.2728431,-1.017587 -2.2728431,-2.272843 0,-1.255257 1.0175865,-2.272844 2.2728431,-2.272844 1.255257,0 2.272843,1.017587 2.272843,2.272844 z"
       sodipodi:ry="2.2728431"
       sodipodi:rx="2.2728431"
       sodipodi:cy="42.100018"
       sodipodi:cx="10.354064"
       id="path5825"
       style="fill:#000000;fill-opacity:1;stroke:none"
       sodipodi:type="arc" />
    <path
       sodipodi:type="arc"
       style="fill:#000000;fill-opacity:1;stroke:none"
       id="path5827"
       sodipodi:cx="10.354064"
       sodipodi:cy="42.100018"
       sodipodi:rx="2.2728431"
       sodipodi:ry="2.2728431"
       d="m 12.626907,42.100018 c 0,1.255256 -1.017586,2.272843 -2.272843,2.272843 -1.2552566,0 -2.2728431,-1.017587 -2.2728431,-2.272843 0,-1.255257 1.0175865,-2.272844 2.2728431,-2.272844 1.255257,0 2.272843,1.017587 2.272843,2.272844 z"
       transform="matrix(2.7574304,0,0,2.7574304,756.93983,549.49392)" />
    <path
       sodipodi:type="arc"
       style="fill:#000000;fill-opacity:1;stroke:none"
       id="path5829"
       sodipodi:cx="10.354064"
       sodipodi:cy="42.100018"
       sodipodi:rx="2.2728431"
       sodipodi:ry="2.2728431"
       d="m 12.626907,42.100018 c 0,1.255256 -1.017586,2.272843 -2.272843,2.272843 -1.2552566,0 -2.2728431,-1.017587 -2.2728431,-2.272843 0,-1.255257 1.0175865,-2.272844 2.2728431,-2.272844 1.255257,0 2.272843,1.017587 2.272843,2.272844 z"
       transform="matrix(2.7574304,0,0,2.7574304,703.90682,603.53708)" />
    <path
       sodipodi:type="arc"
       style="fill:#000000;fill-opacity:1;stroke:none"
       id="path5831"
       sodipodi:cx="10.354064"
       sodipodi:cy="42.100018"
       sodipodi:rx="2.2728431"
       sodipodi:ry="2.2728431"
       d="m 12.626907,42.100018 c 0,1.255256 -1.017586,2.272843 -2.272843,2.272843 -1.2552566,0 -2.2728431,-1.017587 -2.2728431,-2.272843 0,-1.255257 1.0175865,-2.272844 2.2728431,-2.272844 1.255257,0 2.272843,1.017587 2.272843,2.272844 z"
       transform="matrix(2.7574304,0,0,2.7574304,650.87381,657.58024)" />
    <path
       transform="matrix(2.7574304,0,0,2.7574304,756.93983,657.58024)"
       d="m 12.626907,42.100018 c 0,1.255256 -1.017586,2.272843 -2.272843,2.272843 -1.2552566,0 -2.2728431,-1.017587 -2.2728431,-2.272843 0,-1.255257 1.0175865,-2.272844 2.2728431,-2.272844 1.255257,0 2.272843,1.017587 2.272843,2.272844 z"
       sodipodi:ry="2.2728431"
       sodipodi:rx="2.2728431"
       sodipodi:cy="42.100018"
       sodipodi:cx="10.354064"
       id="path5833"
       style="fill:#000000;fill-opacity:1;stroke:none"
       sodipodi:type="arc" />
    <text
       sodipodi:linespacing="125%"
       id="text6597"
       y="615.59229"
       x="830.33203"
       style="font-size:12px;font-style:normal;font-weight:normal;line-height:125%;letter-spacing:0px;word-spacing:0px;fill:#000000;fill-opacity:1;stroke:none;font-family:Sans"
       xml:space="preserve"><tspan
         y="615.59229"
         x="830.33203"
         id="tspan6599"
         sodipodi:role="line">$\cdots$</tspan></text>
    <text
       xml:space="preserve"
       style="font-size:12px;font-style:normal;font-weight:normal;line-height:125%;letter-spacing:0px;word-spacing:0px;fill:#000000;fill-opacity:1;stroke:none;font-family:Sans"
       x="566.91748"
       y="832.95868"
       id="text6601"
       sodipodi:linespacing="125%"><tspan
         sodipodi:role="line"
         id="tspan6603"
         x="566.91748"
         y="832.95868">$\vdots$</tspan></text>
  </g>
</svg>
