<?xml version="1.0" encoding="UTF-8" standalone="no"?>
<!-- Created with Inkscape (http://www.inkscape.org/) -->

<svg
   xmlns:dc="http://purl.org/dc/elements/1.1/"
   xmlns:cc="http://creativecommons.org/ns#"
   xmlns:rdf="http://www.w3.org/1999/02/22-rdf-syntax-ns#"
   xmlns:svg="http://www.w3.org/2000/svg"
   xmlns="http://www.w3.org/2000/svg"
   xmlns:sodipodi="http://sodipodi.sourceforge.net/DTD/sodipodi-0.dtd"
   xmlns:inkscape="http://www.inkscape.org/namespaces/inkscape"
   id="svg6133"
   version="1.1"
   inkscape:version="0.48.3.1 r9886"
   width="883.5802"
   height="721.4173"
   xml:space="preserve"
   sodipodi:docname="lattrid.svg"><metadata
     id="metadata6139"><rdf:RDF><cc:Work
         rdf:about=""><dc:format>image/svg+xml</dc:format><dc:type
           rdf:resource="http://purl.org/dc/dcmitype/StillImage" /><dc:title></dc:title></cc:Work></rdf:RDF></metadata><defs
     id="defs6137" /><sodipodi:namedview
     pagecolor="#ffffff"
     bordercolor="#666666"
     borderopacity="1"
     objecttolerance="10"
     gridtolerance="10"
     guidetolerance="10"
     inkscape:pageopacity="0"
     inkscape:pageshadow="2"
     inkscape:window-width="1280"
     inkscape:window-height="744"
     id="namedview6135"
     showgrid="false"
     inkscape:zoom="0.38376977"
     inkscape:cx="1.9318336"
     inkscape:cy="183.50403"
     inkscape:window-x="0"
     inkscape:window-y="27"
     inkscape:window-maximized="1"
     inkscape:current-layer="g6141"
     units="cm" /><g
     id="g6141"
     inkscape:groupmode="layer"
     inkscape:label="lattrid"
     transform="matrix(1.25,0,0,-1.25,0,721.41657)"><g
       id="g6143"
       transform="translate(0,41.190017)"><g
         id="g6145"
         transform="matrix(1,0,0,-1,0,491.96164)"><path
           d="m 348.152,79.398 170.176,0 0,170.172 -170.176,0 0,-170.172 z"
           style="fill:none;stroke:#818181;stroke-width:0.294126;stroke-linecap:round;stroke-linejoin:miter;stroke-miterlimit:4;stroke-opacity:1;stroke-dasharray:none"
           id="path6147"
           inkscape:connector-curvature="0" /></g><g
         id="g6149"
         transform="matrix(1,0,0,-1,0,491.96164)"><path
           d="m 518.328,79.398 0,170.172"
           style="fill:none;stroke:#000000;stroke-width:0.294126;stroke-linecap:butt;stroke-linejoin:miter;stroke-miterlimit:4;stroke-opacity:1;stroke-dasharray:none"
           id="path6151"
           inkscape:connector-curvature="0" /></g><g
         id="g6153"
         transform="matrix(1,0,0,-1,0,491.96164)"><path
           d="m 348.152,249.57 170.176,0 0,170.176 -170.176,0 0,-170.176 z"
           style="fill:none;stroke:#818181;stroke-width:0.294126;stroke-linecap:round;stroke-linejoin:miter;stroke-miterlimit:4;stroke-opacity:1;stroke-dasharray:none"
           id="path6155"
           inkscape:connector-curvature="0" /></g><g
         id="g6157"
         transform="matrix(1,0,0,-1,0,491.96164)"><path
           d="m 449.172,40.773 170.172,0 0,170.172 -170.172,0 0,-170.172 z"
           style="fill:none;stroke:#818181;stroke-width:0.294126;stroke-linecap:round;stroke-linejoin:miter;stroke-miterlimit:4;stroke-opacity:1;stroke-dasharray:none"
           id="path6159"
           inkscape:connector-curvature="0" /></g><g
         id="g6161"
         transform="matrix(1,0,0,-1,0,491.96164)"><path
           d="M 348.152,79.398 449.172,40.773"
           style="fill:none;stroke:#000000;stroke-width:0.294126;stroke-linecap:butt;stroke-linejoin:miter;stroke-miterlimit:4;stroke-opacity:1;stroke-dasharray:none"
           id="path6163"
           inkscape:connector-curvature="0" /></g><g
         id="g6165"
         transform="matrix(1,0,0,-1,0,491.96164)"><path
           d="M 518.328,79.398 619.344,40.773"
           style="fill:none;stroke:#000000;stroke-width:0.294126;stroke-linecap:butt;stroke-linejoin:miter;stroke-miterlimit:4;stroke-opacity:1;stroke-dasharray:none"
           id="path6167"
           inkscape:connector-curvature="0" /></g><g
         id="g6169"
         transform="matrix(1,0,0,-1,0,491.96164)"><path
           d="M 518.328,249.57 619.344,210.945"
           style="fill:none;stroke:#000000;stroke-width:0.294126;stroke-linecap:butt;stroke-linejoin:miter;stroke-miterlimit:4;stroke-opacity:1;stroke-dasharray:none"
           id="path6171"
           inkscape:connector-curvature="0" /></g><g
         id="g6173"
         transform="matrix(1,0,0,-1,0,491.96164)"><path
           d="m 348.152,249.57 101.02,-38.625"
           style="fill:none;stroke:#414141;stroke-width:0.294126;stroke-linecap:butt;stroke-linejoin:miter;stroke-miterlimit:4;stroke-opacity:1;stroke-dasharray:none"
           id="path6175"
           inkscape:connector-curvature="0" /></g><g
         id="g6177"
         transform="matrix(1,0,0,-1,0,491.96164)"><path
           d="m 449.172,40.773 170.172,0"
           style="fill:none;stroke:#000000;stroke-width:0.294126;stroke-linecap:butt;stroke-linejoin:miter;stroke-miterlimit:4;stroke-opacity:1;stroke-dasharray:none"
           id="path6179"
           inkscape:connector-curvature="0" /></g><g
         id="g6181"
         transform="matrix(1,0,0,-1,0,491.96164)"><path
           d="m 619.344,40.773 0,170.172"
           style="fill:none;stroke:#000000;stroke-width:0.294126;stroke-linecap:butt;stroke-linejoin:miter;stroke-miterlimit:4;stroke-opacity:1;stroke-dasharray:none"
           id="path6183"
           inkscape:connector-curvature="0" /></g><g
         id="g6185"
         transform="matrix(1,0,0,-1,0,491.96164)"><path
           d="m 449.172,210.945 170.172,0 0,170.176 -170.172,0 0,-170.176 z"
           style="fill:none;stroke:#818181;stroke-width:0.294126;stroke-linecap:round;stroke-linejoin:miter;stroke-miterlimit:4;stroke-opacity:1;stroke-dasharray:none"
           id="path6187"
           inkscape:connector-curvature="0" /></g><g
         id="g6189"
         transform="matrix(1,0,0,-1,0,491.96164)"><path
           d="M 518.328,419.742 619.344,381.121"
           style="fill:none;stroke:#000000;stroke-width:0.294126;stroke-linecap:butt;stroke-linejoin:miter;stroke-miterlimit:4;stroke-opacity:1;stroke-dasharray:none"
           id="path6191"
           inkscape:connector-curvature="0" /></g><g
         id="g6193"
         transform="matrix(1,0,0,-1,0,491.96164)"><path
           d="m 348.152,419.742 101.02,-38.621"
           style="fill:none;stroke:#414141;stroke-width:0.294126;stroke-linecap:butt;stroke-linejoin:miter;stroke-miterlimit:4;stroke-opacity:1;stroke-dasharray:none"
           id="path6195"
           inkscape:connector-curvature="0" /></g><g
         id="g6197"
         transform="matrix(1,0,0,-1,0,491.96164)"><path
           d="m 619.344,210.945 0,170.176"
           style="fill:none;stroke:#000000;stroke-width:0.294126;stroke-linecap:butt;stroke-linejoin:miter;stroke-miterlimit:4;stroke-opacity:1;stroke-dasharray:none"
           id="path6199"
           inkscape:connector-curvature="0" /></g><g
         id="g6201"
         transform="matrix(1,0,0,-1,0,491.96164)"><path
           d="m 279,40.773 170.172,0 0,170.172 -170.172,0 0,-170.172 z"
           style="fill:none;stroke:#818181;stroke-width:0.294126;stroke-linecap:round;stroke-linejoin:miter;stroke-miterlimit:4;stroke-opacity:1;stroke-dasharray:none"
           id="path6203"
           inkscape:connector-curvature="0" /></g><g
         id="g6205"
         transform="matrix(1,0,0,-1,0,491.96164)"><path
           d="M 177.98,79.398 279,40.773"
           style="fill:none;stroke:#000000;stroke-width:0.294126;stroke-linecap:butt;stroke-linejoin:miter;stroke-miterlimit:4;stroke-opacity:1;stroke-dasharray:none"
           id="path6207"
           inkscape:connector-curvature="0" /></g><g
         id="g6209"
         transform="matrix(1,0,0,-1,0,491.96164)"><path
           d="M 177.98,249.57 279,210.945"
           style="fill:none;stroke:#414141;stroke-width:0.294126;stroke-linecap:butt;stroke-linejoin:miter;stroke-miterlimit:4;stroke-opacity:1;stroke-dasharray:none"
           id="path6211"
           inkscape:connector-curvature="0" /></g><g
         id="g6213"
         transform="matrix(1,0,0,-1,0,491.96164)"><path
           d="m 279,40.773 170.172,0"
           style="fill:none;stroke:#000000;stroke-width:0.294126;stroke-linecap:butt;stroke-linejoin:miter;stroke-miterlimit:4;stroke-opacity:1;stroke-dasharray:none"
           id="path6215"
           inkscape:connector-curvature="0" /></g><g
         id="g6217"
         transform="matrix(1,0,0,-1,0,491.96164)"><path
           d="m 279,210.945 170.172,0 0,170.176 -170.172,0 0,-170.176 z"
           style="fill:none;stroke:#818181;stroke-width:0.294126;stroke-linecap:round;stroke-linejoin:miter;stroke-miterlimit:4;stroke-opacity:1;stroke-dasharray:none"
           id="path6219"
           inkscape:connector-curvature="0" /></g><g
         id="g6221"
         transform="matrix(1,0,0,-1,0,491.96164)"><path
           d="M 177.98,419.742 279,381.121"
           style="fill:none;stroke:#414141;stroke-width:0.294126;stroke-linecap:butt;stroke-linejoin:miter;stroke-miterlimit:4;stroke-opacity:1;stroke-dasharray:none"
           id="path6223"
           inkscape:connector-curvature="0" /></g><path
         d="m 182.996,412.563 c 0,-2.769 -2.246,-5.015 -5.016,-5.015 -2.769,0 -5.011,2.246 -5.011,5.015 0,2.77 2.242,5.012 5.011,5.012 2.77,0 5.016,-2.242 5.016,-5.012 z"
         style="fill:#000000;fill-opacity:1;fill-rule:nonzero;stroke:none"
         id="path6225"
         inkscape:connector-curvature="0" /><path
         d="m 284.012,451.188 c 0,-2.769 -2.242,-5.015 -5.012,-5.015 -2.77,0 -5.016,2.246 -5.016,5.015 0,2.77 2.246,5.012 5.016,5.012 2.77,0 5.012,-2.242 5.012,-5.012 z"
         style="fill:#000000;fill-opacity:1;fill-rule:nonzero;stroke:none"
         id="path6227"
         inkscape:connector-curvature="0" /><path
         d="m 454.184,451.188 c 0,-2.769 -2.243,-5.015 -5.012,-5.015 -2.77,0 -5.016,2.246 -5.016,5.015 0,2.77 2.246,5.012 5.016,5.012 2.769,0 5.012,-2.242 5.012,-5.012 z"
         style="fill:#000000;fill-opacity:1;fill-rule:nonzero;stroke:none"
         id="path6229"
         inkscape:connector-curvature="0" /><path
         d="m 353.168,412.563 c 0,-2.769 -2.246,-5.015 -5.016,-5.015 -2.769,0 -5.011,2.246 -5.011,5.015 0,2.77 2.242,5.012 5.011,5.012 2.77,0 5.016,-2.242 5.016,-5.012 z"
         style="fill:#000000;fill-opacity:1;fill-rule:nonzero;stroke:none"
         id="path6231"
         inkscape:connector-curvature="0" /><path
         d="m 523.34,412.563 c 0,-2.769 -2.246,-5.015 -5.012,-5.015 -2.769,0 -5.016,2.246 -5.016,5.015 0,2.77 2.247,5.012 5.016,5.012 2.766,0 5.012,-2.242 5.012,-5.012 z"
         style="fill:#000000;fill-opacity:1;fill-rule:nonzero;stroke:none"
         id="path6233"
         inkscape:connector-curvature="0" /><path
         d="m 624.359,451.188 c 0,-2.769 -2.246,-5.015 -5.015,-5.015 -2.77,0 -5.012,2.246 -5.012,5.015 0,2.77 2.242,5.012 5.012,5.012 2.769,0 5.015,-2.242 5.015,-5.012 z"
         style="fill:#000000;fill-opacity:1;fill-rule:nonzero;stroke:none"
         id="path6235"
         inkscape:connector-curvature="0" /><path
         d="m 624.359,281.016 c 0,-2.769 -2.246,-5.015 -5.015,-5.015 -2.77,0 -5.012,2.246 -5.012,5.015 0,2.77 2.242,5.012 5.012,5.012 2.769,0 5.015,-2.242 5.015,-5.012 z"
         style="fill:#000000;fill-opacity:1;fill-rule:nonzero;stroke:none"
         id="path6237"
         inkscape:connector-curvature="0" /><path
         d="m 523.34,242.391 c 0,-2.769 -2.246,-5.015 -5.012,-5.015 -2.769,0 -5.016,2.246 -5.016,5.015 0,2.77 2.247,5.012 5.016,5.012 2.766,0 5.012,-2.242 5.012,-5.012 z"
         style="fill:#000000;fill-opacity:1;fill-rule:nonzero;stroke:none"
         id="path6239"
         inkscape:connector-curvature="0" /><path
         d="m 523.34,72.219 c 0,-2.769 -2.246,-5.015 -5.012,-5.015 -2.769,0 -5.016,2.246 -5.016,5.015 0,2.766 2.247,5.012 5.016,5.012 2.766,0 5.012,-2.246 5.012,-5.012 z"
         style="fill:#000000;fill-opacity:1;fill-rule:nonzero;stroke:none"
         id="path6241"
         inkscape:connector-curvature="0" /><path
         d="m 624.359,110.841 c 0,-2.766 -2.246,-5.012 -5.015,-5.012 -2.77,0 -5.012,2.246 -5.012,5.012 0,2.769 2.242,5.015 5.012,5.015 2.769,0 5.015,-2.246 5.015,-5.015 z"
         style="fill:#000000;fill-opacity:1;fill-rule:nonzero;stroke:none"
         id="path6243"
         inkscape:connector-curvature="0" /><path
         d="m 353.168,72.216 c 0,-2.766 -2.246,-5.012 -5.016,-5.012 -2.769,0 -5.011,2.246 -5.011,5.012 0,2.769 2.242,5.015 5.011,5.015 2.77,0 5.016,-2.246 5.016,-5.015 z"
         style="fill:#000000;fill-opacity:1;fill-rule:nonzero;stroke:none"
         id="path6245"
         inkscape:connector-curvature="0" /><path
         d="m 353.168,242.391 c 0,-2.769 -2.246,-5.015 -5.016,-5.015 -2.769,0 -5.011,2.246 -5.011,5.015 0,2.77 2.242,5.012 5.011,5.012 2.77,0 5.016,-2.242 5.016,-5.012 z"
         style="fill:#000000;fill-opacity:1;fill-rule:nonzero;stroke:none"
         id="path6247"
         inkscape:connector-curvature="0" /><path
         d="m 182.996,72.216 c 0,-2.766 -2.246,-5.012 -5.016,-5.012 -2.769,0 -5.011,2.246 -5.011,5.012 0,2.769 2.242,5.015 5.011,5.015 2.77,0 5.016,-2.246 5.016,-5.015 z"
         style="fill:#000000;fill-opacity:1;fill-rule:nonzero;stroke:none"
         id="path6249"
         inkscape:connector-curvature="0" /><path
         d="m 182.996,242.391 c 0,-2.769 -2.246,-5.015 -5.016,-5.015 -2.769,0 -5.011,2.246 -5.011,5.015 0,2.77 2.242,5.012 5.011,5.012 2.77,0 5.016,-2.242 5.016,-5.012 z"
         style="fill:#000000;fill-opacity:1;fill-rule:nonzero;stroke:none"
         id="path6251"
         inkscape:connector-curvature="0" /><path
         d="m 454.184,281.016 c 0,-2.769 -2.243,-5.015 -5.012,-5.015 -2.77,0 -5.016,2.246 -5.016,5.015 0,2.766 2.246,5.012 5.016,5.012 2.769,0 5.012,-2.246 5.012,-5.012 z"
         style="fill:#4c4c4c;fill-opacity:1;fill-rule:nonzero;stroke:none"
         id="path6253"
         inkscape:connector-curvature="0" /><path
         d="m 284.012,281.016 c 0,-2.769 -2.242,-5.015 -5.012,-5.015 -2.77,0 -5.016,2.246 -5.016,5.015 0,2.766 2.246,5.012 5.016,5.012 2.77,0 5.012,-2.246 5.012,-5.012 z"
         style="fill:#4c4c4c;fill-opacity:1;fill-rule:nonzero;stroke:none"
         id="path6255"
         inkscape:connector-curvature="0" /><path
         d="m 284.012,110.841 c 0,-2.766 -2.242,-5.012 -5.012,-5.012 -2.77,0 -5.016,2.246 -5.016,5.012 0,2.769 2.246,5.015 5.016,5.015 2.77,0 5.012,-2.246 5.012,-5.015 z"
         style="fill:#4c4c4c;fill-opacity:1;fill-rule:nonzero;stroke:none"
         id="path6257"
         inkscape:connector-curvature="0" /><path
         d="m 454.184,110.841 c 0,-2.766 -2.243,-5.012 -5.012,-5.012 -2.77,0 -5.016,2.246 -5.016,5.012 0,2.769 2.246,5.015 5.016,5.015 2.769,0 5.012,-2.246 5.012,-5.015 z"
         style="fill:#4c4c4c;fill-opacity:1;fill-rule:nonzero;stroke:none"
         id="path6259"
         inkscape:connector-curvature="0" /><path
         d="m 318.59,346.79 c 0,-2.77 -2.246,-5.016 -5.012,-5.016 -2.769,0 -5.016,2.246 -5.016,5.016 0,2.769 2.247,5.011 5.016,5.011 2.766,0 5.012,-2.242 5.012,-5.011 z"
         style="fill:#585858;fill-opacity:1;fill-rule:nonzero;stroke:none"
         id="path6261"
         inkscape:connector-curvature="0" /><path
         d="m 488.762,346.79 c 0,-2.77 -2.242,-5.016 -5.012,-5.016 -2.77,0 -5.016,2.246 -5.016,5.016 0,2.769 2.246,5.011 5.016,5.011 2.77,0 5.012,-2.242 5.012,-5.011 z"
         style="fill:#585858;fill-opacity:1;fill-rule:nonzero;stroke:none"
         id="path6263"
         inkscape:connector-curvature="0" /><path
         d="m 488.762,176.618 c 0,-2.77 -2.242,-5.016 -5.012,-5.016 -2.77,0 -5.016,2.246 -5.016,5.016 0,2.766 2.246,5.012 5.016,5.012 2.77,0 5.012,-2.246 5.012,-5.012 z"
         style="fill:#585858;fill-opacity:1;fill-rule:nonzero;stroke:none"
         id="path6265"
         inkscape:connector-curvature="0" /><path
         d="m 318.59,176.618 c 0,-2.77 -2.246,-5.016 -5.012,-5.016 -2.769,0 -5.016,2.246 -5.016,5.016 0,2.766 2.247,5.012 5.016,5.012 2.766,0 5.012,-2.246 5.012,-5.012 z"
         style="fill:#585858;fill-opacity:1;fill-rule:nonzero;stroke:none"
         id="path6267"
         inkscape:connector-curvature="0" /><g
         id="g6269"
         transform="matrix(1,0,0,-1,0,491.96164)"><path
           d="m 247.137,118.023 170.172,0 0,170.172 -170.172,0 0,-170.172 z"
           style="fill:none;stroke:#000000;stroke-width:0.294126;stroke-linecap:round;stroke-linejoin:miter;stroke-miterlimit:4;stroke-opacity:1;stroke-dasharray:none"
           id="path6271"
           inkscape:connector-curvature="0" /></g><g
         id="g6273"
         transform="matrix(1,0,0,-1,0,491.96164)"><path
           d="M 247.137,118.023 348.152,79.398"
           style="fill:none;stroke:#000000;stroke-width:0.294126;stroke-linecap:butt;stroke-linejoin:miter;stroke-miterlimit:4;stroke-opacity:1;stroke-dasharray:none"
           id="path6275"
           inkscape:connector-curvature="0" /></g><g
         id="g6277"
         transform="matrix(1,0,0,-1,0,491.96164)"><path
           d="M 417.309,118.023 518.328,79.398"
           style="fill:none;stroke:#000000;stroke-width:0.294126;stroke-linecap:butt;stroke-linejoin:miter;stroke-miterlimit:4;stroke-opacity:1;stroke-dasharray:none"
           id="path6279"
           inkscape:connector-curvature="0" /></g><g
         id="g6281"
         transform="matrix(1,0,0,-1,0,491.96164)"><path
           d="M 417.309,288.195 518.328,249.57"
           style="fill:none;stroke:#000000;stroke-width:0.294126;stroke-linecap:butt;stroke-linejoin:miter;stroke-miterlimit:4;stroke-opacity:1;stroke-dasharray:none"
           id="path6283"
           inkscape:connector-curvature="0" /></g><g
         id="g6285"
         transform="matrix(1,0,0,-1,0,491.96164)"><path
           d="M 247.137,288.195 348.152,249.57"
           style="fill:none;stroke:#414141;stroke-width:0.294126;stroke-linecap:butt;stroke-linejoin:miter;stroke-miterlimit:4;stroke-opacity:1;stroke-dasharray:none"
           id="path6287"
           inkscape:connector-curvature="0" /></g><g
         id="g6289"
         transform="matrix(1,0,0,-1,0,491.96164)"><path
           d="m 348.152,79.398 170.176,0"
           style="fill:none;stroke:#000000;stroke-width:0.294126;stroke-linecap:butt;stroke-linejoin:miter;stroke-miterlimit:4;stroke-opacity:1;stroke-dasharray:none"
           id="path6291"
           inkscape:connector-curvature="0" /></g><g
         id="g6293"
         transform="matrix(1,0,0,-1,0,491.96164)"><path
           d="m 247.137,288.195 170.172,0 0,170.172 -170.172,0 0,-170.172 z"
           style="fill:none;stroke:#000000;stroke-width:0.294126;stroke-linecap:round;stroke-linejoin:miter;stroke-miterlimit:4;stroke-opacity:1;stroke-dasharray:none"
           id="path6295"
           inkscape:connector-curvature="0" /></g><g
         id="g6297"
         transform="matrix(1,0,0,-1,0,491.96164)"><path
           d="M 417.309,458.367 518.328,419.746"
           style="fill:none;stroke:#000000;stroke-width:0.294126;stroke-linecap:butt;stroke-linejoin:miter;stroke-miterlimit:4;stroke-opacity:1;stroke-dasharray:none"
           id="path6299"
           inkscape:connector-curvature="0" /></g><g
         id="g6301"
         transform="matrix(1,0,0,-1,0,491.96164)"><path
           d="M 247.137,458.367 348.152,419.746"
           style="fill:none;stroke:#414141;stroke-width:0.294126;stroke-linecap:butt;stroke-linejoin:miter;stroke-miterlimit:4;stroke-opacity:1;stroke-dasharray:none"
           id="path6303"
           inkscape:connector-curvature="0" /></g><g
         id="g6305"
         transform="matrix(1,0,0,-1,0,491.96164)"><path
           d="m 518.328,249.57 0,170.176"
           style="fill:none;stroke:#000000;stroke-width:0.294126;stroke-linecap:butt;stroke-linejoin:miter;stroke-miterlimit:4;stroke-opacity:1;stroke-dasharray:none"
           id="path6307"
           inkscape:connector-curvature="0" /></g><g
         id="g6309"
         transform="matrix(1,0,0,-1,0,491.96164)"><path
           d="m 76.961,118.023 170.176,0 0,170.172 -170.176,0 0,-170.172 z"
           style="fill:none;stroke:#000000;stroke-width:0.294126;stroke-linecap:round;stroke-linejoin:miter;stroke-miterlimit:4;stroke-opacity:1;stroke-dasharray:none"
           id="path6311"
           inkscape:connector-curvature="0" /></g><g
         id="g6313"
         transform="matrix(1,0,0,-1,0,491.96164)"><path
           d="m 177.98,79.398 170.172,0 0,170.172 -170.172,0 0,-170.172 z"
           style="fill:none;stroke:#818181;stroke-width:0.294126;stroke-linecap:round;stroke-linejoin:miter;stroke-miterlimit:4;stroke-opacity:1;stroke-dasharray:none"
           id="path6315"
           inkscape:connector-curvature="0" /></g><g
         id="g6317"
         transform="matrix(1,0,0,-1,0,491.96164)"><path
           d="M 76.961,118.023 177.98,79.398"
           style="fill:none;stroke:#000000;stroke-width:0.294126;stroke-linecap:butt;stroke-linejoin:miter;stroke-miterlimit:4;stroke-opacity:1;stroke-dasharray:none"
           id="path6319"
           inkscape:connector-curvature="0" /></g><g
         id="g6321"
         transform="matrix(1,0,0,-1,0,491.96164)"><path
           d="M 76.961,288.195 177.98,249.57"
           style="fill:none;stroke:#414141;stroke-width:0.294126;stroke-linecap:butt;stroke-linejoin:miter;stroke-miterlimit:4;stroke-opacity:1;stroke-dasharray:none"
           id="path6323"
           inkscape:connector-curvature="0" /></g><g
         id="g6325"
         transform="matrix(1,0,0,-1,0,491.96164)"><path
           d="m 177.98,79.398 170.172,0"
           style="fill:none;stroke:#000000;stroke-width:0.294126;stroke-linecap:butt;stroke-linejoin:miter;stroke-miterlimit:4;stroke-opacity:1;stroke-dasharray:none"
           id="path6327"
           inkscape:connector-curvature="0" /></g><g
         id="g6329"
         transform="matrix(1,0,0,-1,0,491.96164)"><path
           d="m 76.961,288.195 170.176,0 0,170.172 -170.176,0 0,-170.172 z"
           style="fill:none;stroke:#000000;stroke-width:0.294126;stroke-linecap:round;stroke-linejoin:miter;stroke-miterlimit:4;stroke-opacity:1;stroke-dasharray:none"
           id="path6331"
           inkscape:connector-curvature="0" /></g><g
         id="g6333"
         transform="matrix(1,0,0,-1,0,491.96164)"><path
           d="m 177.98,249.57 170.172,0 0,170.176 -170.172,0 0,-170.176 z"
           style="fill:none;stroke:#818181;stroke-width:0.294126;stroke-linecap:round;stroke-linejoin:miter;stroke-miterlimit:4;stroke-opacity:1;stroke-dasharray:none"
           id="path6335"
           inkscape:connector-curvature="0" /></g><g
         id="g6337"
         transform="matrix(1,0,0,-1,0,491.96164)"><path
           d="M 76.961,458.367 177.98,419.742"
           style="fill:none;stroke:#414141;stroke-width:0.294126;stroke-linecap:butt;stroke-linejoin:miter;stroke-miterlimit:4;stroke-opacity:1;stroke-dasharray:none"
           id="path6339"
           inkscape:connector-curvature="0" /></g><path
         d="m 81.977,373.938 c 0,-2.769 -2.247,-5.012 -5.016,-5.012 -2.766,0 -5.012,2.243 -5.012,5.012 0,2.77 2.246,5.016 5.012,5.016 2.769,0 5.016,-2.246 5.016,-5.016 z"
         style="fill:#000000;fill-opacity:1;fill-rule:nonzero;stroke:none"
         id="path6341"
         inkscape:connector-curvature="0" /><path
         d="m 252.148,373.938 c 0,-2.769 -2.242,-5.012 -5.011,-5.012 -2.77,0 -5.016,2.243 -5.016,5.012 0,2.77 2.246,5.016 5.016,5.016 2.769,0 5.011,-2.246 5.011,-5.016 z"
         style="fill:#000000;fill-opacity:1;fill-rule:nonzero;stroke:none"
         id="path6343"
         inkscape:connector-curvature="0" /><path
         d="m 422.32,373.938 c 0,-2.769 -2.242,-5.012 -5.011,-5.012 -2.77,0 -5.016,2.243 -5.016,5.012 0,2.77 2.246,5.016 5.016,5.016 2.769,0 5.011,-2.246 5.011,-5.016 z"
         style="fill:#000000;fill-opacity:1;fill-rule:nonzero;stroke:none"
         id="path6345"
         inkscape:connector-curvature="0" /><path
         d="m 422.32,203.766 c 0,-2.769 -2.242,-5.015 -5.011,-5.015 -2.77,0 -5.016,2.246 -5.016,5.015 0,2.77 2.246,5.012 5.016,5.012 2.769,0 5.011,-2.242 5.011,-5.012 z"
         style="fill:#000000;fill-opacity:1;fill-rule:nonzero;stroke:none"
         id="path6347"
         inkscape:connector-curvature="0" /><path
         d="m 422.32,33.594 c 0,-2.769 -2.242,-5.015 -5.011,-5.015 -2.77,0 -5.016,2.246 -5.016,5.015 0,2.77 2.246,5.012 5.016,5.012 2.769,0 5.011,-2.242 5.011,-5.012 z"
         style="fill:#000000;fill-opacity:1;fill-rule:nonzero;stroke:none"
         id="path6349"
         inkscape:connector-curvature="0" /><path
         d="m 252.148,33.594 c 0,-2.769 -2.242,-5.015 -5.011,-5.015 -2.77,0 -5.016,2.246 -5.016,5.015 0,2.766 2.246,5.012 5.016,5.012 2.769,0 5.011,-2.246 5.011,-5.012 z"
         style="fill:#000000;fill-opacity:1;fill-rule:nonzero;stroke:none"
         id="path6351"
         inkscape:connector-curvature="0" /><path
         d="m 252.148,203.766 c 0,-2.769 -2.242,-5.015 -5.011,-5.015 -2.77,0 -5.016,2.246 -5.016,5.015 0,2.77 2.246,5.012 5.016,5.012 2.769,0 5.011,-2.242 5.011,-5.012 z"
         style="fill:#000000;fill-opacity:1;fill-rule:nonzero;stroke:none"
         id="path6353"
         inkscape:connector-curvature="0" /><path
         d="m 81.977,33.594 c 0,-2.769 -2.247,-5.015 -5.016,-5.015 -2.766,0 -5.012,2.246 -5.012,5.015 0,2.766 2.246,5.012 5.012,5.012 2.769,0 5.016,-2.246 5.016,-5.012 z"
         style="fill:#000000;fill-opacity:1;fill-rule:nonzero;stroke:none"
         id="path6355"
         inkscape:connector-curvature="0" /><path
         d="m 81.977,203.766 c 0,-2.769 -2.247,-5.015 -5.016,-5.015 -2.766,0 -5.012,2.246 -5.012,5.015 0,2.77 2.246,5.012 5.012,5.012 2.769,0 5.016,-2.242 5.016,-5.012 z"
         style="fill:#000000;fill-opacity:1;fill-rule:nonzero;stroke:none"
         id="path6357"
         inkscape:connector-curvature="0" /><path
         d="m 353.168,242.391 c 0,-2.769 -2.246,-5.015 -5.016,-5.015 -2.769,0 -5.011,2.246 -5.011,5.015 0,2.77 2.242,5.012 5.011,5.012 2.77,0 5.016,-2.242 5.016,-5.012 z"
         style="fill:#4c4c4c;fill-opacity:1;fill-rule:nonzero;stroke:none"
         id="path6359"
         inkscape:connector-curvature="0" /><path
         d="m 182.996,242.391 c 0,-2.769 -2.246,-5.015 -5.016,-5.015 -2.769,0 -5.011,2.246 -5.011,5.015 0,2.77 2.242,5.012 5.011,5.012 2.77,0 5.016,-2.242 5.016,-5.012 z"
         style="fill:#4c4c4c;fill-opacity:1;fill-rule:nonzero;stroke:none"
         id="path6361"
         inkscape:connector-curvature="0" /><path
         d="m 182.996,72.216 c 0,-2.766 -2.246,-5.012 -5.016,-5.012 -2.769,0 -5.011,2.246 -5.011,5.012 0,2.769 2.242,5.015 5.011,5.015 2.77,0 5.016,-2.246 5.016,-5.015 z"
         style="fill:#4c4c4c;fill-opacity:1;fill-rule:nonzero;stroke:none"
         id="path6363"
         inkscape:connector-curvature="0" /><path
         d="m 353.168,72.216 c 0,-2.766 -2.246,-5.012 -5.016,-5.012 -2.769,0 -5.011,2.246 -5.011,5.012 0,2.769 2.242,5.015 5.011,5.015 2.77,0 5.016,-2.246 5.016,-5.015 z"
         style="fill:#4c4c4c;fill-opacity:1;fill-rule:nonzero;stroke:none"
         id="path6365"
         inkscape:connector-curvature="0" /><path
         d="m 217.57,308.165 c 0,-2.77 -2.242,-5.016 -5.011,-5.016 -2.77,0 -5.016,2.246 -5.016,5.016 0,2.769 2.246,5.011 5.016,5.011 2.769,0 5.011,-2.242 5.011,-5.011 z"
         style="fill:#595959;fill-opacity:1;fill-rule:nonzero;stroke:none"
         id="path6367"
         inkscape:connector-curvature="0" /><path
         d="m 387.746,308.165 c 0,-2.77 -2.246,-5.016 -5.016,-5.016 -2.769,0 -5.011,2.246 -5.011,5.016 0,2.769 2.242,5.011 5.011,5.011 2.77,0 5.016,-2.242 5.016,-5.011 z"
         style="fill:#595959;fill-opacity:1;fill-rule:nonzero;stroke:none"
         id="path6369"
         inkscape:connector-curvature="0" /><path
         d="m 387.746,137.993 c 0,-2.77 -2.246,-5.016 -5.016,-5.016 -2.769,0 -5.011,2.246 -5.011,5.016 0,2.769 2.242,5.012 5.011,5.012 2.77,0 5.016,-2.243 5.016,-5.012 z"
         style="fill:#595959;fill-opacity:1;fill-rule:nonzero;stroke:none"
         id="path6371"
         inkscape:connector-curvature="0" /><path
         d="m 217.57,137.993 c 0,-2.77 -2.242,-5.016 -5.011,-5.016 -2.77,0 -5.016,2.246 -5.016,5.016 0,2.766 2.246,5.012 5.016,5.012 2.769,0 5.011,-2.246 5.011,-5.012 z"
         style="fill:#595959;fill-opacity:1;fill-rule:nonzero;stroke:none"
         id="path6373"
         inkscape:connector-curvature="0" /></g><text
       xml:space="preserve"
       style="font-size:9.60000038px;font-style:normal;font-weight:normal;line-height:125%;letter-spacing:0px;word-spacing:0px;fill:#000000;fill-opacity:1;stroke:none;font-family:Sans"
       x="346.39539"
       y="-521.7215"
       id="text6375"
       sodipodi:linespacing="125%"
       transform="scale(1,-1)"><tspan
         sodipodi:role="line"
         id="tspan6377"
         x="346.39539"
         y="-521.7215">$\vdots$</tspan></text>
<text
       transform="scale(1,-1)"
       sodipodi:linespacing="125%"
       id="text6379"
       y="-49.52837"
       x="346.39539"
       style="font-size:9.60000038px;font-style:normal;font-weight:normal;line-height:125%;letter-spacing:0px;word-spacing:0px;fill:#000000;fill-opacity:1;stroke:none;font-family:Sans"
       xml:space="preserve"><tspan
         y="-49.52837"
         x="346.39539"
         id="tspan6381"
         sodipodi:role="line">$\vdots$</tspan></text>
<text
       xml:space="preserve"
       style="font-size:9.60000038px;font-style:normal;font-weight:normal;line-height:125%;letter-spacing:0px;word-spacing:0px;fill:#000000;fill-opacity:1;stroke:none;font-family:Sans"
       x="25.05839"
       y="-281.45575"
       id="text6383"
       sodipodi:linespacing="125%"
       transform="scale(1,-1)"><tspan
         sodipodi:role="line"
         id="tspan6385"
         x="25.05839"
         y="-281.45575">$\cdots$</tspan></text>
<text
       transform="scale(1,-1)"
       sodipodi:linespacing="125%"
       id="text6387"
       y="-281.45575"
       x="632.35583"
       style="font-size:9.60000038px;font-style:normal;font-weight:normal;line-height:125%;letter-spacing:0px;word-spacing:0px;fill:#000000;fill-opacity:1;stroke:none;font-family:Sans"
       xml:space="preserve"><tspan
         y="-281.45575"
         x="632.35583"
         id="tspan6389"
         sodipodi:role="line">$\cdots$</tspan></text>
</g></svg>