<?xml version="1.0" encoding="UTF-8" standalone="no"?>
<!-- Created with Inkscape (http://www.inkscape.org/) -->

<svg
   xmlns:dc="http://purl.org/dc/elements/1.1/"
   xmlns:cc="http://creativecommons.org/ns#"
   xmlns:rdf="http://www.w3.org/1999/02/22-rdf-syntax-ns#"
   xmlns:svg="http://www.w3.org/2000/svg"
   xmlns="http://www.w3.org/2000/svg"
   xmlns:sodipodi="http://sodipodi.sourceforge.net/DTD/sodipodi-0.dtd"
   xmlns:inkscape="http://www.inkscape.org/namespaces/inkscape"
   width="180.40598"
   height="180.40596"
   id="svg2"
   version="1.1"
   inkscape:version="0.48.4 r9939"
   sodipodi:docname="octa1.svg">
  <defs
     id="defs4" />
  <sodipodi:namedview
     id="base"
     pagecolor="#ffffff"
     bordercolor="#666666"
     borderopacity="1.0"
     inkscape:pageopacity="0.0"
     inkscape:pageshadow="2"
     inkscape:zoom="2.8"
     inkscape:cx="-45.886479"
     inkscape:cy="87.142379"
     inkscape:document-units="px"
     inkscape:current-layer="layer1"
     showgrid="false"
     inkscape:snap-midpoints="true"
     inkscape:snap-object-midpoints="true"
     inkscape:snap-smooth-nodes="true"
     inkscape:snap-center="false"
     inkscape:object-paths="false"
     inkscape:object-nodes="true"
     fit-margin-top="0"
     fit-margin-left="0"
     fit-margin-right="0"
     fit-margin-bottom="0"
     inkscape:window-width="1920"
     inkscape:window-height="1021"
     inkscape:window-x="0"
     inkscape:window-y="27"
     inkscape:window-maximized="1"
     inkscape:snap-global="true"
     showguides="true"
     inkscape:guide-bbox="true" />
  <metadata
     id="metadata7">
    <rdf:RDF>
      <cc:Work
         rdf:about="">
        <dc:format>image/svg+xml</dc:format>
        <dc:type
           rdf:resource="http://purl.org/dc/dcmitype/StillImage" />
        <dc:title></dc:title>
      </cc:Work>
    </rdf:RDF>
  </metadata>
  <g
     inkscape:label="Capa 1"
     inkscape:groupmode="layer"
     id="layer1"
     transform="translate(-160.68894,-732.02487)"
     style="display:inline">
    <path
       style="fill:none;stroke:#0000ff;stroke-width:1px;stroke-linecap:round;stroke-linejoin:round;stroke-opacity:1"
       d="m 163.97193,822.22784 86.92001,86.91999"
       id="path4225"
       inkscape:connector-curvature="0" />
    <path
       style="fill:none;stroke:#0000ff;stroke-width:1px;stroke-linecap:round;stroke-linejoin:round;stroke-opacity:1"
       d="m 211.2466,850.7016 39.64534,58.44623"
       id="path4227"
       inkscape:connector-curvature="0" />
    <path
       style="fill:none;stroke:#0000ff;stroke-width:1;stroke-linecap:round;stroke-linejoin:round;stroke-miterlimit:4;stroke-opacity:1;stroke-dasharray:1, 3;stroke-dashoffset:0"
       d="m 290.53728,793.75409 47.27465,28.47375"
       id="path4229"
       inkscape:connector-curvature="0" />
    <path
       style="fill:none;stroke:#0000ff;stroke-width:1px;stroke-linecap:round;stroke-linejoin:round;stroke-opacity:1"
       d="m 250.89192,735.30786 -86.91999,86.91998"
       id="path4231"
       inkscape:connector-curvature="0" />
    <path
       style="fill:none;stroke:#0000ff;stroke-width:1;stroke-linecap:round;stroke-linejoin:round;stroke-miterlimit:4;stroke-opacity:1;stroke-dasharray:1, 3;stroke-dashoffset:0"
       d="M 290.53728,793.75409 163.97193,822.22784"
       id="path4233"
       inkscape:connector-curvature="0" />
    <path
       style="fill:none;stroke:#0000ff;stroke-width:1px;stroke-linecap:round;stroke-linejoin:round;stroke-opacity:1"
       d="M 211.24661,850.70159 163.97193,822.22784"
       id="path4235"
       inkscape:connector-curvature="0" />
    <path
       style="fill:none;stroke:#0000ff;stroke-width:1px;stroke-linecap:round;stroke-linejoin:round;stroke-opacity:1"
       d="M 337.81193,822.22784 211.2466,850.7016"
       id="path4237"
       inkscape:connector-curvature="0" />
    <path
       style="fill:none;stroke:#0000ff;stroke-width:1px;stroke-linecap:round;stroke-linejoin:round;stroke-opacity:1"
       d="m 250.89194,909.14783 86.91999,-86.91999"
       id="path4239"
       inkscape:connector-curvature="0" />
    <path
       style="fill:none;stroke:#0000ff;stroke-width:1px;stroke-linecap:round;stroke-linejoin:round;stroke-opacity:1"
       d="M 250.89192,735.30786 211.2466,850.7016"
       id="path4245"
       inkscape:connector-curvature="0" />
    <path
       style="fill:none;stroke:#0000ff;stroke-width:1;stroke-linecap:round;stroke-linejoin:round;stroke-miterlimit:4;stroke-opacity:1;stroke-dasharray:1, 3;stroke-dashoffset:0"
       d="M 250.89194,909.14783 290.53728,793.75409"
       id="path4247"
       inkscape:connector-curvature="0" />
    <path
       style="fill:none;stroke:#0000ff;stroke-width:1;stroke-linecap:round;stroke-linejoin:round;stroke-miterlimit:4;stroke-opacity:1;stroke-dasharray:1, 3;stroke-dashoffset:0"
       d="m 250.89192,735.30786 39.64536,58.44623"
       id="path4251"
       inkscape:connector-curvature="0" />
    <path
       style="fill:none;stroke:#0000ff;stroke-width:1px;stroke-linecap:round;stroke-linejoin:round;stroke-opacity:1"
       d="m 250.89192,735.30786 86.92001,86.91998"
       id="path4253"
       inkscape:connector-curvature="0" />
  </g>
  <g
     inkscape:groupmode="layer"
     id="layer3"
     inkscape:label="coords"
     style="display:none"
     transform="translate(-39.64533,-28.473758)">
    <text
       transform="translate(-121.04361,-703.55111)"
       xml:space="preserve"
       style="font-size:12px;font-style:normal;font-weight:normal;text-align:center;line-height:125%;letter-spacing:0px;word-spacing:0px;text-anchor:middle;fill:#000000;fill-opacity:1;stroke:none;display:inline;font-family:Sans"
       x="251.59718"
       y="723.96558"
       id="text4255"
       sodipodi:linespacing="125%"><tspan
         sodipodi:role="line"
         id="tspan4257"
         x="251.59718"
         y="723.96558">$(0,0,1)$</tspan></text>
    <text
       transform="translate(-121.04361,-703.55111)"
       xml:space="preserve"
       style="font-size:12px;font-style:normal;font-weight:normal;text-align:start;line-height:125%;letter-spacing:0px;word-spacing:0px;text-anchor:start;fill:#000000;fill-opacity:1;stroke:none;display:inline;font-family:Sans"
       x="348.91541"
       y="822.17987"
       id="text4259"
       sodipodi:linespacing="125%"><tspan
         sodipodi:role="line"
         id="tspan4261"
         x="348.91541"
         y="822.17987">$(0,1,0)$</tspan></text>
    <text
       transform="translate(-121.04361,-703.55111)"
       xml:space="preserve"
       style="font-size:12px;font-style:normal;font-weight:normal;text-align:end;line-height:125%;letter-spacing:0px;word-spacing:0px;text-anchor:end;fill:#000000;fill-opacity:1;stroke:none;display:inline;font-family:Sans"
       x="193.20111"
       y="864.67987"
       id="text4263"
       sodipodi:linespacing="125%"><tspan
         sodipodi:role="line"
         id="tspan4265"
         x="193.20111"
         y="864.67987">$(1,0,0)$</tspan></text>
  </g>
  <g
     inkscape:groupmode="layer"
     id="layer2"
     inkscape:label="dual"
     style="display:none"
     transform="translate(-39.64533,-28.473758)">
    <path
       sodipodi:type="arc"
       style="fill:#000000;fill-opacity:1;stroke:none;display:inline"
       id="path2993-50"
       sodipodi:cx="-95.711952"
       sodipodi:cy="95.748398"
       sodipodi:rx="4.2931485"
       sodipodi:ry="4.2931485"
       d="m -91.418804,95.748398 c 0,2.37104 -1.922108,4.293152 -4.293148,4.293152 -2.371041,0 -4.293148,-1.922112 -4.293148,-4.293152 0,-2.371041 1.922107,-4.293149 4.293148,-4.293149 2.37104,0 4.293148,1.922108 4.293148,4.293149 z"
       transform="matrix(0.76470589,0,0,0.76470589,250.31448,-12.98887)" />
    <rect
       transform="translate(-121.04361,-703.55111)"
       style="fill:none;stroke:#000000;stroke-width:1.07895184;stroke-linecap:round;stroke-linejoin:round;stroke-miterlimit:4;stroke-opacity:1;stroke-dasharray:none;stroke-dashoffset:0;display:inline"
       id="rect5023"
       width="173.83998"
       height="173.83998"
       x="124.32661"
       y="763.78162" />
    <path
       transform="translate(-121.04361,-703.55111)"
       style="fill:none;stroke:#000000;stroke-width:1.07895184px;stroke-linecap:butt;stroke-linejoin:miter;stroke-opacity:1;display:inline"
       d="m 298.1666,763.7816 79.29066,-56.9475"
       id="path5731-7"
       inkscape:connector-curvature="0" />
    <path
       transform="translate(-121.04361,-703.55111)"
       style="fill:none;stroke:#000000;stroke-width:1.07895184px;stroke-linecap:butt;stroke-linejoin:miter;stroke-opacity:1;display:inline"
       d="m 203.61727,706.8341 173.83999,0 2e-5,173.83998"
       id="path5767"
       inkscape:connector-curvature="0" />
    <path
       transform="translate(-121.04361,-703.55111)"
       style="fill:none;stroke:#000000;stroke-width:1.07895184px;stroke-linecap:butt;stroke-linejoin:miter;stroke-opacity:1;display:inline"
       d="m 124.32662,763.7816 79.29065,-56.9475"
       id="path5731"
       inkscape:connector-curvature="0" />
    <path
       sodipodi:type="arc"
       style="fill:#000000;fill-opacity:1;stroke:none;display:inline"
       id="path2993"
       sodipodi:cx="-95.711952"
       sodipodi:cy="95.748398"
       sodipodi:rx="4.2931485"
       sodipodi:ry="4.2931485"
       d="m -91.418804,95.748398 c 0,2.37104 -1.922108,4.293152 -4.293148,4.293152 -2.371041,0 -4.293148,-1.922112 -4.293148,-4.293152 0,-2.371041 1.922107,-4.293149 4.293148,-4.293149 2.37104,0 4.293148,1.922108 4.293148,4.293149 z"
       transform="matrix(0.76470589,0,0,0.76470589,76.4745,-12.98887)" />
    <path
       transform="translate(-121.04361,-703.55111)"
       style="fill:none;stroke:#000000;stroke-width:1.079;stroke-linecap:butt;stroke-linejoin:miter;stroke-miterlimit:4;stroke-opacity:1;stroke-dasharray:1.079, 1.079;stroke-dashoffset:0;display:inline"
       d="m 203.61727,706.8341 1e-5,173.83998 173.84,0"
       id="path5765"
       inkscape:connector-curvature="0" />
    <path
       sodipodi:type="arc"
       style="fill:#000000;fill-opacity:1;stroke:none;display:inline"
       id="path2993-5"
       sodipodi:cx="-95.711952"
       sodipodi:cy="95.748398"
       sodipodi:rx="4.2931485"
       sodipodi:ry="4.2931485"
       d="m -91.418804,95.748398 c 0,2.37104 -1.922108,4.293152 -4.293148,4.293152 -2.371041,0 -4.293148,-1.922112 -4.293148,-4.293152 0,-2.371041 1.922107,-4.293149 4.293148,-4.293149 2.37104,0 4.293148,1.922108 4.293148,4.293149 z"
       transform="matrix(0.76470589,0,0,0.76470589,155.76515,-69.93637)" />
    <path
       transform="translate(-121.04361,-703.55111)"
       style="fill:none;stroke:#000000;stroke-width:1.079;stroke-linecap:butt;stroke-linejoin:miter;stroke-miterlimit:4;stroke-opacity:1;stroke-dasharray:1.079, 1.079;stroke-dashoffset:0;display:inline"
       d="m 124.32662,937.62158 79.29066,-56.9475"
       id="path5731-3"
       inkscape:connector-curvature="0" />
    <path
       sodipodi:type="arc"
       style="fill:#000000;fill-opacity:1;stroke:none;display:inline"
       id="path2993-8"
       sodipodi:cx="-95.711952"
       sodipodi:cy="95.748398"
       sodipodi:rx="4.2931485"
       sodipodi:ry="4.2931485"
       d="m -91.418804,95.748398 c 0,2.37104 -1.922108,4.293152 -4.293148,4.293152 -2.371041,0 -4.293148,-1.922112 -4.293148,-4.293152 0,-2.371041 1.922107,-4.293149 4.293148,-4.293149 2.37104,0 4.293148,1.922108 4.293148,4.293149 z"
       transform="matrix(0.76470589,0,0,0.76470589,155.76516,103.90361)" />
    <path
       sodipodi:type="arc"
       style="fill:#000000;fill-opacity:1;stroke:none;display:inline"
       id="path2993-3"
       sodipodi:cx="-95.711952"
       sodipodi:cy="95.748398"
       sodipodi:rx="4.2931485"
       sodipodi:ry="4.2931485"
       d="m -91.418804,95.748398 c 0,2.37104 -1.922108,4.293152 -4.293148,4.293152 -2.371041,0 -4.293148,-1.922112 -4.293148,-4.293152 0,-2.371041 1.922107,-4.293149 4.293148,-4.293149 2.37104,0 4.293148,1.922108 4.293148,4.293149 z"
       transform="matrix(0.76470589,0,0,0.76470589,76.47449,160.85111)" />
    <path
       transform="translate(-121.04361,-703.55111)"
       style="fill:none;stroke:#000000;stroke-width:1.07895184px;stroke-linecap:butt;stroke-linejoin:miter;stroke-opacity:1;display:inline"
       d="m 298.16662,937.62158 79.29066,-56.9475"
       id="path5731-5"
       inkscape:connector-curvature="0" />
    <path
       sodipodi:type="arc"
       style="fill:#000000;fill-opacity:1;stroke:none;display:inline"
       id="path2993-0"
       sodipodi:cx="-95.711952"
       sodipodi:cy="95.748398"
       sodipodi:rx="4.2931485"
       sodipodi:ry="4.2931485"
       d="m -91.418804,95.748398 c 0,2.37104 -1.922108,4.293152 -4.293148,4.293152 -2.371041,0 -4.293148,-1.922112 -4.293148,-4.293152 0,-2.371041 1.922107,-4.293149 4.293148,-4.293149 2.37104,0 4.293148,1.922108 4.293148,4.293149 z"
       transform="matrix(0.76470589,0,0,0.76470589,329.60516,103.90361)" />
    <path
       sodipodi:type="arc"
       style="fill:#000000;fill-opacity:1;stroke:none;display:inline"
       id="path2993-7"
       sodipodi:cx="-95.711952"
       sodipodi:cy="95.748398"
       sodipodi:rx="4.2931485"
       sodipodi:ry="4.2931485"
       d="m -91.418804,95.748398 c 0,2.37104 -1.922108,4.293152 -4.293148,4.293152 -2.371041,0 -4.293148,-1.922112 -4.293148,-4.293152 0,-2.371041 1.922107,-4.293149 4.293148,-4.293149 2.37104,0 4.293148,1.922108 4.293148,4.293149 z"
       transform="matrix(0.76470589,0,0,0.76470589,250.31448,160.85111)" />
    <path
       sodipodi:type="arc"
       style="fill:#000000;fill-opacity:1;stroke:none;display:inline"
       id="path2993-1"
       sodipodi:cx="-95.711952"
       sodipodi:cy="95.748398"
       sodipodi:rx="4.2931485"
       sodipodi:ry="4.2931485"
       d="m -91.418804,95.748398 c 0,2.37104 -1.922108,4.293152 -4.293148,4.293152 -2.371041,0 -4.293148,-1.922112 -4.293148,-4.293152 0,-2.371041 1.922107,-4.293149 4.293148,-4.293149 2.37104,0 4.293148,1.922108 4.293148,4.293149 z"
       transform="matrix(0.76470589,0,0,0.76470589,329.60514,-69.93637)" />
  </g>
</svg>
