<?xml version="1.0" encoding="UTF-8" standalone="no"?>
<!-- Created with Inkscape (http://www.inkscape.org/) -->

<svg
   xmlns:dc="http://purl.org/dc/elements/1.1/"
   xmlns:cc="http://creativecommons.org/ns#"
   xmlns:rdf="http://www.w3.org/1999/02/22-rdf-syntax-ns#"
   xmlns:svg="http://www.w3.org/2000/svg"
   xmlns="http://www.w3.org/2000/svg"
   xmlns:sodipodi="http://sodipodi.sourceforge.net/DTD/sodipodi-0.dtd"
   xmlns:inkscape="http://www.inkscape.org/namespaces/inkscape"
   width="579.20581"
   height="258.72705"
   id="svg2"
   version="1.1"
   inkscape:version="0.48.3.1 r9886"
   sodipodi:docname="Nuevo documento 1">
  <defs
     id="defs4" />
  <sodipodi:namedview
     id="base"
     pagecolor="#ffffff"
     bordercolor="#666666"
     borderopacity="1.0"
     inkscape:pageopacity="0.0"
     inkscape:pageshadow="2"
     inkscape:zoom="1.4"
     inkscape:cx="287.49435"
     inkscape:cy="138.44115"
     inkscape:document-units="px"
     inkscape:current-layer="layer1"
     showgrid="false"
     inkscape:object-nodes="true"
     fit-margin-top="0"
     fit-margin-left="0"
     fit-margin-right="0"
     fit-margin-bottom="0"
     inkscape:snap-object-midpoints="true"
     inkscape:window-width="1280"
     inkscape:window-height="744"
     inkscape:window-x="0"
     inkscape:window-y="27"
     inkscape:window-maximized="1" />
  <metadata
     id="metadata7">
    <rdf:RDF>
      <cc:Work
         rdf:about="">
        <dc:format>image/svg+xml</dc:format>
        <dc:type
           rdf:resource="http://purl.org/dc/dcmitype/StillImage" />
        <dc:title></dc:title>
      </cc:Work>
    </rdf:RDF>
  </metadata>
  <g
     inkscape:label="Capa 1"
     inkscape:groupmode="layer"
     id="layer1"
     transform="translate(-71.048673,-119.45347)">
    <path
       sodipodi:type="star"
       style="opacity:0.86000001;fill:none;stroke:#000000;stroke-width:2;stroke-linecap:round;stroke-linejoin:round;stroke-miterlimit:4;stroke-opacity:1;stroke-dasharray:none;stroke-dashoffset:0"
       id="path2985"
       sodipodi:sides="5"
       sodipodi:cx="52.527931"
       sodipodi:cy="230.09801"
       sodipodi:r1="130.94632"
       sodipodi:r2="105.9378"
       sodipodi:arg1="0.90569364"
       sodipodi:arg2="1.5340122"
       inkscape:flatsided="true"
       inkscape:rounded="0"
       inkscape:randomized="0"
       d="M 133.34013,333.13357 -20.492364,338.79472 -73.413297,194.24071 47.712268,99.240268 175.49292,185.08077 z"
       inkscape:transform-center-x="1.4881219"
       inkscape:transform-center-y="-11.080514"
       transform="translate(151.52288,32.324881)" />
    <path
       style="fill:none;stroke:#000000;stroke-width:2;stroke-linecap:round;stroke-linejoin:round;stroke-miterlimit:4;stroke-opacity:1;stroke-dasharray:none"
       d="m 394.28733,221.51483 248.90622,-9.15994 -195.98528,153.71395 68.20463,-239.55445 85.62786,233.8933 z"
       id="path2991"
       inkscape:connector-curvature="0" />
    <path
       sodipodi:type="arc"
       style="opacity:0.86000001;fill:#000000;stroke:#000000;stroke-width:2;stroke-linecap:round;stroke-linejoin:round;stroke-miterlimit:4;stroke-opacity:1;stroke-dasharray:none;stroke-dashoffset:0"
       id="path3761"
       sodipodi:cx="255.56859"
       sodipodi:cy="59.72699"
       sodipodi:rx="6.0609155"
       sodipodi:ry="6.0609155"
       d="m 261.6295,59.72699 c 0,3.347351 -2.71356,6.060915 -6.06091,6.060915 -3.34735,0 -6.06092,-2.713564 -6.06092,-6.060915 0,-3.347351 2.71357,-6.060916 6.06092,-6.060916 3.34735,0 6.06091,2.713565 6.06091,6.060916 z"
       transform="translate(-56.333441,71.838159)" />
    <path
       sodipodi:type="arc"
       style="opacity:0.86000001;fill:#000000;stroke:#000000;stroke-width:2;stroke-linecap:round;stroke-linejoin:round;stroke-miterlimit:4;stroke-opacity:1;stroke-dasharray:none;stroke-dashoffset:0"
       id="path3761-6"
       sodipodi:cx="255.56859"
       sodipodi:cy="59.72699"
       sodipodi:rx="6.0609155"
       sodipodi:ry="6.0609155"
       d="m 261.6295,59.72699 c 0,3.347351 -2.71356,6.060915 -6.06091,6.060915 -3.34735,0 -6.06092,-2.713564 -6.06092,-6.060915 0,-3.347351 2.71357,-6.060916 6.06092,-6.060916 3.34735,0 6.06091,2.713565 6.06091,6.060916 z"
       transform="translate(-177.459,166.8386)" />
    <path
       sodipodi:type="arc"
       style="opacity:0.86000001;fill:#000000;stroke:#000000;stroke-width:2;stroke-linecap:round;stroke-linejoin:round;stroke-miterlimit:4;stroke-opacity:1;stroke-dasharray:none;stroke-dashoffset:0"
       id="path3761-5"
       sodipodi:cx="255.56859"
       sodipodi:cy="59.72699"
       sodipodi:rx="6.0609155"
       sodipodi:ry="6.0609155"
       d="m 261.6295,59.72699 c 0,3.347351 -2.71356,6.060915 -6.06091,6.060915 -3.34735,0 -6.06092,-2.713564 -6.06092,-6.060915 0,-3.347351 2.71357,-6.060916 6.06092,-6.060916 3.34735,0 6.06091,2.713565 6.06091,6.060916 z"
       transform="translate(71.447207,157.67866)" />
    <path
       sodipodi:type="arc"
       style="opacity:0.86000001;fill:#000000;stroke:#000000;stroke-width:2;stroke-linecap:round;stroke-linejoin:round;stroke-miterlimit:4;stroke-opacity:1;stroke-dasharray:none;stroke-dashoffset:0"
       id="path3761-8"
       sodipodi:cx="255.56859"
       sodipodi:cy="59.72699"
       sodipodi:rx="6.0609155"
       sodipodi:ry="6.0609155"
       d="m 261.6295,59.72699 c 0,3.347351 -2.71356,6.060915 -6.06091,6.060915 -3.34735,0 -6.06092,-2.713564 -6.06092,-6.060915 0,-3.347351 2.71357,-6.060916 6.06092,-6.060916 3.34735,0 6.06091,2.713565 6.06091,6.060916 z"
       transform="translate(29.294426,305.73146)" />
    <path
       sodipodi:type="arc"
       style="opacity:0.86000001;fill:#000000;stroke:#000000;stroke-width:2;stroke-linecap:round;stroke-linejoin:round;stroke-miterlimit:4;stroke-opacity:1;stroke-dasharray:none;stroke-dashoffset:0"
       id="path3761-9"
       sodipodi:cx="255.56859"
       sodipodi:cy="59.72699"
       sodipodi:rx="6.0609155"
       sodipodi:ry="6.0609155"
       d="m 261.6295,59.72699 c 0,3.347351 -2.71356,6.060915 -6.06091,6.060915 -3.34735,0 -6.06092,-2.713564 -6.06092,-6.060915 0,-3.347351 2.71357,-6.060916 6.06092,-6.060916 3.34735,0 6.06091,2.713565 6.06091,6.060916 z"
       transform="translate(-124.53807,311.39261)" />
    <path
       sodipodi:type="arc"
       style="opacity:0.86000001;fill:#000000;stroke:#000000;stroke-width:2;stroke-linecap:round;stroke-linejoin:round;stroke-miterlimit:4;stroke-opacity:1;stroke-dasharray:none;stroke-dashoffset:0"
       id="path3761-87"
       sodipodi:cx="255.56859"
       sodipodi:cy="59.72699"
       sodipodi:rx="6.0609155"
       sodipodi:ry="6.0609155"
       d="m 261.6295,59.72699 c 0,3.347351 -2.71356,6.060915 -6.06091,6.060915 -3.34735,0 -6.06092,-2.713564 -6.06092,-6.060915 0,-3.347351 2.71357,-6.060916 6.06092,-6.060916 3.34735,0 6.06091,2.713565 6.06091,6.060916 z"
       transform="translate(138.71874,161.78784)" />
    <path
       sodipodi:type="arc"
       style="opacity:0.86000001;fill:#000000;stroke:#000000;stroke-width:2;stroke-linecap:round;stroke-linejoin:round;stroke-miterlimit:4;stroke-opacity:1;stroke-dasharray:none;stroke-dashoffset:0"
       id="path3761-52"
       sodipodi:cx="255.56859"
       sodipodi:cy="59.72699"
       sodipodi:rx="6.0609155"
       sodipodi:ry="6.0609155"
       d="m 261.6295,59.72699 c 0,3.347351 -2.71356,6.060915 -6.06091,6.060915 -3.34735,0 -6.06092,-2.713564 -6.06092,-6.060915 0,-3.347351 2.71357,-6.060916 6.06092,-6.060916 3.34735,0 6.06091,2.713565 6.06091,6.060916 z"
       transform="translate(387.62496,152.6279)" />
    <path
       sodipodi:type="arc"
       style="opacity:0.86000001;fill:#000000;stroke:#000000;stroke-width:2;stroke-linecap:round;stroke-linejoin:round;stroke-miterlimit:4;stroke-opacity:1;stroke-dasharray:none;stroke-dashoffset:0"
       id="path3761-1"
       sodipodi:cx="255.56859"
       sodipodi:cy="59.72699"
       sodipodi:rx="6.0609155"
       sodipodi:ry="6.0609155"
       d="m 261.6295,59.72699 c 0,3.347351 -2.71356,6.060915 -6.06091,6.060915 -3.34735,0 -6.06092,-2.713564 -6.06092,-6.060915 0,-3.347351 2.71357,-6.060916 6.06092,-6.060916 3.34735,0 6.06091,2.713565 6.06091,6.060916 z"
       transform="translate(191.63968,306.34185)" />
    <path
       sodipodi:type="arc"
       style="opacity:0.86000001;fill:#000000;stroke:#000000;stroke-width:2;stroke-linecap:round;stroke-linejoin:round;stroke-miterlimit:4;stroke-opacity:1;stroke-dasharray:none;stroke-dashoffset:0"
       id="path3761-7"
       sodipodi:cx="255.56859"
       sodipodi:cy="59.72699"
       sodipodi:rx="6.0609155"
       sodipodi:ry="6.0609155"
       d="m 261.6295,59.72699 c 0,3.347351 -2.71356,6.060915 -6.06091,6.060915 -3.34735,0 -6.06092,-2.713564 -6.06092,-6.060915 0,-3.347351 2.71357,-6.060916 6.06092,-6.060916 3.34735,0 6.06091,2.713565 6.06091,6.060916 z"
       transform="translate(259.84431,66.7874)" />
    <path
       sodipodi:type="arc"
       style="opacity:0.86000001;fill:#000000;stroke:#000000;stroke-width:2;stroke-linecap:round;stroke-linejoin:round;stroke-miterlimit:4;stroke-opacity:1;stroke-dasharray:none;stroke-dashoffset:0"
       id="path3761-62"
       sodipodi:cx="255.56859"
       sodipodi:cy="59.72699"
       sodipodi:rx="6.0609155"
       sodipodi:ry="6.0609155"
       d="m 261.6295,59.72699 c 0,3.347351 -2.71356,6.060915 -6.06091,6.060915 -3.34735,0 -6.06092,-2.713564 -6.06092,-6.060915 0,-3.347351 2.71357,-6.060916 6.06092,-6.060916 3.34735,0 6.06091,2.713565 6.06091,6.060916 z"
       transform="translate(345.47217,300.6807)" />
  </g>
</svg>
